<svg width="138" height="32" viewBox="0 0 138 32" fill="none" xmlns="http://www.w3.org/2000/svg">
<path d="M8.866 16.242C7.70733 16.242 6.62933 16.044 5.632 15.648C4.64933 15.2373 3.784 14.6653 3.036 13.932C2.30267 13.1987 1.73067 12.348 1.32 11.38C0.909333 10.3973 0.704 9.34133 0.704 8.212C0.704 7.08267 0.909333 6.034 1.32 5.066C1.73067 4.08333 2.30267 3.23267 3.036 2.514C3.76933 1.79533 4.62733 1.238 5.61 0.842C6.60733 0.431333 7.68533 0.226 8.844 0.226C10.076 0.226 11.1687 0.423999 12.122 0.819999C13.09 1.216 13.9333 1.75867 14.652 2.448L12.342 4.78C11.9313 4.34 11.4327 3.99533 10.846 3.746C10.274 3.49667 9.60667 3.372 8.844 3.372C8.16933 3.372 7.546 3.48933 6.974 3.724C6.41667 3.944 5.93267 4.26667 5.522 4.692C5.126 5.11733 4.81067 5.63067 4.576 6.232C4.356 6.83333 4.246 7.49333 4.246 8.212C4.246 8.94533 4.356 9.61267 4.576 10.214C4.81067 10.8153 5.126 11.3287 5.522 11.754C5.93267 12.1793 6.41667 12.5093 6.974 12.744C7.546 12.9787 8.16933 13.096 8.844 13.096C9.636 13.096 10.3253 12.9713 10.912 12.722C11.4987 12.4727 12.0047 12.128 12.43 11.688L14.762 14.02C14.014 14.7093 13.156 15.252 12.188 15.648C11.2347 16.044 10.1273 16.242 8.866 16.242ZM23.4549 16.264C22.2816 16.264 21.1963 16.0587 20.1989 15.648C19.2163 15.2373 18.3509 14.6653 17.6029 13.932C16.8549 13.1987 16.2756 12.348 15.8649 11.38C15.4543 10.3973 15.2489 9.34133 15.2489 8.212C15.2489 7.068 15.4543 6.012 15.8649 5.044C16.2756 4.076 16.8476 3.23267 17.5809 2.514C18.3143 1.78067 19.1723 1.216 20.1549 0.819999C21.1523 0.409332 22.2376 0.203999 23.4109 0.203999C24.5696 0.203999 25.6403 0.409332 26.6229 0.819999C27.6203 1.216 28.4856 1.78067 29.2189 2.514C29.9669 3.23267 30.5463 4.08333 30.9569 5.066C31.3676 6.034 31.5729 7.09 31.5729 8.234C31.5729 9.36333 31.3676 10.4193 30.9569 11.402C30.5463 12.37 29.9743 13.2207 29.2409 13.954C28.5076 14.6727 27.6423 15.2373 26.6449 15.648C25.6623 16.0587 24.5989 16.264 23.4549 16.264ZM23.4109 13.118C24.3349 13.118 25.1416 12.9127 25.8309 12.502C26.5349 12.0913 27.0776 11.5193 27.4589 10.786C27.8403 10.038 28.0309 9.18 28.0309 8.212C28.0309 7.47867 27.9209 6.81867 27.7009 6.232C27.4809 5.63067 27.1656 5.11733 26.7549 4.692C26.3443 4.252 25.8529 3.922 25.2809 3.702C24.7236 3.46733 24.1003 3.35 23.4109 3.35C22.4869 3.35 21.6729 3.55533 20.9689 3.966C20.2796 4.362 19.7443 4.92667 19.3629 5.66C18.9816 6.37867 18.7909 7.22933 18.7909 8.212C18.7909 8.94533 18.9009 9.61267 19.1209 10.214C19.3409 10.8153 19.6489 11.336 20.0449 11.776C20.4556 12.2013 20.9469 12.5313 21.5189 12.766C22.0909 13.0007 22.7216 13.118 23.4109 13.118ZM36.0975 16V12.964H39.9475C40.8862 12.964 41.7075 12.7807 42.4115 12.414C43.1155 12.0327 43.6582 11.4827 44.0395 10.764C44.4209 10.0453 44.6115 9.19467 44.6115 8.212C44.6115 7.22933 44.4135 6.386 44.0175 5.682C43.6362 4.978 43.0935 4.43533 42.3895 4.054C41.7002 3.67267 40.8862 3.482 39.9475 3.482H35.9875V0.467999H39.9915C41.1649 0.467999 42.2429 0.658666 43.2255 1.04C44.2229 1.40667 45.0882 1.942 45.8215 2.646C46.5695 3.33533 47.1415 4.15667 47.5375 5.11C47.9482 6.04867 48.1535 7.09 48.1535 8.234C48.1535 9.36333 47.9482 10.4047 47.5375 11.358C47.1415 12.3113 46.5769 13.1327 45.8435 13.822C45.1102 14.5113 44.2449 15.0467 43.2475 15.428C42.2649 15.8093 41.1942 16 40.0355 16H36.0975ZM33.7655 16V0.467999H37.2195V16H33.7655ZM50.3515 16V0.467999H53.8055V16H50.3515ZM52.9915 16V13.008H61.5055V16H52.9915ZM52.9915 9.51V6.628H60.7355V9.51H52.9915ZM52.9915 3.438V0.467999H61.3955V3.438H52.9915ZM73.5886 16L66.4606 8.168C65.9033 7.552 65.5 6.97267 65.2506 6.43C65.0013 5.87267 64.8766 5.264 64.8766 4.604C64.8766 3.812 65.0746 3.086 65.4706 2.426C65.8813 1.75133 66.4313 1.216 67.1206 0.819999C67.8246 0.409332 68.6386 0.203999 69.5626 0.203999C70.2813 0.203999 70.9193 0.313999 71.4766 0.534C72.034 0.739333 72.518 1.01067 72.9286 1.348C73.3393 1.67067 73.6546 2.01533 73.8746 2.382L71.6306 4.516C71.3373 4.12 71.0293 3.81933 70.7066 3.614C70.3986 3.40867 70.032 3.306 69.6066 3.306C69.1666 3.306 68.8 3.438 68.5066 3.702C68.228 3.95133 68.0886 4.26667 68.0886 4.648C68.0886 4.97067 68.1546 5.25667 68.2866 5.506C68.4333 5.75533 68.6386 6.034 68.9026 6.342L77.5266 16H73.5886ZM68.4846 16.242C67.4286 16.242 66.5046 16.0367 65.7126 15.626C64.9353 15.2007 64.3266 14.6287 63.8866 13.91C63.4613 13.1767 63.2486 12.3627 63.2486 11.468C63.2486 10.5 63.5053 9.642 64.0186 8.894C64.532 8.13133 65.302 7.51533 66.3286 7.046L67.7586 9.224C67.3186 9.42933 66.9886 9.70067 66.7686 10.038C66.5486 10.3753 66.4386 10.7787 66.4386 11.248C66.4386 11.6293 66.5193 11.9667 66.6806 12.26C66.8566 12.5387 67.106 12.7587 67.4286 12.92C67.7513 13.0813 68.1326 13.162 68.5726 13.162C69.0713 13.162 69.4966 13.0593 69.8486 12.854C70.2153 12.634 70.5233 12.3333 70.7726 11.952L73.0386 14.284C72.7893 14.6067 72.43 14.922 71.9606 15.23C71.506 15.5233 70.978 15.7653 70.3766 15.956C69.79 16.1467 69.1593 16.242 68.4846 16.242ZM84.7918 16.242C83.6331 16.242 82.5551 16.044 81.5578 15.648C80.5751 15.2373 79.7098 14.6653 78.9618 13.932C78.2284 13.1987 77.6564 12.348 77.2458 11.38C76.8351 10.3973 76.6298 9.34133 76.6298 8.212C76.6298 7.08267 76.8351 6.034 77.2458 5.066C77.6564 4.08333 78.2284 3.23267 78.9618 2.514C79.6951 1.79533 80.5531 1.238 81.5358 0.842C82.5331 0.431333 83.6111 0.226 84.7698 0.226C86.0018 0.226 87.0944 0.423999 88.0478 0.819999C89.0158 1.216 89.8591 1.75867 90.5778 2.448L88.2678 4.78C87.8571 4.34 87.3584 3.99533 86.7718 3.746C86.1998 3.49667 85.5324 3.372 84.7698 3.372C84.0951 3.372 83.4718 3.48933 82.8998 3.724C82.3424 3.944 81.8584 4.26667 81.4478 4.692C81.0518 5.11733 80.7364 5.63067 80.5018 6.232C80.2818 6.83333 80.1718 7.49333 80.1718 8.212C80.1718 8.94533 80.2818 9.61267 80.5018 10.214C80.7364 10.8153 81.0518 11.3287 81.4478 11.754C81.8584 12.1793 82.3424 12.5093 82.8998 12.744C83.4718 12.9787 84.0951 13.096 84.7698 13.096C85.5618 13.096 86.2511 12.9713 86.8378 12.722C87.4244 12.4727 87.9304 12.128 88.3558 11.688L90.6878 14.02C89.9398 14.7093 89.0818 15.252 88.1138 15.648C87.1604 16.044 86.0531 16.242 84.7918 16.242ZM92.5898 16V0.467999H96.0438V16H92.5898ZM102.204 16V0.467999H105.68V16H102.204ZM94.6578 9.51V6.518H103.348V9.51H94.6578ZM108.66 16V0.467999H112.114V16H108.66ZM115.105 16V0.467999H118.559V16H115.105ZM117.767 16V12.964H125.445V16H117.767ZM127.437 16V0.467999H130.891V16H127.437ZM130.099 16V12.964H137.777V16H130.099ZM1.88 26.43V25.21H3.4C3.59333 25.21 3.77 25.17 3.93 25.09C4.09 25.01 4.21667 24.8933 4.31 24.74C4.40333 24.5867 4.45 24.4 4.45 24.18C4.45 23.9667 4.40333 23.7833 4.31 23.63C4.21667 23.4767 4.09 23.36 3.93 23.28C3.77 23.2 3.59333 23.16 3.4 23.16H1.88V21.94H3.63C4.07667 21.94 4.48 22.03 4.84 22.21C5.2 22.39 5.48333 22.65 5.69 22.99C5.90333 23.3233 6.01 23.72 6.01 24.18C6.01 24.64 5.90333 25.04 5.69 25.38C5.48333 25.7133 5.2 25.9733 4.84 26.16C4.48 26.34 4.07667 26.43 3.63 26.43H1.88ZM0.68 29V21.94H2.25V29H0.68ZM6.8193 29V24.14H8.3493V29H6.8193ZM8.3493 26.33L7.7093 25.83C7.83596 25.2633 8.0493 24.8233 8.3493 24.51C8.6493 24.1967 9.06596 24.04 9.5993 24.04C9.83263 24.04 10.036 24.0767 10.2093 24.15C10.3893 24.2167 10.546 24.3233 10.6793 24.47L9.7693 25.62C9.70263 25.5467 9.6193 25.49 9.5193 25.45C9.4193 25.41 9.30596 25.39 9.1793 25.39C8.92596 25.39 8.72263 25.47 8.5693 25.63C8.42263 25.7833 8.3493 26.0167 8.3493 26.33ZM13.3502 29.11C12.8235 29.11 12.3535 29.0033 11.9402 28.79C11.5335 28.57 11.2135 28.2667 10.9802 27.88C10.7468 27.4933 10.6302 27.0567 10.6302 26.57C10.6302 26.0833 10.7435 25.65 10.9702 25.27C11.2035 24.8833 11.5168 24.58 11.9102 24.36C12.3035 24.14 12.7468 24.03 13.2402 24.03C13.7202 24.03 14.1435 24.1333 14.5102 24.34C14.8768 24.5467 15.1635 24.8333 15.3702 25.2C15.5835 25.5667 15.6902 25.9867 15.6902 26.46C15.6902 26.5467 15.6835 26.64 15.6702 26.74C15.6635 26.8333 15.6468 26.9433 15.6202 27.07L11.4302 27.08V26.03L14.9702 26.02L14.3102 26.46C14.3035 26.18 14.2602 25.95 14.1802 25.77C14.1002 25.5833 13.9802 25.4433 13.8202 25.35C13.6668 25.25 13.4768 25.2 13.2502 25.2C13.0102 25.2 12.8002 25.2567 12.6202 25.37C12.4468 25.4767 12.3102 25.63 12.2102 25.83C12.1168 26.03 12.0702 26.2733 12.0702 26.56C12.0702 26.8467 12.1202 27.0933 12.2202 27.3C12.3268 27.5 12.4735 27.6567 12.6602 27.77C12.8535 27.8767 13.0802 27.93 13.3402 27.93C13.5802 27.93 13.7968 27.89 13.9902 27.81C14.1835 27.7233 14.3535 27.5967 14.5002 27.43L15.3402 28.27C15.1002 28.55 14.8102 28.76 14.4702 28.9C14.1302 29.04 13.7568 29.11 13.3502 29.11ZM18.7787 29.11C18.2787 29.11 17.8253 29 17.4187 28.78C17.012 28.56 16.692 28.2567 16.4587 27.87C16.2253 27.4833 16.1087 27.05 16.1087 26.57C16.1087 26.0833 16.2253 25.65 16.4587 25.27C16.6987 24.8833 17.022 24.58 17.4287 24.36C17.8353 24.14 18.292 24.03 18.7987 24.03C19.1787 24.03 19.5253 24.0967 19.8387 24.23C20.1587 24.3567 20.442 24.55 20.6887 24.81L19.7087 25.79C19.5953 25.6633 19.462 25.57 19.3087 25.51C19.162 25.45 18.992 25.42 18.7987 25.42C18.5787 25.42 18.382 25.47 18.2087 25.57C18.042 25.6633 17.9087 25.7967 17.8087 25.97C17.7153 26.1367 17.6687 26.3333 17.6687 26.56C17.6687 26.7867 17.7153 26.9867 17.8087 27.16C17.9087 27.3333 18.0453 27.47 18.2187 27.57C18.392 27.67 18.5853 27.72 18.7987 27.72C18.9987 27.72 19.1753 27.6867 19.3287 27.62C19.4887 27.5467 19.6253 27.4467 19.7387 27.32L20.7087 28.3C20.4553 28.5667 20.1687 28.77 19.8487 28.91C19.5287 29.0433 19.172 29.11 18.7787 29.11ZM21.3896 29V24.14H22.9196V29H21.3896ZM22.1596 23.47C21.9196 23.47 21.7196 23.39 21.5596 23.23C21.4063 23.0633 21.3296 22.8633 21.3296 22.63C21.3296 22.39 21.4063 22.19 21.5596 22.03C21.7196 21.87 21.9196 21.79 22.1596 21.79C22.3996 21.79 22.5963 21.87 22.7496 22.03C22.9029 22.19 22.9796 22.39 22.9796 22.63C22.9796 22.8633 22.9029 23.0633 22.7496 23.23C22.5963 23.39 22.3996 23.47 22.1596 23.47ZM25.767 29.12C25.4804 29.12 25.197 29.0833 24.917 29.01C24.6437 28.9367 24.387 28.8333 24.147 28.7C23.9137 28.56 23.7137 28.4 23.547 28.22L24.417 27.34C24.577 27.5133 24.767 27.65 24.987 27.75C25.207 27.8433 25.447 27.89 25.707 27.89C25.887 27.89 26.0237 27.8633 26.117 27.81C26.217 27.7567 26.267 27.6833 26.267 27.59C26.267 27.47 26.207 27.38 26.087 27.32C25.9737 27.2533 25.827 27.1967 25.647 27.15C25.467 27.0967 25.277 27.04 25.077 26.98C24.877 26.92 24.687 26.8367 24.507 26.73C24.327 26.6233 24.1804 26.4767 24.067 26.29C23.9537 26.0967 23.897 25.8533 23.897 25.56C23.897 25.2467 23.977 24.9767 24.137 24.75C24.297 24.5167 24.5237 24.3333 24.817 24.2C25.1104 24.0667 25.4537 24 25.847 24C26.2604 24 26.6404 24.0733 26.987 24.22C27.3404 24.36 27.627 24.57 27.847 24.85L26.977 25.73C26.8237 25.55 26.6504 25.4233 26.457 25.35C26.2704 25.2767 26.087 25.24 25.907 25.24C25.7337 25.24 25.6037 25.2667 25.517 25.32C25.4304 25.3667 25.387 25.4367 25.387 25.53C25.387 25.63 25.4437 25.71 25.557 25.77C25.6704 25.83 25.817 25.8833 25.997 25.93C26.177 25.9767 26.367 26.0333 26.567 26.1C26.767 26.1667 26.957 26.2567 27.137 26.37C27.317 26.4833 27.4637 26.6367 27.577 26.83C27.6904 27.0167 27.747 27.2633 27.747 27.57C27.747 28.0433 27.567 28.42 27.207 28.7C26.8537 28.98 26.3737 29.12 25.767 29.12ZM28.5771 29V24.14H30.1071V29H28.5771ZM29.3471 23.47C29.1071 23.47 28.9071 23.39 28.7471 23.23C28.5938 23.0633 28.5171 22.8633 28.5171 22.63C28.5171 22.39 28.5938 22.19 28.7471 22.03C28.9071 21.87 29.1071 21.79 29.3471 21.79C29.5871 21.79 29.7838 21.87 29.9371 22.03C30.0904 22.19 30.1671 22.39 30.1671 22.63C30.1671 22.8633 30.0904 23.0633 29.9371 23.23C29.7838 23.39 29.5871 23.47 29.3471 23.47ZM33.5245 29.11C33.0245 29.11 32.5712 29 32.1645 28.78C31.7645 28.5533 31.4479 28.2467 31.2145 27.86C30.9812 27.4733 30.8645 27.04 30.8645 26.56C30.8645 26.08 30.9812 25.65 31.2145 25.27C31.4479 24.89 31.7645 24.59 32.1645 24.37C32.5645 24.1433 33.0179 24.03 33.5245 24.03C34.0312 24.03 34.4845 24.14 34.8845 24.36C35.2845 24.58 35.6012 24.8833 35.8345 25.27C36.0679 25.65 36.1845 26.08 36.1845 26.56C36.1845 27.04 36.0679 27.4733 35.8345 27.86C35.6012 28.2467 35.2845 28.5533 34.8845 28.78C34.4845 29 34.0312 29.11 33.5245 29.11ZM33.5245 27.72C33.7445 27.72 33.9379 27.6733 34.1045 27.58C34.2712 27.48 34.3979 27.3433 34.4845 27.17C34.5779 26.99 34.6245 26.7867 34.6245 26.56C34.6245 26.3333 34.5779 26.1367 34.4845 25.97C34.3912 25.7967 34.2612 25.6633 34.0945 25.57C33.9345 25.47 33.7445 25.42 33.5245 25.42C33.3112 25.42 33.1212 25.47 32.9545 25.57C32.7879 25.6633 32.6579 25.7967 32.5645 25.97C32.4712 26.1433 32.4245 26.3433 32.4245 26.57C32.4245 26.79 32.4712 26.99 32.5645 27.17C32.6579 27.3433 32.7879 27.48 32.9545 27.58C33.1212 27.6733 33.3112 27.72 33.5245 27.72ZM40.1563 29V26.23C40.1563 25.9767 40.0763 25.7733 39.9163 25.62C39.7629 25.46 39.5663 25.38 39.3263 25.38C39.1596 25.38 39.0129 25.4167 38.8863 25.49C38.7596 25.5567 38.6596 25.6567 38.5863 25.79C38.5129 25.9167 38.4763 26.0633 38.4763 26.23L37.8863 25.94C37.8863 25.56 37.9696 25.2267 38.1363 24.94C38.3029 24.6533 38.5329 24.4333 38.8263 24.28C39.1263 24.12 39.4629 24.04 39.8363 24.04C40.1963 24.04 40.5129 24.1267 40.7863 24.3C41.0663 24.4667 41.2863 24.69 41.4463 24.97C41.6063 25.25 41.6862 25.5567 41.6862 25.89V29H40.1563ZM36.9463 29V24.14H38.4763V29H36.9463ZM42.6689 30.2L43.3989 28.84L43.8489 28.71C43.8022 28.81 43.7456 28.8933 43.6789 28.96C43.6122 29.02 43.5356 29.05 43.4489 29.05C43.2556 29.05 43.0789 28.97 42.9189 28.81C42.7589 28.65 42.6789 28.45 42.6789 28.21C42.6789 27.95 42.7656 27.7267 42.9389 27.54C43.1189 27.3533 43.3389 27.26 43.5989 27.26C43.8456 27.26 44.0589 27.3533 44.2389 27.54C44.4256 27.72 44.5189 27.9433 44.5189 28.21C44.5189 28.3167 44.4989 28.44 44.4589 28.58C44.4189 28.72 44.3389 28.9033 44.2189 29.13L43.4089 30.61L42.6689 30.2ZM48.5952 29L46.9152 24.14H48.4152L49.4552 27.67L49.0152 27.68L50.1652 24.14H51.4052L52.5652 27.68L52.1152 27.67L53.1652 24.14H54.6652L52.9852 29H51.7352L50.6052 25.64H50.9852L49.8352 29H48.5952ZM55.1787 29V24.14H56.7087V29H55.1787ZM55.9487 23.47C55.7087 23.47 55.5087 23.39 55.3487 23.23C55.1953 23.0633 55.1187 22.8633 55.1187 22.63C55.1187 22.39 55.1953 22.19 55.3487 22.03C55.5087 21.87 55.7087 21.79 55.9487 21.79C56.1887 21.79 56.3853 21.87 56.5387 22.03C56.692 22.19 56.7687 22.39 56.7687 22.63C56.7687 22.8633 56.692 23.0633 56.5387 23.23C56.3853 23.39 56.1887 23.47 55.9487 23.47ZM58.4761 29V22.13H60.0061V29H58.4761ZM57.3761 25.44V24.14H61.1061V25.44H57.3761ZM64.9902 29V26.23C64.9902 25.9767 64.9102 25.7733 64.7502 25.62C64.5969 25.46 64.4002 25.38 64.1602 25.38C63.9936 25.38 63.8469 25.4167 63.7202 25.49C63.5936 25.5567 63.4936 25.6567 63.4202 25.79C63.3469 25.9167 63.3102 26.0633 63.3102 26.23L62.7202 25.94C62.7202 25.56 62.8002 25.2267 62.9602 24.94C63.1202 24.6533 63.3436 24.4333 63.6302 24.28C63.9169 24.12 64.2469 24.04 64.6202 24.04C65.0002 24.04 65.3336 24.12 65.6202 24.28C65.9069 24.4333 66.1269 24.65 66.2802 24.93C66.4402 25.2033 66.5202 25.5233 66.5202 25.89V29H64.9902ZM61.7802 29V21.74H63.3102V29H61.7802ZM69.8429 29.11C69.3429 29.11 68.8896 29 68.4829 28.78C68.0829 28.5533 67.7662 28.2467 67.5329 27.86C67.2996 27.4733 67.1829 27.04 67.1829 26.56C67.1829 26.08 67.2996 25.65 67.5329 25.27C67.7662 24.89 68.0829 24.59 68.4829 24.37C68.8829 24.1433 69.3362 24.03 69.8429 24.03C70.3496 24.03 70.8029 24.14 71.2029 24.36C71.6029 24.58 71.9196 24.8833 72.1529 25.27C72.3862 25.65 72.5029 26.08 72.5029 26.56C72.5029 27.04 72.3862 27.4733 72.1529 27.86C71.9196 28.2467 71.6029 28.5533 71.2029 28.78C70.8029 29 70.3496 29.11 69.8429 29.11ZM69.8429 27.72C70.0629 27.72 70.2562 27.6733 70.4229 27.58C70.5896 27.48 70.7162 27.3433 70.8029 27.17C70.8962 26.99 70.9429 26.7867 70.9429 26.56C70.9429 26.3333 70.8962 26.1367 70.8029 25.97C70.7096 25.7967 70.5796 25.6633 70.4129 25.57C70.2529 25.47 70.0629 25.42 69.8429 25.42C69.6296 25.42 69.4396 25.47 69.2729 25.57C69.1062 25.6633 68.9762 25.7967 68.8829 25.97C68.7896 26.1433 68.7429 26.3433 68.7429 26.57C68.7429 26.79 68.7896 26.99 68.8829 27.17C68.9762 27.3433 69.1062 27.48 69.2729 27.58C69.4396 27.6733 69.6296 27.72 69.8429 27.72ZM75.4246 29.11C74.9779 29.11 74.5813 29.02 74.2346 28.84C73.8946 28.6533 73.6279 28.4 73.4346 28.08C73.2413 27.7533 73.1446 27.38 73.1446 26.96V24.14H74.6746V26.94C74.6746 27.1067 74.7013 27.25 74.7546 27.37C74.8146 27.49 74.9013 27.5833 75.0146 27.65C75.1279 27.7167 75.2646 27.75 75.4246 27.75C75.6513 27.75 75.8313 27.68 75.9646 27.54C76.0979 27.3933 76.1646 27.1933 76.1646 26.94V24.14H77.6946V26.95C77.6946 27.3767 77.5979 27.7533 77.4046 28.08C77.2113 28.4 76.9446 28.6533 76.6046 28.84C76.2646 29.02 75.8713 29.11 75.4246 29.11ZM79.3452 29V22.13H80.8752V29H79.3452ZM78.2452 25.44V24.14H81.9752V25.44H78.2452ZM87.3537 29.1C87.027 29.1 86.727 29.0367 86.4537 28.91C86.1803 28.7833 85.957 28.61 85.7837 28.39C85.6103 28.1633 85.5103 27.9067 85.4837 27.62V25.57C85.5103 25.2833 85.6103 25.0233 85.7837 24.79C85.957 24.5567 86.1803 24.3733 86.4537 24.24C86.727 24.1067 87.027 24.04 87.3537 24.04C87.8137 24.04 88.2203 24.15 88.5737 24.37C88.9337 24.59 89.2137 24.89 89.4137 25.27C89.6203 25.65 89.7237 26.0833 89.7237 26.57C89.7237 27.0567 89.6203 27.49 89.4137 27.87C89.2137 28.25 88.9337 28.55 88.5737 28.77C88.2203 28.99 87.8137 29.1 87.3537 29.1ZM84.5537 31.05V24.14H86.0837V25.39L85.8337 26.57L86.0637 27.75V31.05H84.5537ZM87.0737 27.72C87.2937 27.72 87.4837 27.67 87.6437 27.57C87.8103 27.47 87.9403 27.3333 88.0337 27.16C88.127 26.9867 88.1737 26.79 88.1737 26.57C88.1737 26.3433 88.127 26.1433 88.0337 25.97C87.9403 25.7967 87.8103 25.6633 87.6437 25.57C87.4837 25.47 87.297 25.42 87.0837 25.42C86.8703 25.42 86.6803 25.47 86.5137 25.57C86.3537 25.6633 86.227 25.7967 86.1337 25.97C86.0403 26.1433 85.9937 26.3433 85.9937 26.57C85.9937 26.79 86.037 26.9867 86.1237 27.16C86.217 27.3333 86.347 27.47 86.5137 27.57C86.6803 27.67 86.867 27.72 87.0737 27.72ZM90.5009 29V24.14H92.0309V29H90.5009ZM92.0309 26.33L91.3909 25.83C91.5176 25.2633 91.7309 24.8233 92.0309 24.51C92.3309 24.1967 92.7476 24.04 93.2809 24.04C93.5143 24.04 93.7176 24.0767 93.8909 24.15C94.0709 24.2167 94.2276 24.3233 94.3609 24.47L93.4509 25.62C93.3843 25.5467 93.3009 25.49 93.2009 25.45C93.1009 25.41 92.9876 25.39 92.8609 25.39C92.6076 25.39 92.4043 25.47 92.2509 25.63C92.1043 25.7833 92.0309 26.0167 92.0309 26.33ZM97.0318 29.11C96.5051 29.11 96.0351 29.0033 95.6218 28.79C95.2151 28.57 94.8951 28.2667 94.6618 27.88C94.4285 27.4933 94.3118 27.0567 94.3118 26.57C94.3118 26.0833 94.4251 25.65 94.6518 25.27C94.8851 24.8833 95.1985 24.58 95.5918 24.36C95.9851 24.14 96.4285 24.03 96.9218 24.03C97.4018 24.03 97.8251 24.1333 98.1918 24.34C98.5585 24.5467 98.8451 24.8333 99.0518 25.2C99.2651 25.5667 99.3718 25.9867 99.3718 26.46C99.3718 26.5467 99.3651 26.64 99.3518 26.74C99.3451 26.8333 99.3285 26.9433 99.3018 27.07L95.1118 27.08V26.03L98.6518 26.02L97.9918 26.46C97.9851 26.18 97.9418 25.95 97.8618 25.77C97.7818 25.5833 97.6618 25.4433 97.5018 25.35C97.3485 25.25 97.1585 25.2 96.9318 25.2C96.6918 25.2 96.4818 25.2567 96.3018 25.37C96.1285 25.4767 95.9918 25.63 95.8918 25.83C95.7985 26.03 95.7518 26.2733 95.7518 26.56C95.7518 26.8467 95.8018 27.0933 95.9018 27.3C96.0085 27.5 96.1551 27.6567 96.3418 27.77C96.5351 27.8767 96.7618 27.93 97.0218 27.93C97.2618 27.93 97.4785 27.89 97.6718 27.81C97.8651 27.7233 98.0351 27.5967 98.1818 27.43L99.0218 28.27C98.7818 28.55 98.4918 28.76 98.1518 28.9C97.8118 29.04 97.4385 29.11 97.0318 29.11ZM101.88 29.12C101.594 29.12 101.31 29.0833 101.03 29.01C100.757 28.9367 100.5 28.8333 100.26 28.7C100.027 28.56 99.827 28.4 99.6603 28.22L100.53 27.34C100.69 27.5133 100.88 27.65 101.1 27.75C101.32 27.8433 101.56 27.89 101.82 27.89C102 27.89 102.137 27.8633 102.23 27.81C102.33 27.7567 102.38 27.6833 102.38 27.59C102.38 27.47 102.32 27.38 102.2 27.32C102.087 27.2533 101.94 27.1967 101.76 27.15C101.58 27.0967 101.39 27.04 101.19 26.98C100.99 26.92 100.8 26.8367 100.62 26.73C100.44 26.6233 100.294 26.4767 100.18 26.29C100.067 26.0967 100.01 25.8533 100.01 25.56C100.01 25.2467 100.09 24.9767 100.25 24.75C100.41 24.5167 100.637 24.3333 100.93 24.2C101.224 24.0667 101.567 24 101.96 24C102.374 24 102.754 24.0733 103.1 24.22C103.454 24.36 103.74 24.57 103.96 24.85L103.09 25.73C102.937 25.55 102.764 25.4233 102.57 25.35C102.384 25.2767 102.2 25.24 102.02 25.24C101.847 25.24 101.717 25.2667 101.63 25.32C101.544 25.3667 101.5 25.4367 101.5 25.53C101.5 25.63 101.557 25.71 101.67 25.77C101.784 25.83 101.93 25.8833 102.11 25.93C102.29 25.9767 102.48 26.0333 102.68 26.1C102.88 26.1667 103.07 26.2567 103.25 26.37C103.43 26.4833 103.577 26.6367 103.69 26.83C103.804 27.0167 103.86 27.2633 103.86 27.57C103.86 28.0433 103.68 28.42 103.32 28.7C102.967 28.98 102.487 29.12 101.88 29.12ZM106.46 29.12C106.174 29.12 105.89 29.0833 105.61 29.01C105.337 28.9367 105.08 28.8333 104.84 28.7C104.607 28.56 104.407 28.4 104.24 28.22L105.11 27.34C105.27 27.5133 105.46 27.65 105.68 27.75C105.9 27.8433 106.14 27.89 106.4 27.89C106.58 27.89 106.717 27.8633 106.81 27.81C106.91 27.7567 106.96 27.6833 106.96 27.59C106.96 27.47 106.9 27.38 106.78 27.32C106.667 27.2533 106.52 27.1967 106.34 27.15C106.16 27.0967 105.97 27.04 105.77 26.98C105.57 26.92 105.38 26.8367 105.2 26.73C105.02 26.6233 104.874 26.4767 104.76 26.29C104.647 26.0967 104.59 25.8533 104.59 25.56C104.59 25.2467 104.67 24.9767 104.83 24.75C104.99 24.5167 105.217 24.3333 105.51 24.2C105.804 24.0667 106.147 24 106.54 24C106.954 24 107.334 24.0733 107.68 24.22C108.034 24.36 108.32 24.57 108.54 24.85L107.67 25.73C107.517 25.55 107.344 25.4233 107.15 25.35C106.964 25.2767 106.78 25.24 106.6 25.24C106.427 25.24 106.297 25.2667 106.21 25.32C106.124 25.3667 106.08 25.4367 106.08 25.53C106.08 25.63 106.137 25.71 106.25 25.77C106.364 25.83 106.51 25.8833 106.69 25.93C106.87 25.9767 107.06 26.0333 107.26 26.1C107.46 26.1667 107.65 26.2567 107.83 26.37C108.01 26.4833 108.157 26.6367 108.27 26.83C108.384 27.0167 108.44 27.2633 108.44 27.57C108.44 28.0433 108.26 28.42 107.9 28.7C107.547 28.98 107.067 29.12 106.46 29.12ZM111.43 29.11C110.984 29.11 110.587 29.02 110.24 28.84C109.9 28.6533 109.634 28.4 109.44 28.08C109.247 27.7533 109.15 27.38 109.15 26.96V24.14H110.68V26.94C110.68 27.1067 110.707 27.25 110.76 27.37C110.82 27.49 110.907 27.5833 111.02 27.65C111.134 27.7167 111.27 27.75 111.43 27.75C111.657 27.75 111.837 27.68 111.97 27.54C112.104 27.3933 112.17 27.1933 112.17 26.94V24.14H113.7V26.95C113.7 27.3767 113.604 27.7533 113.41 28.08C113.217 28.4 112.95 28.6533 112.61 28.84C112.27 29.02 111.877 29.11 111.43 29.11ZM114.661 29V24.14H116.191V29H114.661ZM116.191 26.33L115.551 25.83C115.678 25.2633 115.891 24.8233 116.191 24.51C116.491 24.1967 116.908 24.04 117.441 24.04C117.674 24.04 117.878 24.0767 118.051 24.15C118.231 24.2167 118.388 24.3233 118.521 24.47L117.611 25.62C117.544 25.5467 117.461 25.49 117.361 25.45C117.261 25.41 117.148 25.39 117.021 25.39C116.768 25.39 116.564 25.47 116.411 25.63C116.264 25.7833 116.191 26.0167 116.191 26.33ZM121.192 29.11C120.665 29.11 120.195 29.0033 119.782 28.79C119.375 28.57 119.055 28.2667 118.822 27.88C118.589 27.4933 118.472 27.0567 118.472 26.57C118.472 26.0833 118.585 25.65 118.812 25.27C119.045 24.8833 119.359 24.58 119.752 24.36C120.145 24.14 120.589 24.03 121.082 24.03C121.562 24.03 121.985 24.1333 122.352 24.34C122.719 24.5467 123.005 24.8333 123.212 25.2C123.425 25.5667 123.532 25.9867 123.532 26.46C123.532 26.5467 123.525 26.64 123.512 26.74C123.505 26.8333 123.489 26.9433 123.462 27.07L119.272 27.08V26.03L122.812 26.02L122.152 26.46C122.145 26.18 122.102 25.95 122.022 25.77C121.942 25.5833 121.822 25.4433 121.662 25.35C121.509 25.25 121.319 25.2 121.092 25.2C120.852 25.2 120.642 25.2567 120.462 25.37C120.289 25.4767 120.152 25.63 120.052 25.83C119.959 26.03 119.912 26.2733 119.912 26.56C119.912 26.8467 119.962 27.0933 120.062 27.3C120.169 27.5 120.315 27.6567 120.502 27.77C120.695 27.8767 120.922 27.93 121.182 27.93C121.422 27.93 121.639 27.89 121.832 27.81C122.025 27.7233 122.195 27.5967 122.342 27.43L123.182 28.27C122.942 28.55 122.652 28.76 122.312 28.9C121.972 29.04 121.599 29.11 121.192 29.11ZM125.23 29.11C124.97 29.11 124.754 29.02 124.58 28.84C124.407 28.66 124.32 28.4433 124.32 28.19C124.32 27.9233 124.407 27.7033 124.58 27.53C124.754 27.35 124.97 27.26 125.23 27.26C125.497 27.26 125.714 27.35 125.88 27.53C126.054 27.7033 126.14 27.9233 126.14 28.19C126.14 28.4433 126.054 28.66 125.88 28.84C125.714 29.02 125.497 29.11 125.23 29.11Z" fill="white"/>
</svg>
