<svg width="80" height="80" viewBox="0 0 80 80" fill="none" xmlns="http://www.w3.org/2000/svg">
<path d="M40 73.3333C58.4095 73.3333 73.3333 58.4095 73.3333 40C73.3333 21.5905 58.4095 6.66667 40 6.66667C21.5905 6.66667 6.66667 21.5905 6.66667 40C6.66667 58.4095 21.5905 73.3333 40 73.3333Z" fill="#181717"/>
<path d="M11.3558 57.0583C15.4135 63.8563 21.8232 69.0877 29.462 71.6307C31.1298 71.9357 31.7375 70.9063 31.7375 70.0223C31.7375 69.6563 31.7313 69.0097 31.7232 68.1443C31.7137 67.142 31.7013 65.8465 31.6925 64.354C22.4207 66.3677 20.4645 59.885 20.4645 59.885C18.9482 56.0358 16.7627 55.0107 16.7627 55.0107C13.7362 52.9418 16.9918 52.9827 16.9918 52.9827C20.3375 53.2202 22.0973 56.4185 22.0973 56.4185C25.0707 61.5118 29.9 60.0405 31.799 59.1892C32.1018 57.0345 32.9612 55.5652 33.9148 54.7323C26.5133 53.8913 18.7312 51.0305 18.7312 38.2575C18.7312 34.6192 20.0307 31.6438 22.1628 29.3132C21.819 28.47 20.6752 25.0813 22.4882 20.4915C22.4882 20.4915 25.2875 19.5952 31.6557 23.9088C34.3138 23.1702 37.1663 22.7997 40.0005 22.7875C42.8305 22.7997 45.6832 23.1702 48.3453 23.9088C54.7093 19.5952 57.5027 20.4915 57.5027 20.4915C59.3218 25.0813 58.1778 28.47 57.8342 29.3132C59.9705 31.6438 61.2617 34.6192 61.2617 38.2575C61.2617 51.0633 53.4673 53.881 46.0412 54.7057C47.2383 55.735 48.3045 57.769 48.3045 60.8795C48.3045 63.8587 48.2862 66.4537 48.274 68.1725C48.268 69.0238 48.2635 69.6603 48.2635 70.0223C48.2635 70.9145 48.863 71.952 50.5553 71.6267C56.6407 69.5953 61.9452 65.859 65.9005 60.9838C59.789 68.518 50.4567 73.3333 39.9995 73.3333C27.8238 73.3333 17.173 66.8053 11.3558 57.0583Z" fill="white"/>
</svg>
