<svg width="80" height="80" viewBox="0 0 80 80" fill="none" xmlns="http://www.w3.org/2000/svg">
<path d="M60 5H20C11.7157 5 5 11.7157 5 20V60C5 68.2843 11.7157 75 20 75H60C68.2843 75 75 68.2843 75 60V20C75 11.7157 68.2843 5 60 5Z" fill="url(#paint0_radial_1_43)"/>
<path d="M60 5H20C11.7157 5 5 11.7157 5 20V60C5 68.2843 11.7157 75 20 75H60C68.2843 75 75 68.2843 75 60V20C75 11.7157 68.2843 5 60 5Z" fill="url(#paint1_radial_1_43)"/>
<path d="M60 5H20C11.7157 5 5 11.7157 5 20V60C5 68.2843 11.7157 75 20 75H60C68.2843 75 75 68.2843 75 60V20C75 11.7157 68.2843 5 60 5Z" fill="url(#paint2_radial_1_43)"/>
<path d="M57.5 26.25C57.5 28.321 55.821 30 53.75 30C51.679 30 50 28.321 50 26.25C50 24.1789 51.679 22.5 53.75 22.5C55.821 22.5 57.5 24.1789 57.5 26.25Z" fill="white"/>
<path fill-rule="evenodd" clip-rule="evenodd" d="M40 52.5C46.9035 52.5 52.5 46.9035 52.5 40C52.5 33.0965 46.9035 27.5 40 27.5C33.0965 27.5 27.5 33.0965 27.5 40C27.5 46.9035 33.0965 52.5 40 52.5ZM40 47.5C44.1423 47.5 47.5 44.1423 47.5 40C47.5 35.8577 44.1423 32.5 40 32.5C35.8577 32.5 32.5 35.8577 32.5 40C32.5 44.1423 35.8577 47.5 40 47.5Z" fill="white"/>
<path fill-rule="evenodd" clip-rule="evenodd" d="M15 39C15 30.5993 15 26.3988 16.6349 23.1902C18.073 20.3677 20.3677 18.073 23.1902 16.6349C26.3988 15 30.5993 15 39 15H41C49.4007 15 53.6012 15 56.8097 16.6349C59.6322 18.073 61.927 20.3677 63.365 23.1902C65 26.3988 65 30.5993 65 39V41C65 49.4007 65 53.6012 63.365 56.8097C61.927 59.6322 59.6322 61.927 56.8097 63.365C53.6012 65 49.4007 65 41 65H39C30.5993 65 26.3988 65 23.1902 63.365C20.3677 61.927 18.073 59.6322 16.6349 56.8097C15 53.6012 15 49.4007 15 41V39ZM39 20H41C45.283 20 48.1943 20.0039 50.4448 20.1877C52.637 20.3668 53.758 20.6915 54.54 21.0899C56.4215 22.0487 57.9512 23.5785 58.91 25.46C59.3085 26.242 59.6333 27.363 59.8123 29.5552C59.996 31.8057 60 34.717 60 39V41C60 45.283 59.996 48.1943 59.8123 50.4448C59.6333 52.637 59.3085 53.758 58.91 54.54C57.9512 56.4215 56.4215 57.9512 54.54 58.91C53.758 59.3085 52.637 59.6333 50.4448 59.8123C48.1943 59.996 45.283 60 41 60H39C34.717 60 31.8057 59.996 29.5552 59.8123C27.363 59.6333 26.242 59.3085 25.46 58.91C23.5785 57.9512 22.0487 56.4215 21.0899 54.54C20.6915 53.758 20.3668 52.637 20.1877 50.4448C20.0039 48.1943 20 45.283 20 41V39C20 34.717 20.0039 31.8057 20.1877 29.5552C20.3668 27.363 20.6915 26.242 21.0899 25.46C22.0487 23.5785 23.5785 22.0487 25.46 21.0899C26.242 20.6915 27.363 20.3668 29.5552 20.1877C31.8057 20.0039 34.717 20 39 20Z" fill="white"/>
<defs>
<radialGradient id="paint0_radial_1_43" cx="0" cy="0" r="1" gradientUnits="userSpaceOnUse" gradientTransform="translate(30 57.5) rotate(-55.3758) scale(63.799)">
<stop stop-color="#B13589"/>
<stop offset="0.79309" stop-color="#C62F94"/>
<stop offset="1" stop-color="#8A3AC8"/>
</radialGradient>
<radialGradient id="paint1_radial_1_43" cx="0" cy="0" r="1" gradientUnits="userSpaceOnUse" gradientTransform="translate(27.5 77.5) rotate(-65.1363) scale(56.4855)">
<stop stop-color="#E0E8B7"/>
<stop offset="0.444662" stop-color="#FB8A2E"/>
<stop offset="0.71474" stop-color="#E2425C"/>
<stop offset="1" stop-color="#E2425C" stop-opacity="0"/>
</radialGradient>
<radialGradient id="paint2_radial_1_43" cx="0" cy="0" r="1" gradientUnits="userSpaceOnUse" gradientTransform="translate(1.25 7.5) rotate(-8.1301) scale(97.2273 20.7959)">
<stop offset="0.156701" stop-color="#406ADC"/>
<stop offset="0.467799" stop-color="#6A45BE"/>
<stop offset="1" stop-color="#6A45BE" stop-opacity="0"/>
</radialGradient>
</defs>
</svg>
