<svg width="80" height="80" viewBox="0 0 80 80" fill="none" xmlns="http://www.w3.org/2000/svg">
<path d="M52.504 7.79198C52.504 5.59458 50.0438 5.59455 48.9503 5.86923C50.481 4.66065 52.2763 4.95367 52.914 5.3199L67.6975 12.5687C69.106 13.2594 69.9995 14.6965 69.9995 16.2714V63.9577C69.9995 65.5537 69.0823 67.0063 67.645 67.6858L53.7343 74.2635C52.7773 74.6753 50.6998 75.6917 48.9503 74.2632C51.1373 74.6755 52.3218 73.119 52.504 72.066V7.79198Z" fill="url(#paint0_linear_1_22)"/>
<path d="M49.128 5.82975C50.2885 5.60042 52.5045 5.70678 52.5045 7.79212V24.2064L7.68398 58.1133C6.90055 58.706 5.798 58.6075 5.13073 57.8855L0.51133 52.887C-0.212339 52.104 -0.161706 50.8782 0.62406 50.1582L48.9505 5.86938L49.128 5.82975Z" fill="url(#paint1_linear_1_22)"/>
<path d="M52.5045 55.927L7.68398 22.02C6.90055 21.4274 5.798 21.5257 5.13073 22.2478L0.51133 27.2463C-0.212339 28.0293 -0.161706 29.255 0.62406 29.9752L48.9505 74.264C51.1375 74.676 52.3223 73.1195 52.5045 72.0665V55.927Z" fill="url(#paint2_linear_1_22)"/>
<defs>
<linearGradient id="paint0_linear_1_22" x1="59.475" y1="5" x2="59.475" y2="75" gradientUnits="userSpaceOnUse">
<stop stop-color="#32B5F1"/>
<stop offset="1" stop-color="#2B9FED"/>
</linearGradient>
<linearGradient id="paint1_linear_1_22" x1="52.5045" y1="13.835" x2="2.55426" y2="55.7628" gradientUnits="userSpaceOnUse">
<stop stop-color="#0F6FB3"/>
<stop offset="0.270551" stop-color="#1279B7"/>
<stop offset="0.421376" stop-color="#1176B5"/>
<stop offset="0.618197" stop-color="#0E69AC"/>
<stop offset="0.855344" stop-color="#0F70AF"/>
<stop offset="1" stop-color="#0F6DAD"/>
</linearGradient>
<linearGradient id="paint2_linear_1_22" x1="2.88805" y1="24.9597" x2="52.6977" y2="66.202" gradientUnits="userSpaceOnUse">
<stop stop-color="#1791D2"/>
<stop offset="1" stop-color="#1173C5"/>
</linearGradient>
</defs>
</svg>
