<svg viewBox="0 0 146 96" fill="none" xmlns="http://www.w3.org/2000/svg">
<rect x="0.5" y="0.5" width="136.143" height="90.4284" stroke="#369FA4" stroke-opacity="0.5"/>
<rect x="69.0715" y="46.2147" width="75.7999" height="44.7142" stroke="#369FA4" stroke-opacity="0.5"/>
<path d="M141.257 66.3285C142.244 66.3287 143.043 67.1285 143.043 68.1146C143.042 69.1005 142.243 69.8996 141.257 69.8998C140.271 69.8998 139.472 69.1007 139.471 68.1146C139.471 67.1284 140.271 66.3285 141.257 66.3285Z" stroke="#369FA4" stroke-opacity="0.5"/>
<rect x="41.6427" y="43.4716" width="26.4285" height="52.0285" stroke="#369FA4" stroke-opacity="0.5"/>
<mask id="path-5-inside-1_61_27" fill="white">
<ellipse cx="54.857" cy="93.2571" rx="0.914285" ry="0.914284"/>
</mask>
<path d="M55.7713 93.2571H54.7713C54.7713 93.2097 54.8097 93.1713 54.857 93.1713V94.1713V95.1713C55.9142 95.1713 56.7713 94.3143 56.7713 93.2571H55.7713ZM54.857 94.1713V93.1713C54.9044 93.1713 54.9427 93.2097 54.9427 93.2571H53.9427H52.9427C52.9427 94.3143 53.7998 95.1713 54.857 95.1713V94.1713ZM53.9427 93.2571H54.9427C54.9427 93.3044 54.9044 93.3428 54.857 93.3428V92.3428V91.3428C53.7998 91.3428 52.9427 92.1998 52.9427 93.2571H53.9427ZM54.857 92.3428V93.3428C54.8097 93.3428 54.7713 93.3044 54.7713 93.2571H55.7713H56.7713C56.7713 92.1998 55.9142 91.3428 54.857 91.3428V92.3428Z" fill="#369FA4" fill-opacity="0.5" mask="url(#path-5-inside-1_61_27)"/>
</svg>
