<svg width="1541" height="120" viewBox="0 0 1541 120" fill="none" xmlns="http://www.w3.org/2000/svg">
<path d="M50.338 35.73C50.67 35.1767 51.168 34.9 51.832 34.9H64.78C65.1673 34.9 65.4717 35.0107 65.693 35.232C65.9143 35.4533 66.025 35.7577 66.025 36.145V91.755C66.025 92.1423 65.9143 92.4467 65.693 92.668C65.4717 92.8893 65.1673 93 64.78 93H51.666C51.2787 93 50.9743 92.8893 50.753 92.668C50.5317 92.4467 50.421 92.1423 50.421 91.755V61.626C50.421 61.4047 50.3657 61.294 50.255 61.294C50.1443 61.2387 50.0337 61.294 49.923 61.46L44.279 70.673C43.947 71.2263 43.449 71.503 42.785 71.503H36.477C35.813 71.503 35.315 71.2263 34.983 70.673L29.339 61.46C29.2283 61.294 29.1177 61.2387 29.007 61.294C28.8963 61.294 28.841 61.4047 28.841 61.626V91.755C28.841 92.1423 28.7303 92.4467 28.509 92.668C28.2877 92.8893 27.9833 93 27.596 93H14.482C14.0947 93 13.7903 92.8893 13.569 92.668C13.3477 92.4467 13.237 92.1423 13.237 91.755V36.145C13.237 35.7577 13.3477 35.4533 13.569 35.232C13.7903 35.0107 14.0947 34.9 14.482 34.9H27.43C28.094 34.9 28.592 35.1767 28.924 35.73L39.382 52.579C39.548 52.911 39.714 52.911 39.88 52.579L50.338 35.73ZM94.981 93.996C90.3883 93.996 86.3213 93.083 82.78 91.257C79.294 89.3757 76.5826 86.775 74.646 83.455C72.7093 80.0797 71.741 76.1787 71.741 71.752V56.148C71.741 51.832 72.7093 48.014 74.646 44.694C76.5826 41.374 79.294 38.801 82.78 36.975C86.3213 35.149 90.3883 34.236 94.981 34.236C99.629 34.236 103.696 35.149 107.182 36.975C110.723 38.801 113.462 41.374 115.399 44.694C117.336 48.014 118.304 51.832 118.304 56.148V71.752C118.304 76.1787 117.336 80.0797 115.399 83.455C113.462 86.775 110.723 89.3757 107.182 91.257C103.696 93.083 99.629 93.996 94.981 93.996ZM94.981 80.633C97.305 80.633 99.1586 79.886 100.542 78.392C101.981 76.8427 102.7 74.7953 102.7 72.25V55.982C102.7 53.4367 101.981 51.417 100.542 49.923C99.1586 48.3737 97.305 47.599 94.981 47.599C92.7123 47.599 90.8586 48.3737 89.42 49.923C88.0366 51.417 87.345 53.4367 87.345 55.982V72.25C87.345 74.7953 88.0366 76.8427 89.42 78.392C90.8586 79.886 92.7123 80.633 94.981 80.633ZM161.887 62.788C161.665 62.954 161.665 63.12 161.887 63.286C164.377 64.6693 166.203 66.44 167.365 68.598C168.527 70.756 169.108 73.3567 169.108 76.4C169.108 82.0993 167.116 86.3047 163.132 89.016C159.148 91.672 153.974 93 147.611 93H125.284C124.896 93 124.592 92.8893 124.371 92.668C124.149 92.4467 124.039 92.1423 124.039 91.755V36.145C124.039 35.7577 124.149 35.4533 124.371 35.232C124.592 35.0107 124.896 34.9 125.284 34.9H146.864C153.946 34.9 159.258 36.1727 162.8 38.718C166.396 41.208 168.195 45.4133 168.195 51.334C168.195 56.5907 166.092 60.4087 161.887 62.788ZM140.058 48.263C139.781 48.263 139.643 48.4013 139.643 48.678V56.978C139.643 57.2547 139.781 57.393 140.058 57.393H146.864C150.903 57.393 152.923 55.8713 152.923 52.828C152.923 49.7847 150.903 48.263 146.864 48.263H140.058ZM147.611 79.637C151.539 79.637 153.504 78.0047 153.504 74.74C153.504 71.6413 151.567 70.092 147.694 70.092H140.058C139.781 70.092 139.643 70.2303 139.643 70.507V79.222C139.643 79.4987 139.781 79.637 140.058 79.637H147.611ZM176.348 93C175.961 93 175.657 92.8893 175.435 92.668C175.214 92.4467 175.103 92.1423 175.103 91.755V36.145C175.103 35.7577 175.214 35.4533 175.435 35.232C175.657 35.0107 175.961 34.9 176.348 34.9H189.462C189.85 34.9 190.154 35.0107 190.375 35.232C190.597 35.4533 190.707 35.7577 190.707 36.145V91.755C190.707 92.1423 190.597 92.4467 190.375 92.668C190.154 92.8893 189.85 93 189.462 93H176.348ZM198.395 93C198.008 93 197.703 92.8893 197.482 92.668C197.261 92.4467 197.15 92.1423 197.15 91.755V36.145C197.15 35.7577 197.261 35.4533 197.482 35.232C197.703 35.0107 198.008 34.9 198.395 34.9H211.509C211.896 34.9 212.201 35.0107 212.422 35.232C212.643 35.4533 212.754 35.7577 212.754 36.145V79.222C212.754 79.4987 212.892 79.637 213.169 79.637H238.816C239.203 79.637 239.508 79.7477 239.729 79.969C239.95 80.1903 240.061 80.4947 240.061 80.882V91.755C240.061 92.1423 239.95 92.4467 239.729 92.668C239.508 92.8893 239.203 93 238.816 93H198.395ZM286.891 47.018C286.891 47.4053 286.781 47.7097 286.559 47.931C286.338 48.1523 286.034 48.263 285.646 48.263H260.829C260.553 48.263 260.414 48.4013 260.414 48.678V56.48C260.414 56.7567 260.553 56.895 260.829 56.895H276.184C276.572 56.895 276.876 57.0057 277.097 57.227C277.319 57.4483 277.429 57.7527 277.429 58.14V68.93C277.429 69.3173 277.319 69.6217 277.097 69.843C276.876 70.0643 276.572 70.175 276.184 70.175H260.829C260.553 70.175 260.414 70.3133 260.414 70.59V79.222C260.414 79.4987 260.553 79.637 260.829 79.637H285.646C286.034 79.637 286.338 79.7477 286.559 79.969C286.781 80.1903 286.891 80.4947 286.891 80.882V91.755C286.891 92.1423 286.781 92.4467 286.559 92.668C286.338 92.8893 286.034 93 285.646 93H246.055C245.668 93 245.364 92.8893 245.142 92.668C244.921 92.4467 244.81 92.1423 244.81 91.755V36.145C244.81 35.7577 244.921 35.4533 245.142 35.232C245.364 35.0107 245.668 34.9 246.055 34.9H285.646C286.034 34.9 286.338 35.0107 286.559 35.232C286.781 35.4533 286.891 35.7577 286.891 36.145V47.018ZM308.58 93C308.248 93 307.944 92.917 307.667 92.751C307.391 92.5297 307.225 92.253 307.169 91.921L290.818 36.311C290.763 36.2003 290.735 36.062 290.735 35.896C290.735 35.232 291.123 34.9 291.897 34.9H306.09C306.81 34.9 307.252 35.2597 307.418 35.979L315.718 71.005C315.774 71.2263 315.857 71.337 315.967 71.337C316.078 71.337 316.161 71.2263 316.216 71.005L324.267 35.979C324.433 35.2597 324.876 34.9 325.595 34.9H339.456C339.899 34.9 340.203 35.0383 340.369 35.315C340.591 35.5363 340.646 35.8683 340.535 36.311L324.018 91.921C323.963 92.253 323.797 92.5297 323.52 92.751C323.244 92.917 322.939 93 322.607 93H308.58ZM376.186 93C375.467 93 374.997 92.6957 374.775 92.087L365.645 71.005C365.535 70.7837 365.369 70.673 365.147 70.673H361.661C361.385 70.673 361.246 70.8113 361.246 71.088V91.755C361.246 92.1423 361.136 92.4467 360.914 92.668C360.693 92.8893 360.389 93 360.001 93H346.887C346.5 93 346.196 92.8893 345.974 92.668C345.753 92.4467 345.642 92.1423 345.642 91.755V36.145C345.642 35.7577 345.753 35.4533 345.974 35.232C346.196 35.0107 346.5 34.9 346.887 34.9H372.036C375.799 34.9 379.091 35.6747 381.913 37.224C384.791 38.7733 387.004 40.959 388.553 43.781C390.158 46.5477 390.96 49.757 390.96 53.409C390.96 57.061 390.047 60.2703 388.221 63.037C386.451 65.7483 383.988 67.7403 380.834 69.013C380.558 69.1237 380.475 69.3173 380.585 69.594L391.126 91.506C391.237 91.838 391.292 92.0317 391.292 92.087C391.292 92.3637 391.182 92.585 390.96 92.751C390.739 92.917 390.462 93 390.13 93H376.186ZM361.661 48.263C361.385 48.263 361.246 48.4013 361.246 48.678V58.389C361.246 58.6657 361.385 58.804 361.661 58.804H369.463C371.234 58.804 372.673 58.3337 373.779 57.393C374.886 56.397 375.439 55.1243 375.439 53.575C375.439 51.9703 374.886 50.6977 373.779 49.757C372.673 48.761 371.234 48.263 369.463 48.263H361.661ZM397.952 93C397.564 93 397.26 92.8893 397.039 92.668C396.817 92.4467 396.707 92.1423 396.707 91.755V36.145C396.707 35.7577 396.817 35.4533 397.039 35.232C397.26 35.0107 397.564 34.9 397.952 34.9H411.066C411.453 34.9 411.757 35.0107 411.979 35.232C412.2 35.4533 412.311 35.7577 412.311 36.145V91.755C412.311 92.1423 412.2 92.4467 411.979 92.668C411.757 92.8893 411.453 93 411.066 93H397.952ZM460.835 47.018C460.835 47.4053 460.724 47.7097 460.503 47.931C460.281 48.1523 459.977 48.263 459.59 48.263H434.773C434.496 48.263 434.358 48.4013 434.358 48.678V56.48C434.358 56.7567 434.496 56.895 434.773 56.895H450.128C450.515 56.895 450.819 57.0057 451.041 57.227C451.262 57.4483 451.373 57.7527 451.373 58.14V68.93C451.373 69.3173 451.262 69.6217 451.041 69.843C450.819 70.0643 450.515 70.175 450.128 70.175H434.773C434.496 70.175 434.358 70.3133 434.358 70.59V79.222C434.358 79.4987 434.496 79.637 434.773 79.637H459.59C459.977 79.637 460.281 79.7477 460.503 79.969C460.724 80.1903 460.835 80.4947 460.835 80.882V91.755C460.835 92.1423 460.724 92.4467 460.503 92.668C460.281 92.8893 459.977 93 459.59 93H419.999C419.611 93 419.307 92.8893 419.086 92.668C418.864 92.4467 418.754 92.1423 418.754 91.755V36.145C418.754 35.7577 418.864 35.4533 419.086 35.232C419.307 35.0107 419.611 34.9 419.999 34.9H459.59C459.977 34.9 460.281 35.0107 460.503 35.232C460.724 35.4533 460.835 35.7577 460.835 36.145V47.018ZM498.626 36.145C498.626 35.7577 498.736 35.4533 498.958 35.232C499.179 35.0107 499.483 34.9 499.871 34.9H512.985C513.372 34.9 513.676 35.0107 513.898 35.232C514.119 35.4533 514.23 35.7577 514.23 36.145V91.755C514.23 92.1423 514.119 92.4467 513.898 92.668C513.676 92.8893 513.372 93 512.985 93H500.452C499.788 93 499.29 92.7233 498.958 92.17L482.026 63.95C481.915 63.784 481.804 63.7287 481.694 63.784C481.583 63.784 481.528 63.8947 481.528 64.116L481.694 91.755C481.694 92.1423 481.583 92.4467 481.362 92.668C481.14 92.8893 480.836 93 480.449 93H467.335C466.947 93 466.643 92.8893 466.422 92.668C466.2 92.4467 466.09 92.1423 466.09 91.755V36.145C466.09 35.7577 466.2 35.4533 466.422 35.232C466.643 35.0107 466.947 34.9 467.335 34.9H479.868C480.532 34.9 481.03 35.1767 481.362 35.73L498.211 63.95C498.321 64.116 498.432 64.199 498.543 64.199C498.653 64.1437 498.709 64.0053 498.709 63.784L498.626 36.145ZM521.965 93C521.578 93 521.274 92.8893 521.052 92.668C520.831 92.4467 520.72 92.1423 520.72 91.755V36.145C520.72 35.7577 520.831 35.4533 521.052 35.232C521.274 35.0107 521.578 34.9 521.965 34.9H543.296C547.778 34.9 551.735 35.6747 555.165 37.224C558.651 38.7733 561.335 40.959 563.216 43.781C565.098 46.603 566.038 49.8677 566.038 53.575V74.325C566.038 78.0323 565.098 81.297 563.216 84.119C561.335 86.941 558.651 89.1267 555.165 90.676C551.735 92.2253 547.778 93 543.296 93H521.965ZM536.324 79.222C536.324 79.4987 536.463 79.637 536.739 79.637H543.877C545.759 79.637 547.308 78.9177 548.525 77.479C549.743 75.985 550.379 74.0483 550.434 71.669V56.231C550.434 53.8517 549.826 51.9427 548.608 50.504C547.391 49.01 545.786 48.263 543.794 48.263H536.739C536.463 48.263 536.324 48.4013 536.324 48.678V79.222ZM614.109 47.018C614.109 47.4053 613.998 47.7097 613.777 47.931C613.556 48.1523 613.251 48.263 612.864 48.263H588.047C587.77 48.263 587.632 48.4013 587.632 48.678V56.48C587.632 56.7567 587.77 56.895 588.047 56.895H603.402C603.789 56.895 604.094 57.0057 604.315 57.227C604.536 57.4483 604.647 57.7527 604.647 58.14V68.93C604.647 69.3173 604.536 69.6217 604.315 69.843C604.094 70.0643 603.789 70.175 603.402 70.175H588.047C587.77 70.175 587.632 70.3133 587.632 70.59V79.222C587.632 79.4987 587.77 79.637 588.047 79.637H612.864C613.251 79.637 613.556 79.7477 613.777 79.969C613.998 80.1903 614.109 80.4947 614.109 80.882V91.755C614.109 92.1423 613.998 92.4467 613.777 92.668C613.556 92.8893 613.251 93 612.864 93H573.273C572.886 93 572.581 92.8893 572.36 92.668C572.139 92.4467 572.028 92.1423 572.028 91.755V36.145C572.028 35.7577 572.139 35.4533 572.36 35.232C572.581 35.0107 572.886 34.9 573.273 34.9H612.864C613.251 34.9 613.556 35.0107 613.777 35.232C613.998 35.4533 614.109 35.7577 614.109 36.145V47.018ZM620.609 93C620.222 93 619.917 92.8893 619.696 92.668C619.475 92.4467 619.364 92.1423 619.364 91.755V36.145C619.364 35.7577 619.475 35.4533 619.696 35.232C619.917 35.0107 620.222 34.9 620.609 34.9H633.723C634.11 34.9 634.415 35.0107 634.636 35.232C634.857 35.4533 634.968 35.7577 634.968 36.145V79.222C634.968 79.4987 635.106 79.637 635.383 79.637H661.03C661.417 79.637 661.722 79.7477 661.943 79.969C662.164 80.1903 662.275 80.4947 662.275 80.882V91.755C662.275 92.1423 662.164 92.4467 661.943 92.668C661.722 92.8893 661.417 93 661.03 93H620.609ZM668.269 93C667.882 93 667.577 92.8893 667.356 92.668C667.135 92.4467 667.024 92.1423 667.024 91.755V36.145C667.024 35.7577 667.135 35.4533 667.356 35.232C667.577 35.0107 667.882 34.9 668.269 34.9H681.383C681.77 34.9 682.075 35.0107 682.296 35.232C682.517 35.4533 682.628 35.7577 682.628 36.145V91.755C682.628 92.1423 682.517 92.4467 682.296 92.668C682.075 92.8893 681.77 93 681.383 93H668.269ZM709.022 93.664C704.54 93.664 700.639 92.834 697.319 91.174C693.999 89.514 691.426 87.19 689.6 84.202C687.774 81.214 686.861 77.728 686.861 73.744V69.345C686.861 68.9577 686.972 68.6533 687.193 68.432C687.414 68.2107 687.719 68.1 688.106 68.1H701.22C701.607 68.1 701.912 68.2107 702.133 68.432C702.354 68.6533 702.465 68.9577 702.465 69.345V73.661C702.465 75.653 703.046 77.2577 704.208 78.475C705.37 79.6923 706.975 80.301 709.022 80.301C711.014 80.301 712.646 79.6923 713.919 78.475C715.192 77.2577 715.828 75.653 715.828 73.661V36.145C715.828 35.7577 715.939 35.4533 716.16 35.232C716.381 35.0107 716.686 34.9 717.073 34.9H730.104C730.491 34.9 730.796 35.0107 731.017 35.232C731.238 35.4533 731.349 35.7577 731.349 36.145V73.744C731.349 77.6727 730.408 81.1587 728.527 84.202C726.646 87.19 724.017 89.514 720.642 91.174C717.267 92.834 713.393 93.664 709.022 93.664ZM739.03 93C738.643 93 738.338 92.8893 738.117 92.668C737.896 92.4467 737.785 92.1423 737.785 91.755V36.145C737.785 35.7577 737.896 35.4533 738.117 35.232C738.338 35.0107 738.643 34.9 739.03 34.9H752.144C752.531 34.9 752.836 35.0107 753.057 35.232C753.278 35.4533 753.389 35.7577 753.389 36.145V55.982C753.389 56.148 753.444 56.2587 753.555 56.314C753.666 56.3693 753.776 56.314 753.887 56.148L768.329 35.647C768.661 35.149 769.187 34.9 769.906 34.9H784.763C785.427 34.9 785.759 35.149 785.759 35.647C785.759 35.8683 785.676 36.1173 785.51 36.394L768.246 60.381C768.135 60.547 768.135 60.7407 768.246 60.962L786.091 91.506C786.257 91.7273 786.34 91.9763 786.34 92.253C786.34 92.751 785.98 93 785.261 93H770.57C769.851 93 769.353 92.7233 769.076 92.17L757.622 71.752C757.567 71.586 757.484 71.503 757.373 71.503C757.262 71.503 757.152 71.586 757.041 71.752L753.555 77.064C753.444 77.2853 753.389 77.4513 753.389 77.562V91.755C753.389 92.1423 753.278 92.4467 753.057 92.668C752.836 92.8893 752.531 93 752.144 93H739.03ZM849.249 47.018C849.249 47.4053 849.138 47.7097 848.917 47.931C848.695 48.1523 848.391 48.263 848.004 48.263H823.187C822.91 48.263 822.772 48.4013 822.772 48.678V56.48C822.772 56.7567 822.91 56.895 823.187 56.895H838.542C838.929 56.895 839.233 57.0057 839.455 57.227C839.676 57.4483 839.787 57.7527 839.787 58.14V68.93C839.787 69.3173 839.676 69.6217 839.455 69.843C839.233 70.0643 838.929 70.175 838.542 70.175H823.187C822.91 70.175 822.772 70.3133 822.772 70.59V79.222C822.772 79.4987 822.91 79.637 823.187 79.637H848.004C848.391 79.637 848.695 79.7477 848.917 79.969C849.138 80.1903 849.249 80.4947 849.249 80.882V91.755C849.249 92.1423 849.138 92.4467 848.917 92.668C848.695 92.8893 848.391 93 848.004 93H808.413C808.025 93 807.721 92.8893 807.5 92.668C807.278 92.4467 807.168 92.1423 807.168 91.755V36.145C807.168 35.7577 807.278 35.4533 807.5 35.232C807.721 35.0107 808.025 34.9 808.413 34.9H848.004C848.391 34.9 848.695 35.0107 848.917 35.232C849.138 35.4533 849.249 35.7577 849.249 36.145V47.018ZM887.04 36.145C887.04 35.7577 887.15 35.4533 887.372 35.232C887.593 35.0107 887.897 34.9 888.285 34.9H901.399C901.786 34.9 902.09 35.0107 902.312 35.232C902.533 35.4533 902.644 35.7577 902.644 36.145V91.755C902.644 92.1423 902.533 92.4467 902.312 92.668C902.09 92.8893 901.786 93 901.399 93H888.866C888.202 93 887.704 92.7233 887.372 92.17L870.44 63.95C870.329 63.784 870.218 63.7287 870.108 63.784C869.997 63.784 869.942 63.8947 869.942 64.116L870.108 91.755C870.108 92.1423 869.997 92.4467 869.776 92.668C869.554 92.8893 869.25 93 868.863 93H855.749C855.361 93 855.057 92.8893 854.836 92.668C854.614 92.4467 854.504 92.1423 854.504 91.755V36.145C854.504 35.7577 854.614 35.4533 854.836 35.232C855.057 35.0107 855.361 34.9 855.749 34.9H868.282C868.946 34.9 869.444 35.1767 869.776 35.73L886.625 63.95C886.735 64.116 886.846 64.199 886.957 64.199C887.067 64.1437 887.123 64.0053 887.123 63.784L887.04 36.145ZM962.852 35.73C963.184 35.1767 963.682 34.9 964.346 34.9H977.294C977.681 34.9 977.985 35.0107 978.207 35.232C978.428 35.4533 978.539 35.7577 978.539 36.145V91.755C978.539 92.1423 978.428 92.4467 978.207 92.668C977.985 92.8893 977.681 93 977.294 93H964.18C963.792 93 963.488 92.8893 963.267 92.668C963.045 92.4467 962.935 92.1423 962.935 91.755V61.626C962.935 61.4047 962.879 61.294 962.769 61.294C962.658 61.2387 962.547 61.294 962.437 61.46L956.793 70.673C956.461 71.2263 955.963 71.503 955.299 71.503H948.991C948.327 71.503 947.829 71.2263 947.497 70.673L941.853 61.46C941.742 61.294 941.631 61.2387 941.521 61.294C941.41 61.294 941.355 61.4047 941.355 61.626V91.755C941.355 92.1423 941.244 92.4467 941.023 92.668C940.801 92.8893 940.497 93 940.11 93H926.996C926.608 93 926.304 92.8893 926.083 92.668C925.861 92.4467 925.751 92.1423 925.751 91.755V36.145C925.751 35.7577 925.861 35.4533 926.083 35.232C926.304 35.0107 926.608 34.9 926.996 34.9H939.944C940.608 34.9 941.106 35.1767 941.438 35.73L951.896 52.579C952.062 52.911 952.228 52.911 952.394 52.579L962.852 35.73ZM1007.49 93.996C1002.9 93.996 998.835 93.083 995.294 91.257C991.808 89.3757 989.096 86.775 987.16 83.455C985.223 80.0797 984.255 76.1787 984.255 71.752V56.148C984.255 51.832 985.223 48.014 987.16 44.694C989.096 41.374 991.808 38.801 995.294 36.975C998.835 35.149 1002.9 34.236 1007.49 34.236C1012.14 34.236 1016.21 35.149 1019.7 36.975C1023.24 38.801 1025.98 41.374 1027.91 44.694C1029.85 48.014 1030.82 51.832 1030.82 56.148V71.752C1030.82 76.1787 1029.85 80.0797 1027.91 83.455C1025.98 86.775 1023.24 89.3757 1019.7 91.257C1016.21 93.083 1012.14 93.996 1007.49 93.996ZM1007.49 80.633C1009.82 80.633 1011.67 79.886 1013.06 78.392C1014.49 76.8427 1015.21 74.7953 1015.21 72.25V55.982C1015.21 53.4367 1014.49 51.417 1013.06 49.923C1011.67 48.3737 1009.82 47.599 1007.49 47.599C1005.23 47.599 1003.37 48.3737 1001.93 49.923C1000.55 51.417 999.859 53.4367 999.859 55.982V72.25C999.859 74.7953 1000.55 76.8427 1001.93 78.392C1003.37 79.886 1005.23 80.633 1007.49 80.633ZM1037.8 93C1037.41 93 1037.11 92.8893 1036.88 92.668C1036.66 92.4467 1036.55 92.1423 1036.55 91.755V36.145C1036.55 35.7577 1036.66 35.4533 1036.88 35.232C1037.11 35.0107 1037.41 34.9 1037.8 34.9H1059.13C1063.61 34.9 1067.57 35.6747 1071 37.224C1074.48 38.7733 1077.17 40.959 1079.05 43.781C1080.93 46.603 1081.87 49.8677 1081.87 53.575V74.325C1081.87 78.0323 1080.93 81.297 1079.05 84.119C1077.17 86.941 1074.48 89.1267 1071 90.676C1067.57 92.2253 1063.61 93 1059.13 93H1037.8ZM1052.16 79.222C1052.16 79.4987 1052.29 79.637 1052.57 79.637H1059.71C1061.59 79.637 1063.14 78.9177 1064.36 77.479C1065.57 75.985 1066.21 74.0483 1066.27 71.669V56.231C1066.27 53.8517 1065.66 51.9427 1064.44 50.504C1063.22 49.01 1061.62 48.263 1059.63 48.263H1052.57C1052.29 48.263 1052.16 48.4013 1052.16 48.678V79.222ZM1129.94 47.018C1129.94 47.4053 1129.83 47.7097 1129.61 47.931C1129.39 48.1523 1129.08 48.263 1128.7 48.263H1103.88C1103.6 48.263 1103.46 48.4013 1103.46 48.678V56.48C1103.46 56.7567 1103.6 56.895 1103.88 56.895H1119.23C1119.62 56.895 1119.93 57.0057 1120.15 57.227C1120.37 57.4483 1120.48 57.7527 1120.48 58.14V68.93C1120.48 69.3173 1120.37 69.6217 1120.15 69.843C1119.93 70.0643 1119.62 70.175 1119.23 70.175H1103.88C1103.6 70.175 1103.46 70.3133 1103.46 70.59V79.222C1103.46 79.4987 1103.6 79.637 1103.88 79.637H1128.7C1129.08 79.637 1129.39 79.7477 1129.61 79.969C1129.83 80.1903 1129.94 80.4947 1129.94 80.882V91.755C1129.94 92.1423 1129.83 92.4467 1129.61 92.668C1129.39 92.8893 1129.08 93 1128.7 93H1089.11C1088.72 93 1088.41 92.8893 1088.19 92.668C1087.97 92.4467 1087.86 92.1423 1087.86 91.755V36.145C1087.86 35.7577 1087.97 35.4533 1088.19 35.232C1088.41 35.0107 1088.72 34.9 1089.11 34.9H1128.7C1129.08 34.9 1129.39 35.0107 1129.61 35.232C1129.83 35.4533 1129.94 35.7577 1129.94 36.145V47.018ZM1165.74 93C1165.02 93 1164.55 92.6957 1164.33 92.087L1155.2 71.005C1155.09 70.7837 1154.92 70.673 1154.7 70.673H1151.21C1150.94 70.673 1150.8 70.8113 1150.8 71.088V91.755C1150.8 92.1423 1150.69 92.4467 1150.47 92.668C1150.25 92.8893 1149.94 93 1149.55 93H1136.44C1136.05 93 1135.75 92.8893 1135.53 92.668C1135.31 92.4467 1135.2 92.1423 1135.2 91.755V36.145C1135.2 35.7577 1135.31 35.4533 1135.53 35.232C1135.75 35.0107 1136.05 34.9 1136.44 34.9H1161.59C1165.35 34.9 1168.64 35.6747 1171.47 37.224C1174.34 38.7733 1176.56 40.959 1178.11 43.781C1179.71 46.5477 1180.51 49.757 1180.51 53.409C1180.51 57.061 1179.6 60.2703 1177.77 63.037C1176 65.7483 1173.54 67.7403 1170.39 69.013C1170.11 69.1237 1170.03 69.3173 1170.14 69.594L1180.68 91.506C1180.79 91.838 1180.85 92.0317 1180.85 92.087C1180.85 92.3637 1180.74 92.585 1180.51 92.751C1180.29 92.917 1180.02 93 1179.68 93H1165.74ZM1151.21 48.263C1150.94 48.263 1150.8 48.4013 1150.8 48.678V58.389C1150.8 58.6657 1150.94 58.804 1151.21 58.804H1159.02C1160.79 58.804 1162.23 58.3337 1163.33 57.393C1164.44 56.397 1164.99 55.1243 1164.99 53.575C1164.99 51.9703 1164.44 50.6977 1163.33 49.757C1162.23 48.761 1160.79 48.263 1159.02 48.263H1151.21ZM1218.8 36.145C1218.8 35.7577 1218.91 35.4533 1219.13 35.232C1219.35 35.0107 1219.65 34.9 1220.04 34.9H1233.16C1233.54 34.9 1233.85 35.0107 1234.07 35.232C1234.29 35.4533 1234.4 35.7577 1234.4 36.145V91.755C1234.4 92.1423 1234.29 92.4467 1234.07 92.668C1233.85 92.8893 1233.54 93 1233.16 93H1220.62C1219.96 93 1219.46 92.7233 1219.13 92.17L1202.2 63.95C1202.09 63.784 1201.98 63.7287 1201.86 63.784C1201.75 63.784 1201.7 63.8947 1201.7 64.116L1201.86 91.755C1201.86 92.1423 1201.75 92.4467 1201.53 92.668C1201.31 92.8893 1201.01 93 1200.62 93H1187.51C1187.12 93 1186.81 92.8893 1186.59 92.668C1186.37 92.4467 1186.26 92.1423 1186.26 91.755V36.145C1186.26 35.7577 1186.37 35.4533 1186.59 35.232C1186.81 35.0107 1187.12 34.9 1187.51 34.9H1200.04C1200.7 34.9 1201.2 35.1767 1201.53 35.73L1218.38 63.95C1218.49 64.116 1218.6 64.199 1218.71 64.199C1218.82 64.1437 1218.88 64.0053 1218.88 63.784L1218.8 36.145ZM1258.75 93C1258.37 93 1258.06 92.8893 1257.84 92.668C1257.62 92.4467 1257.51 92.1423 1257.51 91.755V36.145C1257.51 35.7577 1257.62 35.4533 1257.84 35.232C1258.06 35.0107 1258.37 34.9 1258.75 34.9H1280.08C1284.57 34.9 1288.52 35.6747 1291.95 37.224C1295.44 38.7733 1298.12 40.959 1300 43.781C1301.88 46.603 1302.83 49.8677 1302.83 53.575V74.325C1302.83 78.0323 1301.88 81.297 1300 84.119C1298.12 86.941 1295.44 89.1267 1291.95 90.676C1288.52 92.2253 1284.57 93 1280.08 93H1258.75ZM1273.11 79.222C1273.11 79.4987 1273.25 79.637 1273.53 79.637H1280.66C1282.55 79.637 1284.1 78.9177 1285.31 77.479C1286.53 75.985 1287.17 74.0483 1287.22 71.669V56.231C1287.22 53.8517 1286.61 51.9427 1285.4 50.504C1284.18 49.01 1282.57 48.263 1280.58 48.263H1273.53C1273.25 48.263 1273.11 48.4013 1273.11 48.678V79.222ZM1350.9 47.018C1350.9 47.4053 1350.79 47.7097 1350.56 47.931C1350.34 48.1523 1350.04 48.263 1349.65 48.263H1324.83C1324.56 48.263 1324.42 48.4013 1324.42 48.678V56.48C1324.42 56.7567 1324.56 56.895 1324.83 56.895H1340.19C1340.58 56.895 1340.88 57.0057 1341.1 57.227C1341.32 57.4483 1341.43 57.7527 1341.43 58.14V68.93C1341.43 69.3173 1341.32 69.6217 1341.1 69.843C1340.88 70.0643 1340.58 70.175 1340.19 70.175H1324.83C1324.56 70.175 1324.42 70.3133 1324.42 70.59V79.222C1324.42 79.4987 1324.56 79.637 1324.83 79.637H1349.65C1350.04 79.637 1350.34 79.7477 1350.56 79.969C1350.79 80.1903 1350.9 80.4947 1350.9 80.882V91.755C1350.9 92.1423 1350.79 92.4467 1350.56 92.668C1350.34 92.8893 1350.04 93 1349.65 93H1310.06C1309.67 93 1309.37 92.8893 1309.15 92.668C1308.93 92.4467 1308.82 92.1423 1308.82 91.755V36.145C1308.82 35.7577 1308.93 35.4533 1309.15 35.232C1309.37 35.0107 1309.67 34.9 1310.06 34.9H1349.65C1350.04 34.9 1350.34 35.0107 1350.56 35.232C1350.79 35.4533 1350.9 35.7577 1350.9 36.145V47.018ZM1378.15 93.664C1373.5 93.664 1369.43 92.917 1365.95 91.423C1362.46 89.8737 1359.75 87.688 1357.81 84.866C1355.93 82.044 1354.99 78.7793 1354.99 75.072V73.91C1354.99 73.5227 1355.1 73.2183 1355.32 72.997C1355.54 72.7757 1355.85 72.665 1356.23 72.665H1369.1C1369.49 72.665 1369.79 72.7757 1370.01 72.997C1370.23 73.2183 1370.34 73.5227 1370.34 73.91V74.408C1370.34 75.9573 1371.15 77.3407 1372.75 78.558C1374.41 79.72 1376.6 80.301 1379.31 80.301C1381.36 80.301 1382.82 79.886 1383.71 79.056C1384.59 78.1707 1385.04 77.2023 1385.04 76.151C1385.04 74.9337 1384.48 74.0207 1383.38 73.412C1382.27 72.8033 1380.25 72.0563 1377.32 71.171L1374.91 70.507C1369.43 68.847 1364.84 66.6337 1361.13 63.867C1357.42 61.1003 1355.57 57.0887 1355.57 51.832C1355.57 48.346 1356.51 45.275 1358.39 42.619C1360.27 39.9077 1362.85 37.8327 1366.11 36.394C1369.43 34.9553 1373.14 34.236 1377.23 34.236C1381.55 34.236 1385.45 35.0383 1388.94 36.643C1392.48 38.2477 1395.24 40.5163 1397.24 43.449C1399.28 46.3817 1400.31 49.7293 1400.31 53.492V54.239C1400.31 54.6263 1400.2 54.9307 1399.98 55.152C1399.75 55.3733 1399.45 55.484 1399.06 55.484H1386.2C1385.81 55.484 1385.51 55.3733 1385.28 55.152C1385.06 54.9307 1384.95 54.6263 1384.95 54.239V54.156C1384.95 52.496 1384.21 51.002 1382.71 49.674C1381.22 48.2907 1379.2 47.599 1376.65 47.599C1374.88 47.599 1373.47 47.9587 1372.42 48.678C1371.42 49.3973 1370.93 50.3933 1370.93 51.666C1370.93 52.662 1371.28 53.5197 1372 54.239C1372.78 54.903 1373.94 55.567 1375.49 56.231C1377.04 56.8397 1379.42 57.642 1382.63 58.638C1383.07 58.804 1385.01 59.4127 1388.44 60.464C1391.92 61.46 1394.83 63.3137 1397.15 66.025C1399.48 68.681 1400.64 71.918 1400.64 75.736C1400.64 79.4433 1399.7 82.6527 1397.82 85.364C1395.94 88.02 1393.31 90.0673 1389.93 91.506C1386.56 92.9447 1382.63 93.664 1378.15 93.664ZM1407.33 93C1406.94 93 1406.63 92.8893 1406.41 92.668C1406.19 92.4467 1406.08 92.1423 1406.08 91.755V36.145C1406.08 35.7577 1406.19 35.4533 1406.41 35.232C1406.63 35.0107 1406.94 34.9 1407.33 34.9H1420.44C1420.83 34.9 1421.13 35.0107 1421.35 35.232C1421.57 35.4533 1421.68 35.7577 1421.68 36.145V91.755C1421.68 92.1423 1421.57 92.4467 1421.35 92.668C1421.13 92.8893 1420.83 93 1420.44 93H1407.33ZM1450.29 93.664C1445.75 93.664 1441.74 92.751 1438.25 90.925C1434.82 89.099 1432.14 86.526 1430.2 83.206C1428.32 79.886 1427.38 76.068 1427.38 71.752V56.065C1427.38 51.749 1428.32 47.9587 1430.2 44.694C1432.14 41.374 1434.82 38.801 1438.25 36.975C1441.74 35.149 1445.75 34.236 1450.29 34.236C1454.72 34.236 1458.67 35.1213 1462.16 36.892C1465.64 38.6073 1468.33 40.959 1470.21 43.947C1472.15 46.935 1473.11 50.1997 1473.11 53.741V53.824C1473.11 54.2113 1473 54.5157 1472.78 54.737C1472.56 54.9583 1472.26 55.069 1471.87 55.069H1458.84C1458.01 55.069 1457.59 54.82 1457.59 54.322C1457.59 52.496 1456.93 50.919 1455.6 49.591C1454.33 48.263 1452.56 47.599 1450.29 47.599C1448.08 47.599 1446.3 48.346 1444.98 49.84C1443.65 51.2787 1442.98 53.2153 1442.98 55.65V72.25C1442.98 74.6293 1443.73 76.566 1445.23 78.06C1446.77 79.554 1448.68 80.301 1450.95 80.301C1453 80.301 1454.66 79.7477 1455.93 78.641C1457.26 77.479 1457.92 75.902 1457.92 73.91V72.831C1457.92 72.5543 1457.79 72.416 1457.51 72.416H1450.21C1449.82 72.416 1449.51 72.3053 1449.29 72.084C1449.07 71.8627 1448.96 71.5583 1448.96 71.171V61.211C1448.96 60.8237 1449.07 60.5193 1449.29 60.298C1449.51 60.0767 1449.82 59.966 1450.21 59.966H1471.87C1472.26 59.966 1472.56 60.0767 1472.78 60.298C1473 60.5193 1473.11 60.8237 1473.11 61.211V72.582C1473.11 76.6767 1472.15 80.3287 1470.21 83.538C1468.33 86.7473 1465.64 89.2373 1462.16 91.008C1458.73 92.7787 1454.77 93.664 1450.29 93.664ZM1511.4 36.145C1511.4 35.7577 1511.51 35.4533 1511.74 35.232C1511.96 35.0107 1512.26 34.9 1512.65 34.9H1525.76C1526.15 34.9 1526.45 35.0107 1526.68 35.232C1526.9 35.4533 1527.01 35.7577 1527.01 36.145V91.755C1527.01 92.1423 1526.9 92.4467 1526.68 92.668C1526.45 92.8893 1526.15 93 1525.76 93H1513.23C1512.57 93 1512.07 92.7233 1511.74 92.17L1494.8 63.95C1494.69 63.784 1494.58 63.7287 1494.47 63.784C1494.36 63.784 1494.31 63.8947 1494.31 64.116L1494.47 91.755C1494.47 92.1423 1494.36 92.4467 1494.14 92.668C1493.92 92.8893 1493.61 93 1493.23 93H1480.11C1479.73 93 1479.42 92.8893 1479.2 92.668C1478.98 92.4467 1478.87 92.1423 1478.87 91.755V36.145C1478.87 35.7577 1478.98 35.4533 1479.2 35.232C1479.42 35.0107 1479.73 34.9 1480.11 34.9H1492.65C1493.31 34.9 1493.81 35.1767 1494.14 35.73L1510.99 63.95C1511.1 64.116 1511.21 64.199 1511.32 64.199C1511.43 64.1437 1511.49 64.0053 1511.49 63.784L1511.4 36.145Z" fill="#818187"/>
</svg>
