<svg width="5184" height="100" viewBox="0 0 5184 100" fill="none" xmlns="http://www.w3.org/2000/svg">
<path d="M3703.34 25.73C3703.67 25.1767 3704.17 24.9 3704.83 24.9H3717.78C3718.17 24.9 3718.47 25.0107 3718.69 25.232C3718.91 25.4533 3719.03 25.7577 3719.03 26.145V81.755C3719.03 82.1423 3718.91 82.4467 3718.69 82.668C3718.47 82.8893 3718.17 83 3717.78 83H3704.67C3704.28 83 3703.97 82.8893 3703.75 82.668C3703.53 82.4467 3703.42 82.1423 3703.42 81.755V51.626C3703.42 51.4047 3703.37 51.294 3703.26 51.294C3703.14 51.2387 3703.03 51.294 3702.92 51.46L3697.28 60.673C3696.95 61.2263 3696.45 61.503 3695.79 61.503H3689.48C3688.81 61.503 3688.32 61.2263 3687.98 60.673L3682.34 51.46C3682.23 51.294 3682.12 51.2387 3682.01 51.294C3681.9 51.294 3681.84 51.4047 3681.84 51.626V81.755C3681.84 82.1423 3681.73 82.4467 3681.51 82.668C3681.29 82.8893 3680.98 83 3680.6 83H3667.48C3667.09 83 3666.79 82.8893 3666.57 82.668C3666.35 82.4467 3666.24 82.1423 3666.24 81.755V26.145C3666.24 25.7577 3666.35 25.4533 3666.57 25.232C3666.79 25.0107 3667.09 24.9 3667.48 24.9H3680.43C3681.09 24.9 3681.59 25.1767 3681.92 25.73L3692.38 42.579C3692.55 42.911 3692.71 42.911 3692.88 42.579L3703.34 25.73ZM3747.98 83.996C3743.39 83.996 3739.32 83.083 3735.78 81.257C3732.29 79.3757 3729.58 76.775 3727.65 73.455C3725.71 70.0797 3724.74 66.1787 3724.74 61.752V46.148C3724.74 41.832 3725.71 38.014 3727.65 34.694C3729.58 31.374 3732.29 28.801 3735.78 26.975C3739.32 25.149 3743.39 24.236 3747.98 24.236C3752.63 24.236 3756.7 25.149 3760.18 26.975C3763.72 28.801 3766.46 31.374 3768.4 34.694C3770.34 38.014 3771.3 41.832 3771.3 46.148V61.752C3771.3 66.1787 3770.34 70.0797 3768.4 73.455C3766.46 76.775 3763.72 79.3757 3760.18 81.257C3756.7 83.083 3752.63 83.996 3747.98 83.996ZM3747.98 70.633C3750.3 70.633 3752.16 69.886 3753.54 68.392C3754.98 66.8427 3755.7 64.7953 3755.7 62.25V45.982C3755.7 43.4367 3754.98 41.417 3753.54 39.923C3752.16 38.3737 3750.3 37.599 3747.98 37.599C3745.71 37.599 3743.86 38.3737 3742.42 39.923C3741.04 41.417 3740.34 43.4367 3740.34 45.982V62.25C3740.34 64.7953 3741.04 66.8427 3742.42 68.392C3743.86 69.886 3745.71 70.633 3747.98 70.633ZM3814.89 52.788C3814.67 52.954 3814.67 53.12 3814.89 53.286C3817.38 54.6693 3819.2 56.44 3820.36 58.598C3821.53 60.756 3822.11 63.3567 3822.11 66.4C3822.11 72.0993 3820.12 76.3047 3816.13 79.016C3812.15 81.672 3806.97 83 3800.61 83H3778.28C3777.9 83 3777.59 82.8893 3777.37 82.668C3777.15 82.4467 3777.04 82.1423 3777.04 81.755V26.145C3777.04 25.7577 3777.15 25.4533 3777.37 25.232C3777.59 25.0107 3777.9 24.9 3778.28 24.9H3799.86C3806.95 24.9 3812.26 26.1727 3815.8 28.718C3819.4 31.208 3821.19 35.4133 3821.19 41.334C3821.19 46.5907 3819.09 50.4087 3814.89 52.788ZM3793.06 38.263C3792.78 38.263 3792.64 38.4013 3792.64 38.678V46.978C3792.64 47.2547 3792.78 47.393 3793.06 47.393H3799.86C3803.9 47.393 3805.92 45.8713 3805.92 42.828C3805.92 39.7847 3803.9 38.263 3799.86 38.263H3793.06ZM3800.61 69.637C3804.54 69.637 3806.5 68.0047 3806.5 64.74C3806.5 61.6413 3804.57 60.092 3800.69 60.092H3793.06C3792.78 60.092 3792.64 60.2303 3792.64 60.507V69.222C3792.64 69.4987 3792.78 69.637 3793.06 69.637H3800.61ZM3829.35 83C3828.96 83 3828.66 82.8893 3828.44 82.668C3828.21 82.4467 3828.1 82.1423 3828.1 81.755V26.145C3828.1 25.7577 3828.21 25.4533 3828.44 25.232C3828.66 25.0107 3828.96 24.9 3829.35 24.9H3842.46C3842.85 24.9 3843.15 25.0107 3843.38 25.232C3843.6 25.4533 3843.71 25.7577 3843.71 26.145V81.755C3843.71 82.1423 3843.6 82.4467 3843.38 82.668C3843.15 82.8893 3842.85 83 3842.46 83H3829.35ZM3851.4 83C3851.01 83 3850.7 82.8893 3850.48 82.668C3850.26 82.4467 3850.15 82.1423 3850.15 81.755V26.145C3850.15 25.7577 3850.26 25.4533 3850.48 25.232C3850.7 25.0107 3851.01 24.9 3851.4 24.9H3864.51C3864.9 24.9 3865.2 25.0107 3865.42 25.232C3865.64 25.4533 3865.75 25.7577 3865.75 26.145V69.222C3865.75 69.4987 3865.89 69.637 3866.17 69.637H3891.82C3892.2 69.637 3892.51 69.7477 3892.73 69.969C3892.95 70.1903 3893.06 70.4947 3893.06 70.882V81.755C3893.06 82.1423 3892.95 82.4467 3892.73 82.668C3892.51 82.8893 3892.2 83 3891.82 83H3851.4ZM3939.89 37.018C3939.89 37.4053 3939.78 37.7097 3939.56 37.931C3939.34 38.1523 3939.03 38.263 3938.65 38.263H3913.83C3913.55 38.263 3913.41 38.4013 3913.41 38.678V46.48C3913.41 46.7567 3913.55 46.895 3913.83 46.895H3929.18C3929.57 46.895 3929.88 47.0057 3930.1 47.227C3930.32 47.4483 3930.43 47.7527 3930.43 48.14V58.93C3930.43 59.3173 3930.32 59.6217 3930.1 59.843C3929.88 60.0643 3929.57 60.175 3929.18 60.175H3913.83C3913.55 60.175 3913.41 60.3133 3913.41 60.59V69.222C3913.41 69.4987 3913.55 69.637 3913.83 69.637H3938.65C3939.03 69.637 3939.34 69.7477 3939.56 69.969C3939.78 70.1903 3939.89 70.4947 3939.89 70.882V81.755C3939.89 82.1423 3939.78 82.4467 3939.56 82.668C3939.34 82.8893 3939.03 83 3938.65 83H3899.06C3898.67 83 3898.36 82.8893 3898.14 82.668C3897.92 82.4467 3897.81 82.1423 3897.81 81.755V26.145C3897.81 25.7577 3897.92 25.4533 3898.14 25.232C3898.36 25.0107 3898.67 24.9 3899.06 24.9H3938.65C3939.03 24.9 3939.34 25.0107 3939.56 25.232C3939.78 25.4533 3939.89 25.7577 3939.89 26.145V37.018ZM3961.58 83C3961.25 83 3960.94 82.917 3960.67 82.751C3960.39 82.5297 3960.22 82.253 3960.17 81.921L3943.82 26.311C3943.76 26.2003 3943.74 26.062 3943.74 25.896C3943.74 25.232 3944.12 24.9 3944.9 24.9H3959.09C3959.81 24.9 3960.25 25.2597 3960.42 25.979L3968.72 61.005C3968.77 61.2263 3968.86 61.337 3968.97 61.337C3969.08 61.337 3969.16 61.2263 3969.22 61.005L3977.27 25.979C3977.43 25.2597 3977.88 24.9 3978.6 24.9H3992.46C3992.9 24.9 3993.2 25.0383 3993.37 25.315C3993.59 25.5363 3993.65 25.8683 3993.54 26.311L3977.02 81.921C3976.96 82.253 3976.8 82.5297 3976.52 82.751C3976.24 82.917 3975.94 83 3975.61 83H3961.58ZM4029.19 83C4028.47 83 4028 82.6957 4027.78 82.087L4018.65 61.005C4018.53 60.7837 4018.37 60.673 4018.15 60.673H4014.66C4014.38 60.673 4014.25 60.8113 4014.25 61.088V81.755C4014.25 82.1423 4014.14 82.4467 4013.91 82.668C4013.69 82.8893 4013.39 83 4013 83H3999.89C3999.5 83 3999.2 82.8893 3998.97 82.668C3998.75 82.4467 3998.64 82.1423 3998.64 81.755V26.145C3998.64 25.7577 3998.75 25.4533 3998.97 25.232C3999.2 25.0107 3999.5 24.9 3999.89 24.9H4025.04C4028.8 24.9 4032.09 25.6747 4034.91 27.224C4037.79 28.7733 4040 30.959 4041.55 33.781C4043.16 36.5477 4043.96 39.757 4043.96 43.409C4043.96 47.061 4043.05 50.2703 4041.22 53.037C4039.45 55.7483 4036.99 57.7403 4033.83 59.013C4033.56 59.1237 4033.47 59.3173 4033.59 59.594L4044.13 81.506C4044.24 81.838 4044.29 82.0317 4044.29 82.087C4044.29 82.3637 4044.18 82.585 4043.96 82.751C4043.74 82.917 4043.46 83 4043.13 83H4029.19ZM4014.66 38.263C4014.38 38.263 4014.25 38.4013 4014.25 38.678V48.389C4014.25 48.6657 4014.38 48.804 4014.66 48.804H4022.46C4024.23 48.804 4025.67 48.3337 4026.78 47.393C4027.89 46.397 4028.44 45.1243 4028.44 43.575C4028.44 41.9703 4027.89 40.6977 4026.78 39.757C4025.67 38.761 4024.23 38.263 4022.46 38.263H4014.66ZM4050.95 83C4050.56 83 4050.26 82.8893 4050.04 82.668C4049.82 82.4467 4049.71 82.1423 4049.71 81.755V26.145C4049.71 25.7577 4049.82 25.4533 4050.04 25.232C4050.26 25.0107 4050.56 24.9 4050.95 24.9H4064.07C4064.45 24.9 4064.76 25.0107 4064.98 25.232C4065.2 25.4533 4065.31 25.7577 4065.31 26.145V81.755C4065.31 82.1423 4065.2 82.4467 4064.98 82.668C4064.76 82.8893 4064.45 83 4064.07 83H4050.95ZM4113.83 37.018C4113.83 37.4053 4113.72 37.7097 4113.5 37.931C4113.28 38.1523 4112.98 38.263 4112.59 38.263H4087.77C4087.5 38.263 4087.36 38.4013 4087.36 38.678V46.48C4087.36 46.7567 4087.5 46.895 4087.77 46.895H4103.13C4103.51 46.895 4103.82 47.0057 4104.04 47.227C4104.26 47.4483 4104.37 47.7527 4104.37 48.14V58.93C4104.37 59.3173 4104.26 59.6217 4104.04 59.843C4103.82 60.0643 4103.51 60.175 4103.13 60.175H4087.77C4087.5 60.175 4087.36 60.3133 4087.36 60.59V69.222C4087.36 69.4987 4087.5 69.637 4087.77 69.637H4112.59C4112.98 69.637 4113.28 69.7477 4113.5 69.969C4113.72 70.1903 4113.83 70.4947 4113.83 70.882V81.755C4113.83 82.1423 4113.72 82.4467 4113.5 82.668C4113.28 82.8893 4112.98 83 4112.59 83H4073C4072.61 83 4072.31 82.8893 4072.09 82.668C4071.86 82.4467 4071.75 82.1423 4071.75 81.755V26.145C4071.75 25.7577 4071.86 25.4533 4072.09 25.232C4072.31 25.0107 4072.61 24.9 4073 24.9H4112.59C4112.98 24.9 4113.28 25.0107 4113.5 25.232C4113.72 25.4533 4113.83 25.7577 4113.83 26.145V37.018ZM4151.63 26.145C4151.63 25.7577 4151.74 25.4533 4151.96 25.232C4152.18 25.0107 4152.48 24.9 4152.87 24.9H4165.98C4166.37 24.9 4166.68 25.0107 4166.9 25.232C4167.12 25.4533 4167.23 25.7577 4167.23 26.145V81.755C4167.23 82.1423 4167.12 82.4467 4166.9 82.668C4166.68 82.8893 4166.37 83 4165.98 83H4153.45C4152.79 83 4152.29 82.7233 4151.96 82.17L4135.03 53.95C4134.91 53.784 4134.8 53.7287 4134.69 53.784C4134.58 53.784 4134.53 53.8947 4134.53 54.116L4134.69 81.755C4134.69 82.1423 4134.58 82.4467 4134.36 82.668C4134.14 82.8893 4133.84 83 4133.45 83H4120.33C4119.95 83 4119.64 82.8893 4119.42 82.668C4119.2 82.4467 4119.09 82.1423 4119.09 81.755V26.145C4119.09 25.7577 4119.2 25.4533 4119.42 25.232C4119.64 25.0107 4119.95 24.9 4120.33 24.9H4132.87C4133.53 24.9 4134.03 25.1767 4134.36 25.73L4151.21 53.95C4151.32 54.116 4151.43 54.199 4151.54 54.199C4151.65 54.1437 4151.71 54.0053 4151.71 53.784L4151.63 26.145ZM4174.97 83C4174.58 83 4174.27 82.8893 4174.05 82.668C4173.83 82.4467 4173.72 82.1423 4173.72 81.755V26.145C4173.72 25.7577 4173.83 25.4533 4174.05 25.232C4174.27 25.0107 4174.58 24.9 4174.97 24.9H4196.3C4200.78 24.9 4204.73 25.6747 4208.17 27.224C4211.65 28.7733 4214.34 30.959 4216.22 33.781C4218.1 36.603 4219.04 39.8677 4219.04 43.575V64.325C4219.04 68.0323 4218.1 71.297 4216.22 74.119C4214.34 76.941 4211.65 79.1267 4208.17 80.676C4204.73 82.2253 4200.78 83 4196.3 83H4174.97ZM4189.32 69.222C4189.32 69.4987 4189.46 69.637 4189.74 69.637H4196.88C4198.76 69.637 4200.31 68.9177 4201.53 67.479C4202.74 65.985 4203.38 64.0483 4203.43 61.669V46.231C4203.43 43.8517 4202.83 41.9427 4201.61 40.504C4200.39 39.01 4198.79 38.263 4196.79 38.263H4189.74C4189.46 38.263 4189.32 38.4013 4189.32 38.678V69.222ZM4267.11 37.018C4267.11 37.4053 4267 37.7097 4266.78 37.931C4266.56 38.1523 4266.25 38.263 4265.86 38.263H4241.05C4240.77 38.263 4240.63 38.4013 4240.63 38.678V46.48C4240.63 46.7567 4240.77 46.895 4241.05 46.895H4256.4C4256.79 46.895 4257.09 47.0057 4257.32 47.227C4257.54 47.4483 4257.65 47.7527 4257.65 48.14V58.93C4257.65 59.3173 4257.54 59.6217 4257.32 59.843C4257.09 60.0643 4256.79 60.175 4256.4 60.175H4241.05C4240.77 60.175 4240.63 60.3133 4240.63 60.59V69.222C4240.63 69.4987 4240.77 69.637 4241.05 69.637H4265.86C4266.25 69.637 4266.56 69.7477 4266.78 69.969C4267 70.1903 4267.11 70.4947 4267.11 70.882V81.755C4267.11 82.1423 4267 82.4467 4266.78 82.668C4266.56 82.8893 4266.25 83 4265.86 83H4226.27C4225.89 83 4225.58 82.8893 4225.36 82.668C4225.14 82.4467 4225.03 82.1423 4225.03 81.755V26.145C4225.03 25.7577 4225.14 25.4533 4225.36 25.232C4225.58 25.0107 4225.89 24.9 4226.27 24.9H4265.86C4266.25 24.9 4266.56 25.0107 4266.78 25.232C4267 25.4533 4267.11 25.7577 4267.11 26.145V37.018ZM4273.61 83C4273.22 83 4272.92 82.8893 4272.7 82.668C4272.47 82.4467 4272.36 82.1423 4272.36 81.755V26.145C4272.36 25.7577 4272.47 25.4533 4272.7 25.232C4272.92 25.0107 4273.22 24.9 4273.61 24.9H4286.72C4287.11 24.9 4287.41 25.0107 4287.64 25.232C4287.86 25.4533 4287.97 25.7577 4287.97 26.145V69.222C4287.97 69.4987 4288.11 69.637 4288.38 69.637H4314.03C4314.42 69.637 4314.72 69.7477 4314.94 69.969C4315.16 70.1903 4315.27 70.4947 4315.27 70.882V81.755C4315.27 82.1423 4315.16 82.4467 4314.94 82.668C4314.72 82.8893 4314.42 83 4314.03 83H4273.61ZM4321.27 83C4320.88 83 4320.58 82.8893 4320.36 82.668C4320.13 82.4467 4320.02 82.1423 4320.02 81.755V26.145C4320.02 25.7577 4320.13 25.4533 4320.36 25.232C4320.58 25.0107 4320.88 24.9 4321.27 24.9H4334.38C4334.77 24.9 4335.07 25.0107 4335.3 25.232C4335.52 25.4533 4335.63 25.7577 4335.63 26.145V81.755C4335.63 82.1423 4335.52 82.4467 4335.3 82.668C4335.07 82.8893 4334.77 83 4334.38 83H4321.27ZM4362.02 83.664C4357.54 83.664 4353.64 82.834 4350.32 81.174C4347 79.514 4344.43 77.19 4342.6 74.202C4340.77 71.214 4339.86 67.728 4339.86 63.744V59.345C4339.86 58.9577 4339.97 58.6533 4340.19 58.432C4340.41 58.2107 4340.72 58.1 4341.11 58.1H4354.22C4354.61 58.1 4354.91 58.2107 4355.13 58.432C4355.35 58.6533 4355.47 58.9577 4355.47 59.345V63.661C4355.47 65.653 4356.05 67.2577 4357.21 68.475C4358.37 69.6923 4359.97 70.301 4362.02 70.301C4364.01 70.301 4365.65 69.6923 4366.92 68.475C4368.19 67.2577 4368.83 65.653 4368.83 63.661V26.145C4368.83 25.7577 4368.94 25.4533 4369.16 25.232C4369.38 25.0107 4369.69 24.9 4370.07 24.9H4383.1C4383.49 24.9 4383.8 25.0107 4384.02 25.232C4384.24 25.4533 4384.35 25.7577 4384.35 26.145V63.744C4384.35 67.6727 4383.41 71.1587 4381.53 74.202C4379.65 77.19 4377.02 79.514 4373.64 81.174C4370.27 82.834 4366.39 83.664 4362.02 83.664ZM4392.03 83C4391.64 83 4391.34 82.8893 4391.12 82.668C4390.9 82.4467 4390.78 82.1423 4390.78 81.755V26.145C4390.78 25.7577 4390.9 25.4533 4391.12 25.232C4391.34 25.0107 4391.64 24.9 4392.03 24.9H4405.14C4405.53 24.9 4405.84 25.0107 4406.06 25.232C4406.28 25.4533 4406.39 25.7577 4406.39 26.145V45.982C4406.39 46.148 4406.44 46.2587 4406.55 46.314C4406.67 46.3693 4406.78 46.314 4406.89 46.148L4421.33 25.647C4421.66 25.149 4422.19 24.9 4422.91 24.9H4437.76C4438.43 24.9 4438.76 25.149 4438.76 25.647C4438.76 25.8683 4438.68 26.1173 4438.51 26.394L4421.25 50.381C4421.14 50.547 4421.14 50.7407 4421.25 50.962L4439.09 81.506C4439.26 81.7273 4439.34 81.9763 4439.34 82.253C4439.34 82.751 4438.98 83 4438.26 83H4423.57C4422.85 83 4422.35 82.7233 4422.08 82.17L4410.62 61.752C4410.57 61.586 4410.48 61.503 4410.37 61.503C4410.26 61.503 4410.15 61.586 4410.04 61.752L4406.55 67.064C4406.44 67.2853 4406.39 67.4513 4406.39 67.562V81.755C4406.39 82.1423 4406.28 82.4467 4406.06 82.668C4405.84 82.8893 4405.53 83 4405.14 83H4392.03ZM4502.25 37.018C4502.25 37.4053 4502.14 37.7097 4501.92 37.931C4501.7 38.1523 4501.39 38.263 4501 38.263H4476.19C4475.91 38.263 4475.77 38.4013 4475.77 38.678V46.48C4475.77 46.7567 4475.91 46.895 4476.19 46.895H4491.54C4491.93 46.895 4492.23 47.0057 4492.45 47.227C4492.68 47.4483 4492.79 47.7527 4492.79 48.14V58.93C4492.79 59.3173 4492.68 59.6217 4492.45 59.843C4492.23 60.0643 4491.93 60.175 4491.54 60.175H4476.19C4475.91 60.175 4475.77 60.3133 4475.77 60.59V69.222C4475.77 69.4987 4475.91 69.637 4476.19 69.637H4501C4501.39 69.637 4501.7 69.7477 4501.92 69.969C4502.14 70.1903 4502.25 70.4947 4502.25 70.882V81.755C4502.25 82.1423 4502.14 82.4467 4501.92 82.668C4501.7 82.8893 4501.39 83 4501 83H4461.41C4461.03 83 4460.72 82.8893 4460.5 82.668C4460.28 82.4467 4460.17 82.1423 4460.17 81.755V26.145C4460.17 25.7577 4460.28 25.4533 4460.5 25.232C4460.72 25.0107 4461.03 24.9 4461.41 24.9H4501C4501.39 24.9 4501.7 25.0107 4501.92 25.232C4502.14 25.4533 4502.25 25.7577 4502.25 26.145V37.018ZM4540.04 26.145C4540.04 25.7577 4540.15 25.4533 4540.37 25.232C4540.59 25.0107 4540.9 24.9 4541.28 24.9H4554.4C4554.79 24.9 4555.09 25.0107 4555.31 25.232C4555.53 25.4533 4555.64 25.7577 4555.64 26.145V81.755C4555.64 82.1423 4555.53 82.4467 4555.31 82.668C4555.09 82.8893 4554.79 83 4554.4 83H4541.87C4541.2 83 4540.7 82.7233 4540.37 82.17L4523.44 53.95C4523.33 53.784 4523.22 53.7287 4523.11 53.784C4523 53.784 4522.94 53.8947 4522.94 54.116L4523.11 81.755C4523.11 82.1423 4523 82.4467 4522.78 82.668C4522.55 82.8893 4522.25 83 4521.86 83H4508.75C4508.36 83 4508.06 82.8893 4507.84 82.668C4507.61 82.4467 4507.5 82.1423 4507.5 81.755V26.145C4507.5 25.7577 4507.61 25.4533 4507.84 25.232C4508.06 25.0107 4508.36 24.9 4508.75 24.9H4521.28C4521.95 24.9 4522.44 25.1767 4522.78 25.73L4539.62 53.95C4539.74 54.116 4539.85 54.199 4539.96 54.199C4540.07 54.1437 4540.12 54.0053 4540.12 53.784L4540.04 26.145ZM4615.85 25.73C4616.18 25.1767 4616.68 24.9 4617.35 24.9H4630.29C4630.68 24.9 4630.99 25.0107 4631.21 25.232C4631.43 25.4533 4631.54 25.7577 4631.54 26.145V81.755C4631.54 82.1423 4631.43 82.4467 4631.21 82.668C4630.99 82.8893 4630.68 83 4630.29 83H4617.18C4616.79 83 4616.49 82.8893 4616.27 82.668C4616.05 82.4467 4615.93 82.1423 4615.93 81.755V51.626C4615.93 51.4047 4615.88 51.294 4615.77 51.294C4615.66 51.2387 4615.55 51.294 4615.44 51.46L4609.79 60.673C4609.46 61.2263 4608.96 61.503 4608.3 61.503H4601.99C4601.33 61.503 4600.83 61.2263 4600.5 60.673L4594.85 51.46C4594.74 51.294 4594.63 51.2387 4594.52 51.294C4594.41 51.294 4594.35 51.4047 4594.35 51.626V81.755C4594.35 82.1423 4594.24 82.4467 4594.02 82.668C4593.8 82.8893 4593.5 83 4593.11 83H4580C4579.61 83 4579.3 82.8893 4579.08 82.668C4578.86 82.4467 4578.75 82.1423 4578.75 81.755V26.145C4578.75 25.7577 4578.86 25.4533 4579.08 25.232C4579.3 25.0107 4579.61 24.9 4580 24.9H4592.94C4593.61 24.9 4594.11 25.1767 4594.44 25.73L4604.9 42.579C4605.06 42.911 4605.23 42.911 4605.39 42.579L4615.85 25.73ZM4660.49 83.996C4655.9 83.996 4651.83 83.083 4648.29 81.257C4644.81 79.3757 4642.1 76.775 4640.16 73.455C4638.22 70.0797 4637.25 66.1787 4637.25 61.752V46.148C4637.25 41.832 4638.22 38.014 4640.16 34.694C4642.1 31.374 4644.81 28.801 4648.29 26.975C4651.83 25.149 4655.9 24.236 4660.49 24.236C4665.14 24.236 4669.21 25.149 4672.7 26.975C4676.24 28.801 4678.98 31.374 4680.91 34.694C4682.85 38.014 4683.82 41.832 4683.82 46.148V61.752C4683.82 66.1787 4682.85 70.0797 4680.91 73.455C4678.98 76.775 4676.24 79.3757 4672.7 81.257C4669.21 83.083 4665.14 83.996 4660.49 83.996ZM4660.49 70.633C4662.82 70.633 4664.67 69.886 4666.06 68.392C4667.49 66.8427 4668.21 64.7953 4668.21 62.25V45.982C4668.21 43.4367 4667.49 41.417 4666.06 39.923C4664.67 38.3737 4662.82 37.599 4660.49 37.599C4658.23 37.599 4656.37 38.3737 4654.93 39.923C4653.55 41.417 4652.86 43.4367 4652.86 45.982V62.25C4652.86 64.7953 4653.55 66.8427 4654.93 68.392C4656.37 69.886 4658.23 70.633 4660.49 70.633ZM4690.8 83C4690.41 83 4690.11 82.8893 4689.88 82.668C4689.66 82.4467 4689.55 82.1423 4689.55 81.755V26.145C4689.55 25.7577 4689.66 25.4533 4689.88 25.232C4690.11 25.0107 4690.41 24.9 4690.8 24.9H4712.13C4716.61 24.9 4720.57 25.6747 4724 27.224C4727.48 28.7733 4730.17 30.959 4732.05 33.781C4733.93 36.603 4734.87 39.8677 4734.87 43.575V64.325C4734.87 68.0323 4733.93 71.297 4732.05 74.119C4730.17 76.941 4727.48 79.1267 4724 80.676C4720.57 82.2253 4716.61 83 4712.13 83H4690.8ZM4705.16 69.222C4705.16 69.4987 4705.29 69.637 4705.57 69.637H4712.71C4714.59 69.637 4716.14 68.9177 4717.36 67.479C4718.57 65.985 4719.21 64.0483 4719.27 61.669V46.231C4719.27 43.8517 4718.66 41.9427 4717.44 40.504C4716.22 39.01 4714.62 38.263 4712.63 38.263H4705.57C4705.29 38.263 4705.16 38.4013 4705.16 38.678V69.222ZM4782.94 37.018C4782.94 37.4053 4782.83 37.7097 4782.61 37.931C4782.39 38.1523 4782.08 38.263 4781.7 38.263H4756.88C4756.6 38.263 4756.46 38.4013 4756.46 38.678V46.48C4756.46 46.7567 4756.6 46.895 4756.88 46.895H4772.23C4772.62 46.895 4772.93 47.0057 4773.15 47.227C4773.37 47.4483 4773.48 47.7527 4773.48 48.14V58.93C4773.48 59.3173 4773.37 59.6217 4773.15 59.843C4772.93 60.0643 4772.62 60.175 4772.23 60.175H4756.88C4756.6 60.175 4756.46 60.3133 4756.46 60.59V69.222C4756.46 69.4987 4756.6 69.637 4756.88 69.637H4781.7C4782.08 69.637 4782.39 69.7477 4782.61 69.969C4782.83 70.1903 4782.94 70.4947 4782.94 70.882V81.755C4782.94 82.1423 4782.83 82.4467 4782.61 82.668C4782.39 82.8893 4782.08 83 4781.7 83H4742.11C4741.72 83 4741.41 82.8893 4741.19 82.668C4740.97 82.4467 4740.86 82.1423 4740.86 81.755V26.145C4740.86 25.7577 4740.97 25.4533 4741.19 25.232C4741.41 25.0107 4741.72 24.9 4742.11 24.9H4781.7C4782.08 24.9 4782.39 25.0107 4782.61 25.232C4782.83 25.4533 4782.94 25.7577 4782.94 26.145V37.018ZM4818.74 83C4818.02 83 4817.55 82.6957 4817.33 82.087L4808.2 61.005C4808.09 60.7837 4807.92 60.673 4807.7 60.673H4804.21C4803.94 60.673 4803.8 60.8113 4803.8 61.088V81.755C4803.8 82.1423 4803.69 82.4467 4803.47 82.668C4803.25 82.8893 4802.94 83 4802.55 83H4789.44C4789.05 83 4788.75 82.8893 4788.53 82.668C4788.31 82.4467 4788.2 82.1423 4788.2 81.755V26.145C4788.2 25.7577 4788.31 25.4533 4788.53 25.232C4788.75 25.0107 4789.05 24.9 4789.44 24.9H4814.59C4818.35 24.9 4821.64 25.6747 4824.47 27.224C4827.34 28.7733 4829.56 30.959 4831.11 33.781C4832.71 36.5477 4833.51 39.757 4833.51 43.409C4833.51 47.061 4832.6 50.2703 4830.77 53.037C4829 55.7483 4826.54 57.7403 4823.39 59.013C4823.11 59.1237 4823.03 59.3173 4823.14 59.594L4833.68 81.506C4833.79 81.838 4833.85 82.0317 4833.85 82.087C4833.85 82.3637 4833.74 82.585 4833.51 82.751C4833.29 82.917 4833.02 83 4832.68 83H4818.74ZM4804.21 38.263C4803.94 38.263 4803.8 38.4013 4803.8 38.678V48.389C4803.8 48.6657 4803.94 48.804 4804.21 48.804H4812.02C4813.79 48.804 4815.23 48.3337 4816.33 47.393C4817.44 46.397 4817.99 45.1243 4817.99 43.575C4817.99 41.9703 4817.44 40.6977 4816.33 39.757C4815.23 38.761 4813.79 38.263 4812.02 38.263H4804.21ZM4871.8 26.145C4871.8 25.7577 4871.91 25.4533 4872.13 25.232C4872.35 25.0107 4872.65 24.9 4873.04 24.9H4886.16C4886.54 24.9 4886.85 25.0107 4887.07 25.232C4887.29 25.4533 4887.4 25.7577 4887.4 26.145V81.755C4887.4 82.1423 4887.29 82.4467 4887.07 82.668C4886.85 82.8893 4886.54 83 4886.16 83H4873.62C4872.96 83 4872.46 82.7233 4872.13 82.17L4855.2 53.95C4855.09 53.784 4854.98 53.7287 4854.86 53.784C4854.75 53.784 4854.7 53.8947 4854.7 54.116L4854.86 81.755C4854.86 82.1423 4854.75 82.4467 4854.53 82.668C4854.31 82.8893 4854.01 83 4853.62 83H4840.51C4840.12 83 4839.81 82.8893 4839.59 82.668C4839.37 82.4467 4839.26 82.1423 4839.26 81.755V26.145C4839.26 25.7577 4839.37 25.4533 4839.59 25.232C4839.81 25.0107 4840.12 24.9 4840.51 24.9H4853.04C4853.7 24.9 4854.2 25.1767 4854.53 25.73L4871.38 53.95C4871.49 54.116 4871.6 54.199 4871.71 54.199C4871.82 54.1437 4871.88 54.0053 4871.88 53.784L4871.8 26.145ZM4911.75 83C4911.37 83 4911.06 82.8893 4910.84 82.668C4910.62 82.4467 4910.51 82.1423 4910.51 81.755V26.145C4910.51 25.7577 4910.62 25.4533 4910.84 25.232C4911.06 25.0107 4911.37 24.9 4911.75 24.9H4933.08C4937.57 24.9 4941.52 25.6747 4944.95 27.224C4948.44 28.7733 4951.12 30.959 4953 33.781C4954.88 36.603 4955.83 39.8677 4955.83 43.575V64.325C4955.83 68.0323 4954.88 71.297 4953 74.119C4951.12 76.941 4948.44 79.1267 4944.95 80.676C4941.52 82.2253 4937.57 83 4933.08 83H4911.75ZM4926.11 69.222C4926.11 69.4987 4926.25 69.637 4926.53 69.637H4933.66C4935.55 69.637 4937.1 68.9177 4938.31 67.479C4939.53 65.985 4940.17 64.0483 4940.22 61.669V46.231C4940.22 43.8517 4939.61 41.9427 4938.4 40.504C4937.18 39.01 4935.57 38.263 4933.58 38.263H4926.53C4926.25 38.263 4926.11 38.4013 4926.11 38.678V69.222ZM5003.9 37.018C5003.9 37.4053 5003.79 37.7097 5003.56 37.931C5003.34 38.1523 5003.04 38.263 5002.65 38.263H4977.83C4977.56 38.263 4977.42 38.4013 4977.42 38.678V46.48C4977.42 46.7567 4977.56 46.895 4977.83 46.895H4993.19C4993.58 46.895 4993.88 47.0057 4994.1 47.227C4994.32 47.4483 4994.43 47.7527 4994.43 48.14V58.93C4994.43 59.3173 4994.32 59.6217 4994.1 59.843C4993.88 60.0643 4993.58 60.175 4993.19 60.175H4977.83C4977.56 60.175 4977.42 60.3133 4977.42 60.59V69.222C4977.42 69.4987 4977.56 69.637 4977.83 69.637H5002.65C5003.04 69.637 5003.34 69.7477 5003.56 69.969C5003.79 70.1903 5003.9 70.4947 5003.9 70.882V81.755C5003.9 82.1423 5003.79 82.4467 5003.56 82.668C5003.34 82.8893 5003.04 83 5002.65 83H4963.06C4962.67 83 4962.37 82.8893 4962.15 82.668C4961.93 82.4467 4961.82 82.1423 4961.82 81.755V26.145C4961.82 25.7577 4961.93 25.4533 4962.15 25.232C4962.37 25.0107 4962.67 24.9 4963.06 24.9H5002.65C5003.04 24.9 5003.34 25.0107 5003.56 25.232C5003.79 25.4533 5003.9 25.7577 5003.9 26.145V37.018ZM5031.15 83.664C5026.5 83.664 5022.43 82.917 5018.95 81.423C5015.46 79.8737 5012.75 77.688 5010.81 74.866C5008.93 72.044 5007.99 68.7793 5007.99 65.072V63.91C5007.99 63.5227 5008.1 63.2183 5008.32 62.997C5008.54 62.7757 5008.85 62.665 5009.23 62.665H5022.1C5022.49 62.665 5022.79 62.7757 5023.01 62.997C5023.23 63.2183 5023.34 63.5227 5023.34 63.91V64.408C5023.34 65.9573 5024.15 67.3407 5025.75 68.558C5027.41 69.72 5029.6 70.301 5032.31 70.301C5034.36 70.301 5035.82 69.886 5036.71 69.056C5037.59 68.1707 5038.04 67.2023 5038.04 66.151C5038.04 64.9337 5037.48 64.0207 5036.38 63.412C5035.27 62.8033 5033.25 62.0563 5030.32 61.171L5027.91 60.507C5022.43 58.847 5017.84 56.6337 5014.13 53.867C5010.42 51.1003 5008.57 47.0887 5008.57 41.832C5008.57 38.346 5009.51 35.275 5011.39 32.619C5013.27 29.9077 5015.85 27.8327 5019.11 26.394C5022.43 24.9553 5026.14 24.236 5030.23 24.236C5034.55 24.236 5038.45 25.0383 5041.94 26.643C5045.48 28.2477 5048.24 30.5163 5050.24 33.449C5052.28 36.3817 5053.31 39.7293 5053.31 43.492V44.239C5053.31 44.6263 5053.2 44.9307 5052.98 45.152C5052.75 45.3733 5052.45 45.484 5052.06 45.484H5039.2C5038.81 45.484 5038.51 45.3733 5038.28 45.152C5038.06 44.9307 5037.95 44.6263 5037.95 44.239V44.156C5037.95 42.496 5037.21 41.002 5035.71 39.674C5034.22 38.2907 5032.2 37.599 5029.65 37.599C5027.88 37.599 5026.47 37.9587 5025.42 38.678C5024.42 39.3973 5023.93 40.3933 5023.93 41.666C5023.93 42.662 5024.28 43.5197 5025 44.239C5025.78 44.903 5026.94 45.567 5028.49 46.231C5030.04 46.8397 5032.42 47.642 5035.63 48.638C5036.07 48.804 5038.01 49.4127 5041.44 50.464C5044.92 51.46 5047.83 53.3137 5050.15 56.025C5052.48 58.681 5053.64 61.918 5053.64 65.736C5053.64 69.4433 5052.7 72.6527 5050.82 75.364C5048.94 78.02 5046.31 80.0673 5042.93 81.506C5039.56 82.9447 5035.63 83.664 5031.15 83.664ZM5060.33 83C5059.94 83 5059.63 82.8893 5059.41 82.668C5059.19 82.4467 5059.08 82.1423 5059.08 81.755V26.145C5059.08 25.7577 5059.19 25.4533 5059.41 25.232C5059.63 25.0107 5059.94 24.9 5060.33 24.9H5073.44C5073.83 24.9 5074.13 25.0107 5074.35 25.232C5074.57 25.4533 5074.68 25.7577 5074.68 26.145V81.755C5074.68 82.1423 5074.57 82.4467 5074.35 82.668C5074.13 82.8893 5073.83 83 5073.44 83H5060.33ZM5103.29 83.664C5098.75 83.664 5094.74 82.751 5091.25 80.925C5087.82 79.099 5085.14 76.526 5083.2 73.206C5081.32 69.886 5080.38 66.068 5080.38 61.752V46.065C5080.38 41.749 5081.32 37.9587 5083.2 34.694C5085.14 31.374 5087.82 28.801 5091.25 26.975C5094.74 25.149 5098.75 24.236 5103.29 24.236C5107.72 24.236 5111.67 25.1213 5115.16 26.892C5118.64 28.6073 5121.33 30.959 5123.21 33.947C5125.15 36.935 5126.11 40.1997 5126.11 43.741V43.824C5126.11 44.2113 5126 44.5157 5125.78 44.737C5125.56 44.9583 5125.26 45.069 5124.87 45.069H5111.84C5111.01 45.069 5110.59 44.82 5110.59 44.322C5110.59 42.496 5109.93 40.919 5108.6 39.591C5107.33 38.263 5105.56 37.599 5103.29 37.599C5101.08 37.599 5099.3 38.346 5097.98 39.84C5096.65 41.2787 5095.98 43.2153 5095.98 45.65V62.25C5095.98 64.6293 5096.73 66.566 5098.23 68.06C5099.77 69.554 5101.68 70.301 5103.95 70.301C5106 70.301 5107.66 69.7477 5108.93 68.641C5110.26 67.479 5110.92 65.902 5110.92 63.91V62.831C5110.92 62.5543 5110.79 62.416 5110.51 62.416H5103.21C5102.82 62.416 5102.51 62.3053 5102.29 62.084C5102.07 61.8627 5101.96 61.5583 5101.96 61.171V51.211C5101.96 50.8237 5102.07 50.5193 5102.29 50.298C5102.51 50.0767 5102.82 49.966 5103.21 49.966H5124.87C5125.26 49.966 5125.56 50.0767 5125.78 50.298C5126 50.5193 5126.11 50.8237 5126.11 51.211V62.582C5126.11 66.6767 5125.15 70.3287 5123.21 73.538C5121.33 76.7473 5118.64 79.2373 5115.16 81.008C5111.73 82.7787 5107.77 83.664 5103.29 83.664ZM5164.4 26.145C5164.4 25.7577 5164.51 25.4533 5164.74 25.232C5164.96 25.0107 5165.26 24.9 5165.65 24.9H5178.76C5179.15 24.9 5179.45 25.0107 5179.68 25.232C5179.9 25.4533 5180.01 25.7577 5180.01 26.145V81.755C5180.01 82.1423 5179.9 82.4467 5179.68 82.668C5179.45 82.8893 5179.15 83 5178.76 83H5166.23C5165.57 83 5165.07 82.7233 5164.74 82.17L5147.8 53.95C5147.69 53.784 5147.58 53.7287 5147.47 53.784C5147.36 53.784 5147.31 53.8947 5147.31 54.116L5147.47 81.755C5147.47 82.1423 5147.36 82.4467 5147.14 82.668C5146.92 82.8893 5146.61 83 5146.23 83H5133.11C5132.73 83 5132.42 82.8893 5132.2 82.668C5131.98 82.4467 5131.87 82.1423 5131.87 81.755V26.145C5131.87 25.7577 5131.98 25.4533 5132.2 25.232C5132.42 25.0107 5132.73 24.9 5133.11 24.9H5145.65C5146.31 24.9 5146.81 25.1767 5147.14 25.73L5163.99 53.95C5164.1 54.116 5164.21 54.199 5164.32 54.199C5164.43 54.1437 5164.49 54.0053 5164.49 53.784L5164.4 26.145Z" fill="#818187"/>
<path d="M2698.23 83.664C2693.58 83.664 2689.52 82.917 2686.03 81.423C2682.55 79.8737 2679.83 77.688 2677.9 74.866C2676.02 72.044 2675.08 68.7793 2675.08 65.072V63.91C2675.08 63.5227 2675.19 63.2183 2675.41 62.997C2675.63 62.7757 2675.93 62.665 2676.32 62.665H2689.19C2689.57 62.665 2689.88 62.7757 2690.1 62.997C2690.32 63.2183 2690.43 63.5227 2690.43 63.91V64.408C2690.43 65.9573 2691.23 67.3407 2692.84 68.558C2694.5 69.72 2696.68 70.301 2699.39 70.301C2701.44 70.301 2702.91 69.886 2703.79 69.056C2704.68 68.1707 2705.12 67.2023 2705.12 66.151C2705.12 64.9337 2704.57 64.0207 2703.46 63.412C2702.35 62.8033 2700.33 62.0563 2697.4 61.171L2695 60.507C2689.52 58.847 2684.92 56.6337 2681.22 53.867C2677.51 51.1003 2675.66 47.0887 2675.66 41.832C2675.66 38.346 2676.6 35.275 2678.48 32.619C2680.36 29.9077 2682.93 27.8327 2686.2 26.394C2689.52 24.9553 2693.22 24.236 2697.32 24.236C2701.64 24.236 2705.54 25.0383 2709.02 26.643C2712.56 28.2477 2715.33 30.5163 2717.32 33.449C2719.37 36.3817 2720.39 39.7293 2720.39 43.492V44.239C2720.39 44.6263 2720.28 44.9307 2720.06 45.152C2719.84 45.3733 2719.54 45.484 2719.15 45.484H2706.28C2705.9 45.484 2705.59 45.3733 2705.37 45.152C2705.15 44.9307 2705.04 44.6263 2705.04 44.239V44.156C2705.04 42.496 2704.29 41.002 2702.8 39.674C2701.3 38.2907 2699.28 37.599 2696.74 37.599C2694.97 37.599 2693.56 37.9587 2692.51 38.678C2691.51 39.3973 2691.01 40.3933 2691.01 41.666C2691.01 42.662 2691.37 43.5197 2692.09 44.239C2692.86 44.903 2694.03 45.567 2695.58 46.231C2697.13 46.8397 2699.5 47.642 2702.71 48.638C2703.16 48.804 2705.09 49.4127 2708.52 50.464C2712.01 51.46 2714.92 53.3137 2717.24 56.025C2719.56 58.681 2720.73 61.918 2720.73 65.736C2720.73 69.4433 2719.78 72.6527 2717.9 75.364C2716.02 78.02 2713.39 80.0673 2710.02 81.506C2706.64 82.9447 2702.71 83.664 2698.23 83.664ZM2768.25 37.018C2768.25 37.4053 2768.14 37.7097 2767.92 37.931C2767.69 38.1523 2767.39 38.263 2767 38.263H2742.19C2741.91 38.263 2741.77 38.4013 2741.77 38.678V46.48C2741.77 46.7567 2741.91 46.895 2742.19 46.895H2757.54C2757.93 46.895 2758.23 47.0057 2758.45 47.227C2758.68 47.4483 2758.79 47.7527 2758.79 48.14V58.93C2758.79 59.3173 2758.68 59.6217 2758.45 59.843C2758.23 60.0643 2757.93 60.175 2757.54 60.175H2742.19C2741.91 60.175 2741.77 60.3133 2741.77 60.59V69.222C2741.77 69.4987 2741.91 69.637 2742.19 69.637H2767C2767.39 69.637 2767.69 69.7477 2767.92 69.969C2768.14 70.1903 2768.25 70.4947 2768.25 70.882V81.755C2768.25 82.1423 2768.14 82.4467 2767.92 82.668C2767.69 82.8893 2767.39 83 2767 83H2727.41C2727.02 83 2726.72 82.8893 2726.5 82.668C2726.28 82.4467 2726.17 82.1423 2726.17 81.755V26.145C2726.17 25.7577 2726.28 25.4533 2726.5 25.232C2726.72 25.0107 2727.02 24.9 2727.41 24.9H2767C2767.39 24.9 2767.69 25.0107 2767.92 25.232C2768.14 25.4533 2768.25 25.7577 2768.25 26.145V37.018ZM2796 83.996C2791.4 83.996 2787.34 83.083 2783.79 81.257C2780.31 79.3757 2777.6 76.775 2775.66 73.455C2773.72 70.0797 2772.76 66.1787 2772.76 61.752V46.148C2772.76 41.832 2773.72 38.014 2775.66 34.694C2777.6 31.374 2780.31 28.801 2783.79 26.975C2787.34 25.149 2791.4 24.236 2796 24.236C2800.64 24.236 2804.71 25.149 2808.2 26.975C2811.74 28.801 2814.48 31.374 2816.41 34.694C2818.35 38.014 2819.32 41.832 2819.32 46.148V61.752C2819.32 66.1787 2818.35 70.0797 2816.41 73.455C2814.48 76.775 2811.74 79.3757 2808.2 81.257C2804.71 83.083 2800.64 83.996 2796 83.996ZM2796 70.633C2798.32 70.633 2800.17 69.886 2801.56 68.392C2803 66.8427 2803.71 64.7953 2803.71 62.25V45.982C2803.71 43.4367 2803 41.417 2801.56 39.923C2800.17 38.3737 2798.32 37.599 2796 37.599C2793.73 37.599 2791.87 38.3737 2790.43 39.923C2789.05 41.417 2788.36 43.4367 2788.36 45.982V62.25C2788.36 64.7953 2789.05 66.8427 2790.43 68.392C2791.87 69.886 2793.73 70.633 2796 70.633ZM2824.73 65.985C2824.34 65.985 2824.03 65.8743 2823.81 65.653C2823.59 65.4317 2823.48 65.1273 2823.48 64.74V53.95C2823.48 53.5627 2823.59 53.2583 2823.81 53.037C2824.03 52.8157 2824.34 52.705 2824.73 52.705H2853.36C2853.75 52.705 2854.05 52.8157 2854.27 53.037C2854.49 53.2583 2854.61 53.5627 2854.61 53.95V64.74C2854.61 65.1273 2854.49 65.4317 2854.27 65.653C2854.05 65.8743 2853.75 65.985 2853.36 65.985H2824.73ZM2881.82 83.664C2877.29 83.664 2873.28 82.751 2869.79 80.925C2866.36 79.099 2863.68 76.526 2861.74 73.206C2859.86 69.886 2858.92 66.068 2858.92 61.752V46.065C2858.92 41.749 2859.86 37.9587 2861.74 34.694C2863.68 31.374 2866.36 28.801 2869.79 26.975C2873.28 25.149 2877.29 24.236 2881.82 24.236C2886.25 24.236 2890.21 25.1213 2893.69 26.892C2897.18 28.6073 2899.86 30.959 2901.74 33.947C2903.68 36.935 2904.65 40.1997 2904.65 43.741V43.824C2904.65 44.2113 2904.54 44.5157 2904.32 44.737C2904.1 44.9583 2903.79 45.069 2903.4 45.069H2890.37C2889.54 45.069 2889.13 44.82 2889.13 44.322C2889.13 42.496 2888.46 40.919 2887.14 39.591C2885.86 38.263 2884.09 37.599 2881.82 37.599C2879.61 37.599 2877.84 38.346 2876.51 39.84C2875.18 41.2787 2874.52 43.2153 2874.52 45.65V62.25C2874.52 64.6293 2875.27 66.566 2876.76 68.06C2878.31 69.554 2880.22 70.301 2882.49 70.301C2884.54 70.301 2886.2 69.7477 2887.47 68.641C2888.8 67.479 2889.46 65.902 2889.46 63.91V62.831C2889.46 62.5543 2889.32 62.416 2889.05 62.416H2881.74C2881.35 62.416 2881.05 62.3053 2880.83 62.084C2880.61 61.8627 2880.5 61.5583 2880.5 61.171V51.211C2880.5 50.8237 2880.61 50.5193 2880.83 50.298C2881.05 50.0767 2881.35 49.966 2881.74 49.966H2903.4C2903.79 49.966 2904.1 50.0767 2904.32 50.298C2904.54 50.5193 2904.65 50.8237 2904.65 51.211V62.582C2904.65 66.6767 2903.68 70.3287 2901.74 73.538C2899.86 76.7473 2897.18 79.2373 2893.69 81.008C2890.26 82.7787 2886.31 83.664 2881.82 83.664ZM2952.48 37.018C2952.48 37.4053 2952.37 37.7097 2952.15 37.931C2951.93 38.1523 2951.63 38.263 2951.24 38.263H2926.42C2926.15 38.263 2926.01 38.4013 2926.01 38.678V46.48C2926.01 46.7567 2926.15 46.895 2926.42 46.895H2941.78C2942.17 46.895 2942.47 47.0057 2942.69 47.227C2942.91 47.4483 2943.02 47.7527 2943.02 48.14V58.93C2943.02 59.3173 2942.91 59.6217 2942.69 59.843C2942.47 60.0643 2942.17 60.175 2941.78 60.175H2926.42C2926.15 60.175 2926.01 60.3133 2926.01 60.59V69.222C2926.01 69.4987 2926.15 69.637 2926.42 69.637H2951.24C2951.63 69.637 2951.93 69.7477 2952.15 69.969C2952.37 70.1903 2952.48 70.4947 2952.48 70.882V81.755C2952.48 82.1423 2952.37 82.4467 2952.15 82.668C2951.93 82.8893 2951.63 83 2951.24 83H2911.65C2911.26 83 2910.96 82.8893 2910.74 82.668C2910.51 82.4467 2910.4 82.1423 2910.4 81.755V26.145C2910.4 25.7577 2910.51 25.4533 2910.74 25.232C2910.96 25.0107 2911.26 24.9 2911.65 24.9H2951.24C2951.63 24.9 2951.93 25.0107 2952.15 25.232C2952.37 25.4533 2952.48 25.7577 2952.48 26.145V37.018ZM2980.23 83.996C2975.64 83.996 2971.57 83.083 2968.03 81.257C2964.55 79.3757 2961.83 76.775 2959.9 73.455C2957.96 70.0797 2956.99 66.1787 2956.99 61.752V46.148C2956.99 41.832 2957.96 38.014 2959.9 34.694C2961.83 31.374 2964.55 28.801 2968.03 26.975C2971.57 25.149 2975.64 24.236 2980.23 24.236C2984.88 24.236 2988.95 25.149 2992.43 26.975C2995.98 28.801 2998.71 31.374 3000.65 34.694C3002.59 38.014 3003.56 41.832 3003.56 46.148V61.752C3003.56 66.1787 3002.59 70.0797 3000.65 73.455C2998.71 76.775 2995.98 79.3757 2992.43 81.257C2988.95 83.083 2984.88 83.996 2980.23 83.996ZM2980.23 70.633C2982.56 70.633 2984.41 69.886 2985.79 68.392C2987.23 66.8427 2987.95 64.7953 2987.95 62.25V45.982C2987.95 43.4367 2987.23 41.417 2985.79 39.923C2984.41 38.3737 2982.56 37.599 2980.23 37.599C2977.96 37.599 2976.11 38.3737 2974.67 39.923C2973.29 41.417 2972.6 43.4367 2972.6 45.982V62.25C2972.6 64.7953 2973.29 66.8427 2974.67 68.392C2976.11 69.886 2977.96 70.633 2980.23 70.633ZM3034.61 24.9C3038.53 24.9 3041.99 25.7023 3044.98 27.307C3047.97 28.8563 3050.27 31.0973 3051.87 34.03C3053.53 36.9073 3054.36 40.2273 3054.36 43.99C3054.36 47.6973 3053.5 50.962 3051.79 53.784C3050.07 56.606 3047.66 58.7917 3044.57 60.341C3041.47 61.8903 3037.9 62.665 3033.86 62.665H3025.06C3024.78 62.665 3024.65 62.8033 3024.65 63.08V81.755C3024.65 82.1423 3024.54 82.4467 3024.31 82.668C3024.09 82.8893 3023.79 83 3023.4 83H3010.29C3009.9 83 3009.6 82.8893 3009.37 82.668C3009.15 82.4467 3009.04 82.1423 3009.04 81.755V26.145C3009.04 25.7577 3009.15 25.4533 3009.37 25.232C3009.6 25.0107 3009.9 24.9 3010.29 24.9H3034.61ZM3032.03 50.215C3034.08 50.215 3035.71 49.6893 3036.93 48.638C3038.2 47.5313 3038.84 46.0927 3038.84 44.322C3038.84 42.496 3038.2 41.0297 3036.93 39.923C3035.71 38.8163 3034.08 38.263 3032.03 38.263H3025.06C3024.78 38.263 3024.65 38.4013 3024.65 38.678V49.8C3024.65 50.0767 3024.78 50.215 3025.06 50.215H3032.03ZM3102.47 24.9C3102.85 24.9 3103.16 25.0107 3103.38 25.232C3103.6 25.4533 3103.71 25.7577 3103.71 26.145V37.101C3103.71 37.4883 3103.6 37.7927 3103.38 38.014C3103.16 38.2353 3102.85 38.346 3102.47 38.346H3088.52C3088.25 38.346 3088.11 38.4843 3088.11 38.761V81.755C3088.11 82.1423 3088 82.4467 3087.78 82.668C3087.55 82.8893 3087.25 83 3086.86 83H3073.75C3073.36 83 3073.06 82.8893 3072.84 82.668C3072.61 82.4467 3072.5 82.1423 3072.5 81.755V38.761C3072.5 38.4843 3072.37 38.346 3072.09 38.346H3058.56C3058.17 38.346 3057.87 38.2353 3057.65 38.014C3057.43 37.7927 3057.32 37.4883 3057.32 37.101V26.145C3057.32 25.7577 3057.43 25.4533 3057.65 25.232C3057.87 25.0107 3058.17 24.9 3058.56 24.9H3102.47ZM3109.67 83C3109.28 83 3108.97 82.8893 3108.75 82.668C3108.53 82.4467 3108.42 82.1423 3108.42 81.755V26.145C3108.42 25.7577 3108.53 25.4533 3108.75 25.232C3108.97 25.0107 3109.28 24.9 3109.67 24.9H3122.78C3123.17 24.9 3123.47 25.0107 3123.69 25.232C3123.91 25.4533 3124.02 25.7577 3124.02 26.145V81.755C3124.02 82.1423 3123.91 82.4467 3123.69 82.668C3123.47 82.8893 3123.17 83 3122.78 83H3109.67ZM3167.57 25.73C3167.9 25.1767 3168.4 24.9 3169.06 24.9H3182.01C3182.4 24.9 3182.7 25.0107 3182.92 25.232C3183.14 25.4533 3183.26 25.7577 3183.26 26.145V81.755C3183.26 82.1423 3183.14 82.4467 3182.92 82.668C3182.7 82.8893 3182.4 83 3182.01 83H3168.9C3168.51 83 3168.2 82.8893 3167.98 82.668C3167.76 82.4467 3167.65 82.1423 3167.65 81.755V51.626C3167.65 51.4047 3167.6 51.294 3167.49 51.294C3167.37 51.2387 3167.26 51.294 3167.15 51.46L3161.51 60.673C3161.18 61.2263 3160.68 61.503 3160.02 61.503H3153.71C3153.04 61.503 3152.55 61.2263 3152.21 60.673L3146.57 51.46C3146.46 51.294 3146.35 51.2387 3146.24 51.294C3146.13 51.294 3146.07 51.4047 3146.07 51.626V81.755C3146.07 82.1423 3145.96 82.4467 3145.74 82.668C3145.52 82.8893 3145.21 83 3144.83 83H3131.71C3131.33 83 3131.02 82.8893 3130.8 82.668C3130.58 82.4467 3130.47 82.1423 3130.47 81.755V26.145C3130.47 25.7577 3130.58 25.4533 3130.8 25.232C3131.02 25.0107 3131.33 24.9 3131.71 24.9H3144.66C3145.32 24.9 3145.82 25.1767 3146.15 25.73L3156.61 42.579C3156.78 42.911 3156.94 42.911 3157.11 42.579L3167.57 25.73ZM3228.56 83C3227.79 83 3227.32 82.6403 3227.15 81.921L3225.33 75.447C3225.21 75.2257 3225.08 75.115 3224.91 75.115H3207.31C3207.15 75.115 3207.01 75.2257 3206.9 75.447L3205.07 81.921C3204.91 82.6403 3204.44 83 3203.66 83H3189.47C3188.47 83 3188.11 82.5297 3188.39 81.589L3205.9 25.896C3206.12 25.232 3206.6 24.9 3207.31 24.9H3224.91C3225.63 24.9 3226.1 25.232 3226.32 25.896L3243.83 81.589C3243.89 81.6997 3243.92 81.8657 3243.92 82.087C3243.92 82.6957 3243.53 83 3242.76 83H3228.56ZM3210.55 62.665C3210.5 62.997 3210.61 63.163 3210.88 63.163H3221.26C3221.59 63.163 3221.7 62.997 3221.59 62.665L3216.28 44.073C3216.22 43.907 3216.14 43.824 3216.03 43.824C3215.92 43.824 3215.84 43.907 3215.78 44.073L3210.55 62.665ZM3250.21 83C3249.83 83 3249.52 82.8893 3249.3 82.668C3249.08 82.4467 3248.97 82.1423 3248.97 81.755V26.145C3248.97 25.7577 3249.08 25.4533 3249.3 25.232C3249.52 25.0107 3249.83 24.9 3250.21 24.9H3263.33C3263.72 24.9 3264.02 25.0107 3264.24 25.232C3264.46 25.4533 3264.57 25.7577 3264.57 26.145V69.222C3264.57 69.4987 3264.71 69.637 3264.99 69.637H3290.64C3291.02 69.637 3291.33 69.7477 3291.55 69.969C3291.77 70.1903 3291.88 70.4947 3291.88 70.882V81.755C3291.88 82.1423 3291.77 82.4467 3291.55 82.668C3291.33 82.8893 3291.02 83 3290.64 83H3250.21ZM3297.87 83C3297.49 83 3297.18 82.8893 3296.96 82.668C3296.74 82.4467 3296.63 82.1423 3296.63 81.755V26.145C3296.63 25.7577 3296.74 25.4533 3296.96 25.232C3297.18 25.0107 3297.49 24.9 3297.87 24.9H3310.99C3311.38 24.9 3311.68 25.0107 3311.9 25.232C3312.12 25.4533 3312.23 25.7577 3312.23 26.145V81.755C3312.23 82.1423 3312.12 82.4467 3311.9 82.668C3311.68 82.8893 3311.38 83 3310.99 83H3297.87ZM3340.67 83.664C3336.02 83.664 3331.96 82.917 3328.47 81.423C3324.98 79.8737 3322.27 77.688 3320.34 74.866C3318.46 72.044 3317.51 68.7793 3317.51 65.072V63.91C3317.51 63.5227 3317.63 63.2183 3317.85 62.997C3318.07 62.7757 3318.37 62.665 3318.76 62.665H3331.62C3332.01 62.665 3332.32 62.7757 3332.54 62.997C3332.76 63.2183 3332.87 63.5227 3332.87 63.91V64.408C3332.87 65.9573 3333.67 67.3407 3335.28 68.558C3336.94 69.72 3339.12 70.301 3341.83 70.301C3343.88 70.301 3345.35 69.886 3346.23 69.056C3347.12 68.1707 3347.56 67.2023 3347.56 66.151C3347.56 64.9337 3347.01 64.0207 3345.9 63.412C3344.79 62.8033 3342.77 62.0563 3339.84 61.171L3337.43 60.507C3331.96 58.847 3327.36 56.6337 3323.66 53.867C3319.95 51.1003 3318.1 47.0887 3318.1 41.832C3318.1 38.346 3319.04 35.275 3320.92 32.619C3322.8 29.9077 3325.37 27.8327 3328.64 26.394C3331.96 24.9553 3335.66 24.236 3339.76 24.236C3344.07 24.236 3347.98 25.0383 3351.46 26.643C3355 28.2477 3357.77 30.5163 3359.76 33.449C3361.81 36.3817 3362.83 39.7293 3362.83 43.492V44.239C3362.83 44.6263 3362.72 44.9307 3362.5 45.152C3362.28 45.3733 3361.97 45.484 3361.59 45.484H3348.72C3348.34 45.484 3348.03 45.3733 3347.81 45.152C3347.59 44.9307 3347.48 44.6263 3347.48 44.239V44.156C3347.48 42.496 3346.73 41.002 3345.24 39.674C3343.74 38.2907 3341.72 37.599 3339.18 37.599C3337.41 37.599 3336 37.9587 3334.94 38.678C3333.95 39.3973 3333.45 40.3933 3333.45 41.666C3333.45 42.662 3333.81 43.5197 3334.53 44.239C3335.3 44.903 3336.47 45.567 3338.02 46.231C3339.56 46.8397 3341.94 47.642 3345.15 48.638C3345.6 48.804 3347.53 49.4127 3350.96 50.464C3354.45 51.46 3357.35 53.3137 3359.68 56.025C3362 58.681 3363.16 61.918 3363.16 65.736C3363.16 69.4433 3362.22 72.6527 3360.34 75.364C3358.46 78.02 3355.83 80.0673 3352.46 81.506C3349.08 82.9447 3345.15 83.664 3340.67 83.664ZM3410.69 37.018C3410.69 37.4053 3410.58 37.7097 3410.36 37.931C3410.13 38.1523 3409.83 38.263 3409.44 38.263H3384.63C3384.35 38.263 3384.21 38.4013 3384.21 38.678V46.48C3384.21 46.7567 3384.35 46.895 3384.63 46.895H3399.98C3400.37 46.895 3400.67 47.0057 3400.89 47.227C3401.11 47.4483 3401.23 47.7527 3401.23 48.14V58.93C3401.23 59.3173 3401.11 59.6217 3400.89 59.843C3400.67 60.0643 3400.37 60.175 3399.98 60.175H3384.63C3384.35 60.175 3384.21 60.3133 3384.21 60.59V69.222C3384.21 69.4987 3384.35 69.637 3384.63 69.637H3409.44C3409.83 69.637 3410.13 69.7477 3410.36 69.969C3410.58 70.1903 3410.69 70.4947 3410.69 70.882V81.755C3410.69 82.1423 3410.58 82.4467 3410.36 82.668C3410.13 82.8893 3409.83 83 3409.44 83H3369.85C3369.46 83 3369.16 82.8893 3368.94 82.668C3368.72 82.4467 3368.61 82.1423 3368.61 81.755V26.145C3368.61 25.7577 3368.72 25.4533 3368.94 25.232C3369.16 25.0107 3369.46 24.9 3369.85 24.9H3409.44C3409.83 24.9 3410.13 25.0107 3410.36 25.232C3410.58 25.4533 3410.69 25.7577 3410.69 26.145V37.018ZM3458.02 37.018C3458.02 37.4053 3457.91 37.7097 3457.69 37.931C3457.47 38.1523 3457.17 38.263 3456.78 38.263H3431.96C3431.68 38.263 3431.55 38.4013 3431.55 38.678V46.48C3431.55 46.7567 3431.68 46.895 3431.96 46.895H3447.32C3447.7 46.895 3448.01 47.0057 3448.23 47.227C3448.45 47.4483 3448.56 47.7527 3448.56 48.14V58.93C3448.56 59.3173 3448.45 59.6217 3448.23 59.843C3448.01 60.0643 3447.7 60.175 3447.32 60.175H3431.96C3431.68 60.175 3431.55 60.3133 3431.55 60.59V69.222C3431.55 69.4987 3431.68 69.637 3431.96 69.637H3456.78C3457.17 69.637 3457.47 69.7477 3457.69 69.969C3457.91 70.1903 3458.02 70.4947 3458.02 70.882V81.755C3458.02 82.1423 3457.91 82.4467 3457.69 82.668C3457.47 82.8893 3457.17 83 3456.78 83H3417.19C3416.8 83 3416.5 82.8893 3416.27 82.668C3416.05 82.4467 3415.94 82.1423 3415.94 81.755V26.145C3415.94 25.7577 3416.05 25.4533 3416.27 25.232C3416.5 25.0107 3416.8 24.9 3417.19 24.9H3456.78C3457.17 24.9 3457.47 25.0107 3457.69 25.232C3457.91 25.4533 3458.02 25.7577 3458.02 26.145V37.018ZM3493.82 83C3493.1 83 3492.63 82.6957 3492.41 82.087L3483.28 61.005C3483.17 60.7837 3483 60.673 3482.78 60.673H3479.3C3479.02 60.673 3478.88 60.8113 3478.88 61.088V81.755C3478.88 82.1423 3478.77 82.4467 3478.55 82.668C3478.33 82.8893 3478.02 83 3477.64 83H3464.52C3464.14 83 3463.83 82.8893 3463.61 82.668C3463.39 82.4467 3463.28 82.1423 3463.28 81.755V26.145C3463.28 25.7577 3463.39 25.4533 3463.61 25.232C3463.83 25.0107 3464.14 24.9 3464.52 24.9H3489.67C3493.43 24.9 3496.73 25.6747 3499.55 27.224C3502.43 28.7733 3504.64 30.959 3506.19 33.781C3507.79 36.5477 3508.6 39.757 3508.6 43.409C3508.6 47.061 3507.68 50.2703 3505.86 53.037C3504.09 55.7483 3501.62 57.7403 3498.47 59.013C3498.19 59.1237 3498.11 59.3173 3498.22 59.594L3508.76 81.506C3508.87 81.838 3508.93 82.0317 3508.93 82.087C3508.93 82.3637 3508.82 82.585 3508.6 82.751C3508.37 82.917 3508.1 83 3507.77 83H3493.82ZM3479.3 38.263C3479.02 38.263 3478.88 38.4013 3478.88 38.678V48.389C3478.88 48.6657 3479.02 48.804 3479.3 48.804H3487.1C3488.87 48.804 3490.31 48.3337 3491.42 47.393C3492.52 46.397 3493.08 45.1243 3493.08 43.575C3493.08 41.9703 3492.52 40.6977 3491.42 39.757C3490.31 38.761 3488.87 38.263 3487.1 38.263H3479.3ZM3515.59 83C3515.2 83 3514.9 82.8893 3514.67 82.668C3514.45 82.4467 3514.34 82.1423 3514.34 81.755V26.145C3514.34 25.7577 3514.45 25.4533 3514.67 25.232C3514.9 25.0107 3515.2 24.9 3515.59 24.9H3536.92C3541.4 24.9 3545.36 25.6747 3548.79 27.224C3552.27 28.7733 3554.96 30.959 3556.84 33.781C3558.72 36.603 3559.66 39.8677 3559.66 43.575V64.325C3559.66 68.0323 3558.72 71.297 3556.84 74.119C3554.96 76.941 3552.27 79.1267 3548.79 80.676C3545.36 82.2253 3541.4 83 3536.92 83H3515.59ZM3529.95 69.222C3529.95 69.4987 3530.08 69.637 3530.36 69.637H3537.5C3539.38 69.637 3540.93 68.9177 3542.15 67.479C3543.36 65.985 3544 64.0483 3544.06 61.669V46.231C3544.06 43.8517 3543.45 41.9427 3542.23 40.504C3541.01 39.01 3539.41 38.263 3537.42 38.263H3530.36C3530.08 38.263 3529.95 38.4013 3529.95 38.678V69.222Z" fill="#818187"/>
<path d="M1811.23 83.664C1806.58 83.664 1802.52 82.917 1799.03 81.423C1795.55 79.8737 1792.83 77.688 1790.9 74.866C1789.02 72.044 1788.08 68.7793 1788.08 65.072V63.91C1788.08 63.5227 1788.19 63.2183 1788.41 62.997C1788.63 62.7757 1788.93 62.665 1789.32 62.665H1802.19C1802.57 62.665 1802.88 62.7757 1803.1 62.997C1803.32 63.2183 1803.43 63.5227 1803.43 63.91V64.408C1803.43 65.9573 1804.23 67.3407 1805.84 68.558C1807.5 69.72 1809.68 70.301 1812.39 70.301C1814.44 70.301 1815.91 69.886 1816.79 69.056C1817.68 68.1707 1818.12 67.2023 1818.12 66.151C1818.12 64.9337 1817.57 64.0207 1816.46 63.412C1815.35 62.8033 1813.33 62.0563 1810.4 61.171L1808 60.507C1802.52 58.847 1797.92 56.6337 1794.22 53.867C1790.51 51.1003 1788.66 47.0887 1788.66 41.832C1788.66 38.346 1789.6 35.275 1791.48 32.619C1793.36 29.9077 1795.93 27.8327 1799.2 26.394C1802.52 24.9553 1806.22 24.236 1810.32 24.236C1814.64 24.236 1818.54 25.0383 1822.02 26.643C1825.56 28.2477 1828.33 30.5163 1830.32 33.449C1832.37 36.3817 1833.39 39.7293 1833.39 43.492V44.239C1833.39 44.6263 1833.28 44.9307 1833.06 45.152C1832.84 45.3733 1832.54 45.484 1832.15 45.484H1819.28C1818.9 45.484 1818.59 45.3733 1818.37 45.152C1818.15 44.9307 1818.04 44.6263 1818.04 44.239V44.156C1818.04 42.496 1817.29 41.002 1815.8 39.674C1814.3 38.2907 1812.28 37.599 1809.74 37.599C1807.97 37.599 1806.56 37.9587 1805.51 38.678C1804.51 39.3973 1804.01 40.3933 1804.01 41.666C1804.01 42.662 1804.37 43.5197 1805.09 44.239C1805.86 44.903 1807.03 45.567 1808.58 46.231C1810.13 46.8397 1812.5 47.642 1815.71 48.638C1816.16 48.804 1818.09 49.4127 1821.52 50.464C1825.01 51.46 1827.92 53.3137 1830.24 56.025C1832.56 58.681 1833.73 61.918 1833.73 65.736C1833.73 69.4433 1832.78 72.6527 1830.9 75.364C1829.02 78.02 1826.39 80.0673 1823.02 81.506C1819.64 82.9447 1815.71 83.664 1811.23 83.664ZM1871.7 26.145C1871.7 25.7577 1871.81 25.4533 1872.03 25.232C1872.26 25.0107 1872.56 24.9 1872.95 24.9H1886.06C1886.45 24.9 1886.75 25.0107 1886.97 25.232C1887.2 25.4533 1887.31 25.7577 1887.31 26.145V81.755C1887.31 82.1423 1887.2 82.4467 1886.97 82.668C1886.75 82.8893 1886.45 83 1886.06 83H1873.53C1872.86 83 1872.37 82.7233 1872.03 82.17L1855.1 53.95C1854.99 53.784 1854.88 53.7287 1854.77 53.784C1854.66 53.784 1854.6 53.8947 1854.6 54.116L1854.77 81.755C1854.77 82.1423 1854.66 82.4467 1854.44 82.668C1854.22 82.8893 1853.91 83 1853.53 83H1840.41C1840.02 83 1839.72 82.8893 1839.5 82.668C1839.28 82.4467 1839.17 82.1423 1839.17 81.755V26.145C1839.17 25.7577 1839.28 25.4533 1839.5 25.232C1839.72 25.0107 1840.02 24.9 1840.41 24.9H1852.94C1853.61 24.9 1854.11 25.1767 1854.44 25.73L1871.29 53.95C1871.4 54.116 1871.51 54.199 1871.62 54.199C1871.73 54.1437 1871.79 54.0053 1871.79 53.784L1871.7 26.145ZM1935.88 37.018C1935.88 37.4053 1935.77 37.7097 1935.55 37.931C1935.33 38.1523 1935.02 38.263 1934.63 38.263H1909.82C1909.54 38.263 1909.4 38.4013 1909.4 38.678V46.48C1909.4 46.7567 1909.54 46.895 1909.82 46.895H1925.17C1925.56 46.895 1925.86 47.0057 1926.08 47.227C1926.31 47.4483 1926.42 47.7527 1926.42 48.14V58.93C1926.42 59.3173 1926.31 59.6217 1926.08 59.843C1925.86 60.0643 1925.56 60.175 1925.17 60.175H1909.82C1909.54 60.175 1909.4 60.3133 1909.4 60.59V69.222C1909.4 69.4987 1909.54 69.637 1909.82 69.637H1934.63C1935.02 69.637 1935.33 69.7477 1935.55 69.969C1935.77 70.1903 1935.88 70.4947 1935.88 70.882V81.755C1935.88 82.1423 1935.77 82.4467 1935.55 82.668C1935.33 82.8893 1935.02 83 1934.63 83H1895.04C1894.66 83 1894.35 82.8893 1894.13 82.668C1893.91 82.4467 1893.8 82.1423 1893.8 81.755V26.145C1893.8 25.7577 1893.91 25.4533 1894.13 25.232C1894.35 25.0107 1894.66 24.9 1895.04 24.9H1934.63C1935.02 24.9 1935.33 25.0107 1935.55 25.232C1935.77 25.4533 1935.88 25.7577 1935.88 26.145V37.018ZM1942.38 83C1941.99 83 1941.69 82.8893 1941.47 82.668C1941.24 82.4467 1941.13 82.1423 1941.13 81.755V26.145C1941.13 25.7577 1941.24 25.4533 1941.47 25.232C1941.69 25.0107 1941.99 24.9 1942.38 24.9H1955.49C1955.88 24.9 1956.18 25.0107 1956.41 25.232C1956.63 25.4533 1956.74 25.7577 1956.74 26.145V69.222C1956.74 69.4987 1956.88 69.637 1957.15 69.637H1982.8C1983.19 69.637 1983.49 69.7477 1983.71 69.969C1983.93 70.1903 1984.04 70.4947 1984.04 70.882V81.755C1984.04 82.1423 1983.93 82.4467 1983.71 82.668C1983.49 82.8893 1983.19 83 1982.8 83H1942.38ZM1990.04 83C1989.65 83 1989.35 82.8893 1989.13 82.668C1988.9 82.4467 1988.79 82.1423 1988.79 81.755V26.145C1988.79 25.7577 1988.9 25.4533 1989.13 25.232C1989.35 25.0107 1989.65 24.9 1990.04 24.9H2003.15C2003.54 24.9 2003.84 25.0107 2004.07 25.232C2004.29 25.4533 2004.4 25.7577 2004.4 26.145V69.222C2004.4 69.4987 2004.54 69.637 2004.81 69.637H2030.46C2030.85 69.637 2031.15 69.7477 2031.37 69.969C2031.59 70.1903 2031.7 70.4947 2031.7 70.882V81.755C2031.7 82.1423 2031.59 82.4467 2031.37 82.668C2031.15 82.8893 2030.85 83 2030.46 83H1990.04ZM2078.53 37.018C2078.53 37.4053 2078.42 37.7097 2078.2 37.931C2077.98 38.1523 2077.68 38.263 2077.29 38.263H2052.47C2052.2 38.263 2052.06 38.4013 2052.06 38.678V46.48C2052.06 46.7567 2052.2 46.895 2052.47 46.895H2067.83C2068.22 46.895 2068.52 47.0057 2068.74 47.227C2068.96 47.4483 2069.07 47.7527 2069.07 48.14V58.93C2069.07 59.3173 2068.96 59.6217 2068.74 59.843C2068.52 60.0643 2068.22 60.175 2067.83 60.175H2052.47C2052.2 60.175 2052.06 60.3133 2052.06 60.59V69.222C2052.06 69.4987 2052.2 69.637 2052.47 69.637H2077.29C2077.68 69.637 2077.98 69.7477 2078.2 69.969C2078.42 70.1903 2078.53 70.4947 2078.53 70.882V81.755C2078.53 82.1423 2078.42 82.4467 2078.2 82.668C2077.98 82.8893 2077.68 83 2077.29 83H2037.7C2037.31 83 2037.01 82.8893 2036.79 82.668C2036.56 82.4467 2036.45 82.1423 2036.45 81.755V26.145C2036.45 25.7577 2036.56 25.4533 2036.79 25.232C2037.01 25.0107 2037.31 24.9 2037.7 24.9H2077.29C2077.68 24.9 2077.98 25.0107 2078.2 25.232C2078.42 25.4533 2078.53 25.7577 2078.53 26.145V37.018ZM2122.9 83.996C2118.31 83.996 2114.24 83.083 2110.7 81.257C2107.21 79.3757 2104.5 76.775 2102.56 73.455C2100.63 70.0797 2099.66 66.1787 2099.66 61.752V46.148C2099.66 41.832 2100.63 38.014 2102.56 34.694C2104.5 31.374 2107.21 28.801 2110.7 26.975C2114.24 25.149 2118.31 24.236 2122.9 24.236C2127.55 24.236 2131.61 25.149 2135.1 26.975C2138.64 28.801 2141.38 31.374 2143.32 34.694C2145.25 38.014 2146.22 41.832 2146.22 46.148V61.752C2146.22 66.1787 2145.25 70.0797 2143.32 73.455C2141.38 76.775 2138.64 79.3757 2135.1 81.257C2131.61 83.083 2127.55 83.996 2122.9 83.996ZM2122.9 70.633C2125.22 70.633 2127.08 69.886 2128.46 68.392C2129.9 66.8427 2130.62 64.7953 2130.62 62.25V45.982C2130.62 43.4367 2129.9 41.417 2128.46 39.923C2127.08 38.3737 2125.22 37.599 2122.9 37.599C2120.63 37.599 2118.78 38.3737 2117.34 39.923C2115.95 41.417 2115.26 43.4367 2115.26 45.982V62.25C2115.26 64.7953 2115.95 66.8427 2117.34 68.392C2118.78 69.886 2120.63 70.633 2122.9 70.633ZM2177.27 24.9C2181.2 24.9 2184.66 25.7023 2187.65 27.307C2190.63 28.8563 2192.93 31.0973 2194.54 34.03C2196.2 36.9073 2197.03 40.2273 2197.03 43.99C2197.03 47.6973 2196.17 50.962 2194.45 53.784C2192.74 56.606 2190.33 58.7917 2187.23 60.341C2184.13 61.8903 2180.56 62.665 2176.52 62.665H2167.73C2167.45 62.665 2167.31 62.8033 2167.31 63.08V81.755C2167.31 82.1423 2167.2 82.4467 2166.98 82.668C2166.76 82.8893 2166.45 83 2166.07 83H2152.95C2152.57 83 2152.26 82.8893 2152.04 82.668C2151.82 82.4467 2151.71 82.1423 2151.71 81.755V26.145C2151.71 25.7577 2151.82 25.4533 2152.04 25.232C2152.26 25.0107 2152.57 24.9 2152.95 24.9H2177.27ZM2174.7 50.215C2176.75 50.215 2178.38 49.6893 2179.6 48.638C2180.87 47.5313 2181.5 46.0927 2181.5 44.322C2181.5 42.496 2180.87 41.0297 2179.6 39.923C2178.38 38.8163 2176.75 38.263 2174.7 38.263H2167.73C2167.45 38.263 2167.31 38.4013 2167.31 38.678V49.8C2167.31 50.0767 2167.45 50.215 2167.73 50.215H2174.7ZM2202.97 83C2202.58 83 2202.28 82.8893 2202.06 82.668C2201.83 82.4467 2201.72 82.1423 2201.72 81.755V26.145C2201.72 25.7577 2201.83 25.4533 2202.06 25.232C2202.28 25.0107 2202.58 24.9 2202.97 24.9H2216.08C2216.47 24.9 2216.77 25.0107 2217 25.232C2217.22 25.4533 2217.33 25.7577 2217.33 26.145V69.222C2217.33 69.4987 2217.47 69.637 2217.74 69.637H2243.39C2243.78 69.637 2244.08 69.7477 2244.3 69.969C2244.52 70.1903 2244.64 70.4947 2244.64 70.882V81.755C2244.64 82.1423 2244.52 82.4467 2244.3 82.668C2244.08 82.8893 2243.78 83 2243.39 83H2202.97ZM2291.47 37.018C2291.47 37.4053 2291.35 37.7097 2291.13 37.931C2290.91 38.1523 2290.61 38.263 2290.22 38.263H2265.4C2265.13 38.263 2264.99 38.4013 2264.99 38.678V46.48C2264.99 46.7567 2265.13 46.895 2265.4 46.895H2280.76C2281.15 46.895 2281.45 47.0057 2281.67 47.227C2281.89 47.4483 2282 47.7527 2282 48.14V58.93C2282 59.3173 2281.89 59.6217 2281.67 59.843C2281.45 60.0643 2281.15 60.175 2280.76 60.175H2265.4C2265.13 60.175 2264.99 60.3133 2264.99 60.59V69.222C2264.99 69.4987 2265.13 69.637 2265.4 69.637H2290.22C2290.61 69.637 2290.91 69.7477 2291.13 69.969C2291.35 70.1903 2291.47 70.4947 2291.47 70.882V81.755C2291.47 82.1423 2291.35 82.4467 2291.13 82.668C2290.91 82.8893 2290.61 83 2290.22 83H2250.63C2250.24 83 2249.94 82.8893 2249.72 82.668C2249.5 82.4467 2249.38 82.1423 2249.38 81.755V26.145C2249.38 25.7577 2249.5 25.4533 2249.72 25.232C2249.94 25.0107 2250.24 24.9 2250.63 24.9H2290.22C2290.61 24.9 2290.91 25.0107 2291.13 25.232C2291.35 25.4533 2291.47 25.7577 2291.47 26.145V37.018ZM2313.15 83C2312.82 83 2312.52 82.917 2312.24 82.751C2311.96 82.5297 2311.8 82.253 2311.74 81.921L2295.39 26.311C2295.34 26.2003 2295.31 26.062 2295.31 25.896C2295.31 25.232 2295.7 24.9 2296.47 24.9H2310.66C2311.38 24.9 2311.83 25.2597 2311.99 25.979L2320.29 61.005C2320.35 61.2263 2320.43 61.337 2320.54 61.337C2320.65 61.337 2320.74 61.2263 2320.79 61.005L2328.84 25.979C2329.01 25.2597 2329.45 24.9 2330.17 24.9H2344.03C2344.47 24.9 2344.78 25.0383 2344.94 25.315C2345.16 25.5363 2345.22 25.8683 2345.11 26.311L2328.59 81.921C2328.54 82.253 2328.37 82.5297 2328.09 82.751C2327.82 82.917 2327.51 83 2327.18 83H2313.15ZM2392.3 37.018C2392.3 37.4053 2392.19 37.7097 2391.97 37.931C2391.74 38.1523 2391.44 38.263 2391.05 38.263H2366.24C2365.96 38.263 2365.82 38.4013 2365.82 38.678V46.48C2365.82 46.7567 2365.96 46.895 2366.24 46.895H2381.59C2381.98 46.895 2382.28 47.0057 2382.5 47.227C2382.72 47.4483 2382.84 47.7527 2382.84 48.14V58.93C2382.84 59.3173 2382.72 59.6217 2382.5 59.843C2382.28 60.0643 2381.98 60.175 2381.59 60.175H2366.24C2365.96 60.175 2365.82 60.3133 2365.82 60.59V69.222C2365.82 69.4987 2365.96 69.637 2366.24 69.637H2391.05C2391.44 69.637 2391.74 69.7477 2391.97 69.969C2392.19 70.1903 2392.3 70.4947 2392.3 70.882V81.755C2392.3 82.1423 2392.19 82.4467 2391.97 82.668C2391.74 82.8893 2391.44 83 2391.05 83H2351.46C2351.07 83 2350.77 82.8893 2350.55 82.668C2350.33 82.4467 2350.22 82.1423 2350.22 81.755V26.145C2350.22 25.7577 2350.33 25.4533 2350.55 25.232C2350.77 25.0107 2351.07 24.9 2351.46 24.9H2391.05C2391.44 24.9 2391.74 25.0107 2391.97 25.232C2392.19 25.4533 2392.3 25.7577 2392.3 26.145V37.018ZM2428.1 83C2427.38 83 2426.91 82.6957 2426.69 82.087L2417.56 61.005C2417.44 60.7837 2417.28 60.673 2417.06 60.673H2413.57C2413.29 60.673 2413.16 60.8113 2413.16 61.088V81.755C2413.16 82.1423 2413.05 82.4467 2412.82 82.668C2412.6 82.8893 2412.3 83 2411.91 83H2398.8C2398.41 83 2398.11 82.8893 2397.88 82.668C2397.66 82.4467 2397.55 82.1423 2397.55 81.755V26.145C2397.55 25.7577 2397.66 25.4533 2397.88 25.232C2398.11 25.0107 2398.41 24.9 2398.8 24.9H2423.95C2427.71 24.9 2431 25.6747 2433.82 27.224C2436.7 28.7733 2438.91 30.959 2440.46 33.781C2442.07 36.5477 2442.87 39.757 2442.87 43.409C2442.87 47.061 2441.96 50.2703 2440.13 53.037C2438.36 55.7483 2435.9 57.7403 2432.74 59.013C2432.47 59.1237 2432.38 59.3173 2432.5 59.594L2443.04 81.506C2443.15 81.838 2443.2 82.0317 2443.2 82.087C2443.2 82.3637 2443.09 82.585 2442.87 82.751C2442.65 82.917 2442.37 83 2442.04 83H2428.1ZM2413.57 38.263C2413.29 38.263 2413.16 38.4013 2413.16 38.678V48.389C2413.16 48.6657 2413.29 48.804 2413.57 48.804H2421.37C2423.14 48.804 2424.58 48.3337 2425.69 47.393C2426.8 46.397 2427.35 45.1243 2427.35 43.575C2427.35 41.9703 2426.8 40.6977 2425.69 39.757C2424.58 38.761 2423.14 38.263 2421.37 38.263H2413.57ZM2449.86 83C2449.47 83 2449.17 82.8893 2448.95 82.668C2448.73 82.4467 2448.62 82.1423 2448.62 81.755V26.145C2448.62 25.7577 2448.73 25.4533 2448.95 25.232C2449.17 25.0107 2449.47 24.9 2449.86 24.9H2462.98C2463.36 24.9 2463.67 25.0107 2463.89 25.232C2464.11 25.4533 2464.22 25.7577 2464.22 26.145V81.755C2464.22 82.1423 2464.11 82.4467 2463.89 82.668C2463.67 82.8893 2463.36 83 2462.98 83H2449.86ZM2503.2 26.145C2503.2 25.7577 2503.31 25.4533 2503.53 25.232C2503.75 25.0107 2504.06 24.9 2504.44 24.9H2517.56C2517.95 24.9 2518.25 25.0107 2518.47 25.232C2518.69 25.4533 2518.8 25.7577 2518.8 26.145V81.755C2518.8 82.1423 2518.69 82.4467 2518.47 82.668C2518.25 82.8893 2517.95 83 2517.56 83H2505.03C2504.36 83 2503.86 82.7233 2503.53 82.17L2486.6 53.95C2486.49 53.784 2486.38 53.7287 2486.27 53.784C2486.16 53.784 2486.1 53.8947 2486.1 54.116L2486.27 81.755C2486.27 82.1423 2486.16 82.4467 2485.94 82.668C2485.71 82.8893 2485.41 83 2485.02 83H2471.91C2471.52 83 2471.22 82.8893 2471 82.668C2470.77 82.4467 2470.66 82.1423 2470.66 81.755V26.145C2470.66 25.7577 2470.77 25.4533 2471 25.232C2471.22 25.0107 2471.52 24.9 2471.91 24.9H2484.44C2485.11 24.9 2485.6 25.1767 2485.94 25.73L2502.78 53.95C2502.9 54.116 2503.01 54.199 2503.12 54.199C2503.23 54.1437 2503.28 54.0053 2503.28 53.784L2503.2 26.145ZM2547.46 83.664C2542.92 83.664 2538.91 82.751 2535.42 80.925C2531.99 79.099 2529.31 76.526 2527.37 73.206C2525.49 69.886 2524.55 66.068 2524.55 61.752V46.065C2524.55 41.749 2525.49 37.9587 2527.37 34.694C2529.31 31.374 2531.99 28.801 2535.42 26.975C2538.91 25.149 2542.92 24.236 2547.46 24.236C2551.88 24.236 2555.84 25.1213 2559.32 26.892C2562.81 28.6073 2565.49 30.959 2567.38 33.947C2569.31 36.935 2570.28 40.1997 2570.28 43.741V43.824C2570.28 44.2113 2570.17 44.5157 2569.95 44.737C2569.73 44.9583 2569.42 45.069 2569.04 45.069H2556C2555.17 45.069 2554.76 44.82 2554.76 44.322C2554.76 42.496 2554.1 40.919 2552.77 39.591C2551.49 38.263 2549.72 37.599 2547.46 37.599C2545.24 37.599 2543.47 38.346 2542.14 39.84C2540.82 41.2787 2540.15 43.2153 2540.15 45.65V62.25C2540.15 64.6293 2540.9 66.566 2542.39 68.06C2543.94 69.554 2545.85 70.301 2548.12 70.301C2550.17 70.301 2551.83 69.7477 2553.1 68.641C2554.43 67.479 2555.09 65.902 2555.09 63.91V62.831C2555.09 62.5543 2554.95 62.416 2554.68 62.416H2547.37C2546.99 62.416 2546.68 62.3053 2546.46 62.084C2546.24 61.8627 2546.13 61.5583 2546.13 61.171V51.211C2546.13 50.8237 2546.24 50.5193 2546.46 50.298C2546.68 50.0767 2546.99 49.966 2547.37 49.966H2569.04C2569.42 49.966 2569.73 50.0767 2569.95 50.298C2570.17 50.5193 2570.28 50.8237 2570.28 51.211V62.582C2570.28 66.6767 2569.31 70.3287 2567.38 73.538C2565.49 76.7473 2562.81 79.2373 2559.32 81.008C2555.89 82.7787 2551.94 83.664 2547.46 83.664Z" fill="#818187"/>
<path d="M1045.48 83C1045.09 83 1044.79 82.8893 1044.57 82.668C1044.35 82.4467 1044.24 82.1423 1044.24 81.755V26.145C1044.24 25.7577 1044.35 25.4533 1044.57 25.232C1044.79 25.0107 1045.09 24.9 1045.48 24.9H1066.81C1071.3 24.9 1075.25 25.6747 1078.68 27.224C1082.17 28.7733 1084.85 30.959 1086.73 33.781C1088.61 36.603 1089.56 39.8677 1089.56 43.575V64.325C1089.56 68.0323 1088.61 71.297 1086.73 74.119C1084.85 76.941 1082.17 79.1267 1078.68 80.676C1075.25 82.2253 1071.3 83 1066.81 83H1045.48ZM1059.84 69.222C1059.84 69.4987 1059.98 69.637 1060.26 69.637H1067.39C1069.28 69.637 1070.82 68.9177 1072.04 67.479C1073.26 65.985 1073.9 64.0483 1073.95 61.669V46.231C1073.95 43.8517 1073.34 41.9427 1072.13 40.504C1070.91 39.01 1069.3 38.263 1067.31 38.263H1060.26C1059.98 38.263 1059.84 38.4013 1059.84 38.678V69.222ZM1096.79 83C1096.4 83 1096.1 82.8893 1095.88 82.668C1095.66 82.4467 1095.54 82.1423 1095.54 81.755V26.145C1095.54 25.7577 1095.66 25.4533 1095.88 25.232C1096.1 25.0107 1096.4 24.9 1096.79 24.9H1109.9C1110.29 24.9 1110.6 25.0107 1110.82 25.232C1111.04 25.4533 1111.15 25.7577 1111.15 26.145V81.755C1111.15 82.1423 1111.04 82.4467 1110.82 82.668C1110.6 82.8893 1110.29 83 1109.9 83H1096.79ZM1148.14 83C1147.42 83 1146.95 82.6957 1146.72 82.087L1137.59 61.005C1137.48 60.7837 1137.32 60.673 1137.1 60.673H1133.61C1133.33 60.673 1133.2 60.8113 1133.2 61.088V81.755C1133.2 82.1423 1133.08 82.4467 1132.86 82.668C1132.64 82.8893 1132.34 83 1131.95 83H1118.84C1118.45 83 1118.14 82.8893 1117.92 82.668C1117.7 82.4467 1117.59 82.1423 1117.59 81.755V26.145C1117.59 25.7577 1117.7 25.4533 1117.92 25.232C1118.14 25.0107 1118.45 24.9 1118.84 24.9H1143.99C1147.75 24.9 1151.04 25.6747 1153.86 27.224C1156.74 28.7733 1158.95 30.959 1160.5 33.781C1162.11 36.5477 1162.91 39.757 1162.91 43.409C1162.91 47.061 1162 50.2703 1160.17 53.037C1158.4 55.7483 1155.94 57.7403 1152.78 59.013C1152.51 59.1237 1152.42 59.3173 1152.53 59.594L1163.08 81.506C1163.19 81.838 1163.24 82.0317 1163.24 82.087C1163.24 82.3637 1163.13 82.585 1162.91 82.751C1162.69 82.917 1162.41 83 1162.08 83H1148.14ZM1133.61 38.263C1133.33 38.263 1133.2 38.4013 1133.2 38.678V48.389C1133.2 48.6657 1133.33 48.804 1133.61 48.804H1141.41C1143.18 48.804 1144.62 48.3337 1145.73 47.393C1146.84 46.397 1147.39 45.1243 1147.39 43.575C1147.39 41.9703 1146.84 40.6977 1145.73 39.757C1144.62 38.761 1143.18 38.263 1141.41 38.263H1133.61ZM1210.74 37.018C1210.74 37.4053 1210.63 37.7097 1210.4 37.931C1210.18 38.1523 1209.88 38.263 1209.49 38.263H1184.67C1184.4 38.263 1184.26 38.4013 1184.26 38.678V46.48C1184.26 46.7567 1184.4 46.895 1184.67 46.895H1200.03C1200.42 46.895 1200.72 47.0057 1200.94 47.227C1201.16 47.4483 1201.27 47.7527 1201.27 48.14V58.93C1201.27 59.3173 1201.16 59.6217 1200.94 59.843C1200.72 60.0643 1200.42 60.175 1200.03 60.175H1184.67C1184.4 60.175 1184.26 60.3133 1184.26 60.59V69.222C1184.26 69.4987 1184.4 69.637 1184.67 69.637H1209.49C1209.88 69.637 1210.18 69.7477 1210.4 69.969C1210.63 70.1903 1210.74 70.4947 1210.74 70.882V81.755C1210.74 82.1423 1210.63 82.4467 1210.4 82.668C1210.18 82.8893 1209.88 83 1209.49 83H1169.9C1169.51 83 1169.21 82.8893 1168.99 82.668C1168.77 82.4467 1168.66 82.1423 1168.66 81.755V26.145C1168.66 25.7577 1168.77 25.4533 1168.99 25.232C1169.21 25.0107 1169.51 24.9 1169.9 24.9H1209.49C1209.88 24.9 1210.18 25.0107 1210.4 25.232C1210.63 25.4533 1210.74 25.7577 1210.74 26.145V37.018ZM1238.15 83.664C1233.62 83.664 1229.6 82.7787 1226.12 81.008C1222.69 79.2373 1220 76.7473 1218.07 73.538C1216.19 70.2733 1215.24 66.5107 1215.24 62.25V45.484C1215.24 41.2787 1216.19 37.5713 1218.07 34.362C1220 31.1527 1222.69 28.6627 1226.12 26.892C1229.6 25.1213 1233.62 24.236 1238.15 24.236C1242.69 24.236 1246.67 25.066 1250.1 26.726C1253.59 28.386 1256.27 30.7377 1258.16 33.781C1260.09 36.769 1261.06 40.255 1261.06 44.239C1261.06 44.737 1260.65 45.0413 1259.82 45.152L1246.7 45.982H1246.45C1245.79 45.982 1245.46 45.6777 1245.46 45.069C1245.46 42.8003 1244.79 41.002 1243.46 39.674C1242.14 38.2907 1240.37 37.599 1238.15 37.599C1235.94 37.599 1234.17 38.2907 1232.84 39.674C1231.51 41.002 1230.85 42.8003 1230.85 45.069V62.914C1230.85 65.1273 1231.51 66.9257 1232.84 68.309C1234.17 69.637 1235.94 70.301 1238.15 70.301C1240.37 70.301 1242.14 69.637 1243.46 68.309C1244.79 66.9257 1245.46 65.1273 1245.46 62.914C1245.46 62.582 1245.57 62.333 1245.79 62.167C1246.01 62.001 1246.31 61.9457 1246.7 62.001L1259.82 62.665C1260.65 62.7203 1261.06 62.997 1261.06 63.495C1261.06 67.479 1260.09 70.9927 1258.16 74.036C1256.27 77.0793 1253.59 79.4587 1250.1 81.174C1246.67 82.834 1242.69 83.664 1238.15 83.664ZM1309.33 24.9C1309.72 24.9 1310.02 25.0107 1310.24 25.232C1310.46 25.4533 1310.58 25.7577 1310.58 26.145V37.101C1310.58 37.4883 1310.46 37.7927 1310.24 38.014C1310.02 38.2353 1309.72 38.346 1309.33 38.346H1295.39C1295.11 38.346 1294.97 38.4843 1294.97 38.761V81.755C1294.97 82.1423 1294.86 82.4467 1294.64 82.668C1294.42 82.8893 1294.11 83 1293.73 83H1280.61C1280.23 83 1279.92 82.8893 1279.7 82.668C1279.48 82.4467 1279.37 82.1423 1279.37 81.755V38.761C1279.37 38.4843 1279.23 38.346 1278.95 38.346H1265.42C1265.04 38.346 1264.73 38.2353 1264.51 38.014C1264.29 37.7927 1264.18 37.4883 1264.18 37.101V26.145C1264.18 25.7577 1264.29 25.4533 1264.51 25.232C1264.73 25.0107 1265.04 24.9 1265.42 24.9H1309.33ZM1354.06 83.664C1349.52 83.664 1345.51 82.7787 1342.03 81.008C1338.6 79.2373 1335.91 76.7473 1333.98 73.538C1332.09 70.2733 1331.15 66.5107 1331.15 62.25V45.484C1331.15 41.2787 1332.09 37.5713 1333.98 34.362C1335.91 31.1527 1338.6 28.6627 1342.03 26.892C1345.51 25.1213 1349.52 24.236 1354.06 24.236C1358.6 24.236 1362.58 25.066 1366.01 26.726C1369.5 28.386 1372.18 30.7377 1374.06 33.781C1376 36.769 1376.97 40.255 1376.97 44.239C1376.97 44.737 1376.55 45.0413 1375.72 45.152L1362.61 45.982H1362.36C1361.7 45.982 1361.37 45.6777 1361.37 45.069C1361.37 42.8003 1360.7 41.002 1359.37 39.674C1358.05 38.2907 1356.27 37.599 1354.06 37.599C1351.85 37.599 1350.08 38.2907 1348.75 39.674C1347.42 41.002 1346.76 42.8003 1346.76 45.069V62.914C1346.76 65.1273 1347.42 66.9257 1348.75 68.309C1350.08 69.637 1351.85 70.301 1354.06 70.301C1356.27 70.301 1358.05 69.637 1359.37 68.309C1360.7 66.9257 1361.37 65.1273 1361.37 62.914C1361.37 62.582 1361.48 62.333 1361.7 62.167C1361.92 62.001 1362.22 61.9457 1362.61 62.001L1375.72 62.665C1376.55 62.7203 1376.97 62.997 1376.97 63.495C1376.97 67.479 1376 70.9927 1374.06 74.036C1372.18 77.0793 1369.5 79.4587 1366.01 81.174C1362.58 82.834 1358.6 83.664 1354.06 83.664ZM1404.97 83.996C1400.38 83.996 1396.31 83.083 1392.77 81.257C1389.28 79.3757 1386.57 76.775 1384.64 73.455C1382.7 70.0797 1381.73 66.1787 1381.73 61.752V46.148C1381.73 41.832 1382.7 38.014 1384.64 34.694C1386.57 31.374 1389.28 28.801 1392.77 26.975C1396.31 25.149 1400.38 24.236 1404.97 24.236C1409.62 24.236 1413.69 25.149 1417.17 26.975C1420.71 28.801 1423.45 31.374 1425.39 34.694C1427.33 38.014 1428.29 41.832 1428.29 46.148V61.752C1428.29 66.1787 1427.33 70.0797 1425.39 73.455C1423.45 76.775 1420.71 79.3757 1417.17 81.257C1413.69 83.083 1409.62 83.996 1404.97 83.996ZM1404.97 70.633C1407.3 70.633 1409.15 69.886 1410.53 68.392C1411.97 66.8427 1412.69 64.7953 1412.69 62.25V45.982C1412.69 43.4367 1411.97 41.417 1410.53 39.923C1409.15 38.3737 1407.3 37.599 1404.97 37.599C1402.7 37.599 1400.85 38.3737 1399.41 39.923C1398.03 41.417 1397.34 43.4367 1397.34 45.982V62.25C1397.34 64.7953 1398.03 66.8427 1399.41 68.392C1400.85 69.886 1402.7 70.633 1404.97 70.633ZM1466.56 26.145C1466.56 25.7577 1466.68 25.4533 1466.9 25.232C1467.12 25.0107 1467.42 24.9 1467.81 24.9H1480.92C1481.31 24.9 1481.62 25.0107 1481.84 25.232C1482.06 25.4533 1482.17 25.7577 1482.17 26.145V81.755C1482.17 82.1423 1482.06 82.4467 1481.84 82.668C1481.62 82.8893 1481.31 83 1480.92 83H1468.39C1467.73 83 1467.23 82.7233 1466.9 82.17L1449.96 53.95C1449.85 53.784 1449.74 53.7287 1449.63 53.784C1449.52 53.784 1449.47 53.8947 1449.47 54.116L1449.63 81.755C1449.63 82.1423 1449.52 82.4467 1449.3 82.668C1449.08 82.8893 1448.78 83 1448.39 83H1435.27C1434.89 83 1434.58 82.8893 1434.36 82.668C1434.14 82.4467 1434.03 82.1423 1434.03 81.755V26.145C1434.03 25.7577 1434.14 25.4533 1434.36 25.232C1434.58 25.0107 1434.89 24.9 1435.27 24.9H1447.81C1448.47 24.9 1448.97 25.1767 1449.3 25.73L1466.15 53.95C1466.26 54.116 1466.37 54.199 1466.48 54.199C1466.59 54.1437 1466.65 54.0053 1466.65 53.784L1466.56 26.145ZM1532.07 24.9C1532.46 24.9 1532.76 25.0107 1532.98 25.232C1533.2 25.4533 1533.31 25.7577 1533.31 26.145V37.101C1533.31 37.4883 1533.2 37.7927 1532.98 38.014C1532.76 38.2353 1532.46 38.346 1532.07 38.346H1518.12C1517.85 38.346 1517.71 38.4843 1517.71 38.761V81.755C1517.71 82.1423 1517.6 82.4467 1517.38 82.668C1517.16 82.8893 1516.85 83 1516.46 83H1503.35C1502.96 83 1502.66 82.8893 1502.44 82.668C1502.22 82.4467 1502.11 82.1423 1502.11 81.755V38.761C1502.11 38.4843 1501.97 38.346 1501.69 38.346H1488.16C1487.77 38.346 1487.47 38.2353 1487.25 38.014C1487.03 37.7927 1486.92 37.4883 1486.92 37.101V26.145C1486.92 25.7577 1487.03 25.4533 1487.25 25.232C1487.47 25.0107 1487.77 24.9 1488.16 24.9H1532.07ZM1571.03 83C1570.26 83 1569.79 82.6403 1569.62 81.921L1567.79 75.447C1567.68 75.2257 1567.54 75.115 1567.38 75.115H1549.78C1549.62 75.115 1549.48 75.2257 1549.37 75.447L1547.54 81.921C1547.38 82.6403 1546.9 83 1546.13 83H1531.94C1530.94 83 1530.58 82.5297 1530.86 81.589L1548.37 25.896C1548.59 25.232 1549.06 24.9 1549.78 24.9H1567.38C1568.1 24.9 1568.57 25.232 1568.79 25.896L1586.3 81.589C1586.36 81.6997 1586.39 81.8657 1586.39 82.087C1586.39 82.6957 1586 83 1585.22 83H1571.03ZM1553.02 62.665C1552.96 62.997 1553.07 63.163 1553.35 63.163H1563.73C1564.06 63.163 1564.17 62.997 1564.06 62.665L1558.75 44.073C1558.69 43.907 1558.61 43.824 1558.5 43.824C1558.39 43.824 1558.3 43.907 1558.25 44.073L1553.02 62.665ZM1611.25 83.664C1606.71 83.664 1602.7 82.7787 1599.21 81.008C1595.78 79.2373 1593.1 76.7473 1591.16 73.538C1589.28 70.2733 1588.34 66.5107 1588.34 62.25V45.484C1588.34 41.2787 1589.28 37.5713 1591.16 34.362C1593.1 31.1527 1595.78 28.6627 1599.21 26.892C1602.7 25.1213 1606.71 24.236 1611.25 24.236C1615.78 24.236 1619.77 25.066 1623.2 26.726C1626.69 28.386 1629.37 30.7377 1631.25 33.781C1633.19 36.769 1634.16 40.255 1634.16 44.239C1634.16 44.737 1633.74 45.0413 1632.91 45.152L1619.8 45.982H1619.55C1618.88 45.982 1618.55 45.6777 1618.55 45.069C1618.55 42.8003 1617.89 41.002 1616.56 39.674C1615.23 38.2907 1613.46 37.599 1611.25 37.599C1609.03 37.599 1607.26 38.2907 1605.94 39.674C1604.61 41.002 1603.94 42.8003 1603.94 45.069V62.914C1603.94 65.1273 1604.61 66.9257 1605.94 68.309C1607.26 69.637 1609.03 70.301 1611.25 70.301C1613.46 70.301 1615.23 69.637 1616.56 68.309C1617.89 66.9257 1618.55 65.1273 1618.55 62.914C1618.55 62.582 1618.66 62.333 1618.88 62.167C1619.1 62.001 1619.41 61.9457 1619.8 62.001L1632.91 62.665C1633.74 62.7203 1634.16 62.997 1634.16 63.495C1634.16 67.479 1633.19 70.9927 1631.25 74.036C1629.37 77.0793 1626.69 79.4587 1623.2 81.174C1619.77 82.834 1615.78 83.664 1611.25 83.664ZM1682.43 24.9C1682.81 24.9 1683.12 25.0107 1683.34 25.232C1683.56 25.4533 1683.67 25.7577 1683.67 26.145V37.101C1683.67 37.4883 1683.56 37.7927 1683.34 38.014C1683.12 38.2353 1682.81 38.346 1682.43 38.346H1668.48C1668.2 38.346 1668.07 38.4843 1668.07 38.761V81.755C1668.07 82.1423 1667.96 82.4467 1667.73 82.668C1667.51 82.8893 1667.21 83 1666.82 83H1653.71C1653.32 83 1653.02 82.8893 1652.79 82.668C1652.57 82.4467 1652.46 82.1423 1652.46 81.755V38.761C1652.46 38.4843 1652.32 38.346 1652.05 38.346H1638.52C1638.13 38.346 1637.83 38.2353 1637.61 38.014C1637.38 37.7927 1637.27 37.4883 1637.27 37.101V26.145C1637.27 25.7577 1637.38 25.4533 1637.61 25.232C1637.83 25.0107 1638.13 24.9 1638.52 24.9H1682.43Z" fill="#818187"/>
<path d="M41.085 52.788C40.8637 52.954 40.8637 53.12 41.085 53.286C43.575 54.6693 45.401 56.44 46.563 58.598C47.725 60.756 48.306 63.3567 48.306 66.4C48.306 72.0993 46.314 76.3047 42.33 79.016C38.346 81.672 33.1723 83 26.809 83H4.482C4.09467 83 3.79033 82.8893 3.569 82.668C3.34767 82.4467 3.237 82.1423 3.237 81.755V26.145C3.237 25.7577 3.34767 25.4533 3.569 25.232C3.79033 25.0107 4.09467 24.9 4.482 24.9H26.062C33.1447 24.9 38.4567 26.1727 41.998 28.718C45.5947 31.208 47.393 35.4133 47.393 41.334C47.393 46.5907 45.2903 50.4087 41.085 52.788ZM19.256 38.263C18.9793 38.263 18.841 38.4013 18.841 38.678V46.978C18.841 47.2547 18.9793 47.393 19.256 47.393H26.062C30.1013 47.393 32.121 45.8713 32.121 42.828C32.121 39.7847 30.1013 38.263 26.062 38.263H19.256ZM26.809 69.637C30.7377 69.637 32.702 68.0047 32.702 64.74C32.702 61.6413 30.7653 60.092 26.892 60.092H19.256C18.9793 60.092 18.841 60.2303 18.841 60.507V69.222C18.841 69.4987 18.9793 69.637 19.256 69.637H26.809ZM96.3825 37.018C96.3825 37.4053 96.2718 37.7097 96.0505 37.931C95.8291 38.1523 95.5248 38.263 95.1375 38.263H70.3205C70.0438 38.263 69.9055 38.4013 69.9055 38.678V46.48C69.9055 46.7567 70.0438 46.895 70.3205 46.895H85.6755C86.0628 46.895 86.3671 47.0057 86.5885 47.227C86.8098 47.4483 86.9205 47.7527 86.9205 48.14V58.93C86.9205 59.3173 86.8098 59.6217 86.5885 59.843C86.3671 60.0643 86.0628 60.175 85.6755 60.175H70.3205C70.0438 60.175 69.9055 60.3133 69.9055 60.59V69.222C69.9055 69.4987 70.0438 69.637 70.3205 69.637H95.1375C95.5248 69.637 95.8291 69.7477 96.0505 69.969C96.2718 70.1903 96.3825 70.4947 96.3825 70.882V81.755C96.3825 82.1423 96.2718 82.4467 96.0505 82.668C95.8291 82.8893 95.5248 83 95.1375 83H55.5465C55.1591 83 54.8548 82.8893 54.6335 82.668C54.4121 82.4467 54.3015 82.1423 54.3015 81.755V26.145C54.3015 25.7577 54.4121 25.4533 54.6335 25.232C54.8548 25.0107 55.1591 24.9 55.5465 24.9H95.1375C95.5248 24.9 95.8291 25.0107 96.0505 25.232C96.2718 25.4533 96.3825 25.7577 96.3825 26.145V37.018ZM145.046 24.9C145.434 24.9 145.738 25.0107 145.959 25.232C146.181 25.4533 146.291 25.7577 146.291 26.145V37.101C146.291 37.4883 146.181 37.7927 145.959 38.014C145.738 38.2353 145.434 38.346 145.046 38.346H131.102C130.826 38.346 130.687 38.4843 130.687 38.761V81.755C130.687 82.1423 130.577 82.4467 130.355 82.668C130.134 82.8893 129.83 83 129.442 83H116.328C115.941 83 115.637 82.8893 115.415 82.668C115.194 82.4467 115.083 82.1423 115.083 81.755V38.761C115.083 38.4843 114.945 38.346 114.668 38.346H101.139C100.752 38.346 100.448 38.2353 100.226 38.014C100.005 37.7927 99.8944 37.4883 99.8944 37.101V26.145C99.8944 25.7577 100.005 25.4533 100.226 25.232C100.448 25.0107 100.752 24.9 101.139 24.9H145.046ZM184.008 83C183.233 83 182.763 82.6403 182.597 81.921L180.771 75.447C180.66 75.2257 180.522 75.115 180.356 75.115H162.76C162.594 75.115 162.455 75.2257 162.345 75.447L160.519 81.921C160.353 82.6403 159.882 83 159.108 83H144.915C143.919 83 143.559 82.5297 143.836 81.589L161.349 25.896C161.57 25.232 162.04 24.9 162.76 24.9H180.356C181.075 24.9 181.545 25.232 181.767 25.896L199.28 81.589C199.335 81.6997 199.363 81.8657 199.363 82.087C199.363 82.6957 198.975 83 198.201 83H184.008ZM165.997 62.665C165.941 62.997 166.052 63.163 166.329 63.163H176.704C177.036 63.163 177.146 62.997 177.036 62.665L171.724 44.073C171.668 43.907 171.585 43.824 171.475 43.824C171.364 43.824 171.281 43.907 171.226 44.073L165.997 62.665ZM243.259 83C242.484 83 242.014 82.6403 241.848 81.921L240.022 75.447C239.911 75.2257 239.773 75.115 239.607 75.115H222.011C221.845 75.115 221.706 75.2257 221.596 75.447L219.77 81.921C219.604 82.6403 219.133 83 218.359 83H204.166C203.17 83 202.81 82.5297 203.087 81.589L220.6 25.896C220.821 25.232 221.291 24.9 222.011 24.9H239.607C240.326 24.9 240.796 25.232 241.018 25.896L258.531 81.589C258.586 81.6997 258.614 81.8657 258.614 82.087C258.614 82.6957 258.226 83 257.452 83H243.259ZM225.248 62.665C225.192 62.997 225.303 63.163 225.58 63.163H235.955C236.287 63.163 236.397 62.997 236.287 62.665L230.975 44.073C230.919 43.907 230.836 43.824 230.726 43.824C230.615 43.824 230.532 43.907 230.477 44.073L225.248 62.665ZM264.911 83C264.523 83 264.219 82.8893 263.998 82.668C263.776 82.4467 263.666 82.1423 263.666 81.755V26.145C263.666 25.7577 263.776 25.4533 263.998 25.232C264.219 25.0107 264.523 24.9 264.911 24.9H278.025C278.412 24.9 278.716 25.0107 278.938 25.232C279.159 25.4533 279.27 25.7577 279.27 26.145V69.222C279.27 69.4987 279.408 69.637 279.685 69.637H305.332C305.719 69.637 306.023 69.7477 306.245 69.969C306.466 70.1903 306.577 70.4947 306.577 70.882V81.755C306.577 82.1423 306.466 82.4467 306.245 82.668C306.023 82.8893 305.719 83 305.332 83H264.911ZM349.174 52.788C348.953 52.954 348.953 53.12 349.174 53.286C351.664 54.6693 353.49 56.44 354.652 58.598C355.814 60.756 356.395 63.3567 356.395 66.4C356.395 72.0993 354.403 76.3047 350.419 79.016C346.435 81.672 341.261 83 334.898 83H312.571C312.184 83 311.879 82.8893 311.658 82.668C311.437 82.4467 311.326 82.1423 311.326 81.755V26.145C311.326 25.7577 311.437 25.4533 311.658 25.232C311.879 25.0107 312.184 24.9 312.571 24.9H334.151C341.234 24.9 346.546 26.1727 350.087 28.718C353.684 31.208 355.482 35.4133 355.482 41.334C355.482 46.5907 353.379 50.4087 349.174 52.788ZM327.345 38.263C327.068 38.263 326.93 38.4013 326.93 38.678V46.978C326.93 47.2547 327.068 47.393 327.345 47.393H334.151C338.19 47.393 340.21 45.8713 340.21 42.828C340.21 39.7847 338.19 38.263 334.151 38.263H327.345ZM334.898 69.637C338.827 69.637 340.791 68.0047 340.791 64.74C340.791 61.6413 338.854 60.092 334.981 60.092H327.345C327.068 60.092 326.93 60.2303 326.93 60.507V69.222C326.93 69.4987 327.068 69.637 327.345 69.637H334.898ZM397.263 83C396.488 83 396.018 82.6403 395.852 81.921L394.026 75.447C393.915 75.2257 393.777 75.115 393.611 75.115H376.015C375.849 75.115 375.71 75.2257 375.6 75.447L373.774 81.921C373.608 82.6403 373.137 83 372.363 83H358.17C357.174 83 356.814 82.5297 357.091 81.589L374.604 25.896C374.825 25.232 375.295 24.9 376.015 24.9H393.611C394.33 24.9 394.8 25.232 395.022 25.896L412.535 81.589C412.59 81.6997 412.618 81.8657 412.618 82.087C412.618 82.6957 412.23 83 411.456 83H397.263ZM379.252 62.665C379.196 62.997 379.307 63.163 379.584 63.163H389.959C390.291 63.163 390.401 62.997 390.291 62.665L384.979 44.073C384.923 43.907 384.84 43.824 384.73 43.824C384.619 43.824 384.536 43.907 384.481 44.073L379.252 62.665ZM448.214 83C447.494 83 447.024 82.6957 446.803 82.087L437.673 61.005C437.562 60.7837 437.396 60.673 437.175 60.673H433.689C433.412 60.673 433.274 60.8113 433.274 61.088V81.755C433.274 82.1423 433.163 82.4467 432.942 82.668C432.72 82.8893 432.416 83 432.029 83H418.915C418.527 83 418.223 82.8893 418.002 82.668C417.78 82.4467 417.67 82.1423 417.67 81.755V26.145C417.67 25.7577 417.78 25.4533 418.002 25.232C418.223 25.0107 418.527 24.9 418.915 24.9H444.064C447.826 24.9 451.119 25.6747 453.941 27.224C456.818 28.7733 459.031 30.959 460.581 33.781C462.185 36.5477 462.988 39.757 462.988 43.409C462.988 47.061 462.075 50.2703 460.249 53.037C458.478 55.7483 456.016 57.7403 452.862 59.013C452.585 59.1237 452.502 59.3173 452.613 59.594L463.154 81.506C463.264 81.838 463.32 82.0317 463.32 82.087C463.32 82.3637 463.209 82.585 462.988 82.751C462.766 82.917 462.49 83 462.158 83H448.214ZM433.689 38.263C433.412 38.263 433.274 38.4013 433.274 38.678V48.389C433.274 48.6657 433.412 48.804 433.689 48.804H441.491C443.261 48.804 444.7 48.3337 445.807 47.393C446.913 46.397 447.467 45.1243 447.467 43.575C447.467 41.9703 446.913 40.6977 445.807 39.757C444.7 38.761 443.261 38.263 441.491 38.263H433.689ZM510.815 37.018C510.815 37.4053 510.704 37.7097 510.483 37.931C510.262 38.1523 509.957 38.263 509.57 38.263H484.753C484.476 38.263 484.338 38.4013 484.338 38.678V46.48C484.338 46.7567 484.476 46.895 484.753 46.895H500.108C500.495 46.895 500.8 47.0057 501.021 47.227C501.242 47.4483 501.353 47.7527 501.353 48.14V58.93C501.353 59.3173 501.242 59.6217 501.021 59.843C500.8 60.0643 500.495 60.175 500.108 60.175H484.753C484.476 60.175 484.338 60.3133 484.338 60.59V69.222C484.338 69.4987 484.476 69.637 484.753 69.637H509.57C509.957 69.637 510.262 69.7477 510.483 69.969C510.704 70.1903 510.815 70.4947 510.815 70.882V81.755C510.815 82.1423 510.704 82.4467 510.483 82.668C510.262 82.8893 509.957 83 509.57 83H469.979C469.592 83 469.287 82.8893 469.066 82.668C468.845 82.4467 468.734 82.1423 468.734 81.755V26.145C468.734 25.7577 468.845 25.4533 469.066 25.232C469.287 25.0107 469.592 24.9 469.979 24.9H509.57C509.957 24.9 510.262 25.0107 510.483 25.232C510.704 25.4533 510.815 25.7577 510.815 26.145V37.018ZM565.819 83C565.487 83 565.183 82.917 564.906 82.751C564.63 82.5297 564.464 82.253 564.408 81.921L547.974 26.311C547.919 26.2003 547.891 26.062 547.891 25.896C547.891 25.232 548.279 24.9 549.053 24.9H563.163C563.883 24.9 564.325 25.2597 564.491 25.979L571.546 53.037C571.602 53.203 571.685 53.3137 571.795 53.369C571.906 53.369 571.989 53.2583 572.044 53.037L577.605 25.979C577.771 25.2597 578.242 24.9 579.016 24.9H591.134C591.854 24.9 592.296 25.2597 592.462 25.979L598.687 53.037C598.743 53.2583 598.826 53.369 598.936 53.369C599.047 53.369 599.13 53.2583 599.185 53.037L605.41 25.979C605.576 25.2597 606.019 24.9 606.738 24.9H620.931C621.374 24.9 621.678 25.0383 621.844 25.315C622.066 25.5363 622.121 25.8683 622.01 26.311L607.236 81.921C607.07 82.6403 606.628 83 605.908 83H592.628C591.854 83 591.383 82.6403 591.217 81.921L585.241 53.369C585.186 53.203 585.103 53.12 584.992 53.12C584.882 53.12 584.799 53.203 584.743 53.369L579.514 81.838C579.348 82.6127 578.906 83 578.186 83H565.819ZM669.115 37.018C669.115 37.4053 669.004 37.7097 668.783 37.931C668.562 38.1523 668.257 38.263 667.87 38.263H643.053C642.776 38.263 642.638 38.4013 642.638 38.678V46.48C642.638 46.7567 642.776 46.895 643.053 46.895H658.408C658.795 46.895 659.1 47.0057 659.321 47.227C659.542 47.4483 659.653 47.7527 659.653 48.14V58.93C659.653 59.3173 659.542 59.6217 659.321 59.843C659.1 60.0643 658.795 60.175 658.408 60.175H643.053C642.776 60.175 642.638 60.3133 642.638 60.59V69.222C642.638 69.4987 642.776 69.637 643.053 69.637H667.87C668.257 69.637 668.562 69.7477 668.783 69.969C669.004 70.1903 669.115 70.4947 669.115 70.882V81.755C669.115 82.1423 669.004 82.4467 668.783 82.668C668.562 82.8893 668.257 83 667.87 83H628.279C627.892 83 627.587 82.8893 627.366 82.668C627.145 82.4467 627.034 82.1423 627.034 81.755V26.145C627.034 25.7577 627.145 25.4533 627.366 25.232C627.587 25.0107 627.892 24.9 628.279 24.9H667.87C668.257 24.9 668.562 25.0107 668.783 25.232C669.004 25.4533 669.115 25.7577 669.115 26.145V37.018ZM712.218 52.788C711.996 52.954 711.996 53.12 712.218 53.286C714.708 54.6693 716.534 56.44 717.696 58.598C718.858 60.756 719.439 63.3567 719.439 66.4C719.439 72.0993 717.447 76.3047 713.463 79.016C709.479 81.672 704.305 83 697.942 83H675.615C675.227 83 674.923 82.8893 674.702 82.668C674.48 82.4467 674.37 82.1423 674.37 81.755V26.145C674.37 25.7577 674.48 25.4533 674.702 25.232C674.923 25.0107 675.227 24.9 675.615 24.9H697.195C704.277 24.9 709.589 26.1727 713.131 28.718C716.727 31.208 718.526 35.4133 718.526 41.334C718.526 46.5907 716.423 50.4087 712.218 52.788ZM690.389 38.263C690.112 38.263 689.974 38.4013 689.974 38.678V46.978C689.974 47.2547 690.112 47.393 690.389 47.393H697.195C701.234 47.393 703.254 45.8713 703.254 42.828C703.254 39.7847 701.234 38.263 697.195 38.263H690.389ZM697.942 69.637C701.87 69.637 703.835 68.0047 703.835 64.74C703.835 61.6413 701.898 60.092 698.025 60.092H690.389C690.112 60.092 689.974 60.2303 689.974 60.507V69.222C689.974 69.4987 690.112 69.637 690.389 69.637H697.942ZM747.429 83.664C742.781 83.664 738.714 82.917 735.228 81.423C731.742 79.8737 729.031 77.688 727.094 74.866C725.213 72.044 724.272 68.7793 724.272 65.072V63.91C724.272 63.5227 724.383 63.2183 724.604 62.997C724.826 62.7757 725.13 62.665 725.517 62.665H738.382C738.77 62.665 739.074 62.7757 739.295 62.997C739.517 63.2183 739.627 63.5227 739.627 63.91V64.408C739.627 65.9573 740.43 67.3407 742.034 68.558C743.694 69.72 745.88 70.301 748.591 70.301C750.639 70.301 752.105 69.886 752.99 69.056C753.876 68.1707 754.318 67.2023 754.318 66.151C754.318 64.9337 753.765 64.0207 752.658 63.412C751.552 62.8033 749.532 62.0563 746.599 61.171L744.192 60.507C738.714 58.847 734.122 56.6337 730.414 53.867C726.707 51.1003 724.853 47.0887 724.853 41.832C724.853 38.346 725.794 35.275 727.675 32.619C729.557 29.9077 732.13 27.8327 735.394 26.394C738.714 24.9553 742.422 24.236 746.516 24.236C750.832 24.236 754.733 25.0383 758.219 26.643C761.761 28.2477 764.527 30.5163 766.519 33.449C768.567 36.3817 769.59 39.7293 769.59 43.492V44.239C769.59 44.6263 769.48 44.9307 769.258 45.152C769.037 45.3733 768.733 45.484 768.345 45.484H755.48C755.093 45.484 754.789 45.3733 754.567 45.152C754.346 44.9307 754.235 44.6263 754.235 44.239V44.156C754.235 42.496 753.488 41.002 751.994 39.674C750.5 38.2907 748.481 37.599 745.935 37.599C744.165 37.599 742.754 37.9587 741.702 38.678C740.706 39.3973 740.208 40.3933 740.208 41.666C740.208 42.662 740.568 43.5197 741.287 44.239C742.062 44.903 743.224 45.567 744.773 46.231C746.323 46.8397 748.702 47.642 751.911 48.638C752.354 48.804 754.291 49.4127 757.721 50.464C761.207 51.46 764.112 53.3137 766.436 56.025C768.76 58.681 769.922 61.918 769.922 65.736C769.922 69.4433 768.982 72.6527 767.1 75.364C765.219 78.02 762.591 80.0673 759.215 81.506C755.84 82.9447 751.911 83.664 747.429 83.664ZM776.609 83C776.222 83 775.917 82.8893 775.696 82.668C775.475 82.4467 775.364 82.1423 775.364 81.755V26.145C775.364 25.7577 775.475 25.4533 775.696 25.232C775.917 25.0107 776.222 24.9 776.609 24.9H789.723C790.11 24.9 790.415 25.0107 790.636 25.232C790.857 25.4533 790.968 25.7577 790.968 26.145V81.755C790.968 82.1423 790.857 82.4467 790.636 82.668C790.415 82.8893 790.11 83 789.723 83H776.609ZM840.82 24.9C841.207 24.9 841.511 25.0107 841.733 25.232C841.954 25.4533 842.065 25.7577 842.065 26.145V37.101C842.065 37.4883 841.954 37.7927 841.733 38.014C841.511 38.2353 841.207 38.346 840.82 38.346H826.876C826.599 38.346 826.461 38.4843 826.461 38.761V81.755C826.461 82.1423 826.35 82.4467 826.129 82.668C825.907 82.8893 825.603 83 825.216 83H812.102C811.714 83 811.41 82.8893 811.189 82.668C810.967 82.4467 810.857 82.1423 810.857 81.755V38.761C810.857 38.4843 810.718 38.346 810.442 38.346H796.913C796.525 38.346 796.221 38.2353 796 38.014C795.778 37.7927 795.668 37.4883 795.668 37.101V26.145C795.668 25.7577 795.778 25.4533 796 25.232C796.221 25.0107 796.525 24.9 796.913 24.9H840.82ZM888.854 37.018C888.854 37.4053 888.743 37.7097 888.522 37.931C888.301 38.1523 887.996 38.263 887.609 38.263H862.792C862.515 38.263 862.377 38.4013 862.377 38.678V46.48C862.377 46.7567 862.515 46.895 862.792 46.895H878.147C878.534 46.895 878.839 47.0057 879.06 47.227C879.281 47.4483 879.392 47.7527 879.392 48.14V58.93C879.392 59.3173 879.281 59.6217 879.06 59.843C878.839 60.0643 878.534 60.175 878.147 60.175H862.792C862.515 60.175 862.377 60.3133 862.377 60.59V69.222C862.377 69.4987 862.515 69.637 862.792 69.637H887.609C887.996 69.637 888.301 69.7477 888.522 69.969C888.743 70.1903 888.854 70.4947 888.854 70.882V81.755C888.854 82.1423 888.743 82.4467 888.522 82.668C888.301 82.8893 887.996 83 887.609 83H848.018C847.631 83 847.326 82.8893 847.105 82.668C846.884 82.4467 846.773 82.1423 846.773 81.755V26.145C846.773 25.7577 846.884 25.4533 847.105 25.232C847.326 25.0107 847.631 24.9 848.018 24.9H887.609C887.996 24.9 888.301 25.0107 888.522 25.232C888.743 25.4533 888.854 25.7577 888.854 26.145V37.018ZM916.104 83.664C911.456 83.664 907.389 82.917 903.903 81.423C900.417 79.8737 897.706 77.688 895.769 74.866C893.888 72.044 892.947 68.7793 892.947 65.072V63.91C892.947 63.5227 893.058 63.2183 893.279 62.997C893.5 62.7757 893.805 62.665 894.192 62.665H907.057C907.444 62.665 907.749 62.7757 907.97 62.997C908.191 63.2183 908.302 63.5227 908.302 63.91V64.408C908.302 65.9573 909.104 67.3407 910.709 68.558C912.369 69.72 914.555 70.301 917.266 70.301C919.313 70.301 920.78 69.886 921.665 69.056C922.55 68.1707 922.993 67.2023 922.993 66.151C922.993 64.9337 922.44 64.0207 921.333 63.412C920.226 62.8033 918.207 62.0563 915.274 61.171L912.867 60.507C907.389 58.847 902.796 56.6337 899.089 53.867C895.382 51.1003 893.528 47.0887 893.528 41.832C893.528 38.346 894.469 35.275 896.35 32.619C898.231 29.9077 900.804 27.8327 904.069 26.394C907.389 24.9553 911.096 24.236 915.191 24.236C919.507 24.236 923.408 25.0383 926.894 26.643C930.435 28.2477 933.202 30.5163 935.194 33.449C937.241 36.3817 938.265 39.7293 938.265 43.492V44.239C938.265 44.6263 938.154 44.9307 937.933 45.152C937.712 45.3733 937.407 45.484 937.02 45.484H924.155C923.768 45.484 923.463 45.3733 923.242 45.152C923.021 44.9307 922.91 44.6263 922.91 44.239V44.156C922.91 42.496 922.163 41.002 920.669 39.674C919.175 38.2907 917.155 37.599 914.61 37.599C912.839 37.599 911.428 37.9587 910.377 38.678C909.381 39.3973 908.883 40.3933 908.883 41.666C908.883 42.662 909.243 43.5197 909.962 44.239C910.737 44.903 911.899 45.567 913.448 46.231C914.997 46.8397 917.377 47.642 920.586 48.638C921.029 48.804 922.965 49.4127 926.396 50.464C929.882 51.46 932.787 53.3137 935.111 56.025C937.435 58.681 938.597 61.918 938.597 65.736C938.597 69.4433 937.656 72.6527 935.775 75.364C933.894 78.02 931.265 80.0673 927.89 81.506C924.515 82.9447 920.586 83.664 916.104 83.664Z" fill="#818187"/>
</svg>
