<svg width="665" height="120" viewBox="0 0 665 120" fill="none" xmlns="http://www.w3.org/2000/svg">
<path d="M14.482 93C14.0947 93 13.7903 92.8893 13.569 92.668C13.3477 92.4467 13.237 92.1423 13.237 91.755V36.145C13.237 35.7577 13.3477 35.4533 13.569 35.232C13.7903 35.0107 14.0947 34.9 14.482 34.9H35.813C40.295 34.9 44.2513 35.6747 47.682 37.224C51.168 38.7733 53.8517 40.959 55.733 43.781C57.6143 46.603 58.555 49.8677 58.555 53.575V74.325C58.555 78.0323 57.6143 81.297 55.733 84.119C53.8517 86.941 51.168 89.1267 47.682 90.676C44.2513 92.2253 40.295 93 35.813 93H14.482ZM28.841 79.222C28.841 79.4987 28.9793 79.637 29.256 79.637H36.394C38.2753 79.637 39.8247 78.9177 41.042 77.479C42.2593 75.985 42.8957 74.0483 42.951 71.669V56.231C42.951 53.8517 42.3423 51.9427 41.125 50.504C39.9077 49.01 38.303 48.263 36.311 48.263H29.256C28.9793 48.263 28.841 48.4013 28.841 48.678V79.222ZM65.7896 93C65.4023 93 65.098 92.8893 64.8766 92.668C64.6553 92.4467 64.5446 92.1423 64.5446 91.755V36.145C64.5446 35.7577 64.6553 35.4533 64.8766 35.232C65.098 35.0107 65.4023 34.9 65.7896 34.9H78.9036C79.291 34.9 79.5953 35.0107 79.8166 35.232C80.038 35.4533 80.1486 35.7577 80.1486 36.145V91.755C80.1486 92.1423 80.038 92.4467 79.8166 92.668C79.5953 92.8893 79.291 93 78.9036 93H65.7896ZM117.135 93C116.416 93 115.946 92.6957 115.724 92.087L106.594 71.005C106.484 70.7837 106.318 70.673 106.096 70.673H102.61C102.334 70.673 102.195 70.8113 102.195 71.088V91.755C102.195 92.1423 102.085 92.4467 101.863 92.668C101.642 92.8893 101.338 93 100.95 93H87.8365C87.4492 93 87.1448 92.8893 86.9235 92.668C86.7022 92.4467 86.5915 92.1423 86.5915 91.755V36.145C86.5915 35.7577 86.7022 35.4533 86.9235 35.232C87.1448 35.0107 87.4492 34.9 87.8365 34.9H112.985C116.748 34.9 120.04 35.6747 122.862 37.224C125.74 38.7733 127.953 40.959 129.502 43.781C131.107 46.5477 131.909 49.757 131.909 53.409C131.909 57.061 130.996 60.2703 129.17 63.037C127.4 65.7483 124.937 67.7403 121.783 69.013C121.507 69.1237 121.424 69.3173 121.534 69.594L132.075 91.506C132.186 91.838 132.241 92.0317 132.241 92.087C132.241 92.3637 132.131 92.585 131.909 92.751C131.688 92.917 131.411 93 131.079 93H117.135ZM102.61 48.263C102.334 48.263 102.195 48.4013 102.195 48.678V58.389C102.195 58.6657 102.334 58.804 102.61 58.804H110.412C112.183 58.804 113.622 58.3337 114.728 57.393C115.835 56.397 116.388 55.1243 116.388 53.575C116.388 51.9703 115.835 50.6977 114.728 49.757C113.622 48.761 112.183 48.263 110.412 48.263H102.61ZM179.737 47.018C179.737 47.4053 179.626 47.7097 179.405 47.931C179.184 48.1523 178.879 48.263 178.492 48.263H153.675C153.398 48.263 153.26 48.4013 153.26 48.678V56.48C153.26 56.7567 153.398 56.895 153.675 56.895H169.03C169.417 56.895 169.722 57.0057 169.943 57.227C170.164 57.4483 170.275 57.7527 170.275 58.14V68.93C170.275 69.3173 170.164 69.6217 169.943 69.843C169.722 70.0643 169.417 70.175 169.03 70.175H153.675C153.398 70.175 153.26 70.3133 153.26 70.59V79.222C153.26 79.4987 153.398 79.637 153.675 79.637H178.492C178.879 79.637 179.184 79.7477 179.405 79.969C179.626 80.1903 179.737 80.4947 179.737 80.882V91.755C179.737 92.1423 179.626 92.4467 179.405 92.668C179.184 92.8893 178.879 93 178.492 93H138.901C138.514 93 138.209 92.8893 137.988 92.668C137.767 92.4467 137.656 92.1423 137.656 91.755V36.145C137.656 35.7577 137.767 35.4533 137.988 35.232C138.209 35.0107 138.514 34.9 138.901 34.9H178.492C178.879 34.9 179.184 35.0107 179.405 35.232C179.626 35.4533 179.737 35.7577 179.737 36.145V47.018ZM207.153 93.664C202.616 93.664 198.604 92.7787 195.118 91.008C191.687 89.2373 189.004 86.7473 187.067 83.538C185.186 80.2733 184.245 76.5107 184.245 72.25V55.484C184.245 51.2787 185.186 47.5713 187.067 44.362C189.004 41.1527 191.687 38.6627 195.118 36.892C198.604 35.1213 202.616 34.236 207.153 34.236C211.69 34.236 215.674 35.066 219.105 36.726C222.591 38.386 225.275 40.7377 227.156 43.781C229.093 46.769 230.061 50.255 230.061 54.239C230.061 54.737 229.646 55.0413 228.816 55.152L215.702 55.982H215.453C214.789 55.982 214.457 55.6777 214.457 55.069C214.457 52.8003 213.793 51.002 212.465 49.674C211.137 48.2907 209.366 47.599 207.153 47.599C204.94 47.599 203.169 48.2907 201.841 49.674C200.513 51.002 199.849 52.8003 199.849 55.069V72.914C199.849 75.1273 200.513 76.9257 201.841 78.309C203.169 79.637 204.94 80.301 207.153 80.301C209.366 80.301 211.137 79.637 212.465 78.309C213.793 76.9257 214.457 75.1273 214.457 72.914C214.457 72.582 214.568 72.333 214.789 72.167C215.01 72.001 215.315 71.9457 215.702 72.001L228.816 72.665C229.646 72.7203 230.061 72.997 230.061 73.495C230.061 77.479 229.093 80.9927 227.156 84.036C225.275 87.0793 222.591 89.4587 219.105 91.174C215.674 92.834 211.69 93.664 207.153 93.664ZM278.331 34.9C278.718 34.9 279.022 35.0107 279.244 35.232C279.465 35.4533 279.576 35.7577 279.576 36.145V47.101C279.576 47.4883 279.465 47.7927 279.244 48.014C279.022 48.2353 278.718 48.346 278.331 48.346H264.387C264.11 48.346 263.972 48.4843 263.972 48.761V91.755C263.972 92.1423 263.861 92.4467 263.64 92.668C263.418 92.8893 263.114 93 262.727 93H249.613C249.225 93 248.921 92.8893 248.7 92.668C248.478 92.4467 248.368 92.1423 248.368 91.755V48.761C248.368 48.4843 248.229 48.346 247.953 48.346H234.424C234.036 48.346 233.732 48.2353 233.511 48.014C233.289 47.7927 233.179 47.4883 233.179 47.101V36.145C233.179 35.7577 233.289 35.4533 233.511 35.232C233.732 35.0107 234.036 34.9 234.424 34.9H278.331ZM323.061 93.664C318.524 93.664 314.512 92.7787 311.026 91.008C307.595 89.2373 304.912 86.7473 302.975 83.538C301.094 80.2733 300.153 76.5107 300.153 72.25V55.484C300.153 51.2787 301.094 47.5713 302.975 44.362C304.912 41.1527 307.595 38.6627 311.026 36.892C314.512 35.1213 318.524 34.236 323.061 34.236C327.598 34.236 331.582 35.066 335.013 36.726C338.499 38.386 341.183 40.7377 343.064 43.781C345.001 46.769 345.969 50.255 345.969 54.239C345.969 54.737 345.554 55.0413 344.724 55.152L331.61 55.982H331.361C330.697 55.982 330.365 55.6777 330.365 55.069C330.365 52.8003 329.701 51.002 328.373 49.674C327.045 48.2907 325.274 47.599 323.061 47.599C320.848 47.599 319.077 48.2907 317.749 49.674C316.421 51.002 315.757 52.8003 315.757 55.069V72.914C315.757 75.1273 316.421 76.9257 317.749 78.309C319.077 79.637 320.848 80.301 323.061 80.301C325.274 80.301 327.045 79.637 328.373 78.309C329.701 76.9257 330.365 75.1273 330.365 72.914C330.365 72.582 330.476 72.333 330.697 72.167C330.918 72.001 331.223 71.9457 331.61 72.001L344.724 72.665C345.554 72.7203 345.969 72.997 345.969 73.495C345.969 77.479 345.001 80.9927 343.064 84.036C341.183 87.0793 338.499 89.4587 335.013 91.174C331.582 92.834 327.598 93.664 323.061 93.664ZM373.971 93.996C369.379 93.996 365.312 93.083 361.77 91.257C358.284 89.3757 355.573 86.775 353.636 83.455C351.7 80.0797 350.731 76.1787 350.731 71.752V56.148C350.731 51.832 351.7 48.014 353.636 44.694C355.573 41.374 358.284 38.801 361.77 36.975C365.312 35.149 369.379 34.236 373.971 34.236C378.619 34.236 382.686 35.149 386.172 36.975C389.714 38.801 392.453 41.374 394.389 44.694C396.326 48.014 397.294 51.832 397.294 56.148V71.752C397.294 76.1787 396.326 80.0797 394.389 83.455C392.453 86.775 389.714 89.3757 386.172 91.257C382.686 93.083 378.619 93.996 373.971 93.996ZM373.971 80.633C376.295 80.633 378.149 79.886 379.532 78.392C380.971 76.8427 381.69 74.7953 381.69 72.25V55.982C381.69 53.4367 380.971 51.417 379.532 49.923C378.149 48.3737 376.295 47.599 373.971 47.599C371.703 47.599 369.849 48.3737 368.41 49.923C367.027 51.417 366.335 53.4367 366.335 55.982V72.25C366.335 74.7953 367.027 76.8427 368.41 78.392C369.849 79.886 371.703 80.633 373.971 80.633ZM435.565 36.145C435.565 35.7577 435.676 35.4533 435.897 35.232C436.118 35.0107 436.423 34.9 436.81 34.9H449.924C450.311 34.9 450.616 35.0107 450.837 35.232C451.058 35.4533 451.169 35.7577 451.169 36.145V91.755C451.169 92.1423 451.058 92.4467 450.837 92.668C450.616 92.8893 450.311 93 449.924 93H437.391C436.727 93 436.229 92.7233 435.897 92.17L418.965 63.95C418.854 63.784 418.744 63.7287 418.633 63.784C418.522 63.784 418.467 63.8947 418.467 64.116L418.633 91.755C418.633 92.1423 418.522 92.4467 418.301 92.668C418.08 92.8893 417.775 93 417.388 93H404.274C403.887 93 403.582 92.8893 403.361 92.668C403.14 92.4467 403.029 92.1423 403.029 91.755V36.145C403.029 35.7577 403.14 35.4533 403.361 35.232C403.582 35.0107 403.887 34.9 404.274 34.9H416.807C417.471 34.9 417.969 35.1767 418.301 35.73L435.15 63.95C435.261 64.116 435.371 64.199 435.482 64.199C435.593 64.1437 435.648 64.0053 435.648 63.784L435.565 36.145ZM501.069 34.9C501.456 34.9 501.761 35.0107 501.982 35.232C502.203 35.4533 502.314 35.7577 502.314 36.145V47.101C502.314 47.4883 502.203 47.7927 501.982 48.014C501.761 48.2353 501.456 48.346 501.069 48.346H487.125C486.848 48.346 486.71 48.4843 486.71 48.761V91.755C486.71 92.1423 486.599 92.4467 486.378 92.668C486.157 92.8893 485.852 93 485.465 93H472.351C471.964 93 471.659 92.8893 471.438 92.668C471.217 92.4467 471.106 92.1423 471.106 91.755V48.761C471.106 48.4843 470.968 48.346 470.691 48.346H457.162C456.775 48.346 456.47 48.2353 456.249 48.014C456.028 47.7927 455.917 47.4883 455.917 47.101V36.145C455.917 35.7577 456.028 35.4533 456.249 35.232C456.47 35.0107 456.775 34.9 457.162 34.9H501.069ZM540.03 93C539.256 93 538.785 92.6403 538.619 91.921L536.793 85.447C536.683 85.2257 536.544 85.115 536.378 85.115H518.782C518.616 85.115 518.478 85.2257 518.367 85.447L516.541 91.921C516.375 92.6403 515.905 93 515.13 93H500.937C499.941 93 499.582 92.5297 499.858 91.589L517.371 35.896C517.593 35.232 518.063 34.9 518.782 34.9H536.378C537.098 34.9 537.568 35.232 537.789 35.896L555.302 91.589C555.358 91.6997 555.385 91.8657 555.385 92.087C555.385 92.6957 554.998 93 554.223 93H540.03ZM522.019 72.665C521.964 72.997 522.075 73.163 522.351 73.163H532.726C533.058 73.163 533.169 72.997 533.058 72.665L527.746 54.073C527.691 53.907 527.608 53.824 527.497 53.824C527.387 53.824 527.304 53.907 527.248 54.073L522.019 72.665ZM580.248 93.664C575.71 93.664 571.699 92.7787 568.213 91.008C564.782 89.2373 562.098 86.7473 560.162 83.538C558.28 80.2733 557.34 76.5107 557.34 72.25V55.484C557.34 51.2787 558.28 47.5713 560.162 44.362C562.098 41.1527 564.782 38.6627 568.213 36.892C571.699 35.1213 575.71 34.236 580.248 34.236C584.785 34.236 588.769 35.066 592.2 36.726C595.686 38.386 598.369 40.7377 600.251 43.781C602.187 46.769 603.156 50.255 603.156 54.239C603.156 54.737 602.741 55.0413 601.911 55.152L588.797 55.982H588.548C587.884 55.982 587.552 55.6777 587.552 55.069C587.552 52.8003 586.888 51.002 585.56 49.674C584.232 48.2907 582.461 47.599 580.248 47.599C578.034 47.599 576.264 48.2907 574.936 49.674C573.608 51.002 572.944 52.8003 572.944 55.069V72.914C572.944 75.1273 573.608 76.9257 574.936 78.309C576.264 79.637 578.034 80.301 580.248 80.301C582.461 80.301 584.232 79.637 585.56 78.309C586.888 76.9257 587.552 75.1273 587.552 72.914C587.552 72.582 587.662 72.333 587.884 72.167C588.105 72.001 588.409 71.9457 588.797 72.001L601.911 72.665C602.741 72.7203 603.156 72.997 603.156 73.495C603.156 77.479 602.187 80.9927 600.251 84.036C598.369 87.0793 595.686 89.4587 592.2 91.174C588.769 92.834 584.785 93.664 580.248 93.664ZM651.425 34.9C651.813 34.9 652.117 35.0107 652.338 35.232C652.56 35.4533 652.67 35.7577 652.67 36.145V47.101C652.67 47.4883 652.56 47.7927 652.338 48.014C652.117 48.2353 651.813 48.346 651.425 48.346H637.481C637.205 48.346 637.066 48.4843 637.066 48.761V91.755C637.066 92.1423 636.956 92.4467 636.734 92.668C636.513 92.8893 636.209 93 635.821 93H622.707C622.32 93 622.016 92.8893 621.794 92.668C621.573 92.4467 621.462 92.1423 621.462 91.755V48.761C621.462 48.4843 621.324 48.346 621.047 48.346H607.518C607.131 48.346 606.827 48.2353 606.605 48.014C606.384 47.7927 606.273 47.4883 606.273 47.101V36.145C606.273 35.7577 606.384 35.4533 606.605 35.232C606.827 35.0107 607.131 34.9 607.518 34.9H651.425Z" fill="#818187"/>
</svg>
