<svg width="961" height="120" viewBox="0 0 961 120" fill="none" xmlns="http://www.w3.org/2000/svg">
<path d="M51.085 62.788C50.8637 62.954 50.8637 63.12 51.085 63.286C53.575 64.6693 55.401 66.44 56.563 68.598C57.725 70.756 58.306 73.3567 58.306 76.4C58.306 82.0993 56.314 86.3047 52.33 89.016C48.346 91.672 43.1723 93 36.809 93H14.482C14.0947 93 13.7903 92.8893 13.569 92.668C13.3477 92.4467 13.237 92.1423 13.237 91.755V36.145C13.237 35.7577 13.3477 35.4533 13.569 35.232C13.7903 35.0107 14.0947 34.9 14.482 34.9H36.062C43.1447 34.9 48.4567 36.1727 51.998 38.718C55.5947 41.208 57.393 45.4133 57.393 51.334C57.393 56.5907 55.2903 60.4087 51.085 62.788ZM29.256 48.263C28.9793 48.263 28.841 48.4013 28.841 48.678V56.978C28.841 57.2547 28.9793 57.393 29.256 57.393H36.062C40.1013 57.393 42.121 55.8713 42.121 52.828C42.121 49.7847 40.1013 48.263 36.062 48.263H29.256ZM36.809 79.637C40.7377 79.637 42.702 78.0047 42.702 74.74C42.702 71.6413 40.7653 70.092 36.892 70.092H29.256C28.9793 70.092 28.841 70.2303 28.841 70.507V79.222C28.841 79.4987 28.9793 79.637 29.256 79.637H36.809ZM106.382 47.018C106.382 47.4053 106.272 47.7097 106.05 47.931C105.829 48.1523 105.525 48.263 105.137 48.263H80.3205C80.0438 48.263 79.9055 48.4013 79.9055 48.678V56.48C79.9055 56.7567 80.0438 56.895 80.3205 56.895H95.6755C96.0628 56.895 96.3671 57.0057 96.5885 57.227C96.8098 57.4483 96.9205 57.7527 96.9205 58.14V68.93C96.9205 69.3173 96.8098 69.6217 96.5885 69.843C96.3671 70.0643 96.0628 70.175 95.6755 70.175H80.3205C80.0438 70.175 79.9055 70.3133 79.9055 70.59V79.222C79.9055 79.4987 80.0438 79.637 80.3205 79.637H105.137C105.525 79.637 105.829 79.7477 106.05 79.969C106.272 80.1903 106.382 80.4947 106.382 80.882V91.755C106.382 92.1423 106.272 92.4467 106.05 92.668C105.829 92.8893 105.525 93 105.137 93H65.5465C65.1591 93 64.8548 92.8893 64.6335 92.668C64.4121 92.4467 64.3015 92.1423 64.3015 91.755V36.145C64.3015 35.7577 64.4121 35.4533 64.6335 35.232C64.8548 35.0107 65.1591 34.9 65.5465 34.9H105.137C105.525 34.9 105.829 35.0107 106.05 35.232C106.272 35.4533 106.382 35.7577 106.382 36.145V47.018ZM155.046 34.9C155.434 34.9 155.738 35.0107 155.959 35.232C156.181 35.4533 156.291 35.7577 156.291 36.145V47.101C156.291 47.4883 156.181 47.7927 155.959 48.014C155.738 48.2353 155.434 48.346 155.046 48.346H141.102C140.826 48.346 140.687 48.4843 140.687 48.761V91.755C140.687 92.1423 140.577 92.4467 140.355 92.668C140.134 92.8893 139.83 93 139.442 93H126.328C125.941 93 125.637 92.8893 125.415 92.668C125.194 92.4467 125.083 92.1423 125.083 91.755V48.761C125.083 48.4843 124.945 48.346 124.668 48.346H111.139C110.752 48.346 110.448 48.2353 110.226 48.014C110.005 47.7927 109.894 47.4883 109.894 47.101V36.145C109.894 35.7577 110.005 35.4533 110.226 35.232C110.448 35.0107 110.752 34.9 111.139 34.9H155.046ZM194.008 93C193.233 93 192.763 92.6403 192.597 91.921L190.771 85.447C190.66 85.2257 190.522 85.115 190.356 85.115H172.76C172.594 85.115 172.455 85.2257 172.345 85.447L170.519 91.921C170.353 92.6403 169.882 93 169.108 93H154.915C153.919 93 153.559 92.5297 153.836 91.589L171.349 35.896C171.57 35.232 172.04 34.9 172.76 34.9H190.356C191.075 34.9 191.545 35.232 191.767 35.896L209.28 91.589C209.335 91.6997 209.363 91.8657 209.363 92.087C209.363 92.6957 208.975 93 208.201 93H194.008ZM175.997 72.665C175.941 72.997 176.052 73.163 176.329 73.163H186.704C187.036 73.163 187.146 72.997 187.036 72.665L181.724 54.073C181.668 53.907 181.585 53.824 181.475 53.824C181.364 53.824 181.281 53.907 181.226 54.073L175.997 72.665ZM253.259 93C252.484 93 252.014 92.6403 251.848 91.921L250.022 85.447C249.911 85.2257 249.773 85.115 249.607 85.115H232.011C231.845 85.115 231.706 85.2257 231.596 85.447L229.77 91.921C229.604 92.6403 229.133 93 228.359 93H214.166C213.17 93 212.81 92.5297 213.087 91.589L230.6 35.896C230.821 35.232 231.291 34.9 232.011 34.9H249.607C250.326 34.9 250.796 35.232 251.018 35.896L268.531 91.589C268.586 91.6997 268.614 91.8657 268.614 92.087C268.614 92.6957 268.226 93 267.452 93H253.259ZM235.248 72.665C235.192 72.997 235.303 73.163 235.58 73.163H245.955C246.287 73.163 246.397 72.997 246.287 72.665L240.975 54.073C240.919 53.907 240.836 53.824 240.726 53.824C240.615 53.824 240.532 53.907 240.477 54.073L235.248 72.665ZM274.911 93C274.523 93 274.219 92.8893 273.998 92.668C273.776 92.4467 273.666 92.1423 273.666 91.755V36.145C273.666 35.7577 273.776 35.4533 273.998 35.232C274.219 35.0107 274.523 34.9 274.911 34.9H288.025C288.412 34.9 288.716 35.0107 288.938 35.232C289.159 35.4533 289.27 35.7577 289.27 36.145V79.222C289.27 79.4987 289.408 79.637 289.685 79.637H315.332C315.719 79.637 316.023 79.7477 316.245 79.969C316.466 80.1903 316.577 80.4947 316.577 80.882V91.755C316.577 92.1423 316.466 92.4467 316.245 92.668C316.023 92.8893 315.719 93 315.332 93H274.911ZM359.174 62.788C358.953 62.954 358.953 63.12 359.174 63.286C361.664 64.6693 363.49 66.44 364.652 68.598C365.814 70.756 366.395 73.3567 366.395 76.4C366.395 82.0993 364.403 86.3047 360.419 89.016C356.435 91.672 351.261 93 344.898 93H322.571C322.184 93 321.879 92.8893 321.658 92.668C321.437 92.4467 321.326 92.1423 321.326 91.755V36.145C321.326 35.7577 321.437 35.4533 321.658 35.232C321.879 35.0107 322.184 34.9 322.571 34.9H344.151C351.234 34.9 356.546 36.1727 360.087 38.718C363.684 41.208 365.482 45.4133 365.482 51.334C365.482 56.5907 363.379 60.4087 359.174 62.788ZM337.345 48.263C337.068 48.263 336.93 48.4013 336.93 48.678V56.978C336.93 57.2547 337.068 57.393 337.345 57.393H344.151C348.19 57.393 350.21 55.8713 350.21 52.828C350.21 49.7847 348.19 48.263 344.151 48.263H337.345ZM344.898 79.637C348.827 79.637 350.791 78.0047 350.791 74.74C350.791 71.6413 348.854 70.092 344.981 70.092H337.345C337.068 70.092 336.93 70.2303 336.93 70.507V79.222C336.93 79.4987 337.068 79.637 337.345 79.637H344.898ZM407.263 93C406.488 93 406.018 92.6403 405.852 91.921L404.026 85.447C403.915 85.2257 403.777 85.115 403.611 85.115H386.015C385.849 85.115 385.71 85.2257 385.6 85.447L383.774 91.921C383.608 92.6403 383.137 93 382.363 93H368.17C367.174 93 366.814 92.5297 367.091 91.589L384.604 35.896C384.825 35.232 385.295 34.9 386.015 34.9H403.611C404.33 34.9 404.8 35.232 405.022 35.896L422.535 91.589C422.59 91.6997 422.618 91.8657 422.618 92.087C422.618 92.6957 422.23 93 421.456 93H407.263ZM389.252 72.665C389.196 72.997 389.307 73.163 389.584 73.163H399.959C400.291 73.163 400.401 72.997 400.291 72.665L394.979 54.073C394.923 53.907 394.84 53.824 394.73 53.824C394.619 53.824 394.536 53.907 394.481 54.073L389.252 72.665ZM458.214 93C457.494 93 457.024 92.6957 456.803 92.087L447.673 71.005C447.562 70.7837 447.396 70.673 447.175 70.673H443.689C443.412 70.673 443.274 70.8113 443.274 71.088V91.755C443.274 92.1423 443.163 92.4467 442.942 92.668C442.72 92.8893 442.416 93 442.029 93H428.915C428.527 93 428.223 92.8893 428.002 92.668C427.78 92.4467 427.67 92.1423 427.67 91.755V36.145C427.67 35.7577 427.78 35.4533 428.002 35.232C428.223 35.0107 428.527 34.9 428.915 34.9H454.064C457.826 34.9 461.119 35.6747 463.941 37.224C466.818 38.7733 469.031 40.959 470.581 43.781C472.185 46.5477 472.988 49.757 472.988 53.409C472.988 57.061 472.075 60.2703 470.249 63.037C468.478 65.7483 466.016 67.7403 462.862 69.013C462.585 69.1237 462.502 69.3173 462.613 69.594L473.154 91.506C473.264 91.838 473.32 92.0317 473.32 92.087C473.32 92.3637 473.209 92.585 472.988 92.751C472.766 92.917 472.49 93 472.158 93H458.214ZM443.689 48.263C443.412 48.263 443.274 48.4013 443.274 48.678V58.389C443.274 58.6657 443.412 58.804 443.689 58.804H451.491C453.261 58.804 454.7 58.3337 455.807 57.393C456.913 56.397 457.467 55.1243 457.467 53.575C457.467 51.9703 456.913 50.6977 455.807 49.757C454.7 48.761 453.261 48.263 451.491 48.263H443.689ZM520.815 47.018C520.815 47.4053 520.704 47.7097 520.483 47.931C520.262 48.1523 519.957 48.263 519.57 48.263H494.753C494.476 48.263 494.338 48.4013 494.338 48.678V56.48C494.338 56.7567 494.476 56.895 494.753 56.895H510.108C510.495 56.895 510.8 57.0057 511.021 57.227C511.242 57.4483 511.353 57.7527 511.353 58.14V68.93C511.353 69.3173 511.242 69.6217 511.021 69.843C510.8 70.0643 510.495 70.175 510.108 70.175H494.753C494.476 70.175 494.338 70.3133 494.338 70.59V79.222C494.338 79.4987 494.476 79.637 494.753 79.637H519.57C519.957 79.637 520.262 79.7477 520.483 79.969C520.704 80.1903 520.815 80.4947 520.815 80.882V91.755C520.815 92.1423 520.704 92.4467 520.483 92.668C520.262 92.8893 519.957 93 519.57 93H479.979C479.592 93 479.287 92.8893 479.066 92.668C478.845 92.4467 478.734 92.1423 478.734 91.755V36.145C478.734 35.7577 478.845 35.4533 479.066 35.232C479.287 35.0107 479.592 34.9 479.979 34.9H519.57C519.957 34.9 520.262 35.0107 520.483 35.232C520.704 35.4533 520.815 35.7577 520.815 36.145V47.018ZM575.819 93C575.487 93 575.183 92.917 574.906 92.751C574.63 92.5297 574.464 92.253 574.408 91.921L557.974 36.311C557.919 36.2003 557.891 36.062 557.891 35.896C557.891 35.232 558.279 34.9 559.053 34.9H573.163C573.883 34.9 574.325 35.2597 574.491 35.979L581.546 63.037C581.602 63.203 581.685 63.3137 581.795 63.369C581.906 63.369 581.989 63.2583 582.044 63.037L587.605 35.979C587.771 35.2597 588.242 34.9 589.016 34.9H601.134C601.854 34.9 602.296 35.2597 602.462 35.979L608.687 63.037C608.743 63.2583 608.826 63.369 608.936 63.369C609.047 63.369 609.13 63.2583 609.185 63.037L615.41 35.979C615.576 35.2597 616.019 34.9 616.738 34.9H630.931C631.374 34.9 631.678 35.0383 631.844 35.315C632.066 35.5363 632.121 35.8683 632.01 36.311L617.236 91.921C617.07 92.6403 616.628 93 615.908 93H602.628C601.854 93 601.383 92.6403 601.217 91.921L595.241 63.369C595.186 63.203 595.103 63.12 594.992 63.12C594.882 63.12 594.799 63.203 594.743 63.369L589.514 91.838C589.348 92.6127 588.906 93 588.186 93H575.819ZM679.115 47.018C679.115 47.4053 679.004 47.7097 678.783 47.931C678.562 48.1523 678.257 48.263 677.87 48.263H653.053C652.776 48.263 652.638 48.4013 652.638 48.678V56.48C652.638 56.7567 652.776 56.895 653.053 56.895H668.408C668.795 56.895 669.1 57.0057 669.321 57.227C669.542 57.4483 669.653 57.7527 669.653 58.14V68.93C669.653 69.3173 669.542 69.6217 669.321 69.843C669.1 70.0643 668.795 70.175 668.408 70.175H653.053C652.776 70.175 652.638 70.3133 652.638 70.59V79.222C652.638 79.4987 652.776 79.637 653.053 79.637H677.87C678.257 79.637 678.562 79.7477 678.783 79.969C679.004 80.1903 679.115 80.4947 679.115 80.882V91.755C679.115 92.1423 679.004 92.4467 678.783 92.668C678.562 92.8893 678.257 93 677.87 93H638.279C637.892 93 637.587 92.8893 637.366 92.668C637.145 92.4467 637.034 92.1423 637.034 91.755V36.145C637.034 35.7577 637.145 35.4533 637.366 35.232C637.587 35.0107 637.892 34.9 638.279 34.9H677.87C678.257 34.9 678.562 35.0107 678.783 35.232C679.004 35.4533 679.115 35.7577 679.115 36.145V47.018ZM722.218 62.788C721.996 62.954 721.996 63.12 722.218 63.286C724.708 64.6693 726.534 66.44 727.696 68.598C728.858 70.756 729.439 73.3567 729.439 76.4C729.439 82.0993 727.447 86.3047 723.463 89.016C719.479 91.672 714.305 93 707.942 93H685.615C685.227 93 684.923 92.8893 684.702 92.668C684.48 92.4467 684.37 92.1423 684.37 91.755V36.145C684.37 35.7577 684.48 35.4533 684.702 35.232C684.923 35.0107 685.227 34.9 685.615 34.9H707.195C714.277 34.9 719.589 36.1727 723.131 38.718C726.727 41.208 728.526 45.4133 728.526 51.334C728.526 56.5907 726.423 60.4087 722.218 62.788ZM700.389 48.263C700.112 48.263 699.974 48.4013 699.974 48.678V56.978C699.974 57.2547 700.112 57.393 700.389 57.393H707.195C711.234 57.393 713.254 55.8713 713.254 52.828C713.254 49.7847 711.234 48.263 707.195 48.263H700.389ZM707.942 79.637C711.87 79.637 713.835 78.0047 713.835 74.74C713.835 71.6413 711.898 70.092 708.025 70.092H700.389C700.112 70.092 699.974 70.2303 699.974 70.507V79.222C699.974 79.4987 700.112 79.637 700.389 79.637H707.942ZM757.429 93.664C752.781 93.664 748.714 92.917 745.228 91.423C741.742 89.8737 739.031 87.688 737.094 84.866C735.213 82.044 734.272 78.7793 734.272 75.072V73.91C734.272 73.5227 734.383 73.2183 734.604 72.997C734.826 72.7757 735.13 72.665 735.517 72.665H748.382C748.77 72.665 749.074 72.7757 749.295 72.997C749.517 73.2183 749.627 73.5227 749.627 73.91V74.408C749.627 75.9573 750.43 77.3407 752.034 78.558C753.694 79.72 755.88 80.301 758.591 80.301C760.639 80.301 762.105 79.886 762.99 79.056C763.876 78.1707 764.318 77.2023 764.318 76.151C764.318 74.9337 763.765 74.0207 762.658 73.412C761.552 72.8033 759.532 72.0563 756.599 71.171L754.192 70.507C748.714 68.847 744.122 66.6337 740.414 63.867C736.707 61.1003 734.853 57.0887 734.853 51.832C734.853 48.346 735.794 45.275 737.675 42.619C739.557 39.9077 742.13 37.8327 745.394 36.394C748.714 34.9553 752.422 34.236 756.516 34.236C760.832 34.236 764.733 35.0383 768.219 36.643C771.761 38.2477 774.527 40.5163 776.519 43.449C778.567 46.3817 779.59 49.7293 779.59 53.492V54.239C779.59 54.6263 779.48 54.9307 779.258 55.152C779.037 55.3733 778.733 55.484 778.345 55.484H765.48C765.093 55.484 764.789 55.3733 764.567 55.152C764.346 54.9307 764.235 54.6263 764.235 54.239V54.156C764.235 52.496 763.488 51.002 761.994 49.674C760.5 48.2907 758.481 47.599 755.935 47.599C754.165 47.599 752.754 47.9587 751.702 48.678C750.706 49.3973 750.208 50.3933 750.208 51.666C750.208 52.662 750.568 53.5197 751.287 54.239C752.062 54.903 753.224 55.567 754.773 56.231C756.323 56.8397 758.702 57.642 761.911 58.638C762.354 58.804 764.291 59.4127 767.721 60.464C771.207 61.46 774.112 63.3137 776.436 66.025C778.76 68.681 779.922 71.918 779.922 75.736C779.922 79.4433 778.982 82.6527 777.1 85.364C775.219 88.02 772.591 90.0673 769.215 91.506C765.84 92.9447 761.911 93.664 757.429 93.664ZM786.609 93C786.222 93 785.917 92.8893 785.696 92.668C785.475 92.4467 785.364 92.1423 785.364 91.755V36.145C785.364 35.7577 785.475 35.4533 785.696 35.232C785.917 35.0107 786.222 34.9 786.609 34.9H799.723C800.11 34.9 800.415 35.0107 800.636 35.232C800.857 35.4533 800.968 35.7577 800.968 36.145V91.755C800.968 92.1423 800.857 92.4467 800.636 92.668C800.415 92.8893 800.11 93 799.723 93H786.609ZM850.82 34.9C851.207 34.9 851.511 35.0107 851.733 35.232C851.954 35.4533 852.065 35.7577 852.065 36.145V47.101C852.065 47.4883 851.954 47.7927 851.733 48.014C851.511 48.2353 851.207 48.346 850.82 48.346H836.876C836.599 48.346 836.461 48.4843 836.461 48.761V91.755C836.461 92.1423 836.35 92.4467 836.129 92.668C835.907 92.8893 835.603 93 835.216 93H822.102C821.714 93 821.41 92.8893 821.189 92.668C820.967 92.4467 820.857 92.1423 820.857 91.755V48.761C820.857 48.4843 820.718 48.346 820.442 48.346H806.913C806.525 48.346 806.221 48.2353 806 48.014C805.778 47.7927 805.668 47.4883 805.668 47.101V36.145C805.668 35.7577 805.778 35.4533 806 35.232C806.221 35.0107 806.525 34.9 806.913 34.9H850.82ZM898.854 47.018C898.854 47.4053 898.743 47.7097 898.522 47.931C898.301 48.1523 897.996 48.263 897.609 48.263H872.792C872.515 48.263 872.377 48.4013 872.377 48.678V56.48C872.377 56.7567 872.515 56.895 872.792 56.895H888.147C888.534 56.895 888.839 57.0057 889.06 57.227C889.281 57.4483 889.392 57.7527 889.392 58.14V68.93C889.392 69.3173 889.281 69.6217 889.06 69.843C888.839 70.0643 888.534 70.175 888.147 70.175H872.792C872.515 70.175 872.377 70.3133 872.377 70.59V79.222C872.377 79.4987 872.515 79.637 872.792 79.637H897.609C897.996 79.637 898.301 79.7477 898.522 79.969C898.743 80.1903 898.854 80.4947 898.854 80.882V91.755C898.854 92.1423 898.743 92.4467 898.522 92.668C898.301 92.8893 897.996 93 897.609 93H858.018C857.631 93 857.326 92.8893 857.105 92.668C856.884 92.4467 856.773 92.1423 856.773 91.755V36.145C856.773 35.7577 856.884 35.4533 857.105 35.232C857.326 35.0107 857.631 34.9 858.018 34.9H897.609C897.996 34.9 898.301 35.0107 898.522 35.232C898.743 35.4533 898.854 35.7577 898.854 36.145V47.018ZM926.104 93.664C921.456 93.664 917.389 92.917 913.903 91.423C910.417 89.8737 907.706 87.688 905.769 84.866C903.888 82.044 902.947 78.7793 902.947 75.072V73.91C902.947 73.5227 903.058 73.2183 903.279 72.997C903.5 72.7757 903.805 72.665 904.192 72.665H917.057C917.444 72.665 917.749 72.7757 917.97 72.997C918.191 73.2183 918.302 73.5227 918.302 73.91V74.408C918.302 75.9573 919.104 77.3407 920.709 78.558C922.369 79.72 924.555 80.301 927.266 80.301C929.313 80.301 930.78 79.886 931.665 79.056C932.55 78.1707 932.993 77.2023 932.993 76.151C932.993 74.9337 932.44 74.0207 931.333 73.412C930.226 72.8033 928.207 72.0563 925.274 71.171L922.867 70.507C917.389 68.847 912.796 66.6337 909.089 63.867C905.382 61.1003 903.528 57.0887 903.528 51.832C903.528 48.346 904.469 45.275 906.35 42.619C908.231 39.9077 910.804 37.8327 914.069 36.394C917.389 34.9553 921.096 34.236 925.191 34.236C929.507 34.236 933.408 35.0383 936.894 36.643C940.435 38.2477 943.202 40.5163 945.194 43.449C947.241 46.3817 948.265 49.7293 948.265 53.492V54.239C948.265 54.6263 948.154 54.9307 947.933 55.152C947.712 55.3733 947.407 55.484 947.02 55.484H934.155C933.768 55.484 933.463 55.3733 933.242 55.152C933.021 54.9307 932.91 54.6263 932.91 54.239V54.156C932.91 52.496 932.163 51.002 930.669 49.674C929.175 48.2907 927.155 47.599 924.61 47.599C922.839 47.599 921.428 47.9587 920.377 48.678C919.381 49.3973 918.883 50.3933 918.883 51.666C918.883 52.662 919.243 53.5197 919.962 54.239C920.737 54.903 921.899 55.567 923.448 56.231C924.997 56.8397 927.377 57.642 930.586 58.638C931.029 58.804 932.965 59.4127 936.396 60.464C939.882 61.46 942.787 63.3137 945.111 66.025C947.435 68.681 948.597 71.918 948.597 75.736C948.597 79.4433 947.656 82.6527 945.775 85.364C943.894 88.02 941.265 90.0673 937.89 91.506C934.515 92.9447 930.586 93.664 926.104 93.664Z" fill="#818187"/>
</svg>
