<svg width="910" height="120" viewBox="0 0 910 120" fill="none" xmlns="http://www.w3.org/2000/svg">
<path d="M35.232 93.664C30.584 93.664 26.517 92.917 23.031 91.423C19.545 89.8737 16.8337 87.688 14.897 84.866C13.0157 82.044 12.075 78.7793 12.075 75.072V73.91C12.075 73.5227 12.1857 73.2183 12.407 72.997C12.6283 72.7757 12.9327 72.665 13.32 72.665H26.185C26.5723 72.665 26.8767 72.7757 27.098 72.997C27.3193 73.2183 27.43 73.5227 27.43 73.91V74.408C27.43 75.9573 28.2323 77.3407 29.837 78.558C31.497 79.72 33.6827 80.301 36.394 80.301C38.4413 80.301 39.9077 79.886 40.793 79.056C41.6783 78.1707 42.121 77.2023 42.121 76.151C42.121 74.9337 41.5677 74.0207 40.461 73.412C39.3543 72.8033 37.3347 72.0563 34.402 71.171L31.995 70.507C26.517 68.847 21.9243 66.6337 18.217 63.867C14.5097 61.1003 12.656 57.0887 12.656 51.832C12.656 48.346 13.5967 45.275 15.478 42.619C17.3593 39.9077 19.9323 37.8327 23.197 36.394C26.517 34.9553 30.2243 34.236 34.319 34.236C38.635 34.236 42.536 35.0383 46.022 36.643C49.5633 38.2477 52.33 40.5163 54.322 43.449C56.3693 46.3817 57.393 49.7293 57.393 53.492V54.239C57.393 54.6263 57.2823 54.9307 57.061 55.152C56.8397 55.3733 56.5353 55.484 56.148 55.484H43.283C42.8957 55.484 42.5913 55.3733 42.37 55.152C42.1487 54.9307 42.038 54.6263 42.038 54.239V54.156C42.038 52.496 41.291 51.002 39.797 49.674C38.303 48.2907 36.2833 47.599 33.738 47.599C31.9673 47.599 30.5563 47.9587 29.505 48.678C28.509 49.3973 28.011 50.3933 28.011 51.666C28.011 52.662 28.3707 53.5197 29.09 54.239C29.8647 54.903 31.0267 55.567 32.576 56.231C34.1253 56.8397 36.5047 57.642 39.714 58.638C40.1567 58.804 42.0933 59.4127 45.524 60.464C49.01 61.46 51.915 63.3137 54.239 66.025C56.563 68.681 57.725 71.918 57.725 75.736C57.725 79.4433 56.7843 82.6527 54.903 85.364C53.0217 88.02 50.3933 90.0673 47.018 91.506C43.6427 92.9447 39.714 93.664 35.232 93.664ZM105.248 47.018C105.248 47.4053 105.137 47.7097 104.916 47.931C104.694 48.1523 104.39 48.263 104.003 48.263H79.1857C78.909 48.263 78.7707 48.4013 78.7707 48.678V56.48C78.7707 56.7567 78.909 56.895 79.1857 56.895H94.5407C94.928 56.895 95.2324 57.0057 95.4537 57.227C95.675 57.4483 95.7857 57.7527 95.7857 58.14V68.93C95.7857 69.3173 95.675 69.6217 95.4537 69.843C95.2324 70.0643 94.928 70.175 94.5407 70.175H79.1857C78.909 70.175 78.7707 70.3133 78.7707 70.59V79.222C78.7707 79.4987 78.909 79.637 79.1857 79.637H104.003C104.39 79.637 104.694 79.7477 104.916 79.969C105.137 80.1903 105.248 80.4947 105.248 80.882V91.755C105.248 92.1423 105.137 92.4467 104.916 92.668C104.694 92.8893 104.39 93 104.003 93H64.4117C64.0244 93 63.72 92.8893 63.4987 92.668C63.2774 92.4467 63.1667 92.1423 63.1667 91.755V36.145C63.1667 35.7577 63.2774 35.4533 63.4987 35.232C63.72 35.0107 64.0244 34.9 64.4117 34.9H104.003C104.39 34.9 104.694 35.0107 104.916 35.232C105.137 35.4533 105.248 35.7577 105.248 36.145V47.018ZM132.996 93.996C128.403 93.996 124.336 93.083 120.795 91.257C117.309 89.3757 114.597 86.775 112.661 83.455C110.724 80.0797 109.756 76.1787 109.756 71.752V56.148C109.756 51.832 110.724 48.014 112.661 44.694C114.597 41.374 117.309 38.801 120.795 36.975C124.336 35.149 128.403 34.236 132.996 34.236C137.644 34.236 141.711 35.149 145.197 36.975C148.738 38.801 151.477 41.374 153.414 44.694C155.35 48.014 156.319 51.832 156.319 56.148V71.752C156.319 76.1787 155.35 80.0797 153.414 83.455C151.477 86.775 148.738 89.3757 145.197 91.257C141.711 93.083 137.644 93.996 132.996 93.996ZM132.996 80.633C135.32 80.633 137.173 79.886 138.557 78.392C139.995 76.8427 140.715 74.7953 140.715 72.25V55.982C140.715 53.4367 139.995 51.417 138.557 49.923C137.173 48.3737 135.32 47.599 132.996 47.599C130.727 47.599 128.873 48.3737 127.435 49.923C126.051 51.417 125.36 53.4367 125.36 55.982V72.25C125.36 74.7953 126.051 76.8427 127.435 78.392C128.873 79.886 130.727 80.633 132.996 80.633ZM161.725 75.985C161.338 75.985 161.034 75.8743 160.812 75.653C160.591 75.4317 160.48 75.1273 160.48 74.74V63.95C160.48 63.5627 160.591 63.2583 160.812 63.037C161.034 62.8157 161.338 62.705 161.725 62.705H190.36C190.748 62.705 191.052 62.8157 191.273 63.037C191.495 63.2583 191.605 63.5627 191.605 63.95V74.74C191.605 75.1273 191.495 75.4317 191.273 75.653C191.052 75.8743 190.748 75.985 190.36 75.985H161.725ZM218.825 93.664C214.287 93.664 210.276 92.751 206.79 90.925C203.359 89.099 200.675 86.526 198.739 83.206C196.857 79.886 195.917 76.068 195.917 71.752V56.065C195.917 51.749 196.857 47.9587 198.739 44.694C200.675 41.374 203.359 38.801 206.79 36.975C210.276 35.149 214.287 34.236 218.825 34.236C223.251 34.236 227.208 35.1213 230.694 36.892C234.18 38.6073 236.863 40.959 238.745 43.947C240.681 46.935 241.65 50.1997 241.65 53.741V53.824C241.65 54.2113 241.539 54.5157 241.318 54.737C241.096 54.9583 240.792 55.069 240.405 55.069H227.374C226.544 55.069 226.129 54.82 226.129 54.322C226.129 52.496 225.465 50.919 224.137 49.591C222.864 48.263 221.093 47.599 218.825 47.599C216.611 47.599 214.841 48.346 213.513 49.84C212.185 51.2787 211.521 53.2153 211.521 55.65V72.25C211.521 74.6293 212.268 76.566 213.762 78.06C215.311 79.554 217.22 80.301 219.489 80.301C221.536 80.301 223.196 79.7477 224.469 78.641C225.797 77.479 226.461 75.902 226.461 73.91V72.831C226.461 72.5543 226.322 72.416 226.046 72.416H218.742C218.354 72.416 218.05 72.3053 217.829 72.084C217.607 71.8627 217.497 71.5583 217.497 71.171V61.211C217.497 60.8237 217.607 60.5193 217.829 60.298C218.05 60.0767 218.354 59.966 218.742 59.966H240.405C240.792 59.966 241.096 60.0767 241.318 60.298C241.539 60.5193 241.65 60.8237 241.65 61.211V72.582C241.65 76.6767 240.681 80.3287 238.745 83.538C236.863 86.7473 234.18 89.2373 230.694 91.008C227.263 92.7787 223.307 93.664 218.825 93.664ZM289.485 47.018C289.485 47.4053 289.374 47.7097 289.153 47.931C288.932 48.1523 288.627 48.263 288.24 48.263H263.423C263.146 48.263 263.008 48.4013 263.008 48.678V56.48C263.008 56.7567 263.146 56.895 263.423 56.895H278.778C279.165 56.895 279.47 57.0057 279.691 57.227C279.912 57.4483 280.023 57.7527 280.023 58.14V68.93C280.023 69.3173 279.912 69.6217 279.691 69.843C279.47 70.0643 279.165 70.175 278.778 70.175H263.423C263.146 70.175 263.008 70.3133 263.008 70.59V79.222C263.008 79.4987 263.146 79.637 263.423 79.637H288.24C288.627 79.637 288.932 79.7477 289.153 79.969C289.374 80.1903 289.485 80.4947 289.485 80.882V91.755C289.485 92.1423 289.374 92.4467 289.153 92.668C288.932 92.8893 288.627 93 288.24 93H248.649C248.262 93 247.957 92.8893 247.736 92.668C247.515 92.4467 247.404 92.1423 247.404 91.755V36.145C247.404 35.7577 247.515 35.4533 247.736 35.232C247.957 35.0107 248.262 34.9 248.649 34.9H288.24C288.627 34.9 288.932 35.0107 289.153 35.232C289.374 35.4533 289.485 35.7577 289.485 36.145V47.018ZM317.233 93.996C312.64 93.996 308.573 93.083 305.032 91.257C301.546 89.3757 298.835 86.775 296.898 83.455C294.961 80.0797 293.993 76.1787 293.993 71.752V56.148C293.993 51.832 294.961 48.014 296.898 44.694C298.835 41.374 301.546 38.801 305.032 36.975C308.573 35.149 312.64 34.236 317.233 34.236C321.881 34.236 325.948 35.149 329.434 36.975C332.975 38.801 335.714 41.374 337.651 44.694C339.588 48.014 340.556 51.832 340.556 56.148V71.752C340.556 76.1787 339.588 80.0797 337.651 83.455C335.714 86.775 332.975 89.3757 329.434 91.257C325.948 93.083 321.881 93.996 317.233 93.996ZM317.233 80.633C319.557 80.633 321.411 79.886 322.794 78.392C324.233 76.8427 324.952 74.7953 324.952 72.25V55.982C324.952 53.4367 324.233 51.417 322.794 49.923C321.411 48.3737 319.557 47.599 317.233 47.599C314.964 47.599 313.111 48.3737 311.672 49.923C310.289 51.417 309.597 53.4367 309.597 55.982V72.25C309.597 74.7953 310.289 76.8427 311.672 78.392C313.111 79.886 314.964 80.633 317.233 80.633ZM371.606 34.9C375.534 34.9 378.993 35.7023 381.981 37.307C384.969 38.8563 387.265 41.0973 388.87 44.03C390.53 46.9073 391.36 50.2273 391.36 53.99C391.36 57.6973 390.502 60.962 388.787 63.784C387.071 66.606 384.664 68.7917 381.566 70.341C378.467 71.8903 374.898 72.665 370.859 72.665H362.061C361.784 72.665 361.646 72.8033 361.646 73.08V91.755C361.646 92.1423 361.535 92.4467 361.314 92.668C361.092 92.8893 360.788 93 360.401 93H347.287C346.899 93 346.595 92.8893 346.374 92.668C346.152 92.4467 346.042 92.1423 346.042 91.755V36.145C346.042 35.7577 346.152 35.4533 346.374 35.232C346.595 35.0107 346.899 34.9 347.287 34.9H371.606ZM369.033 60.215C371.08 60.215 372.712 59.6893 373.93 58.638C375.202 57.5313 375.839 56.0927 375.839 54.322C375.839 52.496 375.202 51.0297 373.93 49.923C372.712 48.8163 371.08 48.263 369.033 48.263H362.061C361.784 48.263 361.646 48.4013 361.646 48.678V59.8C361.646 60.0767 361.784 60.215 362.061 60.215H369.033ZM439.467 34.9C439.855 34.9 440.159 35.0107 440.38 35.232C440.602 35.4533 440.712 35.7577 440.712 36.145V47.101C440.712 47.4883 440.602 47.7927 440.38 48.014C440.159 48.2353 439.855 48.346 439.467 48.346H425.523C425.247 48.346 425.108 48.4843 425.108 48.761V91.755C425.108 92.1423 424.998 92.4467 424.776 92.668C424.555 92.8893 424.251 93 423.863 93H410.749C410.362 93 410.058 92.8893 409.836 92.668C409.615 92.4467 409.504 92.1423 409.504 91.755V48.761C409.504 48.4843 409.366 48.346 409.089 48.346H395.56C395.173 48.346 394.869 48.2353 394.647 48.014C394.426 47.7927 394.315 47.4883 394.315 47.101V36.145C394.315 35.7577 394.426 35.4533 394.647 35.232C394.869 35.0107 395.173 34.9 395.56 34.9H439.467ZM446.666 93C446.278 93 445.974 92.8893 445.753 92.668C445.531 92.4467 445.421 92.1423 445.421 91.755V36.145C445.421 35.7577 445.531 35.4533 445.753 35.232C445.974 35.0107 446.278 34.9 446.666 34.9H459.78C460.167 34.9 460.471 35.0107 460.693 35.232C460.914 35.4533 461.025 35.7577 461.025 36.145V91.755C461.025 92.1423 460.914 92.4467 460.693 92.668C460.471 92.8893 460.167 93 459.78 93H446.666ZM504.568 35.73C504.9 35.1767 505.398 34.9 506.062 34.9H519.01C519.398 34.9 519.702 35.0107 519.923 35.232C520.145 35.4533 520.255 35.7577 520.255 36.145V91.755C520.255 92.1423 520.145 92.4467 519.923 92.668C519.702 92.8893 519.398 93 519.01 93H505.896C505.509 93 505.205 92.8893 504.983 92.668C504.762 92.4467 504.651 92.1423 504.651 91.755V61.626C504.651 61.4047 504.596 61.294 504.485 61.294C504.375 61.2387 504.264 61.294 504.153 61.46L498.509 70.673C498.177 71.2263 497.679 71.503 497.015 71.503H490.707C490.043 71.503 489.545 71.2263 489.213 70.673L483.569 61.46C483.459 61.294 483.348 61.2387 483.237 61.294C483.127 61.294 483.071 61.4047 483.071 61.626V91.755C483.071 92.1423 482.961 92.4467 482.739 92.668C482.518 92.8893 482.214 93 481.826 93H468.712C468.325 93 468.021 92.8893 467.799 92.668C467.578 92.4467 467.467 92.1423 467.467 91.755V36.145C467.467 35.7577 467.578 35.4533 467.799 35.232C468.021 35.0107 468.325 34.9 468.712 34.9H481.66C482.324 34.9 482.822 35.1767 483.154 35.73L493.612 52.579C493.778 52.911 493.944 52.911 494.11 52.579L504.568 35.73ZM565.562 93C564.788 93 564.317 92.6403 564.151 91.921L562.325 85.447C562.215 85.2257 562.076 85.115 561.91 85.115H544.314C544.148 85.115 544.01 85.2257 543.899 85.447L542.073 91.921C541.907 92.6403 541.437 93 540.662 93H526.469C525.473 93 525.114 92.5297 525.39 91.589L542.903 35.896C543.125 35.232 543.595 34.9 544.314 34.9H561.91C562.63 34.9 563.1 35.232 563.321 35.896L580.834 91.589C580.89 91.6997 580.917 91.8657 580.917 92.087C580.917 92.6957 580.53 93 579.755 93H565.562ZM547.551 72.665C547.496 72.997 547.607 73.163 547.883 73.163H558.258C558.59 73.163 558.701 72.997 558.59 72.665L553.278 54.073C553.223 53.907 553.14 53.824 553.029 53.824C552.919 53.824 552.836 53.907 552.78 54.073L547.551 72.665ZM587.214 93C586.827 93 586.523 92.8893 586.301 92.668C586.08 92.4467 585.969 92.1423 585.969 91.755V36.145C585.969 35.7577 586.08 35.4533 586.301 35.232C586.523 35.0107 586.827 34.9 587.214 34.9H600.328C600.716 34.9 601.02 35.0107 601.241 35.232C601.463 35.4533 601.573 35.7577 601.573 36.145V79.222C601.573 79.4987 601.712 79.637 601.988 79.637H627.635C628.023 79.637 628.327 79.7477 628.548 79.969C628.77 80.1903 628.88 80.4947 628.88 80.882V91.755C628.88 92.1423 628.77 92.4467 628.548 92.668C628.327 92.8893 628.023 93 627.635 93H587.214ZM634.875 93C634.487 93 634.183 92.8893 633.962 92.668C633.74 92.4467 633.63 92.1423 633.63 91.755V36.145C633.63 35.7577 633.74 35.4533 633.962 35.232C634.183 35.0107 634.487 34.9 634.875 34.9H647.989C648.376 34.9 648.68 35.0107 648.902 35.232C649.123 35.4533 649.234 35.7577 649.234 36.145V91.755C649.234 92.1423 649.123 92.4467 648.902 92.668C648.68 92.8893 648.376 93 647.989 93H634.875ZM677.671 93.664C673.023 93.664 668.956 92.917 665.47 91.423C661.984 89.8737 659.273 87.688 657.336 84.866C655.455 82.044 654.514 78.7793 654.514 75.072V73.91C654.514 73.5227 654.625 73.2183 654.846 72.997C655.068 72.7757 655.372 72.665 655.759 72.665H668.624C669.012 72.665 669.316 72.7757 669.537 72.997C669.759 73.2183 669.869 73.5227 669.869 73.91V74.408C669.869 75.9573 670.672 77.3407 672.276 78.558C673.936 79.72 676.122 80.301 678.833 80.301C680.881 80.301 682.347 79.886 683.232 79.056C684.118 78.1707 684.56 77.2023 684.56 76.151C684.56 74.9337 684.007 74.0207 682.9 73.412C681.794 72.8033 679.774 72.0563 676.841 71.171L674.434 70.507C668.956 68.847 664.364 66.6337 660.656 63.867C656.949 61.1003 655.095 57.0887 655.095 51.832C655.095 48.346 656.036 45.275 657.917 42.619C659.799 39.9077 662.372 37.8327 665.636 36.394C668.956 34.9553 672.664 34.236 676.758 34.236C681.074 34.236 684.975 35.0383 688.461 36.643C692.003 38.2477 694.769 40.5163 696.761 43.449C698.809 46.3817 699.832 49.7293 699.832 53.492V54.239C699.832 54.6263 699.722 54.9307 699.5 55.152C699.279 55.3733 698.975 55.484 698.587 55.484H685.722C685.335 55.484 685.031 55.3733 684.809 55.152C684.588 54.9307 684.477 54.6263 684.477 54.239V54.156C684.477 52.496 683.73 51.002 682.236 49.674C680.742 48.2907 678.723 47.599 676.177 47.599C674.407 47.599 672.996 47.9587 671.944 48.678C670.948 49.3973 670.45 50.3933 670.45 51.666C670.45 52.662 670.81 53.5197 671.529 54.239C672.304 54.903 673.466 55.567 675.015 56.231C676.565 56.8397 678.944 57.642 682.153 58.638C682.596 58.804 684.533 59.4127 687.963 60.464C691.449 61.46 694.354 63.3137 696.678 66.025C699.002 68.681 700.164 71.918 700.164 75.736C700.164 79.4433 699.224 82.6527 697.342 85.364C695.461 88.02 692.833 90.0673 689.457 91.506C686.082 92.9447 682.153 93.664 677.671 93.664ZM747.687 47.018C747.687 47.4053 747.576 47.7097 747.355 47.931C747.134 48.1523 746.829 48.263 746.442 48.263H721.625C721.348 48.263 721.21 48.4013 721.21 48.678V56.48C721.21 56.7567 721.348 56.895 721.625 56.895H736.98C737.367 56.895 737.672 57.0057 737.893 57.227C738.114 57.4483 738.225 57.7527 738.225 58.14V68.93C738.225 69.3173 738.114 69.6217 737.893 69.843C737.672 70.0643 737.367 70.175 736.98 70.175H721.625C721.348 70.175 721.21 70.3133 721.21 70.59V79.222C721.21 79.4987 721.348 79.637 721.625 79.637H746.442C746.829 79.637 747.134 79.7477 747.355 79.969C747.576 80.1903 747.687 80.4947 747.687 80.882V91.755C747.687 92.1423 747.576 92.4467 747.355 92.668C747.134 92.8893 746.829 93 746.442 93H706.851C706.464 93 706.159 92.8893 705.938 92.668C705.717 92.4467 705.606 92.1423 705.606 91.755V36.145C705.606 35.7577 705.717 35.4533 705.938 35.232C706.159 35.0107 706.464 34.9 706.851 34.9H746.442C746.829 34.9 747.134 35.0107 747.355 35.232C747.576 35.4533 747.687 35.7577 747.687 36.145V47.018ZM795.023 47.018C795.023 47.4053 794.912 47.7097 794.691 47.931C794.47 48.1523 794.165 48.263 793.778 48.263H768.961C768.684 48.263 768.546 48.4013 768.546 48.678V56.48C768.546 56.7567 768.684 56.895 768.961 56.895H784.316C784.703 56.895 785.008 57.0057 785.229 57.227C785.45 57.4483 785.561 57.7527 785.561 58.14V68.93C785.561 69.3173 785.45 69.6217 785.229 69.843C785.008 70.0643 784.703 70.175 784.316 70.175H768.961C768.684 70.175 768.546 70.3133 768.546 70.59V79.222C768.546 79.4987 768.684 79.637 768.961 79.637H793.778C794.165 79.637 794.47 79.7477 794.691 79.969C794.912 80.1903 795.023 80.4947 795.023 80.882V91.755C795.023 92.1423 794.912 92.4467 794.691 92.668C794.47 92.8893 794.165 93 793.778 93H754.187C753.8 93 753.495 92.8893 753.274 92.668C753.053 92.4467 752.942 92.1423 752.942 91.755V36.145C752.942 35.7577 753.053 35.4533 753.274 35.232C753.495 35.0107 753.8 34.9 754.187 34.9H793.778C794.165 34.9 794.47 35.0107 794.691 35.232C794.912 35.4533 795.023 35.7577 795.023 36.145V47.018ZM830.822 93C830.103 93 829.632 92.6957 829.411 92.087L820.281 71.005C820.17 70.7837 820.004 70.673 819.783 70.673H816.297C816.02 70.673 815.882 70.8113 815.882 71.088V91.755C815.882 92.1423 815.771 92.4467 815.55 92.668C815.329 92.8893 815.024 93 814.637 93H801.523C801.136 93 800.831 92.8893 800.61 92.668C800.389 92.4467 800.278 92.1423 800.278 91.755V36.145C800.278 35.7577 800.389 35.4533 800.61 35.232C800.831 35.0107 801.136 34.9 801.523 34.9H826.672C830.435 34.9 833.727 35.6747 836.549 37.224C839.426 38.7733 841.64 40.959 843.189 43.781C844.794 46.5477 845.596 49.757 845.596 53.409C845.596 57.061 844.683 60.2703 842.857 63.037C841.086 65.7483 838.624 67.7403 835.47 69.013C835.193 69.1237 835.11 69.3173 835.221 69.594L845.762 91.506C845.873 91.838 845.928 92.0317 845.928 92.087C845.928 92.3637 845.817 92.585 845.596 92.751C845.375 92.917 845.098 93 844.766 93H830.822ZM816.297 48.263C816.02 48.263 815.882 48.4013 815.882 48.678V58.389C815.882 58.6657 816.02 58.804 816.297 58.804H824.099C825.87 58.804 827.308 58.3337 828.415 57.393C829.522 56.397 830.075 55.1243 830.075 53.575C830.075 51.9703 829.522 50.6977 828.415 49.757C827.308 48.761 825.87 48.263 824.099 48.263H816.297ZM852.587 93C852.2 93 851.896 92.8893 851.674 92.668C851.453 92.4467 851.342 92.1423 851.342 91.755V36.145C851.342 35.7577 851.453 35.4533 851.674 35.232C851.896 35.0107 852.2 34.9 852.587 34.9H873.918C878.4 34.9 882.357 35.6747 885.787 37.224C889.273 38.7733 891.957 40.959 893.838 43.781C895.72 46.603 896.66 49.8677 896.66 53.575V74.325C896.66 78.0323 895.72 81.297 893.838 84.119C891.957 86.941 889.273 89.1267 885.787 90.676C882.357 92.2253 878.4 93 873.918 93H852.587ZM866.946 79.222C866.946 79.4987 867.085 79.637 867.361 79.637H874.499C876.381 79.637 877.93 78.9177 879.147 77.479C880.365 75.985 881.001 74.0483 881.056 71.669V56.231C881.056 53.8517 880.448 51.9427 879.23 50.504C878.013 49.01 876.408 48.263 874.416 48.263H867.361C867.085 48.263 866.946 48.4013 866.946 48.678V79.222Z" fill="#818187"/>
</svg>
