<svg width="807" height="120" viewBox="0 0 807 120" fill="none" xmlns="http://www.w3.org/2000/svg">
<path d="M35.232 93.664C30.584 93.664 26.517 92.917 23.031 91.423C19.545 89.8737 16.8337 87.688 14.897 84.866C13.0157 82.044 12.075 78.7793 12.075 75.072V73.91C12.075 73.5227 12.1857 73.2183 12.407 72.997C12.6283 72.7757 12.9327 72.665 13.32 72.665H26.185C26.5723 72.665 26.8767 72.7757 27.098 72.997C27.3193 73.2183 27.43 73.5227 27.43 73.91V74.408C27.43 75.9573 28.2323 77.3407 29.837 78.558C31.497 79.72 33.6827 80.301 36.394 80.301C38.4413 80.301 39.9077 79.886 40.793 79.056C41.6783 78.1707 42.121 77.2023 42.121 76.151C42.121 74.9337 41.5677 74.0207 40.461 73.412C39.3543 72.8033 37.3347 72.0563 34.402 71.171L31.995 70.507C26.517 68.847 21.9243 66.6337 18.217 63.867C14.5097 61.1003 12.656 57.0887 12.656 51.832C12.656 48.346 13.5967 45.275 15.478 42.619C17.3593 39.9077 19.9323 37.8327 23.197 36.394C26.517 34.9553 30.2243 34.236 34.319 34.236C38.635 34.236 42.536 35.0383 46.022 36.643C49.5633 38.2477 52.33 40.5163 54.322 43.449C56.3693 46.3817 57.393 49.7293 57.393 53.492V54.239C57.393 54.6263 57.2823 54.9307 57.061 55.152C56.8397 55.3733 56.5353 55.484 56.148 55.484H43.283C42.8957 55.484 42.5913 55.3733 42.37 55.152C42.1487 54.9307 42.038 54.6263 42.038 54.239V54.156C42.038 52.496 41.291 51.002 39.797 49.674C38.303 48.2907 36.2833 47.599 33.738 47.599C31.9673 47.599 30.5563 47.9587 29.505 48.678C28.509 49.3973 28.011 50.3933 28.011 51.666C28.011 52.662 28.3707 53.5197 29.09 54.239C29.8647 54.903 31.0267 55.567 32.576 56.231C34.1253 56.8397 36.5047 57.642 39.714 58.638C40.1567 58.804 42.0933 59.4127 45.524 60.464C49.01 61.46 51.915 63.3137 54.239 66.025C56.563 68.681 57.725 71.918 57.725 75.736C57.725 79.4433 56.7843 82.6527 54.903 85.364C53.0217 88.02 50.3933 90.0673 47.018 91.506C43.6427 92.9447 39.714 93.664 35.232 93.664ZM95.7027 36.145C95.7027 35.7577 95.8134 35.4533 96.0347 35.232C96.256 35.0107 96.5604 34.9 96.9477 34.9H110.062C110.449 34.9 110.753 35.0107 110.975 35.232C111.196 35.4533 111.307 35.7577 111.307 36.145V91.755C111.307 92.1423 111.196 92.4467 110.975 92.668C110.753 92.8893 110.449 93 110.062 93H97.5287C96.8647 93 96.3667 92.7233 96.0347 92.17L79.1027 63.95C78.992 63.784 78.8814 63.7287 78.7707 63.784C78.66 63.784 78.6047 63.8947 78.6047 64.116L78.7707 91.755C78.7707 92.1423 78.66 92.4467 78.4387 92.668C78.2174 92.8893 77.913 93 77.5257 93H64.4117C64.0244 93 63.72 92.8893 63.4987 92.668C63.2774 92.4467 63.1667 92.1423 63.1667 91.755V36.145C63.1667 35.7577 63.2774 35.4533 63.4987 35.232C63.72 35.0107 64.0244 34.9 64.4117 34.9H76.9447C77.6087 34.9 78.1067 35.1767 78.4387 35.73L95.2877 63.95C95.3984 64.116 95.509 64.199 95.6197 64.199C95.7304 64.1437 95.7857 64.0053 95.7857 63.784L95.7027 36.145ZM159.879 47.018C159.879 47.4053 159.768 47.7097 159.547 47.931C159.325 48.1523 159.021 48.263 158.634 48.263H133.817C133.54 48.263 133.402 48.4013 133.402 48.678V56.48C133.402 56.7567 133.54 56.895 133.817 56.895H149.172C149.559 56.895 149.863 57.0057 150.085 57.227C150.306 57.4483 150.417 57.7527 150.417 58.14V68.93C150.417 69.3173 150.306 69.6217 150.085 69.843C149.863 70.0643 149.559 70.175 149.172 70.175H133.817C133.54 70.175 133.402 70.3133 133.402 70.59V79.222C133.402 79.4987 133.54 79.637 133.817 79.637H158.634C159.021 79.637 159.325 79.7477 159.547 79.969C159.768 80.1903 159.879 80.4947 159.879 80.882V91.755C159.879 92.1423 159.768 92.4467 159.547 92.668C159.325 92.8893 159.021 93 158.634 93H119.043C118.655 93 118.351 92.8893 118.13 92.668C117.908 92.4467 117.798 92.1423 117.798 91.755V36.145C117.798 35.7577 117.908 35.4533 118.13 35.232C118.351 35.0107 118.655 34.9 119.043 34.9H158.634C159.021 34.9 159.325 35.0107 159.547 35.232C159.768 35.4533 159.879 35.7577 159.879 36.145V47.018ZM166.378 93C165.991 93 165.687 92.8893 165.465 92.668C165.244 92.4467 165.133 92.1423 165.133 91.755V36.145C165.133 35.7577 165.244 35.4533 165.465 35.232C165.687 35.0107 165.991 34.9 166.378 34.9H179.492C179.88 34.9 180.184 35.0107 180.405 35.232C180.627 35.4533 180.737 35.7577 180.737 36.145V79.222C180.737 79.4987 180.876 79.637 181.152 79.637H206.799C207.187 79.637 207.491 79.7477 207.712 79.969C207.934 80.1903 208.044 80.4947 208.044 80.882V91.755C208.044 92.1423 207.934 92.4467 207.712 92.668C207.491 92.8893 207.187 93 206.799 93H166.378ZM214.039 93C213.651 93 213.347 92.8893 213.126 92.668C212.904 92.4467 212.794 92.1423 212.794 91.755V36.145C212.794 35.7577 212.904 35.4533 213.126 35.232C213.347 35.0107 213.651 34.9 214.039 34.9H227.153C227.54 34.9 227.844 35.0107 228.066 35.232C228.287 35.4533 228.398 35.7577 228.398 36.145V79.222C228.398 79.4987 228.536 79.637 228.813 79.637H254.46C254.847 79.637 255.151 79.7477 255.373 79.969C255.594 80.1903 255.705 80.4947 255.705 80.882V91.755C255.705 92.1423 255.594 92.4467 255.373 92.668C255.151 92.8893 254.847 93 254.46 93H214.039ZM302.535 47.018C302.535 47.4053 302.424 47.7097 302.203 47.931C301.981 48.1523 301.677 48.263 301.29 48.263H276.473C276.196 48.263 276.058 48.4013 276.058 48.678V56.48C276.058 56.7567 276.196 56.895 276.473 56.895H291.828C292.215 56.895 292.519 57.0057 292.741 57.227C292.962 57.4483 293.073 57.7527 293.073 58.14V68.93C293.073 69.3173 292.962 69.6217 292.741 69.843C292.519 70.0643 292.215 70.175 291.828 70.175H276.473C276.196 70.175 276.058 70.3133 276.058 70.59V79.222C276.058 79.4987 276.196 79.637 276.473 79.637H301.29C301.677 79.637 301.981 79.7477 302.203 79.969C302.424 80.1903 302.535 80.4947 302.535 80.882V91.755C302.535 92.1423 302.424 92.4467 302.203 92.668C301.981 92.8893 301.677 93 301.29 93H261.699C261.311 93 261.007 92.8893 260.786 92.668C260.564 92.4467 260.454 92.1423 260.454 91.755V36.145C260.454 35.7577 260.564 35.4533 260.786 35.232C261.007 35.0107 261.311 34.9 261.699 34.9H301.29C301.677 34.9 301.981 35.0107 302.203 35.232C302.424 35.4533 302.535 35.7577 302.535 36.145V47.018ZM346.899 93.996C342.306 93.996 338.239 93.083 334.698 91.257C331.212 89.3757 328.501 86.775 326.564 83.455C324.627 80.0797 323.659 76.1787 323.659 71.752V56.148C323.659 51.832 324.627 48.014 326.564 44.694C328.501 41.374 331.212 38.801 334.698 36.975C338.239 35.149 342.306 34.236 346.899 34.236C351.547 34.236 355.614 35.149 359.1 36.975C362.641 38.801 365.38 41.374 367.317 44.694C369.254 48.014 370.222 51.832 370.222 56.148V71.752C370.222 76.1787 369.254 80.0797 367.317 83.455C365.38 86.775 362.641 89.3757 359.1 91.257C355.614 93.083 351.547 93.996 346.899 93.996ZM346.899 80.633C349.223 80.633 351.077 79.886 352.46 78.392C353.899 76.8427 354.618 74.7953 354.618 72.25V55.982C354.618 53.4367 353.899 51.417 352.46 49.923C351.077 48.3737 349.223 47.599 346.899 47.599C344.63 47.599 342.777 48.3737 341.338 49.923C339.955 51.417 339.263 53.4367 339.263 55.982V72.25C339.263 74.7953 339.955 76.8427 341.338 78.392C342.777 79.886 344.63 80.633 346.899 80.633ZM401.272 34.9C405.2 34.9 408.659 35.7023 411.647 37.307C414.635 38.8563 416.931 41.0973 418.536 44.03C420.196 46.9073 421.026 50.2273 421.026 53.99C421.026 57.6973 420.168 60.962 418.453 63.784C416.737 66.606 414.33 68.7917 411.232 70.341C408.133 71.8903 404.564 72.665 400.525 72.665H391.727C391.45 72.665 391.312 72.8033 391.312 73.08V91.755C391.312 92.1423 391.201 92.4467 390.98 92.668C390.758 92.8893 390.454 93 390.067 93H376.953C376.565 93 376.261 92.8893 376.04 92.668C375.818 92.4467 375.708 92.1423 375.708 91.755V36.145C375.708 35.7577 375.818 35.4533 376.04 35.232C376.261 35.0107 376.565 34.9 376.953 34.9H401.272ZM398.699 60.215C400.746 60.215 402.378 59.6893 403.596 58.638C404.868 57.5313 405.505 56.0927 405.505 54.322C405.505 52.496 404.868 51.0297 403.596 49.923C402.378 48.8163 400.746 48.263 398.699 48.263H391.727C391.45 48.263 391.312 48.4013 391.312 48.678V59.8C391.312 60.0767 391.45 60.215 391.727 60.215H398.699ZM426.969 93C426.582 93 426.278 92.8893 426.056 92.668C425.835 92.4467 425.724 92.1423 425.724 91.755V36.145C425.724 35.7577 425.835 35.4533 426.056 35.232C426.278 35.0107 426.582 34.9 426.969 34.9H440.083C440.471 34.9 440.775 35.0107 440.996 35.232C441.218 35.4533 441.328 35.7577 441.328 36.145V79.222C441.328 79.4987 441.467 79.637 441.743 79.637H467.39C467.778 79.637 468.082 79.7477 468.303 79.969C468.525 80.1903 468.635 80.4947 468.635 80.882V91.755C468.635 92.1423 468.525 92.4467 468.303 92.668C468.082 92.8893 467.778 93 467.39 93H426.969ZM515.465 47.018C515.465 47.4053 515.355 47.7097 515.133 47.931C514.912 48.1523 514.608 48.263 514.22 48.263H489.403C489.127 48.263 488.988 48.4013 488.988 48.678V56.48C488.988 56.7567 489.127 56.895 489.403 56.895H504.758C505.146 56.895 505.45 57.0057 505.671 57.227C505.893 57.4483 506.003 57.7527 506.003 58.14V68.93C506.003 69.3173 505.893 69.6217 505.671 69.843C505.45 70.0643 505.146 70.175 504.758 70.175H489.403C489.127 70.175 488.988 70.3133 488.988 70.59V79.222C488.988 79.4987 489.127 79.637 489.403 79.637H514.22C514.608 79.637 514.912 79.7477 515.133 79.969C515.355 80.1903 515.465 80.4947 515.465 80.882V91.755C515.465 92.1423 515.355 92.4467 515.133 92.668C514.912 92.8893 514.608 93 514.22 93H474.629C474.242 93 473.938 92.8893 473.716 92.668C473.495 92.4467 473.384 92.1423 473.384 91.755V36.145C473.384 35.7577 473.495 35.4533 473.716 35.232C473.938 35.0107 474.242 34.9 474.629 34.9H514.22C514.608 34.9 514.912 35.0107 515.133 35.232C515.355 35.4533 515.465 35.7577 515.465 36.145V47.018ZM537.154 93C536.822 93 536.518 92.917 536.241 92.751C535.965 92.5297 535.799 92.253 535.743 91.921L519.392 36.311C519.337 36.2003 519.309 36.062 519.309 35.896C519.309 35.232 519.697 34.9 520.471 34.9H534.664C535.384 34.9 535.826 35.2597 535.992 35.979L544.292 71.005C544.348 71.2263 544.431 71.337 544.541 71.337C544.652 71.337 544.735 71.2263 544.79 71.005L552.841 35.979C553.007 35.2597 553.45 34.9 554.169 34.9H568.03C568.473 34.9 568.777 35.0383 568.943 35.315C569.165 35.5363 569.22 35.8683 569.109 36.311L552.592 91.921C552.537 92.253 552.371 92.5297 552.094 92.751C551.818 92.917 551.513 93 551.181 93H537.154ZM616.297 47.018C616.297 47.4053 616.187 47.7097 615.965 47.931C615.744 48.1523 615.44 48.263 615.052 48.263H590.235C589.959 48.263 589.82 48.4013 589.82 48.678V56.48C589.82 56.7567 589.959 56.895 590.235 56.895H605.59C605.978 56.895 606.282 57.0057 606.503 57.227C606.725 57.4483 606.835 57.7527 606.835 58.14V68.93C606.835 69.3173 606.725 69.6217 606.503 69.843C606.282 70.0643 605.978 70.175 605.59 70.175H590.235C589.959 70.175 589.82 70.3133 589.82 70.59V79.222C589.82 79.4987 589.959 79.637 590.235 79.637H615.052C615.44 79.637 615.744 79.7477 615.965 79.969C616.187 80.1903 616.297 80.4947 616.297 80.882V91.755C616.297 92.1423 616.187 92.4467 615.965 92.668C615.744 92.8893 615.44 93 615.052 93H575.461C575.074 93 574.77 92.8893 574.548 92.668C574.327 92.4467 574.216 92.1423 574.216 91.755V36.145C574.216 35.7577 574.327 35.4533 574.548 35.232C574.77 35.0107 575.074 34.9 575.461 34.9H615.052C615.44 34.9 615.744 35.0107 615.965 35.232C616.187 35.4533 616.297 35.7577 616.297 36.145V47.018ZM652.096 93C651.377 93 650.907 92.6957 650.685 92.087L641.555 71.005C641.445 70.7837 641.279 70.673 641.057 70.673H637.571C637.295 70.673 637.156 70.8113 637.156 71.088V91.755C637.156 92.1423 637.046 92.4467 636.824 92.668C636.603 92.8893 636.299 93 635.911 93H622.797C622.41 93 622.106 92.8893 621.884 92.668C621.663 92.4467 621.552 92.1423 621.552 91.755V36.145C621.552 35.7577 621.663 35.4533 621.884 35.232C622.106 35.0107 622.41 34.9 622.797 34.9H647.946C651.709 34.9 655.001 35.6747 657.823 37.224C660.701 38.7733 662.914 40.959 664.463 43.781C666.068 46.5477 666.87 49.757 666.87 53.409C666.87 57.061 665.957 60.2703 664.131 63.037C662.361 65.7483 659.898 67.7403 656.744 69.013C656.468 69.1237 656.385 69.3173 656.495 69.594L667.036 91.506C667.147 91.838 667.202 92.0317 667.202 92.087C667.202 92.3637 667.092 92.585 666.87 92.751C666.649 92.917 666.372 93 666.04 93H652.096ZM637.571 48.263C637.295 48.263 637.156 48.4013 637.156 48.678V58.389C637.156 58.6657 637.295 58.804 637.571 58.804H645.373C647.144 58.804 648.583 58.3337 649.689 57.393C650.796 56.397 651.349 55.1243 651.349 53.575C651.349 51.9703 650.796 50.6977 649.689 49.757C648.583 48.761 647.144 48.263 645.373 48.263H637.571ZM673.862 93C673.475 93 673.17 92.8893 672.949 92.668C672.728 92.4467 672.617 92.1423 672.617 91.755V36.145C672.617 35.7577 672.728 35.4533 672.949 35.232C673.17 35.0107 673.475 34.9 673.862 34.9H686.976C687.363 34.9 687.668 35.0107 687.889 35.232C688.11 35.4533 688.221 35.7577 688.221 36.145V91.755C688.221 92.1423 688.11 92.4467 687.889 92.668C687.668 92.8893 687.363 93 686.976 93H673.862ZM727.2 36.145C727.2 35.7577 727.31 35.4533 727.532 35.232C727.753 35.0107 728.057 34.9 728.445 34.9H741.559C741.946 34.9 742.25 35.0107 742.472 35.232C742.693 35.4533 742.804 35.7577 742.804 36.145V91.755C742.804 92.1423 742.693 92.4467 742.472 92.668C742.25 92.8893 741.946 93 741.559 93H729.026C728.362 93 727.864 92.7233 727.532 92.17L710.6 63.95C710.489 63.784 710.378 63.7287 710.268 63.784C710.157 63.784 710.102 63.8947 710.102 64.116L710.268 91.755C710.268 92.1423 710.157 92.4467 709.936 92.668C709.714 92.8893 709.41 93 709.023 93H695.909C695.521 93 695.217 92.8893 694.996 92.668C694.774 92.4467 694.664 92.1423 694.664 91.755V36.145C694.664 35.7577 694.774 35.4533 694.996 35.232C695.217 35.0107 695.521 34.9 695.909 34.9H708.442C709.106 34.9 709.604 35.1767 709.936 35.73L726.785 63.95C726.895 64.116 727.006 64.199 727.117 64.199C727.227 64.1437 727.283 64.0053 727.283 63.784L727.2 36.145ZM771.456 93.664C766.918 93.664 762.907 92.751 759.421 90.925C755.99 89.099 753.306 86.526 751.37 83.206C749.488 79.886 748.548 76.068 748.548 71.752V56.065C748.548 51.749 749.488 47.9587 751.37 44.694C753.306 41.374 755.99 38.801 759.421 36.975C762.907 35.149 766.918 34.236 771.456 34.236C775.882 34.236 779.839 35.1213 783.325 36.892C786.811 38.6073 789.494 40.959 791.376 43.947C793.312 46.935 794.281 50.1997 794.281 53.741V53.824C794.281 54.2113 794.17 54.5157 793.949 54.737C793.727 54.9583 793.423 55.069 793.036 55.069H780.005C779.175 55.069 778.76 54.82 778.76 54.322C778.76 52.496 778.096 50.919 776.768 49.591C775.495 48.263 773.724 47.599 771.456 47.599C769.242 47.599 767.472 48.346 766.144 49.84C764.816 51.2787 764.152 53.2153 764.152 55.65V72.25C764.152 74.6293 764.899 76.566 766.393 78.06C767.942 79.554 769.851 80.301 772.12 80.301C774.167 80.301 775.827 79.7477 777.1 78.641C778.428 77.479 779.092 75.902 779.092 73.91V72.831C779.092 72.5543 778.953 72.416 778.677 72.416H771.373C770.985 72.416 770.681 72.3053 770.46 72.084C770.238 71.8627 770.128 71.5583 770.128 71.171V61.211C770.128 60.8237 770.238 60.5193 770.46 60.298C770.681 60.0767 770.985 59.966 771.373 59.966H793.036C793.423 59.966 793.727 60.0767 793.949 60.298C794.17 60.5193 794.281 60.8237 794.281 61.211V72.582C794.281 76.6767 793.312 80.3287 791.376 83.538C789.494 86.7473 786.811 89.2373 783.325 91.008C779.894 92.7787 775.938 93.664 771.456 93.664Z" fill="#818187"/>
</svg>
