<svg width="231" height="52" viewBox="0 0 231 52" fill="none" xmlns="http://www.w3.org/2000/svg">
<path d="M14.796 27.432C12.828 27.432 10.992 27.108 9.288 26.46C7.608 25.788 6.132 24.852 4.86 23.652C3.588 22.452 2.592 21.048 1.872 19.44C1.176 17.808 0.828 16.044 0.828 14.148C0.828 12.228 1.176 10.464 1.872 8.856C2.592 7.248 3.576 5.856 4.824 4.68C6.096 3.504 7.572 2.592 9.252 1.944C10.932 1.272 12.756 0.935999 14.724 0.935999C16.716 0.935999 18.54 1.248 20.196 1.872C21.852 2.496 23.292 3.36 24.516 4.464L19.728 9.288C19.152 8.664 18.444 8.172 17.604 7.812C16.788 7.452 15.828 7.272 14.724 7.272C13.764 7.272 12.876 7.428 12.06 7.74C11.268 8.052 10.584 8.508 10.008 9.108C9.432 9.708 8.976 10.44 8.64 11.304C8.328 12.144 8.172 13.092 8.172 14.148C8.172 15.228 8.328 16.2 8.64 17.064C8.976 17.904 9.432 18.624 10.008 19.224C10.584 19.824 11.268 20.292 12.06 20.628C12.876 20.94 13.764 21.096 14.724 21.096C15.804 21.096 16.764 20.928 17.604 20.592C18.468 20.256 19.212 19.764 19.836 19.116L24.66 23.94C23.388 25.044 21.96 25.908 20.376 26.532C18.792 27.132 16.932 27.432 14.796 27.432ZM38.8077 27.504C36.7917 27.504 34.9317 27.168 33.2277 26.496C31.5477 25.824 30.0717 24.888 28.7997 23.688C27.5517 22.488 26.5797 21.072 25.8837 19.44C25.1877 17.808 24.8397 16.044 24.8397 14.148C24.8397 12.228 25.1757 10.464 25.8477 8.856C26.5437 7.248 27.5157 5.844 28.7637 4.644C30.0117 3.444 31.4757 2.52 33.1557 1.872C34.8597 1.2 36.7197 0.864 38.7357 0.864C40.7517 0.864 42.5997 1.2 44.2797 1.872C45.9837 2.52 47.4597 3.444 48.7077 4.644C49.9557 5.844 50.9157 7.26 51.5877 8.892C52.2837 10.5 52.6317 12.264 52.6317 14.184C52.6317 16.08 52.2837 17.844 51.5877 19.476C50.9157 21.084 49.9557 22.5 48.7077 23.724C47.4597 24.924 45.9957 25.86 44.3157 26.532C42.6357 27.18 40.7997 27.504 38.8077 27.504ZM38.7357 21.168C40.0797 21.168 41.2437 20.88 42.2277 20.304C43.2117 19.728 43.9677 18.912 44.4957 17.856C45.0237 16.8 45.2877 15.564 45.2877 14.148C45.2877 13.092 45.1317 12.144 44.8197 11.304C44.5317 10.44 44.0997 9.708 43.5237 9.108C42.9477 8.484 42.2517 8.016 41.4357 7.704C40.6437 7.368 39.7437 7.2 38.7357 7.2C37.3917 7.2 36.2277 7.488 35.2437 8.064C34.2597 8.616 33.5037 9.42 32.9757 10.476C32.4477 11.508 32.1837 12.732 32.1837 14.148C32.1837 15.228 32.3277 16.2 32.6157 17.064C32.9277 17.928 33.3717 18.672 33.9477 19.296C34.5237 19.896 35.2077 20.364 35.9997 20.7C36.8157 21.012 37.7277 21.168 38.7357 21.168ZM60.4207 27V20.88H66.3967C67.7407 20.88 68.9047 20.64 69.8887 20.16C70.8727 19.656 71.6287 18.9 72.1567 17.892C72.6847 16.884 72.9487 15.636 72.9487 14.148C72.9487 12.66 72.6727 11.424 72.1207 10.44C71.5927 9.456 70.8367 8.724 69.8527 8.244C68.8927 7.74 67.7407 7.488 66.3967 7.488H60.0607V1.368H66.3967C68.4127 1.368 70.2607 1.668 71.9407 2.268C73.6447 2.868 75.1207 3.732 76.3687 4.86C77.6167 5.988 78.5767 7.344 79.2487 8.928C79.9447 10.488 80.2927 12.24 80.2927 14.184C80.2927 16.128 79.9447 17.892 79.2487 19.476C78.5767 21.036 77.6167 22.38 76.3687 23.508C75.1207 24.636 73.6567 25.5 71.9767 26.1C70.2967 26.7 68.4607 27 66.4687 27H60.4207ZM55.5967 27V1.368H62.7967V27H55.5967ZM83.2295 27V1.368H90.4295V27H83.2295ZM89.0615 27V21.024H102.813V27H89.0615ZM89.0615 16.848V11.016H101.481V16.848H89.0615ZM89.0615 7.344V1.368H102.597V7.344H89.0615ZM121.738 27L110.362 14.436C109.45 13.404 108.802 12.432 108.418 11.52C108.058 10.608 107.878 9.612 107.878 8.532C107.878 7.212 108.214 5.976 108.886 4.824C109.582 3.672 110.53 2.736 111.73 2.016C112.954 1.296 114.37 0.935999 115.978 0.935999C117.274 0.935999 118.402 1.116 119.362 1.476C120.346 1.812 121.174 2.244 121.846 2.772C122.518 3.276 123.01 3.78 123.322 4.284L118.822 8.784C118.39 8.184 117.958 7.788 117.526 7.596C117.094 7.38 116.638 7.272 116.158 7.272C115.63 7.272 115.198 7.428 114.862 7.74C114.55 8.028 114.394 8.376 114.394 8.784C114.394 9.048 114.454 9.324 114.574 9.612C114.718 9.9 114.922 10.2 115.186 10.512L129.874 27H121.738ZM113.674 27.432C111.946 27.432 110.434 27.084 109.138 26.388C107.866 25.668 106.87 24.708 106.15 23.508C105.454 22.308 105.106 20.976 105.106 19.512C105.106 17.88 105.526 16.428 106.366 15.156C107.206 13.86 108.502 12.816 110.254 12.024L113.134 16.776C112.582 16.944 112.174 17.232 111.91 17.64C111.67 18.048 111.55 18.48 111.55 18.936C111.55 19.296 111.634 19.644 111.802 19.98C111.97 20.316 112.222 20.592 112.558 20.808C112.894 21.024 113.302 21.132 113.782 21.132C114.19 21.132 114.586 21.036 114.97 20.844C115.354 20.628 115.738 20.244 116.122 19.692L120.982 24.336C120.646 24.768 120.118 25.224 119.398 25.704C118.702 26.184 117.862 26.592 116.878 26.928C115.894 27.264 114.826 27.432 113.674 27.432ZM141.64 27.432C139.672 27.432 137.836 27.108 136.132 26.46C134.452 25.788 132.976 24.852 131.704 23.652C130.432 22.452 129.436 21.048 128.716 19.44C128.02 17.808 127.672 16.044 127.672 14.148C127.672 12.228 128.02 10.464 128.716 8.856C129.436 7.248 130.42 5.856 131.668 4.68C132.94 3.504 134.416 2.592 136.096 1.944C137.776 1.272 139.6 0.935999 141.568 0.935999C143.56 0.935999 145.384 1.248 147.04 1.872C148.696 2.496 150.136 3.36 151.36 4.464L146.572 9.288C145.996 8.664 145.288 8.172 144.448 7.812C143.632 7.452 142.672 7.272 141.568 7.272C140.608 7.272 139.72 7.428 138.904 7.74C138.112 8.052 137.428 8.508 136.852 9.108C136.276 9.708 135.82 10.44 135.484 11.304C135.172 12.144 135.016 13.092 135.016 14.148C135.016 15.228 135.172 16.2 135.484 17.064C135.82 17.904 136.276 18.624 136.852 19.224C137.428 19.824 138.112 20.292 138.904 20.628C139.72 20.94 140.608 21.096 141.568 21.096C142.648 21.096 143.608 20.928 144.448 20.592C145.312 20.256 146.056 19.764 146.68 19.116L151.504 23.94C150.232 25.044 148.804 25.908 147.22 26.532C145.636 27.132 143.776 27.432 141.64 27.432ZM153.999 27V1.368H161.199V27H153.999ZM169.479 27V1.368H176.679V27H169.479ZM157.923 16.92V10.944H172.287V16.92H157.923ZM180.929 27V1.368H188.129V27H180.929ZM192.39 27V1.368H199.59V27H192.39ZM198.258 27V20.88H210.246V27H198.258ZM212.991 27V1.368H220.191V27H212.991ZM218.859 27V20.88H230.847V27H218.859ZM2.3925 43.545V42.192H5.511C5.94 42.192 6.3195 42.104 6.6495 41.928C6.9905 41.752 7.2545 41.5045 7.4415 41.1855C7.6395 40.8665 7.7385 40.487 7.7385 40.047C7.7385 39.607 7.6395 39.2275 7.4415 38.9085C7.2545 38.5895 6.9905 38.342 6.6495 38.166C6.3195 37.99 5.94 37.902 5.511 37.902H2.3925V36.549H5.61C6.314 36.549 6.941 36.692 7.491 36.978C8.052 37.264 8.492 37.671 8.811 38.199C9.141 38.716 9.306 39.332 9.306 40.047C9.306 40.751 9.141 41.367 8.811 41.895C8.492 42.412 8.052 42.819 7.491 43.116C6.941 43.402 6.314 43.545 5.61 43.545H2.3925ZM1.353 48V36.549H2.904V48H1.353ZM11.0953 48V40.1625H12.5803V48H11.0953ZM12.5803 43.5285L12.0193 43.281C12.0193 42.28 12.2503 41.4825 12.7123 40.8885C13.1743 40.2945 13.8398 39.9975 14.7088 39.9975C15.1048 39.9975 15.4623 40.069 15.7813 40.212C16.1003 40.344 16.3973 40.5695 16.6723 40.8885L15.6988 41.895C15.5338 41.719 15.3523 41.5925 15.1543 41.5155C14.9563 41.4385 14.7253 41.4 14.4613 41.4C13.9113 41.4 13.4603 41.576 13.1083 41.928C12.7563 42.28 12.5803 42.8135 12.5803 43.5285ZM21.0901 48.165C20.3091 48.165 19.6051 47.989 18.9781 47.637C18.3511 47.274 17.8561 46.7845 17.4931 46.1685C17.1301 45.5525 16.9486 44.854 16.9486 44.073C16.9486 43.303 17.1246 42.61 17.4766 41.994C17.8396 41.378 18.3236 40.894 18.9286 40.542C19.5446 40.179 20.2321 39.9975 20.9911 39.9975C21.7171 39.9975 22.3551 40.1625 22.9051 40.4925C23.4661 40.8225 23.9006 41.279 24.2086 41.862C24.5276 42.445 24.6871 43.105 24.6871 43.842C24.6871 43.952 24.6816 44.073 24.6706 44.205C24.6596 44.326 24.6376 44.469 24.6046 44.634H17.9881V43.3965H23.8126L23.2681 43.875C23.2681 43.347 23.1746 42.9015 22.9876 42.5385C22.8006 42.1645 22.5366 41.8785 22.1956 41.6805C21.8546 41.4715 21.4421 41.367 20.9581 41.367C20.4521 41.367 20.0066 41.477 19.6216 41.697C19.2366 41.917 18.9396 42.225 18.7306 42.621C18.5216 43.017 18.4171 43.4845 18.4171 44.0235C18.4171 44.5735 18.5271 45.0575 18.7471 45.4755C18.9671 45.8825 19.2806 46.2015 19.6876 46.4325C20.0946 46.6525 20.5621 46.7625 21.0901 46.7625C21.5301 46.7625 21.9316 46.6855 22.2946 46.5315C22.6686 46.3775 22.9876 46.1465 23.2516 45.8385L24.2086 46.812C23.8346 47.252 23.3726 47.5875 22.8226 47.8185C22.2836 48.0495 21.7061 48.165 21.0901 48.165ZM29.8868 48.165C29.1168 48.165 28.4183 47.9835 27.7913 47.6205C27.1753 47.2575 26.6858 46.768 26.3228 46.152C25.9708 45.525 25.7948 44.832 25.7948 44.073C25.7948 43.303 25.9708 42.61 26.3228 41.994C26.6858 41.378 27.1753 40.894 27.7913 40.542C28.4183 40.179 29.1168 39.9975 29.8868 39.9975C30.4918 39.9975 31.0528 40.113 31.5698 40.344C32.0868 40.564 32.5323 40.8885 32.9063 41.3175L31.9163 42.3075C31.6743 42.0215 31.3773 41.807 31.0253 41.664C30.6843 41.51 30.3048 41.433 29.8868 41.433C29.3918 41.433 28.9518 41.5485 28.5668 41.7795C28.1818 41.9995 27.8793 42.3075 27.6593 42.7035C27.4393 43.0995 27.3293 43.556 27.3293 44.073C27.3293 44.59 27.4393 45.0465 27.6593 45.4425C27.8793 45.8385 28.1818 46.152 28.5668 46.383C28.9518 46.614 29.3918 46.7295 29.8868 46.7295C30.3048 46.7295 30.6843 46.658 31.0253 46.515C31.3773 46.361 31.6798 46.141 31.9328 45.855L32.9063 46.845C32.5433 47.263 32.0978 47.5875 31.5698 47.8185C31.0528 48.0495 30.4918 48.165 29.8868 48.165ZM34.3955 48V40.1625H35.8805V48H34.3955ZM35.138 38.595C34.863 38.595 34.6375 38.507 34.4615 38.331C34.2855 38.144 34.1975 37.913 34.1975 37.638C34.1975 37.374 34.2855 37.154 34.4615 36.978C34.6375 36.791 34.863 36.6975 35.138 36.6975C35.413 36.6975 35.6385 36.791 35.8145 36.978C35.9905 37.154 36.0785 37.374 36.0785 37.638C36.0785 37.913 35.9905 38.144 35.8145 38.331C35.6385 38.507 35.413 38.595 35.138 38.595ZM40.5605 48.165C40.1205 48.165 39.7025 48.11 39.3065 48C38.9215 47.879 38.564 47.714 38.234 47.505C37.904 47.285 37.618 47.0265 37.376 46.7295L38.333 45.7725C38.619 46.1245 38.949 46.3885 39.323 46.5645C39.697 46.7295 40.115 46.812 40.577 46.812C41.039 46.812 41.3965 46.735 41.6495 46.581C41.9025 46.416 42.029 46.1905 42.029 45.9045C42.029 45.6185 41.9245 45.3985 41.7155 45.2445C41.5175 45.0795 41.259 44.9475 40.94 44.8485C40.621 44.7385 40.28 44.634 39.917 44.535C39.565 44.425 39.2295 44.2875 38.9105 44.1225C38.5915 43.9575 38.3275 43.732 38.1185 43.446C37.9205 43.16 37.8215 42.7805 37.8215 42.3075C37.8215 41.8345 37.937 41.4275 38.168 41.0865C38.399 40.7345 38.718 40.465 39.125 40.278C39.543 40.091 40.0435 39.9975 40.6265 39.9975C41.2425 39.9975 41.787 40.1075 42.26 40.3275C42.744 40.5365 43.14 40.8555 43.448 41.2845L42.491 42.2415C42.271 41.9555 41.996 41.7355 41.666 41.5815C41.347 41.4275 40.984 41.3505 40.577 41.3505C40.148 41.3505 39.818 41.4275 39.587 41.5815C39.367 41.7245 39.257 41.928 39.257 42.192C39.257 42.456 39.356 42.6595 39.554 42.8025C39.752 42.9455 40.0105 43.0665 40.3295 43.1655C40.6595 43.2645 41.0005 43.369 41.3525 43.479C41.7045 43.578 42.04 43.7155 42.359 43.8915C42.678 44.0675 42.9365 44.304 43.1345 44.601C43.3435 44.898 43.448 45.2885 43.448 45.7725C43.448 46.5095 43.184 47.0925 42.656 47.5215C42.139 47.9505 41.4405 48.165 40.5605 48.165ZM45.127 48V40.1625H46.612V48H45.127ZM45.8695 38.595C45.5945 38.595 45.369 38.507 45.193 38.331C45.017 38.144 44.929 37.913 44.929 37.638C44.929 37.374 45.017 37.154 45.193 36.978C45.369 36.791 45.5945 36.6975 45.8695 36.6975C46.1445 36.6975 46.37 36.791 46.546 36.978C46.722 37.154 46.81 37.374 46.81 37.638C46.81 37.913 46.722 38.144 46.546 38.331C46.37 38.507 46.1445 38.595 45.8695 38.595ZM52.3809 48.165C51.6109 48.165 50.9179 47.9835 50.3019 47.6205C49.6859 47.2575 49.1964 46.768 48.8334 46.152C48.4704 45.525 48.2889 44.8265 48.2889 44.0565C48.2889 43.2975 48.4704 42.6155 48.8334 42.0105C49.1964 41.3945 49.6859 40.905 50.3019 40.542C50.9179 40.179 51.6109 39.9975 52.3809 39.9975C53.1399 39.9975 53.8274 40.179 54.4434 40.542C55.0704 40.894 55.5654 41.378 55.9284 41.994C56.2914 42.61 56.4729 43.2975 56.4729 44.0565C56.4729 44.8265 56.2914 45.525 55.9284 46.152C55.5654 46.768 55.0704 47.2575 54.4434 47.6205C53.8274 47.9835 53.1399 48.165 52.3809 48.165ZM52.3809 46.7295C52.8759 46.7295 53.3159 46.614 53.7009 46.383C54.0859 46.152 54.3884 45.8385 54.6084 45.4425C54.8284 45.0355 54.9384 44.5735 54.9384 44.0565C54.9384 43.5505 54.8229 43.0995 54.5919 42.7035C54.3719 42.3075 54.0694 41.9995 53.6844 41.7795C53.3104 41.5485 52.8759 41.433 52.3809 41.433C51.8859 41.433 51.4459 41.5485 51.0609 41.7795C50.6759 41.9995 50.3734 42.3075 50.1534 42.7035C49.9334 43.0995 49.8234 43.5505 49.8234 44.0565C49.8234 44.5735 49.9334 45.0355 50.1534 45.4425C50.3734 45.8385 50.6759 46.152 51.0609 46.383C51.4459 46.614 51.8859 46.7295 52.3809 46.7295ZM63.6901 48V43.4295C63.6901 42.8355 63.5031 42.346 63.1291 41.961C62.7551 41.576 62.2711 41.3835 61.6771 41.3835C61.2811 41.3835 60.9291 41.4715 60.6211 41.6475C60.3131 41.8235 60.0711 42.0655 59.8951 42.3735C59.7191 42.6815 59.6311 43.0335 59.6311 43.4295L59.0206 43.083C59.0206 42.489 59.1526 41.961 59.4166 41.499C59.6806 41.037 60.0491 40.674 60.5221 40.41C60.9951 40.135 61.5286 39.9975 62.1226 39.9975C62.7166 39.9975 63.2391 40.146 63.6901 40.443C64.1521 40.74 64.5151 41.1305 64.7791 41.6145C65.0431 42.0875 65.1751 42.5935 65.1751 43.1325V48H63.6901ZM58.1461 48V40.1625H59.6311V48H58.1461ZM67.2682 49.815L68.2912 47.8515L68.8192 47.7195C68.7642 47.8405 68.6927 47.9395 68.6047 48.0165C68.5277 48.0935 68.4287 48.132 68.3077 48.132C68.0767 48.132 67.8622 48.0385 67.6642 47.8515C67.4772 47.6535 67.3837 47.4115 67.3837 47.1255C67.3837 46.8065 67.4882 46.5425 67.6972 46.3335C67.9062 46.1135 68.1702 46.0035 68.4892 46.0035C68.7752 46.0035 69.0282 46.1135 69.2482 46.3335C69.4682 46.5425 69.5782 46.8065 69.5782 47.1255C69.5782 47.2465 69.5507 47.395 69.4957 47.571C69.4517 47.736 69.3582 47.9505 69.2152 48.2145L68.1262 50.277L67.2682 49.815ZM77.4058 48L74.3038 40.1625H75.8548L78.0988 46.2675H77.6038L79.8313 40.1625H80.6893L82.9168 46.2675H82.4218L84.6658 40.1625H86.2168L83.1313 48H82.2568L79.9963 42.0765H80.5408L78.2638 48H77.4058ZM87.4243 48V40.1625H88.9093V48H87.4243ZM88.1668 38.595C87.8918 38.595 87.6663 38.507 87.4903 38.331C87.3143 38.144 87.2263 37.913 87.2263 37.638C87.2263 37.374 87.3143 37.154 87.4903 36.978C87.6663 36.791 87.8918 36.6975 88.1668 36.6975C88.4418 36.6975 88.6673 36.791 88.8433 36.978C89.0193 37.154 89.1073 37.374 89.1073 37.638C89.1073 37.913 89.0193 38.144 88.8433 38.331C88.6673 38.507 88.4418 38.595 88.1668 38.595ZM92.3023 48V36.879H93.7873V48H92.3023ZM90.3718 41.5155V40.1625H95.7178V41.5155H90.3718ZM102.716 48V43.4295C102.716 42.8355 102.529 42.346 102.155 41.961C101.781 41.576 101.297 41.3835 100.703 41.3835C100.307 41.3835 99.9555 41.4715 99.6475 41.6475C99.3395 41.8235 99.0975 42.0655 98.9215 42.3735C98.7455 42.6815 98.6575 43.0335 98.6575 43.4295L98.047 43.083C98.047 42.489 98.179 41.961 98.443 41.499C98.707 41.037 99.0755 40.674 99.5485 40.41C100.021 40.135 100.555 39.9975 101.149 39.9975C101.743 39.9975 102.265 40.1295 102.716 40.3935C103.178 40.6575 103.541 41.026 103.805 41.499C104.069 41.972 104.201 42.5165 104.201 43.1325V48H102.716ZM97.1725 48V36.219H98.6575V48H97.1725ZM109.793 48.165C109.023 48.165 108.33 47.9835 107.714 47.6205C107.098 47.2575 106.608 46.768 106.245 46.152C105.882 45.525 105.701 44.8265 105.701 44.0565C105.701 43.2975 105.882 42.6155 106.245 42.0105C106.608 41.3945 107.098 40.905 107.714 40.542C108.33 40.179 109.023 39.9975 109.793 39.9975C110.552 39.9975 111.239 40.179 111.855 40.542C112.482 40.894 112.977 41.378 113.34 41.994C113.703 42.61 113.885 43.2975 113.885 44.0565C113.885 44.8265 113.703 45.525 113.34 46.152C112.977 46.768 112.482 47.2575 111.855 47.6205C111.239 47.9835 110.552 48.165 109.793 48.165ZM109.793 46.7295C110.288 46.7295 110.728 46.614 111.113 46.383C111.498 46.152 111.8 45.8385 112.02 45.4425C112.24 45.0355 112.35 44.5735 112.35 44.0565C112.35 43.5505 112.235 43.0995 112.004 42.7035C111.784 42.3075 111.481 41.9995 111.096 41.7795C110.722 41.5485 110.288 41.433 109.793 41.433C109.298 41.433 108.858 41.5485 108.473 41.7795C108.088 41.9995 107.785 42.3075 107.565 42.7035C107.345 43.0995 107.235 43.5505 107.235 44.0565C107.235 44.5735 107.345 45.0355 107.565 45.4425C107.785 45.8385 108.088 46.152 108.473 46.383C108.858 46.614 109.298 46.7295 109.793 46.7295ZM118.709 48.165C118.071 48.165 117.494 48.022 116.977 47.736C116.471 47.439 116.075 47.032 115.789 46.515C115.503 45.998 115.36 45.3985 115.36 44.7165V40.1625H116.845V44.6505C116.845 45.0795 116.916 45.4535 117.059 45.7725C117.213 46.0805 117.433 46.317 117.719 46.482C118.005 46.647 118.341 46.7295 118.726 46.7295C119.309 46.7295 119.765 46.548 120.095 46.185C120.425 45.811 120.59 45.2995 120.59 44.6505V40.1625H122.075V44.7165C122.075 45.3985 121.932 45.998 121.646 46.515C121.36 47.032 120.964 47.439 120.458 47.736C119.963 48.022 119.38 48.165 118.709 48.165ZM125.27 48V36.879H126.755V48H125.27ZM123.34 41.5155V40.1625H128.686V41.5155H123.34ZM137.697 48.165C137.103 48.165 136.564 48.044 136.08 47.802C135.607 47.549 135.228 47.2025 134.942 46.7625C134.656 46.3225 134.496 45.822 134.463 45.261V42.9015C134.496 42.3295 134.656 41.829 134.942 41.4C135.239 40.96 135.624 40.619 136.097 40.377C136.581 40.124 137.114 39.9975 137.697 39.9975C138.412 39.9975 139.056 40.179 139.628 40.542C140.211 40.905 140.667 41.3945 140.997 42.0105C141.327 42.6265 141.492 43.3195 141.492 44.0895C141.492 44.8595 141.327 45.5525 140.997 46.1685C140.667 46.7845 140.211 47.274 139.628 47.637C139.056 47.989 138.412 48.165 137.697 48.165ZM133.572 51.2835V40.1625H135.057V42.225L134.777 44.1225L135.057 46.0365V51.2835H133.572ZM137.45 46.7625C137.945 46.7625 138.379 46.647 138.753 46.416C139.127 46.185 139.424 45.8715 139.644 45.4755C139.864 45.0685 139.974 44.601 139.974 44.073C139.974 43.556 139.864 43.094 139.644 42.687C139.424 42.28 139.127 41.9665 138.753 41.7465C138.379 41.5155 137.95 41.4 137.466 41.4C136.971 41.4 136.537 41.5155 136.163 41.7465C135.789 41.9665 135.497 42.28 135.288 42.687C135.079 43.094 134.975 43.5615 134.975 44.0895C134.975 44.6065 135.074 45.0685 135.272 45.4755C135.481 45.8715 135.772 46.185 136.146 46.416C136.531 46.647 136.966 46.7625 137.45 46.7625ZM143.176 48V40.1625H144.661V48H143.176ZM144.661 43.5285L144.1 43.281C144.1 42.28 144.331 41.4825 144.793 40.8885C145.255 40.2945 145.92 39.9975 146.789 39.9975C147.185 39.9975 147.543 40.069 147.862 40.212C148.181 40.344 148.478 40.5695 148.753 40.8885L147.779 41.895C147.614 41.719 147.433 41.5925 147.235 41.5155C147.037 41.4385 146.806 41.4 146.542 41.4C145.992 41.4 145.541 41.576 145.189 41.928C144.837 42.28 144.661 42.8135 144.661 43.5285ZM153.171 48.165C152.39 48.165 151.686 47.989 151.059 47.637C150.432 47.274 149.937 46.7845 149.574 46.1685C149.211 45.5525 149.029 44.854 149.029 44.073C149.029 43.303 149.205 42.61 149.557 41.994C149.92 41.378 150.404 40.894 151.009 40.542C151.625 40.179 152.313 39.9975 153.072 39.9975C153.798 39.9975 154.436 40.1625 154.986 40.4925C155.547 40.8225 155.981 41.279 156.289 41.862C156.608 42.445 156.768 43.105 156.768 43.842C156.768 43.952 156.762 44.073 156.751 44.205C156.74 44.326 156.718 44.469 156.685 44.634H150.069V43.3965H155.893L155.349 43.875C155.349 43.347 155.255 42.9015 155.068 42.5385C154.881 42.1645 154.617 41.8785 154.276 41.6805C153.935 41.4715 153.523 41.367 153.039 41.367C152.533 41.367 152.087 41.477 151.702 41.697C151.317 41.917 151.02 42.225 150.811 42.621C150.602 43.017 150.498 43.4845 150.498 44.0235C150.498 44.5735 150.608 45.0575 150.828 45.4755C151.048 45.8825 151.361 46.2015 151.768 46.4325C152.175 46.6525 152.643 46.7625 153.171 46.7625C153.611 46.7625 154.012 46.6855 154.375 46.5315C154.749 46.3775 155.068 46.1465 155.332 45.8385L156.289 46.812C155.915 47.252 155.453 47.5875 154.903 47.8185C154.364 48.0495 153.787 48.165 153.171 48.165ZM160.878 48.165C160.438 48.165 160.02 48.11 159.624 48C159.239 47.879 158.882 47.714 158.552 47.505C158.222 47.285 157.936 47.0265 157.694 46.7295L158.651 45.7725C158.937 46.1245 159.267 46.3885 159.641 46.5645C160.015 46.7295 160.433 46.812 160.895 46.812C161.357 46.812 161.714 46.735 161.967 46.581C162.22 46.416 162.347 46.1905 162.347 45.9045C162.347 45.6185 162.242 45.3985 162.033 45.2445C161.835 45.0795 161.577 44.9475 161.258 44.8485C160.939 44.7385 160.598 44.634 160.235 44.535C159.883 44.425 159.547 44.2875 159.228 44.1225C158.909 43.9575 158.645 43.732 158.436 43.446C158.238 43.16 158.139 42.7805 158.139 42.3075C158.139 41.8345 158.255 41.4275 158.486 41.0865C158.717 40.7345 159.036 40.465 159.443 40.278C159.861 40.091 160.361 39.9975 160.944 39.9975C161.56 39.9975 162.105 40.1075 162.578 40.3275C163.062 40.5365 163.458 40.8555 163.766 41.2845L162.809 42.2415C162.589 41.9555 162.314 41.7355 161.984 41.5815C161.665 41.4275 161.302 41.3505 160.895 41.3505C160.466 41.3505 160.136 41.4275 159.905 41.5815C159.685 41.7245 159.575 41.928 159.575 42.192C159.575 42.456 159.674 42.6595 159.872 42.8025C160.07 42.9455 160.328 43.0665 160.647 43.1655C160.977 43.2645 161.318 43.369 161.67 43.479C162.022 43.578 162.358 43.7155 162.677 43.8915C162.996 44.0675 163.254 44.304 163.452 44.601C163.661 44.898 163.766 45.2885 163.766 45.7725C163.766 46.5095 163.502 47.0925 162.974 47.5215C162.457 47.9505 161.758 48.165 160.878 48.165ZM167.92 48.165C167.48 48.165 167.062 48.11 166.666 48C166.281 47.879 165.923 47.714 165.593 47.505C165.263 47.285 164.977 47.0265 164.735 46.7295L165.692 45.7725C165.978 46.1245 166.308 46.3885 166.682 46.5645C167.056 46.7295 167.474 46.812 167.936 46.812C168.398 46.812 168.756 46.735 169.009 46.581C169.262 46.416 169.388 46.1905 169.388 45.9045C169.388 45.6185 169.284 45.3985 169.075 45.2445C168.877 45.0795 168.618 44.9475 168.299 44.8485C167.98 44.7385 167.639 44.634 167.276 44.535C166.924 44.425 166.589 44.2875 166.27 44.1225C165.951 43.9575 165.687 43.732 165.478 43.446C165.28 43.16 165.181 42.7805 165.181 42.3075C165.181 41.8345 165.296 41.4275 165.527 41.0865C165.758 40.7345 166.077 40.465 166.484 40.278C166.902 40.091 167.403 39.9975 167.986 39.9975C168.602 39.9975 169.146 40.1075 169.619 40.3275C170.103 40.5365 170.499 40.8555 170.807 41.2845L169.85 42.2415C169.63 41.9555 169.355 41.7355 169.025 41.5815C168.706 41.4275 168.343 41.3505 167.936 41.3505C167.507 41.3505 167.177 41.4275 166.946 41.5815C166.726 41.7245 166.616 41.928 166.616 42.192C166.616 42.456 166.715 42.6595 166.913 42.8025C167.111 42.9455 167.37 43.0665 167.689 43.1655C168.019 43.2645 168.36 43.369 168.712 43.479C169.064 43.578 169.399 43.7155 169.718 43.8915C170.037 44.0675 170.296 44.304 170.494 44.601C170.703 44.898 170.807 45.2885 170.807 45.7725C170.807 46.5095 170.543 47.0925 170.015 47.5215C169.498 47.9505 168.8 48.165 167.92 48.165ZM175.621 48.165C174.983 48.165 174.406 48.022 173.889 47.736C173.383 47.439 172.987 47.032 172.701 46.515C172.415 45.998 172.272 45.3985 172.272 44.7165V40.1625H173.757V44.6505C173.757 45.0795 173.828 45.4535 173.971 45.7725C174.125 46.0805 174.345 46.317 174.631 46.482C174.917 46.647 175.253 46.7295 175.638 46.7295C176.221 46.7295 176.677 46.548 177.007 46.185C177.337 45.811 177.502 45.2995 177.502 44.6505V40.1625H178.987V44.7165C178.987 45.3985 178.844 45.998 178.558 46.515C178.272 47.032 177.876 47.439 177.37 47.736C176.875 48.022 176.292 48.165 175.621 48.165ZM180.978 48V40.1625H182.463V48H180.978ZM182.463 43.5285L181.902 43.281C181.902 42.28 182.133 41.4825 182.595 40.8885C183.057 40.2945 183.722 39.9975 184.591 39.9975C184.987 39.9975 185.345 40.069 185.664 40.212C185.983 40.344 186.28 40.5695 186.555 40.8885L185.581 41.895C185.416 41.719 185.235 41.5925 185.037 41.5155C184.839 41.4385 184.608 41.4 184.344 41.4C183.794 41.4 183.343 41.576 182.991 41.928C182.639 42.28 182.463 42.8135 182.463 43.5285ZM190.972 48.165C190.191 48.165 189.487 47.989 188.86 47.637C188.233 47.274 187.738 46.7845 187.375 46.1685C187.012 45.5525 186.831 44.854 186.831 44.073C186.831 43.303 187.007 42.61 187.359 41.994C187.722 41.378 188.206 40.894 188.811 40.542C189.427 40.179 190.114 39.9975 190.873 39.9975C191.599 39.9975 192.237 40.1625 192.787 40.4925C193.348 40.8225 193.783 41.279 194.091 41.862C194.41 42.445 194.569 43.105 194.569 43.842C194.569 43.952 194.564 44.073 194.553 44.205C194.542 44.326 194.52 44.469 194.487 44.634H187.87V43.3965H193.695L193.15 43.875C193.15 43.347 193.057 42.9015 192.87 42.5385C192.683 42.1645 192.419 41.8785 192.078 41.6805C191.737 41.4715 191.324 41.367 190.84 41.367C190.334 41.367 189.889 41.477 189.504 41.697C189.119 41.917 188.822 42.225 188.613 42.621C188.404 43.017 188.299 43.4845 188.299 44.0235C188.299 44.5735 188.409 45.0575 188.629 45.4755C188.849 45.8825 189.163 46.2015 189.57 46.4325C189.977 46.6525 190.444 46.7625 190.972 46.7625C191.412 46.7625 191.814 46.6855 192.177 46.5315C192.551 46.3775 192.87 46.1465 193.134 45.8385L194.091 46.812C193.717 47.252 193.255 47.5875 192.705 47.8185C192.166 48.0495 191.588 48.165 190.972 48.165ZM197.492 48.165C197.184 48.165 196.926 48.0605 196.717 47.8515C196.519 47.6315 196.42 47.373 196.42 47.076C196.42 46.768 196.519 46.515 196.717 46.317C196.926 46.108 197.184 46.0035 197.492 46.0035C197.8 46.0035 198.053 46.108 198.251 46.317C198.46 46.515 198.565 46.768 198.565 47.076C198.565 47.373 198.46 47.6315 198.251 47.8515C198.053 48.0605 197.8 48.165 197.492 48.165Z" fill="#F9F9F9"/>
</svg>
