<svg width="138" height="28" viewBox="0 0 138 28" fill="none" xmlns="http://www.w3.org/2000/svg">
<path d="M8.866 16.242C7.70733 16.242 6.62933 16.044 5.632 15.648C4.64933 15.2373 3.784 14.6653 3.036 13.932C2.30267 13.1987 1.73067 12.348 1.32 11.38C0.909333 10.3973 0.704 9.34133 0.704 8.212C0.704 7.08267 0.909333 6.034 1.32 5.066C1.73067 4.08333 2.30267 3.23267 3.036 2.514C3.76933 1.79533 4.62733 1.238 5.61 0.842C6.60733 0.431333 7.68533 0.226 8.844 0.226C10.076 0.226 11.1687 0.423999 12.122 0.819999C13.09 1.216 13.9333 1.75867 14.652 2.448L12.342 4.78C11.9313 4.34 11.4327 3.99533 10.846 3.746C10.274 3.49667 9.60667 3.372 8.844 3.372C8.16933 3.372 7.546 3.48933 6.974 3.724C6.41667 3.944 5.93267 4.26667 5.522 4.692C5.126 5.11733 4.81067 5.63067 4.576 6.232C4.356 6.83333 4.246 7.49333 4.246 8.212C4.246 8.94533 4.356 9.61267 4.576 10.214C4.81067 10.8153 5.126 11.3287 5.522 11.754C5.93267 12.1793 6.41667 12.5093 6.974 12.744C7.546 12.9787 8.16933 13.096 8.844 13.096C9.636 13.096 10.3253 12.9713 10.912 12.722C11.4987 12.4727 12.0047 12.128 12.43 11.688L14.762 14.02C14.014 14.7093 13.156 15.252 12.188 15.648C11.2347 16.044 10.1273 16.242 8.866 16.242ZM23.4549 16.264C22.2816 16.264 21.1963 16.0587 20.1989 15.648C19.2163 15.2373 18.3509 14.6653 17.6029 13.932C16.8549 13.1987 16.2756 12.348 15.8649 11.38C15.4543 10.3973 15.2489 9.34133 15.2489 8.212C15.2489 7.068 15.4543 6.012 15.8649 5.044C16.2756 4.076 16.8476 3.23267 17.5809 2.514C18.3143 1.78067 19.1723 1.216 20.1549 0.819999C21.1523 0.409332 22.2376 0.203999 23.4109 0.203999C24.5696 0.203999 25.6403 0.409332 26.6229 0.819999C27.6203 1.216 28.4856 1.78067 29.2189 2.514C29.9669 3.23267 30.5463 4.08333 30.9569 5.066C31.3676 6.034 31.5729 7.09 31.5729 8.234C31.5729 9.36333 31.3676 10.4193 30.9569 11.402C30.5463 12.37 29.9743 13.2207 29.2409 13.954C28.5076 14.6727 27.6423 15.2373 26.6449 15.648C25.6623 16.0587 24.5989 16.264 23.4549 16.264ZM23.4109 13.118C24.3349 13.118 25.1416 12.9127 25.8309 12.502C26.5349 12.0913 27.0776 11.5193 27.4589 10.786C27.8403 10.038 28.0309 9.18 28.0309 8.212C28.0309 7.47867 27.9209 6.81867 27.7009 6.232C27.4809 5.63067 27.1656 5.11733 26.7549 4.692C26.3443 4.252 25.8529 3.922 25.2809 3.702C24.7236 3.46733 24.1003 3.35 23.4109 3.35C22.4869 3.35 21.6729 3.55533 20.9689 3.966C20.2796 4.362 19.7443 4.92667 19.3629 5.66C18.9816 6.37867 18.7909 7.22933 18.7909 8.212C18.7909 8.94533 18.9009 9.61267 19.1209 10.214C19.3409 10.8153 19.6489 11.336 20.0449 11.776C20.4556 12.2013 20.9469 12.5313 21.5189 12.766C22.0909 13.0007 22.7216 13.118 23.4109 13.118ZM36.0975 16V12.964H39.9475C40.8862 12.964 41.7075 12.7807 42.4115 12.414C43.1155 12.0327 43.6582 11.4827 44.0395 10.764C44.4209 10.0453 44.6115 9.19467 44.6115 8.212C44.6115 7.22933 44.4135 6.386 44.0175 5.682C43.6362 4.978 43.0935 4.43533 42.3895 4.054C41.7002 3.67267 40.8862 3.482 39.9475 3.482H35.9875V0.467999H39.9915C41.1649 0.467999 42.2429 0.658666 43.2255 1.04C44.2229 1.40667 45.0882 1.942 45.8215 2.646C46.5695 3.33533 47.1415 4.15667 47.5375 5.11C47.9482 6.04867 48.1535 7.09 48.1535 8.234C48.1535 9.36333 47.9482 10.4047 47.5375 11.358C47.1415 12.3113 46.5769 13.1327 45.8435 13.822C45.1102 14.5113 44.2449 15.0467 43.2475 15.428C42.2649 15.8093 41.1942 16 40.0355 16H36.0975ZM33.7655 16V0.467999H37.2195V16H33.7655ZM50.3515 16V0.467999H53.8055V16H50.3515ZM52.9915 16V13.008H61.5055V16H52.9915ZM52.9915 9.51V6.628H60.7355V9.51H52.9915ZM52.9915 3.438V0.467999H61.3955V3.438H52.9915ZM73.5886 16L66.4606 8.168C65.9033 7.552 65.5 6.97267 65.2506 6.43C65.0013 5.87267 64.8766 5.264 64.8766 4.604C64.8766 3.812 65.0746 3.086 65.4706 2.426C65.8813 1.75133 66.4313 1.216 67.1206 0.819999C67.8246 0.409332 68.6386 0.203999 69.5626 0.203999C70.2813 0.203999 70.9193 0.313999 71.4766 0.534C72.034 0.739333 72.518 1.01067 72.9286 1.348C73.3393 1.67067 73.6546 2.01533 73.8746 2.382L71.6306 4.516C71.3373 4.12 71.0293 3.81933 70.7066 3.614C70.3986 3.40867 70.032 3.306 69.6066 3.306C69.1666 3.306 68.8 3.438 68.5066 3.702C68.228 3.95133 68.0886 4.26667 68.0886 4.648C68.0886 4.97067 68.1546 5.25667 68.2866 5.506C68.4333 5.75533 68.6386 6.034 68.9026 6.342L77.5266 16H73.5886ZM68.4846 16.242C67.4286 16.242 66.5046 16.0367 65.7126 15.626C64.9353 15.2007 64.3266 14.6287 63.8866 13.91C63.4613 13.1767 63.2486 12.3627 63.2486 11.468C63.2486 10.5 63.5053 9.642 64.0186 8.894C64.532 8.13133 65.302 7.51533 66.3286 7.046L67.7586 9.224C67.3186 9.42933 66.9886 9.70067 66.7686 10.038C66.5486 10.3753 66.4386 10.7787 66.4386 11.248C66.4386 11.6293 66.5193 11.9667 66.6806 12.26C66.8566 12.5387 67.106 12.7587 67.4286 12.92C67.7513 13.0813 68.1326 13.162 68.5726 13.162C69.0713 13.162 69.4966 13.0593 69.8486 12.854C70.2153 12.634 70.5233 12.3333 70.7726 11.952L73.0386 14.284C72.7893 14.6067 72.43 14.922 71.9606 15.23C71.506 15.5233 70.978 15.7653 70.3766 15.956C69.79 16.1467 69.1593 16.242 68.4846 16.242ZM84.7918 16.242C83.6331 16.242 82.5551 16.044 81.5578 15.648C80.5751 15.2373 79.7098 14.6653 78.9618 13.932C78.2284 13.1987 77.6564 12.348 77.2458 11.38C76.8351 10.3973 76.6298 9.34133 76.6298 8.212C76.6298 7.08267 76.8351 6.034 77.2458 5.066C77.6564 4.08333 78.2284 3.23267 78.9618 2.514C79.6951 1.79533 80.5531 1.238 81.5358 0.842C82.5331 0.431333 83.6111 0.226 84.7698 0.226C86.0018 0.226 87.0944 0.423999 88.0478 0.819999C89.0158 1.216 89.8591 1.75867 90.5778 2.448L88.2678 4.78C87.8571 4.34 87.3584 3.99533 86.7718 3.746C86.1998 3.49667 85.5324 3.372 84.7698 3.372C84.0951 3.372 83.4718 3.48933 82.8998 3.724C82.3424 3.944 81.8584 4.26667 81.4478 4.692C81.0518 5.11733 80.7364 5.63067 80.5018 6.232C80.2818 6.83333 80.1718 7.49333 80.1718 8.212C80.1718 8.94533 80.2818 9.61267 80.5018 10.214C80.7364 10.8153 81.0518 11.3287 81.4478 11.754C81.8584 12.1793 82.3424 12.5093 82.8998 12.744C83.4718 12.9787 84.0951 13.096 84.7698 13.096C85.5618 13.096 86.2511 12.9713 86.8378 12.722C87.4244 12.4727 87.9304 12.128 88.3558 11.688L90.6878 14.02C89.9398 14.7093 89.0818 15.252 88.1138 15.648C87.1604 16.044 86.0531 16.242 84.7918 16.242ZM92.5898 16V0.467999H96.0438V16H92.5898ZM102.204 16V0.467999H105.68V16H102.204ZM94.6578 9.51V6.518H103.348V9.51H94.6578ZM108.66 16V0.467999H112.114V16H108.66ZM115.105 16V0.467999H118.559V16H115.105ZM117.767 16V12.964H125.445V16H117.767ZM127.437 16V0.467999H130.891V16H127.437ZM130.099 16V12.964H137.777V16H130.099ZM1.504 23.944V22.968H2.72C2.87467 22.968 3.016 22.936 3.144 22.872C3.272 22.808 3.37333 22.7147 3.448 22.592C3.52267 22.4693 3.56 22.32 3.56 22.144C3.56 21.9733 3.52267 21.8267 3.448 21.704C3.37333 21.5813 3.272 21.488 3.144 21.424C3.016 21.36 2.87467 21.328 2.72 21.328H1.504V20.352H2.904C3.26133 20.352 3.584 20.424 3.872 20.568C4.16 20.712 4.38667 20.92 4.552 21.192C4.72267 21.4587 4.808 21.776 4.808 22.144C4.808 22.512 4.72267 22.832 4.552 23.104C4.38667 23.3707 4.16 23.5787 3.872 23.728C3.584 23.872 3.26133 23.944 2.904 23.944H1.504ZM0.544 26V20.352H1.8V26H0.544ZM5.45544 26V22.112H6.67944V26H5.45544ZM6.67944 23.864L6.16744 23.464C6.26877 23.0107 6.43944 22.6587 6.67944 22.408C6.91944 22.1573 7.25277 22.032 7.67944 22.032C7.8661 22.032 8.02877 22.0613 8.16744 22.12C8.31144 22.1733 8.43677 22.2587 8.54344 22.376L7.81544 23.296C7.7621 23.2373 7.69544 23.192 7.61544 23.16C7.53544 23.128 7.44477 23.112 7.34344 23.112C7.14077 23.112 6.9781 23.176 6.85544 23.304C6.7381 23.4267 6.67944 23.6133 6.67944 23.864ZM10.6801 26.088C10.2588 26.088 9.88279 26.0027 9.55213 25.832C9.22679 25.656 8.97079 25.4133 8.78413 25.104C8.59746 24.7947 8.50413 24.4453 8.50413 24.056C8.50413 23.6667 8.59479 23.32 8.77613 23.016C8.96279 22.7067 9.21346 22.464 9.52813 22.288C9.84279 22.112 10.1975 22.024 10.5921 22.024C10.9761 22.024 11.3148 22.1067 11.6081 22.272C11.9015 22.4373 12.1308 22.6667 12.2961 22.96C12.4668 23.2533 12.5521 23.5893 12.5521 23.968C12.5521 24.0373 12.5468 24.112 12.5361 24.192C12.5308 24.2667 12.5175 24.3547 12.4961 24.456L9.14413 24.464V23.624L11.9761 23.616L11.4481 23.968C11.4428 23.744 11.4081 23.56 11.3441 23.416C11.2801 23.2667 11.1841 23.1547 11.0561 23.08C10.9335 23 10.7815 22.96 10.6001 22.96C10.4081 22.96 10.2401 23.0053 10.0961 23.096C9.95746 23.1813 9.84813 23.304 9.76813 23.464C9.69346 23.624 9.65613 23.8187 9.65613 24.048C9.65613 24.2773 9.69613 24.4747 9.77613 24.64C9.86146 24.8 9.97879 24.9253 10.1281 25.016C10.2828 25.1013 10.4641 25.144 10.6721 25.144C10.8641 25.144 11.0375 25.112 11.1921 25.048C11.3468 24.9787 11.4828 24.8773 11.6001 24.744L12.2721 25.416C12.0801 25.64 11.8481 25.808 11.5761 25.92C11.3041 26.032 11.0055 26.088 10.6801 26.088ZM15.0229 26.088C14.6229 26.088 14.2603 26 13.9349 25.824C13.6096 25.648 13.3536 25.4053 13.1669 25.096C12.9803 24.7867 12.8869 24.44 12.8869 24.056C12.8869 23.6667 12.9803 23.32 13.1669 23.016C13.3589 22.7067 13.6176 22.464 13.9429 22.288C14.2683 22.112 14.6336 22.024 15.0389 22.024C15.3429 22.024 15.6203 22.0773 15.8709 22.184C16.1269 22.2853 16.3536 22.44 16.5509 22.648L15.7669 23.432C15.6763 23.3307 15.5696 23.256 15.4469 23.208C15.3296 23.16 15.1936 23.136 15.0389 23.136C14.8629 23.136 14.7056 23.176 14.5669 23.256C14.4336 23.3307 14.3269 23.4373 14.2469 23.576C14.1723 23.7093 14.1349 23.8667 14.1349 24.048C14.1349 24.2293 14.1723 24.3893 14.2469 24.528C14.3269 24.6667 14.4363 24.776 14.5749 24.856C14.7136 24.936 14.8683 24.976 15.0389 24.976C15.1989 24.976 15.3403 24.9493 15.4629 24.896C15.5909 24.8373 15.7003 24.7573 15.7909 24.656L16.5669 25.44C16.3643 25.6533 16.1349 25.816 15.8789 25.928C15.6229 26.0347 15.3376 26.088 15.0229 26.088ZM17.1117 26V22.112H18.3357V26H17.1117ZM17.7277 21.576C17.5357 21.576 17.3757 21.512 17.2477 21.384C17.125 21.2507 17.0637 21.0907 17.0637 20.904C17.0637 20.712 17.125 20.552 17.2477 20.424C17.3757 20.296 17.5357 20.232 17.7277 20.232C17.9197 20.232 18.077 20.296 18.1997 20.424C18.3224 20.552 18.3837 20.712 18.3837 20.904C18.3837 21.0907 18.3224 21.2507 18.1997 21.384C18.077 21.512 17.9197 21.576 17.7277 21.576ZM20.6136 26.096C20.3843 26.096 20.1576 26.0667 19.9336 26.008C19.715 25.9493 19.5096 25.8667 19.3176 25.76C19.131 25.648 18.971 25.52 18.8376 25.376L19.5336 24.672C19.6616 24.8107 19.8136 24.92 19.9896 25C20.1656 25.0747 20.3576 25.112 20.5656 25.112C20.7096 25.112 20.819 25.0907 20.8936 25.048C20.9736 25.0053 21.0136 24.9467 21.0136 24.872C21.0136 24.776 20.9656 24.704 20.8696 24.656C20.779 24.6027 20.6616 24.5573 20.5176 24.52C20.3736 24.4773 20.2216 24.432 20.0616 24.384C19.9016 24.336 19.7496 24.2693 19.6056 24.184C19.4616 24.0987 19.3443 23.9813 19.2536 23.832C19.163 23.6773 19.1176 23.4827 19.1176 23.248C19.1176 22.9973 19.1816 22.7813 19.3096 22.6C19.4376 22.4133 19.619 22.2667 19.8536 22.16C20.0883 22.0533 20.363 22 20.6776 22C21.0083 22 21.3123 22.0587 21.5896 22.176C21.8723 22.288 22.1016 22.456 22.2776 22.68L21.5816 23.384C21.459 23.24 21.3203 23.1387 21.1656 23.08C21.0163 23.0213 20.8696 22.992 20.7256 22.992C20.587 22.992 20.483 23.0133 20.4136 23.056C20.3443 23.0933 20.3096 23.1493 20.3096 23.224C20.3096 23.304 20.355 23.368 20.4456 23.416C20.5363 23.464 20.6536 23.5067 20.7976 23.544C20.9416 23.5813 21.0936 23.6267 21.2536 23.68C21.4136 23.7333 21.5656 23.8053 21.7096 23.896C21.8536 23.9867 21.971 24.1093 22.0616 24.264C22.1523 24.4133 22.1976 24.6107 22.1976 24.856C22.1976 25.2347 22.0536 25.536 21.7656 25.76C21.483 25.984 21.099 26.096 20.6136 26.096ZM22.8617 26V22.112H24.0857V26H22.8617ZM23.4777 21.576C23.2857 21.576 23.1257 21.512 22.9977 21.384C22.875 21.2507 22.8137 21.0907 22.8137 20.904C22.8137 20.712 22.875 20.552 22.9977 20.424C23.1257 20.296 23.2857 20.232 23.4777 20.232C23.6697 20.232 23.827 20.296 23.9497 20.424C24.0724 20.552 24.1337 20.712 24.1337 20.904C24.1337 21.0907 24.0724 21.2507 23.9497 21.384C23.827 21.512 23.6697 21.576 23.4777 21.576ZM26.8196 26.088C26.4196 26.088 26.057 26 25.7316 25.824C25.4116 25.6427 25.1583 25.3973 24.9716 25.088C24.785 24.7787 24.6916 24.432 24.6916 24.048C24.6916 23.664 24.785 23.32 24.9716 23.016C25.1583 22.712 25.4116 22.472 25.7316 22.296C26.0516 22.1147 26.4143 22.024 26.8196 22.024C27.225 22.024 27.5876 22.112 27.9076 22.288C28.2276 22.464 28.481 22.7067 28.6676 23.016C28.8543 23.32 28.9476 23.664 28.9476 24.048C28.9476 24.432 28.8543 24.7787 28.6676 25.088C28.481 25.3973 28.2276 25.6427 27.9076 25.824C27.5876 26 27.225 26.088 26.8196 26.088ZM26.8196 24.976C26.9956 24.976 27.1503 24.9387 27.2836 24.864C27.417 24.784 27.5183 24.6747 27.5876 24.536C27.6623 24.392 27.6996 24.2293 27.6996 24.048C27.6996 23.8667 27.6623 23.7093 27.5876 23.576C27.513 23.4373 27.409 23.3307 27.2756 23.256C27.1476 23.176 26.9956 23.136 26.8196 23.136C26.649 23.136 26.497 23.176 26.3636 23.256C26.2303 23.3307 26.1263 23.4373 26.0516 23.576C25.977 23.7147 25.9396 23.8747 25.9396 24.056C25.9396 24.232 25.977 24.392 26.0516 24.536C26.1263 24.6747 26.2303 24.784 26.3636 24.864C26.497 24.9387 26.649 24.976 26.8196 24.976ZM32.125 26V23.784C32.125 23.5813 32.061 23.4187 31.933 23.296C31.8103 23.168 31.653 23.104 31.461 23.104C31.3277 23.104 31.2103 23.1333 31.109 23.192C31.0077 23.2453 30.9277 23.3253 30.869 23.432C30.8103 23.5333 30.781 23.6507 30.781 23.784L30.309 23.552C30.309 23.248 30.3757 22.9813 30.509 22.752C30.6423 22.5227 30.8263 22.3467 31.061 22.224C31.301 22.096 31.5703 22.032 31.869 22.032C32.157 22.032 32.4103 22.1013 32.629 22.24C32.853 22.3733 33.029 22.552 33.157 22.776C33.285 23 33.349 23.2453 33.349 23.512V26H32.125ZM29.557 26V22.112H30.781V26H29.557ZM34.1351 26.96L34.7191 25.872L35.0791 25.768C35.0418 25.848 34.9965 25.9147 34.9431 25.968C34.8898 26.016 34.8285 26.04 34.7591 26.04C34.6045 26.04 34.4631 25.976 34.3351 25.848C34.2071 25.72 34.1431 25.56 34.1431 25.368C34.1431 25.16 34.2125 24.9813 34.3511 24.832C34.4951 24.6827 34.6711 24.608 34.8791 24.608C35.0765 24.608 35.2471 24.6827 35.3911 24.832C35.5405 24.976 35.6151 25.1547 35.6151 25.368C35.6151 25.4533 35.5991 25.552 35.5671 25.664C35.5351 25.776 35.4711 25.9227 35.3751 26.104L34.7271 27.288L34.1351 26.96ZM38.8762 26L37.5322 22.112H38.7322L39.5642 24.936L39.2122 24.944L40.1322 22.112H41.1242L42.0522 24.944L41.6922 24.936L42.5322 22.112H43.7322L42.3882 26H41.3882L40.4842 23.312H40.7882L39.8682 26H38.8762ZM44.1429 26V22.112H45.3669V26H44.1429ZM44.7589 21.576C44.5669 21.576 44.4069 21.512 44.2789 21.384C44.1563 21.2507 44.0949 21.0907 44.0949 20.904C44.0949 20.712 44.1563 20.552 44.2789 20.424C44.4069 20.296 44.5669 20.232 44.7589 20.232C44.9509 20.232 45.1083 20.296 45.2309 20.424C45.3536 20.552 45.4149 20.712 45.4149 20.904C45.4149 21.0907 45.3536 21.2507 45.2309 21.384C45.1083 21.512 44.9509 21.576 44.7589 21.576ZM46.7809 26V20.504H48.0049V26H46.7809ZM45.9009 23.152V22.112H48.8849V23.152H45.9009ZM51.9922 26V23.784C51.9922 23.5813 51.9282 23.4187 51.8002 23.296C51.6775 23.168 51.5202 23.104 51.3282 23.104C51.1949 23.104 51.0775 23.1333 50.9762 23.192C50.8749 23.2453 50.7949 23.3253 50.7362 23.432C50.6775 23.5333 50.6482 23.6507 50.6482 23.784L50.1762 23.552C50.1762 23.248 50.2402 22.9813 50.3682 22.752C50.4962 22.5227 50.6749 22.3467 50.9042 22.224C51.1335 22.096 51.3975 22.032 51.6962 22.032C52.0002 22.032 52.2669 22.096 52.4962 22.224C52.7255 22.3467 52.9015 22.52 53.0242 22.744C53.1522 22.9627 53.2162 23.2187 53.2162 23.512V26H51.9922ZM49.4242 26V20.192H50.6482V26H49.4242ZM55.8743 26.088C55.4743 26.088 55.1116 26 54.7863 25.824C54.4663 25.6427 54.213 25.3973 54.0263 25.088C53.8396 24.7787 53.7463 24.432 53.7463 24.048C53.7463 23.664 53.8396 23.32 54.0263 23.016C54.213 22.712 54.4663 22.472 54.7863 22.296C55.1063 22.1147 55.469 22.024 55.8743 22.024C56.2796 22.024 56.6423 22.112 56.9623 22.288C57.2823 22.464 57.5356 22.7067 57.7223 23.016C57.909 23.32 58.0023 23.664 58.0023 24.048C58.0023 24.432 57.909 24.7787 57.7223 25.088C57.5356 25.3973 57.2823 25.6427 56.9623 25.824C56.6423 26 56.2796 26.088 55.8743 26.088ZM55.8743 24.976C56.0503 24.976 56.205 24.9387 56.3383 24.864C56.4716 24.784 56.573 24.6747 56.6423 24.536C56.717 24.392 56.7543 24.2293 56.7543 24.048C56.7543 23.8667 56.717 23.7093 56.6423 23.576C56.5676 23.4373 56.4636 23.3307 56.3303 23.256C56.2023 23.176 56.0503 23.136 55.8743 23.136C55.7036 23.136 55.5516 23.176 55.4183 23.256C55.285 23.3307 55.181 23.4373 55.1063 23.576C55.0316 23.7147 54.9943 23.8747 54.9943 24.056C54.9943 24.232 55.0316 24.392 55.1063 24.536C55.181 24.6747 55.285 24.784 55.4183 24.864C55.5516 24.9387 55.7036 24.976 55.8743 24.976ZM60.3397 26.088C59.9824 26.088 59.665 26.016 59.3877 25.872C59.1157 25.7227 58.9024 25.52 58.7477 25.264C58.593 25.0027 58.5157 24.704 58.5157 24.368V22.112H59.7397V24.352C59.7397 24.4853 59.761 24.6 59.8037 24.696C59.8517 24.792 59.921 24.8667 60.0117 24.92C60.1024 24.9733 60.2117 25 60.3397 25C60.521 25 60.665 24.944 60.7717 24.832C60.8784 24.7147 60.9317 24.5547 60.9317 24.352V22.112H62.1557V24.36C62.1557 24.7013 62.0784 25.0027 61.9237 25.264C61.769 25.52 61.5557 25.7227 61.2837 25.872C61.0117 26.016 60.697 26.088 60.3397 26.088ZM63.4762 26V20.504H64.7002V26H63.4762ZM62.5962 23.152V22.112H65.5802V23.152H62.5962ZM69.8829 26.08C69.6216 26.08 69.3816 26.0293 69.1629 25.928C68.9443 25.8267 68.7656 25.688 68.6269 25.512C68.4883 25.3307 68.4083 25.1253 68.3869 24.896V23.256C68.4083 23.0267 68.4883 22.8187 68.6269 22.632C68.7656 22.4453 68.9443 22.2987 69.1629 22.192C69.3816 22.0853 69.6216 22.032 69.8829 22.032C70.2509 22.032 70.5763 22.12 70.8589 22.296C71.1469 22.472 71.3709 22.712 71.5309 23.016C71.6963 23.32 71.7789 23.6667 71.7789 24.056C71.7789 24.4453 71.6963 24.792 71.5309 25.096C71.3709 25.4 71.1469 25.64 70.8589 25.816C70.5763 25.992 70.2509 26.08 69.8829 26.08ZM67.6429 27.64V22.112H68.8669V23.112L68.6669 24.056L68.8509 25V27.64H67.6429ZM69.6589 24.976C69.8349 24.976 69.9869 24.936 70.1149 24.856C70.2483 24.776 70.3523 24.6667 70.4269 24.528C70.5016 24.3893 70.5389 24.232 70.5389 24.056C70.5389 23.8747 70.5016 23.7147 70.4269 23.576C70.3523 23.4373 70.2483 23.3307 70.1149 23.256C69.9869 23.176 69.8376 23.136 69.6669 23.136C69.4963 23.136 69.3443 23.176 69.2109 23.256C69.0829 23.3307 68.9816 23.4373 68.9069 23.576C68.8323 23.7147 68.7949 23.8747 68.7949 24.056C68.7949 24.232 68.8296 24.3893 68.8989 24.528C68.9736 24.6667 69.0776 24.776 69.2109 24.856C69.3443 24.936 69.4936 24.976 69.6589 24.976ZM72.4008 26V22.112H73.6248V26H72.4008ZM73.6248 23.864L73.1128 23.464C73.2141 23.0107 73.3848 22.6587 73.6248 22.408C73.8648 22.1573 74.1981 22.032 74.6248 22.032C74.8114 22.032 74.9741 22.0613 75.1128 22.12C75.2568 22.1733 75.3821 22.2587 75.4888 22.376L74.7608 23.296C74.7074 23.2373 74.6408 23.192 74.5608 23.16C74.4808 23.128 74.3901 23.112 74.2888 23.112C74.0861 23.112 73.9234 23.176 73.8008 23.304C73.6834 23.4267 73.6248 23.6133 73.6248 23.864ZM77.6254 26.088C77.2041 26.088 76.8281 26.0027 76.4974 25.832C76.1721 25.656 75.9161 25.4133 75.7294 25.104C75.5428 24.7947 75.4494 24.4453 75.4494 24.056C75.4494 23.6667 75.5401 23.32 75.7214 23.016C75.9081 22.7067 76.1588 22.464 76.4734 22.288C76.7881 22.112 77.1428 22.024 77.5374 22.024C77.9214 22.024 78.2601 22.1067 78.5534 22.272C78.8468 22.4373 79.0761 22.6667 79.2414 22.96C79.4121 23.2533 79.4974 23.5893 79.4974 23.968C79.4974 24.0373 79.4921 24.112 79.4814 24.192C79.4761 24.2667 79.4628 24.3547 79.4414 24.456L76.0894 24.464V23.624L78.9214 23.616L78.3934 23.968C78.3881 23.744 78.3534 23.56 78.2894 23.416C78.2254 23.2667 78.1294 23.1547 78.0014 23.08C77.8788 23 77.7268 22.96 77.5454 22.96C77.3534 22.96 77.1854 23.0053 77.0414 23.096C76.9028 23.1813 76.7934 23.304 76.7134 23.464C76.6388 23.624 76.6014 23.8187 76.6014 24.048C76.6014 24.2773 76.6414 24.4747 76.7214 24.64C76.8068 24.8 76.9241 24.9253 77.0734 25.016C77.2281 25.1013 77.4094 25.144 77.6174 25.144C77.8094 25.144 77.9828 25.112 78.1374 25.048C78.2921 24.9787 78.4281 24.8773 78.5454 24.744L79.2174 25.416C79.0254 25.64 78.7934 25.808 78.5214 25.92C78.2494 26.032 77.9508 26.088 77.6254 26.088ZM81.5043 26.096C81.2749 26.096 81.0483 26.0667 80.8243 26.008C80.6056 25.9493 80.4003 25.8667 80.2083 25.76C80.0216 25.648 79.8616 25.52 79.7283 25.376L80.4243 24.672C80.5523 24.8107 80.7043 24.92 80.8803 25C81.0563 25.0747 81.2483 25.112 81.4563 25.112C81.6003 25.112 81.7096 25.0907 81.7843 25.048C81.8643 25.0053 81.9043 24.9467 81.9043 24.872C81.9043 24.776 81.8563 24.704 81.7603 24.656C81.6696 24.6027 81.5523 24.5573 81.4083 24.52C81.2643 24.4773 81.1123 24.432 80.9523 24.384C80.7922 24.336 80.6403 24.2693 80.4963 24.184C80.3523 24.0987 80.2349 23.9813 80.1443 23.832C80.0536 23.6773 80.0083 23.4827 80.0083 23.248C80.0083 22.9973 80.0723 22.7813 80.2003 22.6C80.3283 22.4133 80.5096 22.2667 80.7443 22.16C80.9789 22.0533 81.2536 22 81.5683 22C81.8989 22 82.2029 22.0587 82.4803 22.176C82.7629 22.288 82.9923 22.456 83.1683 22.68L82.4723 23.384C82.3496 23.24 82.2109 23.1387 82.0563 23.08C81.9069 23.0213 81.7603 22.992 81.6163 22.992C81.4776 22.992 81.3736 23.0133 81.3043 23.056C81.2349 23.0933 81.2003 23.1493 81.2003 23.224C81.2003 23.304 81.2456 23.368 81.3363 23.416C81.4269 23.464 81.5443 23.5067 81.6883 23.544C81.8323 23.5813 81.9843 23.6267 82.1443 23.68C82.3043 23.7333 82.4563 23.8053 82.6003 23.896C82.7443 23.9867 82.8616 24.1093 82.9523 24.264C83.0429 24.4133 83.0883 24.6107 83.0883 24.856C83.0883 25.2347 82.9443 25.536 82.6563 25.76C82.3736 25.984 81.9896 26.096 81.5043 26.096ZM85.1683 26.096C84.939 26.096 84.7123 26.0667 84.4883 26.008C84.2696 25.9493 84.0643 25.8667 83.8723 25.76C83.6856 25.648 83.5256 25.52 83.3923 25.376L84.0883 24.672C84.2163 24.8107 84.3683 24.92 84.5443 25C84.7203 25.0747 84.9123 25.112 85.1203 25.112C85.2643 25.112 85.3736 25.0907 85.4483 25.048C85.5283 25.0053 85.5683 24.9467 85.5683 24.872C85.5683 24.776 85.5203 24.704 85.4243 24.656C85.3336 24.6027 85.2163 24.5573 85.0723 24.52C84.9283 24.4773 84.7763 24.432 84.6163 24.384C84.4563 24.336 84.3043 24.2693 84.1603 24.184C84.0163 24.0987 83.899 23.9813 83.8083 23.832C83.7176 23.6773 83.6723 23.4827 83.6723 23.248C83.6723 22.9973 83.7363 22.7813 83.8643 22.6C83.9923 22.4133 84.1736 22.2667 84.4083 22.16C84.643 22.0533 84.9176 22 85.2323 22C85.563 22 85.867 22.0587 86.1443 22.176C86.427 22.288 86.6563 22.456 86.8323 22.68L86.1363 23.384C86.0136 23.24 85.875 23.1387 85.7203 23.08C85.571 23.0213 85.4243 22.992 85.2803 22.992C85.1416 22.992 85.0376 23.0133 84.9683 23.056C84.899 23.0933 84.8643 23.1493 84.8643 23.224C84.8643 23.304 84.9096 23.368 85.0003 23.416C85.091 23.464 85.2083 23.5067 85.3523 23.544C85.4963 23.5813 85.6483 23.6267 85.8083 23.68C85.9683 23.7333 86.1203 23.8053 86.2643 23.896C86.4083 23.9867 86.5256 24.1093 86.6163 24.264C86.707 24.4133 86.7523 24.6107 86.7523 24.856C86.7523 25.2347 86.6083 25.536 86.3203 25.76C86.0376 25.984 85.6536 26.096 85.1683 26.096ZM89.1444 26.088C88.787 26.088 88.4697 26.016 88.1924 25.872C87.9204 25.7227 87.707 25.52 87.5524 25.264C87.3977 25.0027 87.3204 24.704 87.3204 24.368V22.112H88.5444V24.352C88.5444 24.4853 88.5657 24.6 88.6084 24.696C88.6564 24.792 88.7257 24.8667 88.8164 24.92C88.907 24.9733 89.0164 25 89.1444 25C89.3257 25 89.4697 24.944 89.5764 24.832C89.683 24.7147 89.7364 24.5547 89.7364 24.352V22.112H90.9604V24.36C90.9604 24.7013 90.883 25.0027 90.7284 25.264C90.5737 25.52 90.3604 25.7227 90.0884 25.872C89.8164 26.016 89.5017 26.088 89.1444 26.088ZM91.7289 26V22.112H92.9529V26H91.7289ZM92.9529 23.864L92.4409 23.464C92.5422 23.0107 92.7129 22.6587 92.9529 22.408C93.1929 22.1573 93.5262 22.032 93.9529 22.032C94.1395 22.032 94.3022 22.0613 94.4409 22.12C94.5849 22.1733 94.7102 22.2587 94.8169 22.376L94.0889 23.296C94.0355 23.2373 93.9689 23.192 93.8889 23.16C93.8089 23.128 93.7182 23.112 93.6169 23.112C93.4142 23.112 93.2515 23.176 93.1289 23.304C93.0115 23.4267 92.9529 23.6133 92.9529 23.864ZM96.9536 26.088C96.5322 26.088 96.1562 26.0027 95.8256 25.832C95.5002 25.656 95.2442 25.4133 95.0576 25.104C94.8709 24.7947 94.7776 24.4453 94.7776 24.056C94.7776 23.6667 94.8682 23.32 95.0496 23.016C95.2362 22.7067 95.4869 22.464 95.8016 22.288C96.1162 22.112 96.4709 22.024 96.8656 22.024C97.2496 22.024 97.5882 22.1067 97.8816 22.272C98.1749 22.4373 98.4042 22.6667 98.5696 22.96C98.7402 23.2533 98.8256 23.5893 98.8256 23.968C98.8256 24.0373 98.8202 24.112 98.8096 24.192C98.8042 24.2667 98.7909 24.3547 98.7696 24.456L95.4176 24.464V23.624L98.2496 23.616L97.7216 23.968C97.7162 23.744 97.6816 23.56 97.6176 23.416C97.5536 23.2667 97.4576 23.1547 97.3296 23.08C97.2069 23 97.0549 22.96 96.8736 22.96C96.6816 22.96 96.5136 23.0053 96.3696 23.096C96.2309 23.1813 96.1216 23.304 96.0416 23.464C95.9669 23.624 95.9296 23.8187 95.9296 24.048C95.9296 24.2773 95.9696 24.4747 96.0496 24.64C96.1349 24.8 96.2522 24.9253 96.4016 25.016C96.5562 25.1013 96.7376 25.144 96.9456 25.144C97.1376 25.144 97.3109 25.112 97.4656 25.048C97.6202 24.9787 97.7562 24.8773 97.8736 24.744L98.5456 25.416C98.3536 25.64 98.1216 25.808 97.8496 25.92C97.5776 26.032 97.2789 26.088 96.9536 26.088ZM100.184 26.088C99.9764 26.088 99.803 26.016 99.6644 25.872C99.5257 25.728 99.4564 25.5547 99.4564 25.352C99.4564 25.1387 99.5257 24.9627 99.6644 24.824C99.803 24.68 99.9764 24.608 100.184 24.608C100.398 24.608 100.571 24.68 100.704 24.824C100.843 24.9627 100.912 25.1387 100.912 25.352C100.912 25.5547 100.843 25.728 100.704 25.872C100.571 26.016 100.398 26.088 100.184 26.088Z" fill="white"/>
</svg>
