<svg width="102" height="27" viewBox="0 0 102 27" fill="none" xmlns="http://www.w3.org/2000/svg">
<g clip-path="url(#clip0_99_20)">
<rect width="102" height="27" fill="black"/>
<path d="M6.512 16.176C5.648 16.176 4.848 16.032 4.112 15.744C3.376 15.4453 2.73067 15.0347 2.176 14.512C1.632 13.9787 1.20533 13.3547 0.896 12.64C0.597333 11.9253 0.448 11.152 0.448 10.32C0.448 9.47733 0.597333 8.704 0.896 8C1.20533 7.28533 1.632 6.66667 2.176 6.144C2.73067 5.62133 3.37067 5.21067 4.096 4.912C4.832 4.61333 5.62667 4.464 6.48 4.464C7.376 4.464 8.18133 4.608 8.896 4.896C9.61067 5.17333 10.24 5.56267 10.784 6.064L8.864 7.984C8.59733 7.68533 8.26667 7.45067 7.872 7.28C7.47733 7.10933 7.01333 7.024 6.48 7.024C6.02133 7.024 5.6 7.09867 5.216 7.248C4.84267 7.39733 4.51733 7.62133 4.24 7.92C3.96267 8.208 3.744 8.55467 3.584 8.96C3.43467 9.36533 3.36 9.81867 3.36 10.32C3.36 10.8213 3.43467 11.2747 3.584 11.68C3.744 12.0853 3.96267 12.4373 4.24 12.736C4.51733 13.024 4.84267 13.248 5.216 13.408C5.6 13.5573 6.02133 13.632 6.48 13.632C7.01333 13.632 7.48267 13.552 7.888 13.392C8.29333 13.2213 8.64 12.9813 8.928 12.672L10.848 14.592C10.2933 15.0933 9.664 15.4827 8.96 15.76C8.26667 16.0373 7.45067 16.176 6.512 16.176ZM17.153 16.208C16.2783 16.208 15.473 16.0587 14.737 15.76C14.001 15.4613 13.3557 15.0453 12.801 14.512C12.257 13.9787 11.8303 13.3547 11.521 12.64C11.2117 11.9147 11.057 11.136 11.057 10.304C11.057 9.472 11.2063 8.704 11.505 8C11.8143 7.28533 12.241 6.66133 12.785 6.128C13.329 5.59467 13.969 5.184 14.705 4.896C15.441 4.59733 16.2463 4.448 17.121 4.448C17.9957 4.448 18.801 4.59733 19.537 4.896C20.273 5.184 20.913 5.59467 21.457 6.128C22.001 6.66133 22.4223 7.28533 22.721 8C23.0303 8.71467 23.185 9.488 23.185 10.32C23.185 11.152 23.0303 11.9253 22.721 12.64C22.4223 13.3547 22.001 13.984 21.457 14.528C20.913 15.0613 20.273 15.4773 19.537 15.776C18.8117 16.064 18.017 16.208 17.153 16.208ZM17.121 13.648C17.761 13.648 18.3157 13.5093 18.785 13.232C19.2543 12.9547 19.617 12.5653 19.873 12.064C20.129 11.5627 20.257 10.976 20.257 10.304C20.257 9.81333 20.1823 9.36533 20.033 8.96C19.8943 8.55467 19.6863 8.208 19.409 7.92C19.1317 7.62133 18.801 7.392 18.417 7.232C18.033 7.072 17.601 6.992 17.121 6.992C16.481 6.992 15.9263 7.13067 15.457 7.408C14.9877 7.67467 14.625 8.05867 14.369 8.56C14.113 9.06133 13.985 9.64267 13.985 10.304C13.985 10.816 14.0543 11.28 14.193 11.696C14.3423 12.1013 14.5557 12.4533 14.833 12.752C15.1103 13.04 15.441 13.264 15.825 13.424C16.209 13.5733 16.641 13.648 17.121 13.648ZM26.5534 16V13.536H29.2734C29.9134 13.536 30.468 13.4133 30.9374 13.168C31.4174 12.9227 31.7854 12.56 32.0414 12.08C32.2974 11.5893 32.4254 10.9973 32.4254 10.304C32.4254 9.62133 32.292 9.04533 32.0254 8.576C31.7694 8.096 31.4067 7.73333 30.9374 7.488C30.468 7.24267 29.9134 7.12 29.2734 7.12H26.4254V4.656H29.2894C30.164 4.656 30.9694 4.79467 31.7054 5.072C32.4414 5.33867 33.0814 5.72267 33.6254 6.224C34.1694 6.72533 34.5907 7.32267 34.8894 8.016C35.1987 8.70933 35.3534 9.47733 35.3534 10.32C35.3534 11.1733 35.1987 11.9467 34.8894 12.64C34.5907 13.3333 34.1694 13.9307 33.6254 14.432C33.0814 14.9333 32.4414 15.3227 31.7054 15.6C30.98 15.8667 30.1854 16 29.3214 16H26.5534ZM24.6174 16V4.656H27.4814V16H24.6174ZM36.7893 16V4.656H39.6533V16H36.7893ZM39.0613 16V13.584H45.2053V16H39.0613ZM39.0613 11.392V9.04H44.6293V11.392H39.0613ZM39.0613 7.072V4.656H45.1093V7.072H39.0613ZM53.7965 16L48.6765 10.352C48.2818 9.904 47.9938 9.47733 47.8125 9.072C47.6418 8.66667 47.5565 8.224 47.5565 7.744C47.5565 7.168 47.7058 6.63467 48.0045 6.144C48.3032 5.64267 48.7138 5.23733 49.2365 4.928C49.7592 4.61867 50.3672 4.464 51.0605 4.464C51.6045 4.464 52.0845 4.544 52.5005 4.704C52.9272 4.85333 53.2898 5.04533 53.5885 5.28C53.8872 5.51467 54.1112 5.75467 54.2605 6L52.4525 7.776C52.2498 7.49867 52.0418 7.30133 51.8285 7.184C51.6152 7.06667 51.3805 7.008 51.1245 7.008C50.8472 7.008 50.6178 7.088 50.4365 7.248C50.2552 7.408 50.1645 7.6 50.1645 7.824C50.1645 8.00533 50.2072 8.176 50.2925 8.336C50.3778 8.48533 50.4952 8.65067 50.6445 8.832L57.0445 16H53.7965ZM50.1645 16.176C49.3965 16.176 48.7245 16.0213 48.1485 15.712C47.5832 15.4027 47.1405 14.9867 46.8205 14.464C46.5112 13.9307 46.3565 13.3387 46.3565 12.688C46.3565 11.9733 46.5378 11.3387 46.9005 10.784C47.2738 10.2187 47.8445 9.76 48.6125 9.408L49.7805 11.264C49.4925 11.3707 49.2792 11.536 49.1405 11.76C49.0018 11.9733 48.9325 12.2133 48.9325 12.48C48.9325 12.6933 48.9805 12.8907 49.0765 13.072C49.1832 13.2533 49.3325 13.3973 49.5245 13.504C49.7165 13.6107 49.9458 13.664 50.2125 13.664C50.4792 13.664 50.7192 13.6053 50.9325 13.488C51.1565 13.36 51.3538 13.1627 51.5245 12.896L53.4445 14.784C53.2738 14.9973 53.0232 15.2107 52.6925 15.424C52.3725 15.6373 51.9938 15.8187 51.5565 15.968C51.1298 16.1067 50.6658 16.176 50.1645 16.176ZM62.2933 16.176C61.4293 16.176 60.6293 16.032 59.8932 15.744C59.1573 15.4453 58.5119 15.0347 57.9573 14.512C57.4133 13.9787 56.9866 13.3547 56.6773 12.64C56.3786 11.9253 56.2293 11.152 56.2293 10.32C56.2293 9.47733 56.3786 8.704 56.6773 8C56.9866 7.28533 57.4133 6.66667 57.9573 6.144C58.5119 5.62133 59.1519 5.21067 59.8773 4.912C60.6133 4.61333 61.4079 4.464 62.2613 4.464C63.1573 4.464 63.9626 4.608 64.6773 4.896C65.3919 5.17333 66.0213 5.56267 66.5653 6.064L64.6453 7.984C64.3786 7.68533 64.0479 7.45067 63.6533 7.28C63.2586 7.10933 62.7946 7.024 62.2613 7.024C61.8026 7.024 61.3813 7.09867 60.9973 7.248C60.6239 7.39733 60.2986 7.62133 60.0213 7.92C59.7439 8.208 59.5253 8.55467 59.3653 8.96C59.2159 9.36533 59.1413 9.81867 59.1413 10.32C59.1413 10.8213 59.2159 11.2747 59.3653 11.68C59.5253 12.0853 59.7439 12.4373 60.0213 12.736C60.2986 13.024 60.6239 13.248 60.9973 13.408C61.3813 13.5573 61.8026 13.632 62.2613 13.632C62.7946 13.632 63.2639 13.552 63.6693 13.392C64.0746 13.2213 64.4213 12.9813 64.7093 12.672L66.6293 14.592C66.0746 15.0933 65.4453 15.4827 64.7413 15.76C64.0479 16.0373 63.2319 16.176 62.2933 16.176ZM67.8674 16V4.656H70.7314V16H67.8674ZM74.8114 16V4.656H77.6754V16H74.8114ZM69.4994 11.392V8.992H75.8514V11.392H69.4994ZM79.6955 16V4.656H82.5595V16H79.6955ZM84.5705 16V4.656H87.4345V16H84.5705ZM86.8425 16V13.536H92.3145V16H86.8425ZM93.6486 16V4.656H96.5126V16H93.6486ZM95.9206 16V13.536H101.393V16H95.9206ZM2.43359 23.026V22.697H3.94559C4.16493 22.697 4.35859 22.655 4.52659 22.571C4.69459 22.4823 4.82759 22.3587 4.92559 22.2C5.02359 22.0367 5.07259 21.8453 5.07259 21.626C5.07259 21.4067 5.02359 21.2177 4.92559 21.059C4.82759 20.8957 4.69459 20.772 4.52659 20.688C4.35859 20.5993 4.16493 20.555 3.94559 20.555H2.43359V20.226H3.98759C4.26759 20.226 4.51493 20.2843 4.72959 20.401C4.94893 20.513 5.12159 20.674 5.24759 20.884C5.37826 21.094 5.44359 21.3413 5.44359 21.626C5.44359 21.9107 5.37826 22.158 5.24759 22.368C5.12159 22.5733 4.94893 22.7343 4.72959 22.851C4.51493 22.9677 4.26759 23.026 3.98759 23.026H2.43359ZM2.20959 25V20.226H2.58059V25H2.20959ZM6.34922 25V21.745H6.70622V25H6.34922ZM6.70622 23.054L6.53122 22.991C6.53122 22.5757 6.63622 22.2537 6.84622 22.025C7.05622 21.7917 7.33155 21.675 7.67222 21.675C7.83089 21.675 7.97789 21.703 8.11322 21.759C8.25322 21.815 8.38155 21.906 8.49822 22.032L8.26022 22.284C8.17155 22.186 8.07589 22.116 7.97322 22.074C7.87055 22.032 7.74922 22.011 7.60922 22.011C7.34322 22.011 7.12622 22.102 6.95822 22.284C6.79022 22.4613 6.70622 22.718 6.70622 23.054ZM10.4585 25.07C10.1365 25.07 9.84488 24.9953 9.58355 24.846C9.32688 24.6967 9.12388 24.4937 8.97455 24.237C8.82521 23.9803 8.75055 23.691 8.75055 23.369C8.75055 23.047 8.82288 22.76 8.96755 22.508C9.11221 22.2513 9.31055 22.0483 9.56255 21.899C9.81921 21.7497 10.1039 21.675 10.4165 21.675C10.7152 21.675 10.9765 21.7427 11.2005 21.878C11.4292 22.0087 11.6065 22.1907 11.7325 22.424C11.8632 22.6573 11.9285 22.9257 11.9285 23.229C11.9285 23.257 11.9262 23.2943 11.9215 23.341C11.9169 23.383 11.9099 23.4367 11.9005 23.502H9.00255V23.194H11.6975L11.5785 23.292C11.5879 23.0353 11.5459 22.8113 11.4525 22.62C11.3592 22.424 11.2239 22.2723 11.0465 22.165C10.8692 22.0577 10.6569 22.004 10.4095 22.004C10.1529 22.004 9.92655 22.0623 9.73055 22.179C9.53455 22.291 9.38055 22.4473 9.26855 22.648C9.16121 22.8487 9.10755 23.082 9.10755 23.348C9.10755 23.628 9.16355 23.873 9.27555 24.083C9.39221 24.2883 9.55321 24.4493 9.75855 24.566C9.96388 24.678 10.2042 24.734 10.4795 24.734C10.6895 24.734 10.8832 24.6967 11.0605 24.622C11.2425 24.5427 11.3942 24.426 11.5155 24.272L11.7535 24.503C11.6042 24.6803 11.4152 24.8203 11.1865 24.923C10.9625 25.021 10.7199 25.07 10.4585 25.07ZM14.2178 25.07C13.9005 25.07 13.6135 24.9953 13.3568 24.846C13.1048 24.692 12.9042 24.4867 12.7548 24.23C12.6055 23.9687 12.5308 23.6793 12.5308 23.362C12.5308 23.0447 12.6055 22.76 12.7548 22.508C12.9042 22.2513 13.1048 22.0483 13.3568 21.899C13.6135 21.7497 13.9005 21.675 14.2178 21.675C14.4558 21.675 14.6798 21.7193 14.8898 21.808C15.0998 21.8967 15.2795 22.0227 15.4288 22.186L15.1908 22.424C15.0695 22.2933 14.9248 22.193 14.7568 22.123C14.5935 22.0483 14.4138 22.011 14.2178 22.011C13.9658 22.011 13.7395 22.0717 13.5388 22.193C13.3428 22.3097 13.1865 22.4683 13.0698 22.669C12.9532 22.8697 12.8948 23.1007 12.8948 23.362C12.8948 23.6233 12.9532 23.8567 13.0698 24.062C13.1865 24.2673 13.3428 24.4307 13.5388 24.552C13.7395 24.6733 13.9658 24.734 14.2178 24.734C14.4138 24.734 14.5958 24.699 14.7638 24.629C14.9365 24.5543 15.0835 24.4493 15.2048 24.314L15.4428 24.552C15.2888 24.7153 15.1045 24.8437 14.8898 24.937C14.6798 25.0257 14.4558 25.07 14.2178 25.07ZM16.2 25V21.745H16.55V25H16.2ZM16.375 20.989C16.2956 20.989 16.228 20.961 16.172 20.905C16.1206 20.8443 16.095 20.7743 16.095 20.695C16.095 20.6157 16.1206 20.5503 16.172 20.499C16.228 20.443 16.2956 20.415 16.375 20.415C16.4543 20.415 16.522 20.443 16.578 20.499C16.634 20.5503 16.662 20.6157 16.662 20.695C16.662 20.7743 16.634 20.8443 16.578 20.905C16.522 20.961 16.4543 20.989 16.375 20.989ZM18.5878 25.07C18.4105 25.07 18.2425 25.0467 18.0838 25C17.9298 24.9487 17.7875 24.8787 17.6568 24.79C17.5308 24.7013 17.4188 24.5987 17.3208 24.482L17.5588 24.244C17.6895 24.4167 17.8412 24.545 18.0138 24.629C18.1912 24.7083 18.3848 24.748 18.5948 24.748C18.8375 24.748 19.0288 24.699 19.1688 24.601C19.3088 24.503 19.3788 24.3653 19.3788 24.188C19.3788 24.0293 19.3345 23.9057 19.2458 23.817C19.1572 23.7237 19.0405 23.6513 18.8958 23.6C18.7558 23.5487 18.6065 23.4997 18.4478 23.453C18.2938 23.4063 18.1445 23.3503 17.9998 23.285C17.8598 23.2197 17.7455 23.1287 17.6568 23.012C17.5682 22.8953 17.5238 22.739 17.5238 22.543C17.5238 22.3703 17.5682 22.2187 17.6568 22.088C17.7455 21.9573 17.8692 21.857 18.0278 21.787C18.1912 21.7123 18.3825 21.675 18.6018 21.675C18.8445 21.675 19.0615 21.717 19.2528 21.801C19.4488 21.885 19.6052 22.0087 19.7218 22.172L19.4908 22.41C19.3975 22.2793 19.2715 22.179 19.1128 22.109C18.9542 22.0343 18.7768 21.997 18.5808 21.997C18.3475 21.997 18.1702 22.046 18.0488 22.144C17.9275 22.242 17.8668 22.368 17.8668 22.522C17.8668 22.6667 17.9112 22.781 17.9998 22.865C18.0885 22.949 18.2028 23.0143 18.3428 23.061C18.4875 23.1077 18.6368 23.1543 18.7908 23.201C18.9495 23.243 19.0988 23.299 19.2388 23.369C19.3835 23.439 19.5002 23.5347 19.5888 23.656C19.6775 23.7773 19.7218 23.943 19.7218 24.153C19.7218 24.433 19.6192 24.657 19.4138 24.825C19.2085 24.9883 18.9332 25.07 18.5878 25.07ZM20.5613 25V21.745H20.9113V25H20.5613ZM20.7363 20.989C20.657 20.989 20.5893 20.961 20.5333 20.905C20.482 20.8443 20.4563 20.7743 20.4563 20.695C20.4563 20.6157 20.482 20.5503 20.5333 20.499C20.5893 20.443 20.657 20.415 20.7363 20.415C20.8156 20.415 20.8833 20.443 20.9393 20.499C20.9953 20.5503 21.0233 20.6157 21.0233 20.695C21.0233 20.7743 20.9953 20.8443 20.9393 20.905C20.8833 20.961 20.8156 20.989 20.7363 20.989ZM23.4532 25.07C23.1358 25.07 22.8488 24.9953 22.5922 24.846C22.3402 24.692 22.1395 24.4867 21.9902 24.23C21.8408 23.9687 21.7662 23.6793 21.7662 23.362C21.7662 23.0447 21.8408 22.76 21.9902 22.508C22.1395 22.2513 22.3402 22.0483 22.5922 21.899C22.8488 21.7497 23.1358 21.675 23.4532 21.675C23.7658 21.675 24.0482 21.7497 24.3002 21.899C24.5568 22.0483 24.7598 22.2513 24.9092 22.508C25.0585 22.76 25.1332 23.0447 25.1332 23.362C25.1332 23.684 25.0585 23.9733 24.9092 24.23C24.7598 24.4867 24.5568 24.692 24.3002 24.846C24.0482 24.9953 23.7658 25.07 23.4532 25.07ZM23.4532 24.734C23.7005 24.734 23.9222 24.6733 24.1182 24.552C24.3188 24.4307 24.4752 24.2673 24.5872 24.062C24.7038 23.852 24.7622 23.6163 24.7622 23.355C24.7622 23.0983 24.7038 22.8697 24.5872 22.669C24.4752 22.4683 24.3188 22.3097 24.1182 22.193C23.9222 22.0717 23.7005 22.011 23.4532 22.011C23.2012 22.011 22.9748 22.0717 22.7742 22.193C22.5782 22.3097 22.4218 22.4683 22.3052 22.669C22.1885 22.8697 22.1302 23.1007 22.1302 23.362C22.1302 23.6233 22.1885 23.8567 22.3052 24.062C22.4218 24.2673 22.5782 24.4307 22.7742 24.552C22.9748 24.6733 23.2012 24.734 23.4532 24.734ZM28.4252 25V23.068C28.4252 22.7507 28.3319 22.494 28.1452 22.298C27.9585 22.102 27.7112 22.004 27.4032 22.004C27.1932 22.004 27.0065 22.0507 26.8432 22.144C26.6845 22.2327 26.5585 22.3563 26.4652 22.515C26.3765 22.6737 26.3322 22.858 26.3322 23.068L26.1502 22.963C26.1502 22.7157 26.2085 22.4963 26.3252 22.305C26.4419 22.109 26.6005 21.955 26.8012 21.843C27.0019 21.731 27.2305 21.675 27.4872 21.675C27.7439 21.675 27.9679 21.7357 28.1592 21.857C28.3552 21.9737 28.5069 22.1347 28.6142 22.34C28.7215 22.5453 28.7752 22.774 28.7752 23.026V25H28.4252ZM25.9752 25V21.745H26.3322V25H25.9752ZM29.8673 25.672L30.2313 24.951L30.3713 24.923C30.3573 24.9603 30.334 24.9907 30.3013 25.014C30.2733 25.042 30.2336 25.056 30.1823 25.056C30.103 25.056 30.0306 25.0257 29.9653 24.965C29.9046 24.9043 29.8743 24.8273 29.8743 24.734C29.8743 24.636 29.9093 24.5543 29.9793 24.489C30.0493 24.419 30.1333 24.384 30.2313 24.384C30.32 24.384 30.397 24.419 30.4623 24.489C30.5323 24.5543 30.5673 24.636 30.5673 24.734C30.5673 24.776 30.5603 24.825 30.5463 24.881C30.537 24.9323 30.5113 25 30.4693 25.084L30.1053 25.798L29.8673 25.672ZM34.1241 25L32.8921 21.745H33.2631L34.3061 24.622H34.1521L35.1951 21.745H35.4051L36.4481 24.622H36.2941L37.3371 21.745H37.7081L36.4831 25H36.2661L35.2091 22.116H35.3981L34.3341 25H34.1241ZM38.3758 25V21.745H38.7258V25H38.3758ZM38.5508 20.989C38.4714 20.989 38.4038 20.961 38.3478 20.905C38.2964 20.8443 38.2708 20.7743 38.2708 20.695C38.2708 20.6157 38.2964 20.5503 38.3478 20.499C38.4038 20.443 38.4714 20.415 38.5508 20.415C38.6301 20.415 38.6978 20.443 38.7538 20.499C38.8098 20.5503 38.8378 20.6157 38.8378 20.695C38.8378 20.7743 38.8098 20.8443 38.7538 20.905C38.6978 20.961 38.6301 20.989 38.5508 20.989ZM40.3016 25V20.366H40.6586V25H40.3016ZM39.4616 22.06V21.745H41.4986V22.06H39.4616ZM44.6674 25V23.068C44.6674 22.7507 44.574 22.494 44.3874 22.298C44.2007 22.102 43.9534 22.004 43.6454 22.004C43.4354 22.004 43.2487 22.0507 43.0854 22.144C42.9267 22.2327 42.8007 22.3563 42.7074 22.515C42.6187 22.6737 42.5744 22.858 42.5744 23.068L42.3924 22.963C42.3924 22.7157 42.4507 22.4963 42.5674 22.305C42.684 22.109 42.8427 21.955 43.0434 21.843C43.244 21.731 43.4727 21.675 43.7294 21.675C43.986 21.675 44.21 21.7333 44.4014 21.85C44.5974 21.962 44.749 22.1207 44.8564 22.326C44.9637 22.5313 45.0174 22.7647 45.0174 23.026V25H44.6674ZM42.2174 25V20.086H42.5744V25H42.2174ZM47.4815 25.07C47.1642 25.07 46.8772 24.9953 46.6205 24.846C46.3685 24.692 46.1678 24.4867 46.0185 24.23C45.8692 23.9687 45.7945 23.6793 45.7945 23.362C45.7945 23.0447 45.8692 22.76 46.0185 22.508C46.1678 22.2513 46.3685 22.0483 46.6205 21.899C46.8772 21.7497 47.1642 21.675 47.4815 21.675C47.7942 21.675 48.0765 21.7497 48.3285 21.899C48.5852 22.0483 48.7882 22.2513 48.9375 22.508C49.0868 22.76 49.1615 23.0447 49.1615 23.362C49.1615 23.684 49.0868 23.9733 48.9375 24.23C48.7882 24.4867 48.5852 24.692 48.3285 24.846C48.0765 24.9953 47.7942 25.07 47.4815 25.07ZM47.4815 24.734C47.7288 24.734 47.9505 24.6733 48.1465 24.552C48.3472 24.4307 48.5035 24.2673 48.6155 24.062C48.7322 23.852 48.7905 23.6163 48.7905 23.355C48.7905 23.0983 48.7322 22.8697 48.6155 22.669C48.5035 22.4683 48.3472 22.3097 48.1465 22.193C47.9505 22.0717 47.7288 22.011 47.4815 22.011C47.2295 22.011 47.0032 22.0717 46.8025 22.193C46.6065 22.3097 46.4502 22.4683 46.3335 22.669C46.2168 22.8697 46.1585 23.1007 46.1585 23.362C46.1585 23.6233 46.2168 23.8567 46.3335 24.062C46.4502 24.2673 46.6065 24.4307 46.8025 24.552C47.0032 24.6733 47.2295 24.734 47.4815 24.734ZM51.2775 25.07C51.0162 25.07 50.7828 25.0093 50.5775 24.888C50.3722 24.7667 50.2112 24.5987 50.0945 24.384C49.9825 24.1693 49.9265 23.922 49.9265 23.642V21.745H50.2835V23.628C50.2835 23.8473 50.3232 24.041 50.4025 24.209C50.4865 24.3723 50.6032 24.5007 50.7525 24.594C50.9018 24.6873 51.0768 24.734 51.2775 24.734C51.5762 24.734 51.8142 24.6337 51.9915 24.433C52.1735 24.2277 52.2645 23.9593 52.2645 23.628V21.745H52.6215V23.642C52.6215 23.922 52.5632 24.1693 52.4465 24.384C52.3345 24.5987 52.1758 24.7667 51.9705 24.888C51.7698 25.0093 51.5388 25.07 51.2775 25.07ZM54.1034 25V20.366H54.4604V25H54.1034ZM53.2634 22.06V21.745H55.3004V22.06H53.2634ZM59.2297 25.07C58.9871 25.07 58.7631 25.021 58.5577 24.923C58.3571 24.825 58.1891 24.6897 58.0537 24.517C57.9184 24.3397 57.8297 24.1343 57.7877 23.901V22.837C57.8297 22.599 57.9184 22.3937 58.0537 22.221C58.1937 22.0437 58.3641 21.9083 58.5647 21.815C58.7701 21.7217 58.9917 21.675 59.2297 21.675C59.5377 21.675 59.8131 21.7497 60.0557 21.899C60.2984 22.0483 60.4897 22.2513 60.6297 22.508C60.7697 22.7647 60.8397 23.054 60.8397 23.376C60.8397 23.698 60.7697 23.9873 60.6297 24.244C60.4897 24.496 60.2984 24.6967 60.0557 24.846C59.8131 24.9953 59.5377 25.07 59.2297 25.07ZM57.5777 26.379V21.745H57.9347V22.557L57.8507 23.348L57.9347 24.146V26.379H57.5777ZM59.1667 24.734C59.4234 24.734 59.6497 24.6757 59.8457 24.559C60.0417 24.4423 60.1957 24.2813 60.3077 24.076C60.4197 23.8707 60.4757 23.635 60.4757 23.369C60.4757 23.103 60.4197 22.8673 60.3077 22.662C60.1957 22.4567 60.0417 22.298 59.8457 22.186C59.6544 22.0693 59.4351 22.011 59.1877 22.011C58.9357 22.011 58.7141 22.0693 58.5227 22.186C58.3361 22.298 58.1891 22.4567 58.0817 22.662C57.9744 22.8673 57.9207 23.1053 57.9207 23.376C57.9207 23.642 57.9721 23.8777 58.0747 24.083C58.1821 24.2837 58.3291 24.4423 58.5157 24.559C58.7071 24.6757 58.9241 24.734 59.1667 24.734ZM61.6861 25V21.745H62.0431V25H61.6861ZM62.0431 23.054L61.8681 22.991C61.8681 22.5757 61.9731 22.2537 62.1831 22.025C62.3931 21.7917 62.6685 21.675 63.0091 21.675C63.1678 21.675 63.3148 21.703 63.4501 21.759C63.5901 21.815 63.7185 21.906 63.8351 22.032L63.5971 22.284C63.5085 22.186 63.4128 22.116 63.3101 22.074C63.2075 22.032 63.0861 22.011 62.9461 22.011C62.6801 22.011 62.4631 22.102 62.2951 22.284C62.1271 22.4613 62.0431 22.718 62.0431 23.054ZM65.7955 25.07C65.4735 25.07 65.1818 24.9953 64.9205 24.846C64.6638 24.6967 64.4608 24.4937 64.3115 24.237C64.1621 23.9803 64.0875 23.691 64.0875 23.369C64.0875 23.047 64.1598 22.76 64.3045 22.508C64.4491 22.2513 64.6475 22.0483 64.8995 21.899C65.1561 21.7497 65.4408 21.675 65.7535 21.675C66.0521 21.675 66.3135 21.7427 66.5375 21.878C66.7661 22.0087 66.9435 22.1907 67.0695 22.424C67.2001 22.6573 67.2655 22.9257 67.2655 23.229C67.2655 23.257 67.2631 23.2943 67.2585 23.341C67.2538 23.383 67.2468 23.4367 67.2375 23.502H64.3395V23.194H67.0345L66.9155 23.292C66.9248 23.0353 66.8828 22.8113 66.7895 22.62C66.6961 22.424 66.5608 22.2723 66.3835 22.165C66.2061 22.0577 65.9938 22.004 65.7465 22.004C65.4898 22.004 65.2635 22.0623 65.0675 22.179C64.8715 22.291 64.7175 22.4473 64.6055 22.648C64.4981 22.8487 64.4445 23.082 64.4445 23.348C64.4445 23.628 64.5005 23.873 64.6125 24.083C64.7291 24.2883 64.8901 24.4493 65.0955 24.566C65.3008 24.678 65.5411 24.734 65.8165 24.734C66.0265 24.734 66.2201 24.6967 66.3975 24.622C66.5795 24.5427 66.7311 24.426 66.8525 24.272L67.0905 24.503C66.9411 24.6803 66.7521 24.8203 66.5235 24.923C66.2995 25.021 66.0568 25.07 65.7955 25.07ZM69.0507 25.07C68.8734 25.07 68.7054 25.0467 68.5467 25C68.3927 24.9487 68.2504 24.8787 68.1197 24.79C67.9937 24.7013 67.8817 24.5987 67.7837 24.482L68.0217 24.244C68.1524 24.4167 68.3041 24.545 68.4767 24.629C68.6541 24.7083 68.8477 24.748 69.0577 24.748C69.3004 24.748 69.4917 24.699 69.6317 24.601C69.7717 24.503 69.8417 24.3653 69.8417 24.188C69.8417 24.0293 69.7974 23.9057 69.7087 23.817C69.6201 23.7237 69.5034 23.6513 69.3587 23.6C69.2187 23.5487 69.0694 23.4997 68.9107 23.453C68.7567 23.4063 68.6074 23.3503 68.4627 23.285C68.3227 23.2197 68.2084 23.1287 68.1197 23.012C68.0311 22.8953 67.9867 22.739 67.9867 22.543C67.9867 22.3703 68.0311 22.2187 68.1197 22.088C68.2084 21.9573 68.3321 21.857 68.4907 21.787C68.6541 21.7123 68.8454 21.675 69.0647 21.675C69.3074 21.675 69.5244 21.717 69.7157 21.801C69.9117 21.885 70.0681 22.0087 70.1847 22.172L69.9537 22.41C69.8604 22.2793 69.7344 22.179 69.5757 22.109C69.4171 22.0343 69.2397 21.997 69.0437 21.997C68.8104 21.997 68.6331 22.046 68.5117 22.144C68.3904 22.242 68.3297 22.368 68.3297 22.522C68.3297 22.6667 68.3741 22.781 68.4627 22.865C68.5514 22.949 68.6657 23.0143 68.8057 23.061C68.9504 23.1077 69.0997 23.1543 69.2537 23.201C69.4124 23.243 69.5617 23.299 69.7017 23.369C69.8464 23.439 69.9631 23.5347 70.0517 23.656C70.1404 23.7773 70.1847 23.943 70.1847 24.153C70.1847 24.433 70.0821 24.657 69.8767 24.825C69.6714 24.9883 69.3961 25.07 69.0507 25.07ZM71.9902 25.07C71.8129 25.07 71.6449 25.0467 71.4862 25C71.3322 24.9487 71.1899 24.8787 71.0592 24.79C70.9332 24.7013 70.8212 24.5987 70.7232 24.482L70.9612 24.244C71.0919 24.4167 71.2435 24.545 71.4162 24.629C71.5935 24.7083 71.7872 24.748 71.9972 24.748C72.2399 24.748 72.4312 24.699 72.5712 24.601C72.7112 24.503 72.7812 24.3653 72.7812 24.188C72.7812 24.0293 72.7369 23.9057 72.6482 23.817C72.5595 23.7237 72.4429 23.6513 72.2982 23.6C72.1582 23.5487 72.0089 23.4997 71.8502 23.453C71.6962 23.4063 71.5469 23.3503 71.4022 23.285C71.2622 23.2197 71.1479 23.1287 71.0592 23.012C70.9705 22.8953 70.9262 22.739 70.9262 22.543C70.9262 22.3703 70.9705 22.2187 71.0592 22.088C71.1479 21.9573 71.2715 21.857 71.4302 21.787C71.5935 21.7123 71.7849 21.675 72.0042 21.675C72.2469 21.675 72.4639 21.717 72.6552 21.801C72.8512 21.885 73.0075 22.0087 73.1242 22.172L72.8932 22.41C72.7999 22.2793 72.6739 22.179 72.5152 22.109C72.3565 22.0343 72.1792 21.997 71.9832 21.997C71.7499 21.997 71.5725 22.046 71.4512 22.144C71.3299 22.242 71.2692 22.368 71.2692 22.522C71.2692 22.6667 71.3135 22.781 71.4022 22.865C71.4909 22.949 71.6052 23.0143 71.7452 23.061C71.8899 23.1077 72.0392 23.1543 72.1932 23.201C72.3519 23.243 72.5012 23.299 72.6412 23.369C72.7859 23.439 72.9025 23.5347 72.9912 23.656C73.0799 23.7773 73.1242 23.943 73.1242 24.153C73.1242 24.433 73.0215 24.657 72.8162 24.825C72.6109 24.9883 72.3355 25.07 71.9902 25.07ZM75.2306 25.07C74.9693 25.07 74.736 25.0093 74.5306 24.888C74.3253 24.7667 74.1643 24.5987 74.0476 24.384C73.9356 24.1693 73.8796 23.922 73.8796 23.642V21.745H74.2366V23.628C74.2366 23.8473 74.2763 24.041 74.3556 24.209C74.4396 24.3723 74.5563 24.5007 74.7056 24.594C74.855 24.6873 75.03 24.734 75.2306 24.734C75.5293 24.734 75.7673 24.6337 75.9446 24.433C76.1266 24.2277 76.2176 23.9593 76.2176 23.628V21.745H76.5746V23.642C76.5746 23.922 76.5163 24.1693 76.3996 24.384C76.2876 24.5987 76.129 24.7667 75.9236 24.888C75.723 25.0093 75.492 25.07 75.2306 25.07ZM77.5455 25V21.745H77.9025V25H77.5455ZM77.9025 23.054L77.7275 22.991C77.7275 22.5757 77.8325 22.2537 78.0425 22.025C78.2525 21.7917 78.5278 21.675 78.8685 21.675C79.0272 21.675 79.1742 21.703 79.3095 21.759C79.4495 21.815 79.5778 21.906 79.6945 22.032L79.4565 22.284C79.3678 22.186 79.2722 22.116 79.1695 22.074C79.0668 22.032 78.9455 22.011 78.8055 22.011C78.5395 22.011 78.3225 22.102 78.1545 22.284C77.9865 22.4613 77.9025 22.718 77.9025 23.054ZM81.6548 25.07C81.3328 25.07 81.0412 24.9953 80.7798 24.846C80.5232 24.6967 80.3202 24.4937 80.1708 24.237C80.0215 23.9803 79.9468 23.691 79.9468 23.369C79.9468 23.047 80.0192 22.76 80.1638 22.508C80.3085 22.2513 80.5068 22.0483 80.7588 21.899C81.0155 21.7497 81.3002 21.675 81.6128 21.675C81.9115 21.675 82.1728 21.7427 82.3968 21.878C82.6255 22.0087 82.8028 22.1907 82.9288 22.424C83.0595 22.6573 83.1248 22.9257 83.1248 23.229C83.1248 23.257 83.1225 23.2943 83.1178 23.341C83.1132 23.383 83.1062 23.4367 83.0968 23.502H80.1988V23.194H82.8938L82.7748 23.292C82.7842 23.0353 82.7422 22.8113 82.6488 22.62C82.5555 22.424 82.4202 22.2723 82.2428 22.165C82.0655 22.0577 81.8532 22.004 81.6058 22.004C81.3492 22.004 81.1228 22.0623 80.9268 22.179C80.7308 22.291 80.5768 22.4473 80.4648 22.648C80.3575 22.8487 80.3038 23.082 80.3038 23.348C80.3038 23.628 80.3598 23.873 80.4718 24.083C80.5885 24.2883 80.7495 24.4493 80.9548 24.566C81.1602 24.678 81.4005 24.734 81.6758 24.734C81.8858 24.734 82.0795 24.6967 82.2568 24.622C82.4388 24.5427 82.5905 24.426 82.7118 24.272L82.9498 24.503C82.8005 24.6803 82.6115 24.8203 82.3828 24.923C82.1588 25.021 81.9162 25.07 81.6548 25.07Z" fill="white"/>
</g>
<defs>
<clipPath id="clip0_99_20">
<rect width="102" height="27" fill="white"/>
</clipPath>
</defs>
</svg>
