<svg viewBox="0 0 40 40" fill="none" xmlns="http://www.w3.org/2000/svg">
<path d="M3.2317 21.7665C2.2561 20.7909 2.2561 19.2091 3.2317 18.2335L18.2335 3.2317C19.2091 2.2561 20.7909 2.2561 21.7665 3.2317L36.7682 18.2335C37.7439 19.2091 37.7439 20.7909 36.7682 21.7665L21.7665 36.7682C20.7909 37.7439 19.2091 37.7439 18.2335 36.7682L3.2317 21.7665Z" fill="#EE513B"/>
<path d="M15.1861 6.3269L13.667 7.84607L17.5906 11.7697C17.4319 12.1102 17.3432 12.49 17.3432 12.8905C17.3432 14.0275 18.0576 14.9976 19.062 15.3765V24.9747C18.0576 25.3536 17.3432 26.3237 17.3432 27.4607C17.3432 28.9277 18.5325 30.117 19.9995 30.117C21.4665 30.117 22.6557 28.9277 22.6557 27.4607C22.6557 26.43 22.0686 25.5362 21.2105 25.096V15.3896L24.9611 19.1402C24.8101 19.4739 24.7261 19.8442 24.7261 20.2342C24.7261 21.7012 25.9154 22.8905 27.3824 22.8905C28.8494 22.8905 30.0386 21.7012 30.0386 20.2342C30.0386 18.7672 28.8494 17.578 27.3824 17.578C27.0972 17.578 26.8227 17.6229 26.5652 17.706L22.5371 13.6779C22.6142 13.4291 22.6557 13.1646 22.6557 12.8905C22.6557 11.4235 21.4665 10.2342 19.9995 10.2342C19.7254 10.2342 19.461 10.2758 19.2121 10.3529L15.1861 6.3269Z" fill="white"/>
</svg>
