<svg viewBox="0 0 40 40" fill="none" xmlns="http://www.w3.org/2000/svg">
<path d="M20 36.6667C29.2047 36.6667 36.6667 29.2047 36.6667 20C36.6667 10.7952 29.2047 3.33333 20 3.33333C10.7952 3.33333 3.33333 10.7952 3.33333 20C3.33333 29.2047 10.7952 36.6667 20 36.6667Z" fill="#181717"/>
<path d="M5.6779 28.5292C7.70676 31.9282 10.9116 34.5438 14.731 35.8153C15.5649 35.9678 15.8688 35.4532 15.8688 35.0112C15.8688 34.8282 15.8657 34.5048 15.8616 34.0722C15.8568 33.571 15.8507 32.9233 15.8463 32.177C11.2103 33.1838 10.2323 29.9425 10.2323 29.9425C9.47409 28.0179 8.38134 27.5053 8.38134 27.5053C6.86809 26.4709 8.49592 26.4913 8.49592 26.4913C10.1688 26.6101 11.0487 28.2093 11.0487 28.2093C12.5353 30.7559 14.95 30.0203 15.8995 29.5946C16.0509 28.5173 16.4806 27.7826 16.9574 27.3662C13.2567 26.9457 9.36559 25.5153 9.36559 19.1287C9.36559 17.3096 10.0153 15.8219 11.0814 14.6566C10.9095 14.235 10.3376 12.5407 11.2441 10.2457C11.2441 10.2457 12.6438 9.79758 15.8278 11.9544C17.1569 11.5851 18.5832 11.3998 20.0003 11.3937C21.4153 11.3998 22.8416 11.5851 24.1727 11.9544C27.3547 9.79758 28.7513 10.2457 28.7513 10.2457C29.6609 12.5407 29.0889 14.235 28.9171 14.6566C29.9853 15.8219 30.6308 17.3096 30.6308 19.1287C30.6308 25.5317 26.7337 26.9405 23.0206 27.3528C23.6192 27.8675 24.1523 28.8845 24.1523 30.4397C24.1523 31.9293 24.1431 33.2268 24.137 34.0863C24.134 34.5119 24.1318 34.8302 24.1318 35.0112C24.1318 35.4573 24.4315 35.976 25.2777 35.8133C28.3203 34.7977 30.9726 32.9295 32.9503 30.4919C29.8945 34.259 25.2283 36.6667 19.9998 36.6667C13.9119 36.6667 8.5865 33.4027 5.6779 28.5292Z" fill="white"/>
</svg>
