<svg width="80" height="80" viewBox="0 0 80 80" fill="none" xmlns="http://www.w3.org/2000/svg">
<path d="M40 73.3332C58.4095 73.3332 73.3334 58.4093 73.3334 39.9998C73.3334 21.5903 58.4095 6.6665 40 6.6665C21.5905 6.6665 6.66669 21.5903 6.66669 39.9998C6.66669 58.4093 21.5905 73.3332 40 73.3332Z" fill="#0077B5"/>
<path fill-rule="evenodd" clip-rule="evenodd" d="M31.2911 23.8065C31.2911 25.8817 29.7111 27.561 27.2403 27.561C24.8656 27.561 23.2855 25.8817 23.3345 23.8065C23.2855 21.6305 24.8655 20 27.2876 20C29.7111 20 31.2438 21.6305 31.2911 23.8065ZM23.5331 54.6985V30.527H31.0451V54.6968L23.5331 54.6985Z" fill="white"/>
<path fill-rule="evenodd" clip-rule="evenodd" d="M37.0655 38.241C37.0655 35.2261 36.9662 32.6558 36.8668 30.5303H43.3918L43.7387 33.8416H43.887C44.8757 32.309 47.3465 29.9878 51.3502 29.9878C56.292 29.9878 59.9992 33.2503 59.9992 40.365V54.7016H52.487V41.3063C52.487 38.1906 51.4007 36.0665 48.6822 36.0665C46.6055 36.0665 45.3707 37.4998 44.8772 38.8828C44.6785 39.378 44.5807 40.0686 44.5807 40.7623V54.7016H37.0685V38.241H37.0655Z" fill="white"/>
</svg>
